<svg width="1393" height="858" viewBox="0 0 1393 858" fill="none" xmlns="http://www.w3.org/2000/svg">
<path d="M1136.46 840.35L1117.32 656.606L1097.22 840.35H1056.39L1033.42 633H1057.35L1077.44 820.891L1098.18 633H1136.14L1157.51 820.891L1177.29 633H1200.58L1177.29 840.35H1136.46Z" fill="#0085FF"/>
<rect x="-1.5" y="1.5" width="287" height="287" transform="matrix(-1 0 0 1 1259 568)" stroke="#0085FF" stroke-width="3"/>
<rect width="64.4444" height="48.3333" transform="matrix(-1 0 0 1 1149.22 568)" fill="#0085FF"/>
<path d="M875.988 839.715L862.279 762.33L848.571 839.715H820.27L804.572 696H821.155L835.084 828.439L849.898 750.17H875.103L890.359 828.439L904.288 696H920.429L904.288 839.715H875.988Z" fill="#0085FF"/>
<rect x="-1.5" y="1.5" width="198" height="198" transform="matrix(-1 0 0 1 960 656.948)" stroke="#0085FF" stroke-width="3"/>
<rect width="44.6667" height="33.5" transform="matrix(-1 0 0 1 884.833 656.948)" fill="#0085FF"/>
<rect x="-1.5" y="1.5" width="119" height="119" transform="matrix(-1 0 0 1 1390 736)" stroke="#0085FF" stroke-width="3"/>
<rect width="27.1111" height="20.3333" transform="matrix(-1 0 0 1 1345.56 736)" fill="#0085FF"/>
<rect x="-0.5" y="0.5" width="28" height="26" transform="matrix(-1 0 0 1 1307 825)" stroke="#0085FF"/>
<rect x="-0.5" y="0.5" width="28" height="26" transform="matrix(-1 0 0 1 1339 825)" stroke="#0085FF"/>
<circle cx="38.0794" cy="38.0794" r="36.5794" transform="matrix(-1 0 0 1 483 760)" stroke="#0085FF" stroke-width="3"/>
<path d="M444.921 835.341V760.595" stroke="#0085FF" stroke-width="3"/>
<path d="M481.29 798.079H407.883" stroke="#0085FF" stroke-width="3"/>
<path d="M455.333 762.677C466.989 791.449 466.93 806.978 455.333 833.63" stroke="#0085FF" stroke-width="3"/>
<path d="M434.509 762.677C422.853 791.449 422.912 806.978 434.509 833.63" stroke="#0085FF" stroke-width="3"/>
<path d="M474.001 775.172C450.952 785.735 438.272 785.695 416.064 775.172" stroke="#0085FF" stroke-width="3"/>
<path d="M473.629 821.01C450.579 810.447 437.9 810.487 415.692 821.01" stroke="#0085FF" stroke-width="3"/>
<rect x="-1.5" y="1.5" width="369" height="369" transform="matrix(-1 0 0 1 750 486)" stroke="#0085FF" stroke-width="3"/>
<rect width="82.6667" height="62" transform="matrix(-1 0 0 1 608.333 486)" fill="#0085FF"/>
<rect x="-0.5" y="0.5" width="99" height="94" transform="matrix(-1 0 0 1 492 751)" stroke="#0085FF"/>
<rect x="-0.5" y="0.5" width="99" height="94" transform="matrix(-1 0 0 1 602 751)" stroke="#0085FF"/>
<path d="M574 765L591.321 795H556.679L574 765ZM571 831V792H577V831H571Z" fill="#0085FF"/>
<path d="M533 765L550.321 795H515.679L533 765ZM530 831V792H536V831H530Z" fill="#0085FF"/>
<rect x="-1.5" y="1.5" width="369" height="369" transform="matrix(-1 0 0 1 369 486)" stroke="#0085FF" stroke-width="3"/>
<rect width="82.6667" height="62" transform="matrix(-1 0 0 1 227.333 486)" fill="#0085FF"/>
<path d="M188.046 810.886C205.232 810.886 219.145 804.202 229.784 790.835C240.696 777.468 246.152 754.962 246.152 723.317C238.787 732.046 230.057 738.73 219.964 743.368C209.87 748.005 199.231 750.324 188.046 750.324C177.134 750.324 166.768 748.142 156.947 743.777C147.399 739.412 139.078 733.138 131.986 724.954C124.893 716.77 119.164 706.676 114.799 694.673C110.707 682.67 108.661 669.166 108.661 654.162C108.661 639.158 110.707 625.654 114.799 613.651C119.164 601.648 124.893 591.554 131.986 583.37C139.078 575.186 147.399 568.912 156.947 564.547C166.768 560.182 177.134 558 188.046 558C199.231 558 209.87 560.319 219.964 564.956C230.057 569.594 238.65 576.278 245.743 585.007C245.47 581.188 245.334 577.505 245.334 573.959C245.334 570.14 245.334 566.184 245.334 562.092H278.07C277.797 575.459 277.661 588.554 277.661 601.375C277.661 614.197 277.661 627.018 277.661 639.84V722.498C277.661 744.868 275.206 763.555 270.295 778.559C265.658 793.836 259.11 805.975 250.654 814.978C242.197 823.98 232.24 830.391 220.782 834.21C209.597 838.302 197.458 840.348 184.363 840.348C167.45 840.348 152.309 837.211 138.942 830.936C125.848 824.935 115.345 816.751 107.434 806.384L136.078 789.607C142.079 796.973 149.445 802.292 158.174 805.566C166.904 809.112 176.861 810.886 188.046 810.886ZM195.821 587.462C181.09 587.462 168.404 593.6 157.765 605.876C147.399 617.88 142.216 633.975 142.216 654.162C142.216 674.349 147.399 690.581 157.765 702.857C168.404 714.86 181.09 720.862 195.821 720.862C210.279 720.862 222.828 714.86 233.467 702.857C244.106 690.581 249.426 674.349 249.426 654.162C249.426 633.975 244.106 617.88 233.467 605.876C222.828 593.6 210.279 587.462 195.821 587.462Z" fill="#0085FF"/>
<rect x="240.5" y="278.5" width="197" height="197" stroke="#0085FF" stroke-width="3"/>
<rect x="316.778" y="277" width="44.4444" height="33.3333" fill="#0085FF"/>
<path d="M337.9 385.38C333.793 385.38 329.98 384.94 326.46 384.06C322.94 383.033 319.713 381.713 316.78 380.1C313.553 381.567 311.06 383.253 309.3 385.16C307.54 386.92 306.66 388.9 306.66 391.1C306.66 393.74 307.613 395.793 309.52 397.26C311.426 398.58 313.92 399.24 317 399.24H361.66C371.926 399.24 380.213 401.807 386.52 406.94C392.826 412.073 395.98 419.333 395.98 428.72C395.98 437.227 394.073 443.973 390.26 448.96C386.446 454.093 381.606 457.98 375.74 460.62C369.873 463.26 363.346 464.947 356.16 465.68C349.12 466.56 342.3 467 335.7 467C328.513 467 321.766 466.487 315.46 465.46C309.153 464.58 303.653 462.967 298.96 460.62C294.266 458.42 290.526 455.267 287.74 451.16C285.1 447.2 283.78 442.14 283.78 435.98C283.78 430.553 285.1 425.933 287.74 422.12C290.38 418.307 293.533 415.007 297.2 412.22C294.413 410.313 292.213 407.82 290.6 404.74C288.986 401.66 288.18 398.213 288.18 394.4C288.18 388.973 289.866 384.353 293.24 380.54C296.76 376.58 301.233 373.28 306.66 370.64C304.753 367.853 303.286 364.773 302.26 361.4C301.233 357.88 300.72 354.14 300.72 350.18C300.72 339.767 304.166 331.333 311.06 324.88C317.953 318.427 326.9 315.2 337.9 315.2C343.62 315.2 348.826 316.08 353.52 317.84C358.213 319.6 362.173 322.02 365.4 325.1C368.186 321.873 371.266 319.453 374.64 317.84C378.16 316.08 381.533 315.2 384.76 315.2C389.746 315.2 393.706 316.08 396.64 317.84C399.72 319.453 401.993 321.067 403.46 322.68L394.44 333.9C392.973 332.873 391.36 332.067 389.6 331.48C387.986 330.747 386.3 330.38 384.54 330.38C382.78 330.38 380.946 331.04 379.04 332.36C377.133 333.68 375.226 335.513 373.32 337.86C373.906 339.767 374.346 341.747 374.64 343.8C375.08 345.853 375.3 347.98 375.3 350.18C375.3 360.74 371.853 369.247 364.96 375.7C358.066 382.153 349.046 385.38 337.9 385.38ZM337.9 368.66C343.766 368.66 348.46 366.973 351.98 363.6C355.646 360.08 357.48 355.607 357.48 350.18C357.48 344.753 355.646 340.353 351.98 336.98C348.46 333.607 343.766 331.92 337.9 331.92C332.033 331.92 327.34 333.607 323.82 336.98C320.446 340.353 318.76 344.753 318.76 350.18C318.76 355.607 320.446 360.08 323.82 363.6C327.34 366.973 332.033 368.66 337.9 368.66ZM301.38 434C301.38 440.747 304.313 445.073 310.18 446.98C316.193 448.887 325.873 449.84 339.22 449.84C344.206 449.84 348.973 449.62 353.52 449.18C358.213 448.887 362.32 448.08 365.84 446.76C369.36 445.587 372.146 443.753 374.2 441.26C376.4 438.913 377.5 435.687 377.5 431.58C377.353 426.593 375.74 422.853 372.66 420.36C369.726 417.72 365.106 416.4 358.8 416.4H311.5C307.54 419.627 304.9 422.633 303.58 425.42C302.26 428.207 301.526 431.067 301.38 434Z" fill="#0085FF"/>
<rect x="-1.5" y="1.5" width="119" height="119" transform="matrix(-1 0 0 1 402 146)" stroke="#0085FF" stroke-width="3"/>
<rect width="27.1111" height="20.3333" transform="matrix(-1 0 0 1 357.555 146)" fill="#0085FF"/>
<rect x="-0.5" y="0.5" width="28" height="26" transform="matrix(-1 0 0 1 319 235)" stroke="#0085FF"/>
<rect x="-0.5" y="0.5" width="28" height="26" transform="matrix(-1 0 0 1 351 235)" stroke="#0085FF"/>
<path d="M599.983 394.394H563.133L533.948 290.33V466.62H511.248V275H552.815L582.295 378.18L611.48 275H652.752V466.62H630.052V291.509L599.983 394.394Z" fill="#0085FF"/>
<rect x="-1.5" y="1.5" width="265" height="265" transform="matrix(-1 0 0 1 713 209)" stroke="#0085FF" stroke-width="3"/>
<rect width="59.5556" height="44.6667" transform="matrix(-1 0 0 1 611.778 209)" fill="#0085FF"/>
<path d="M833.3 626.8L853.76 582.58L807.78 479.4H828.24L863.44 560.8L899.52 479.4H918L852.22 626.8H833.3Z" fill="#0085FF"/>
<rect x="-1.5" y="1.5" width="197" height="197" transform="matrix(-1 0 0 1 960 448)" stroke="#0085FF" stroke-width="3"/>
<rect width="44.4444" height="33.3333" transform="matrix(-1 0 0 1 885.222 448)" fill="#0085FF"/>
<path d="M1027.36 533.528C1030.65 533.528 1033.29 532.413 1035.28 530.184C1037.39 528.072 1039.68 524.259 1042.14 518.744L1046.19 509.592L1009.23 426.52H1025.6L1053.94 491.992L1082.98 426.52H1097.76L1053.94 524.904C1050.77 532.061 1047.19 537.341 1043.2 540.744C1039.33 544.264 1034.05 546.083 1027.36 546.2C1019.62 546.2 1013.93 544.088 1010.29 539.864C1006.65 535.64 1004.83 530.536 1004.83 524.552C1004.83 521.619 1005.13 519.213 1005.71 517.336C1006.3 515.459 1007.06 513.757 1008 512.232L1018.56 515.928C1017.97 517.101 1017.5 518.333 1017.15 519.624C1016.8 521.032 1016.62 522.323 1016.62 523.496C1016.62 526.195 1017.5 528.541 1019.26 530.536C1021.02 532.531 1023.72 533.528 1027.36 533.528Z" fill="#0085FF"/>
<rect x="-1.5" y="1.5" width="157" height="157" transform="matrix(-1 0 0 1 1129 399)" stroke="#0085FF" stroke-width="3"/>
<rect width="35.5556" height="26.6667" transform="matrix(-1 0 0 1 1069.78 399)" fill="#0085FF"/>
<rect x="-1.5" y="1.5" width="227" height="227" transform="matrix(-1 0 0 1 952 209)" stroke="#0085FF" stroke-width="3"/>
<rect width="51.1111" height="38.3333" transform="matrix(-1 0 0 1 865.555 209)" fill="#0085FF"/>
<rect x="-0.5" y="0.5" width="60.828" height="57.7366" transform="matrix(-1 0 0 1 793.247 372.844)" stroke="#0085FF"/>
<rect x="-0.5" y="0.5" width="60.828" height="57.7366" transform="matrix(-1 0 0 1 861.258 372.844)" stroke="#0085FF"/>
<path d="M830.657 380H817V396.312C817 402.036 821.738 404.582 828.324 407.545V420.137H820.912V424H840.608V420.137H832.853V407.545C839.083 405.418 845 403.681 845 396.312V380H836.765V381.717L834.5 387.226H840.608L829.216 401.034L832.853 390.66H826.676L830.657 381.717V380Z" stroke="#0085FF" stroke-linejoin="round"/>
<path d="M750.929 396.595V386.32H747.146V385H756.119V386.32H752.336V396.595H750.929Z" fill="#0085FF"/>
<path d="M759.173 396.595H757.783L761.355 385H763.009L766.58 396.595H765.155L764.188 393.348H760.141L759.173 396.595ZM760.546 392.028H763.783L762.164 386.588L760.546 392.028Z" fill="#0085FF"/>
<path d="M768.245 385H769.811L772.784 389.477L775.546 385H777.077L773.576 390.655L777.517 396.595H775.898L772.626 391.636L769.547 396.595H767.963L771.817 390.405L768.245 385Z" fill="#0085FF"/>
<path d="M744 418V406.405H751.759V407.725H745.408V411.65H749.612V412.97H745.408V418H744Z" fill="#0085FF"/>
<path d="M753.635 418V406.405H758.209C759.112 406.405 759.863 406.679 760.461 407.226C761.071 407.761 761.376 408.475 761.376 409.366C761.376 410.258 761.153 410.99 760.707 411.561C760.262 412.119 759.74 412.476 759.142 412.631L761.763 418H760.127L757.628 412.72H755.042V418H753.635ZM757.611 407.725H755.042V411.4H758.139C758.608 411.4 759.018 411.216 759.37 410.847C759.734 410.466 759.916 410.003 759.916 409.456C759.916 408.909 759.699 408.486 759.265 408.189C758.831 407.88 758.279 407.725 757.611 407.725Z" fill="#0085FF"/>
<path d="M771.45 416.68V418H764.325V406.405H771.38V407.725H765.732V411.239H770.113V412.559H765.732V416.68H771.45Z" fill="#0085FF"/>
<path d="M782 416.68V418H774.874V406.405H781.93V407.725H776.282V411.239H780.663V412.559H776.282V416.68H782Z" fill="#0085FF"/>
<path d="M711.88 182H686.8L664.14 52.42V182H647.2V39H678.66L700.22 167.26L721.56 39H752.8V182H735.86V53.08L711.88 182Z" fill="#0085FF"/>
<rect x="-1.5" y="1.5" width="197" height="197" transform="matrix(-1 0 0 1 797 0)" stroke="#0085FF" stroke-width="3"/>
<rect width="44.4444" height="33.3333" transform="matrix(-1 0 0 1 722.222 0)" fill="#0085FF"/>
</svg>
