<svg width="1137" height="462" viewBox="0 0 1137 462" fill="none" xmlns="http://www.w3.org/2000/svg">
<g clip-path="url(#clip0_147_197)">
<path d="M230.521 460.399C357.48 460.399 460.399 357.48 460.399 230.521C460.399 103.563 357.48 0.643555 230.521 0.643555C103.563 0.643555 0.643555 103.563 0.643555 230.521C0.643555 357.48 103.563 460.399 230.521 460.399Z" fill="white" stroke="white" stroke-width="3" stroke-miterlimit="10"/>
<path d="M230.521 443.323C348.048 443.323 443.323 348.048 443.323 230.521C443.323 112.995 348.048 17.7202 230.521 17.7202C112.995 17.7202 17.7202 112.995 17.7202 230.521C17.7202 348.048 112.995 443.323 230.521 443.323Z" stroke="#0085FF" stroke-width="3" stroke-miterlimit="10"/>
<path d="M233.149 17.7202H227.895V38.7376H233.149V17.7202Z" fill="#0085FF"/>
<path d="M126.393 44.9126L121.843 47.5398L132.351 65.7414L136.902 63.1142L126.393 44.9126Z" fill="#0085FF"/>
<path d="M47.5437 121.839L44.9165 126.39L63.1181 136.898L65.7453 132.348L47.5437 121.839Z" fill="#0085FF"/>
<path d="M17.7202 227.894V233.149H38.7376V227.894H17.7202Z" fill="#0085FF"/>
<path d="M44.9134 334.641L47.5405 339.191L65.7421 328.682L63.115 324.132L44.9134 334.641Z" fill="#0085FF"/>
<path d="M121.836 413.486L126.386 416.113L136.895 397.911L132.345 395.284L121.836 413.486Z" fill="#0085FF"/>
<path d="M227.895 443.323H233.149V422.305H227.895V443.323Z" fill="#0085FF"/>
<path d="M334.64 416.113L339.19 413.486L328.681 395.284L324.131 397.911L334.64 416.113Z" fill="#0085FF"/>
<path d="M411.127 341.476L413.754 336.905L395.469 326.396L392.842 330.968L411.127 341.476Z" fill="#0085FF"/>
<path d="M443.323 233.149V227.894H422.305V233.149H443.323Z" fill="#0085FF"/>
<path d="M416.127 126.394L413.5 121.844L395.298 132.352L397.925 136.903L416.127 126.394Z" fill="#0085FF"/>
<path d="M341.178 48.8039L336.607 46.1768L326.098 64.4619L330.67 67.0891L341.178 48.8039Z" fill="#0085FF"/>
<path d="M230.022 62.6056V65.5217H209.255V62.6056H218.87V43.2564L212.486 47.0001L210.397 44.8721L218.87 39.9068H222.023V62.6056H230.022Z" fill="#0085FF"/>
<path d="M252.154 65.5217H233.869C233.869 64.0243 234.079 62.7107 234.499 61.581C234.92 60.4513 235.471 59.4661 236.155 58.6254C236.838 57.7584 237.613 56.9966 238.48 56.3398C239.373 55.6567 240.279 55.0393 241.199 54.4876C242.092 53.9359 242.959 53.4105 243.8 52.9113C244.667 52.4121 245.428 51.8867 246.085 51.335C246.768 50.7833 247.307 50.179 247.701 49.5222C248.121 48.8654 248.332 48.1036 248.332 47.2366C248.332 46.4222 248.161 45.726 247.819 45.148C247.478 44.57 247.044 44.0971 246.519 43.7293C246.02 43.3615 245.455 43.0988 244.824 42.9412C244.22 42.7835 243.642 42.7047 243.09 42.7047C241.383 42.7047 239.951 43.2564 238.795 44.3598C237.665 45.437 237.1 46.7374 237.1 48.2612H234.066C234.066 47.1315 234.289 46.0412 234.736 44.9904C235.182 43.9132 235.8 42.9806 236.588 42.1924C237.402 41.378 238.375 40.7343 239.504 40.2614C240.634 39.7623 241.895 39.5127 243.287 39.5127C244.364 39.5127 245.402 39.6966 246.401 40.0644C247.399 40.4322 248.266 40.9445 249.001 41.6013C249.763 42.2581 250.368 43.0594 250.814 44.0052C251.261 44.9247 251.484 45.9493 251.484 47.079C251.484 48.2612 251.274 49.2989 250.854 50.1922C250.46 51.0854 249.921 51.8867 249.238 52.596C248.581 53.2791 247.819 53.8965 246.952 54.4482C246.112 54.9999 245.245 55.5385 244.351 56.0639C242.854 56.9571 241.435 57.8898 240.095 58.8618C238.755 59.8339 237.849 61.0818 237.376 62.6056H252.154V65.5217Z" fill="#0085FF"/>
<path d="M149.447 90.7558V93.6719H128.679V90.7558H138.295V71.4066L131.91 75.1503L129.822 73.0223L138.295 68.057H141.447V90.7558H149.447Z" fill="#0085FF"/>
<path d="M173.076 90.7558V93.6719H152.308V90.7558H161.924V71.4066L155.54 75.1503L153.451 73.0223L161.924 68.057H165.076V90.7558H173.076Z" fill="#0085FF"/>
<path d="M93.1465 148.252V151.168H72.3787V148.252H81.9941V128.902L75.6101 132.646L73.5215 130.518L81.9941 125.553H85.1467V148.252H93.1465Z" fill="#0085FF"/>
<path d="M105.623 151.562C104.152 151.562 102.799 151.246 101.564 150.616C100.356 149.985 99.3181 149.092 98.4511 147.936C97.5842 146.78 96.9142 145.401 96.4413 143.798C95.9684 142.17 95.732 140.37 95.732 138.4C95.732 136.429 95.9684 134.63 96.4413 133.001C96.9142 131.346 97.5842 129.94 98.4511 128.784C99.3181 127.628 100.356 126.735 101.564 126.104C102.799 125.474 104.152 125.159 105.623 125.159C107.095 125.159 108.434 125.474 109.643 126.104C110.878 126.735 111.929 127.628 112.796 128.784C113.662 129.94 114.332 131.346 114.805 133.001C115.278 134.63 115.515 136.429 115.515 138.4C115.515 140.37 115.278 142.17 114.805 143.798C114.332 145.401 113.662 146.78 112.796 147.936C111.929 149.092 110.878 149.985 109.643 150.616C108.434 151.246 107.095 151.562 105.623 151.562ZM98.924 138.4C98.924 139.529 99.0028 140.593 99.1605 141.592C99.3444 142.564 99.5939 143.457 99.9092 144.271L109.919 130.045C109.341 129.388 108.684 128.876 107.948 128.508C107.239 128.14 106.464 127.957 105.623 127.957C103.6 127.957 101.972 128.916 100.737 130.833C99.5283 132.751 98.924 135.273 98.924 138.4ZM105.623 148.764C106.622 148.764 107.528 148.514 108.342 148.015C109.183 147.516 109.892 146.82 110.47 145.926C111.048 145.007 111.495 143.917 111.81 142.656C112.152 141.368 112.323 139.95 112.323 138.4C112.323 137.296 112.244 136.272 112.086 135.326C111.929 134.354 111.692 133.474 111.377 132.685L101.446 146.833C101.998 147.437 102.628 147.91 103.338 148.252C104.047 148.593 104.809 148.764 105.623 148.764Z" fill="#0085FF"/>
<path d="M60.5695 212.25C61.9094 212.25 63.1573 212.499 64.3132 212.998C65.4692 213.471 66.4675 214.167 67.3082 215.087C68.1489 215.98 68.8057 217.097 69.2786 218.437C69.7778 219.776 70.0273 221.3 70.0273 223.008C70.0273 225.635 69.6858 227.934 69.0027 229.904C68.3197 231.875 67.4002 233.503 66.2442 234.791C65.0882 236.078 63.7352 237.05 62.1852 237.707C60.6615 238.337 59.0457 238.653 57.3381 238.653C56.5499 238.653 55.7486 238.574 54.9342 238.416C54.1461 238.285 53.3448 238.075 52.5303 237.786L53.4761 235.106C54.1066 235.316 54.724 235.474 55.3283 235.579C55.9325 235.684 56.5236 235.736 57.1016 235.736C58.4415 235.736 59.6894 235.487 60.8454 234.988C62.0013 234.462 62.9996 233.753 63.8403 232.86C64.681 231.94 65.3641 230.85 65.8895 229.589C66.4412 228.328 66.7828 226.962 66.9141 225.49C66.2573 226.463 65.3247 227.277 64.1162 227.934C62.934 228.591 61.5153 228.919 59.8602 228.919C58.5203 228.919 57.3381 228.722 56.3135 228.328C55.2889 227.908 54.435 227.356 53.752 226.673C53.0952 225.963 52.596 225.136 52.2545 224.19C51.913 223.244 51.7422 222.233 51.7422 221.156C51.7422 218.476 52.5435 216.322 54.1461 214.693C55.7749 213.064 57.9161 212.25 60.5695 212.25ZM60.5695 215.008C58.9932 215.008 57.6271 215.507 56.4711 216.506C55.3151 217.478 54.7372 218.909 54.7372 220.801C54.7372 222.561 55.2889 223.914 56.3923 224.86C57.4957 225.779 58.8881 226.239 60.5695 226.239C62.1721 226.239 63.5513 225.714 64.7073 224.663C65.8633 223.586 66.4412 222.298 66.4412 220.801C66.4412 219.225 65.8633 217.872 64.7073 216.742C63.5513 215.586 62.1721 215.008 60.5695 215.008Z" fill="#0085FF"/>
<path d="M81.9941 321.593C79.0254 321.593 76.6478 320.91 74.8613 319.543C73.0749 318.177 72.1816 316.351 72.1816 314.066C72.1816 312.568 72.5757 311.255 73.3638 310.125C74.152 308.995 75.2554 308.128 76.6741 307.524C75.4656 306.972 74.5198 306.224 73.8367 305.278C73.1537 304.306 72.8121 303.176 72.8121 301.889C72.8121 299.866 73.6528 298.25 75.3342 297.042C77.0156 295.807 79.2487 295.189 82.0335 295.189C84.7921 295.189 87.012 295.807 88.6934 297.042C90.3748 298.25 91.2155 299.866 91.2155 301.889C91.2155 303.176 90.874 304.306 90.1909 305.278C89.5078 306.224 88.5489 306.972 87.3142 307.524C88.7328 308.128 89.8362 308.995 90.6244 310.125C91.4388 311.255 91.846 312.568 91.846 314.066C91.846 316.351 90.9397 318.177 89.1269 319.543C87.3404 320.91 84.9628 321.593 81.9941 321.593ZM81.9941 306.342C83.7543 306.342 85.173 305.961 86.2501 305.199C87.3273 304.411 87.8659 303.373 87.8659 302.086C87.8659 300.798 87.3273 299.787 86.2501 299.051C85.173 298.316 83.7543 297.948 81.9941 297.948C80.2339 297.948 78.8152 298.316 77.7381 299.051C76.661 299.787 76.1224 300.798 76.1224 302.086C76.1224 303.373 76.661 304.411 77.7381 305.199C78.8152 305.961 80.2339 306.342 81.9941 306.342ZM81.9941 318.834C83.9645 318.834 85.5408 318.387 86.723 317.494C87.9315 316.575 88.5358 315.366 88.5358 313.869C88.5358 312.319 87.9315 311.071 86.723 310.125C85.5408 309.179 83.9645 308.706 81.9941 308.706C80.0237 308.706 78.4343 309.179 77.2258 310.125C76.0436 311.071 75.4524 312.319 75.4524 313.869C75.4524 315.366 76.0436 316.575 77.2258 317.494C78.4343 318.387 80.0237 318.834 81.9941 318.834Z" fill="#0085FF"/>
<path d="M139.674 382.372C139.674 377.302 140.357 372.967 141.723 369.368C143.115 365.742 145.651 362.511 149.329 359.673H136.915V363.851H133.763V356.757H153.624V359.673C149.604 362.563 146.78 365.795 145.151 369.368C143.549 372.941 142.748 377.276 142.748 382.372H139.674Z" fill="#0085FF"/>
<path d="M230.272 409.13C228.932 409.13 227.684 408.894 226.528 408.421C225.372 407.922 224.374 407.225 223.533 406.332C222.693 405.413 222.023 404.283 221.523 402.943C221.051 401.603 220.814 400.079 220.814 398.372C220.814 395.745 221.156 393.446 221.839 391.475C222.522 389.505 223.441 387.876 224.597 386.589C225.753 385.302 227.093 384.343 228.617 383.712C230.167 383.055 231.796 382.727 233.503 382.727C234.292 382.727 235.08 382.806 235.868 382.963C236.682 383.095 237.497 383.305 238.311 383.594L237.365 386.274C236.735 386.064 236.117 385.906 235.513 385.801C234.909 385.696 234.318 385.643 233.74 385.643C232.4 385.643 231.152 385.906 229.996 386.431C228.84 386.93 227.842 387.64 227.001 388.559C226.16 389.453 225.464 390.53 224.913 391.791C224.387 393.052 224.059 394.418 223.927 395.889C224.584 394.917 225.504 394.103 226.686 393.446C227.894 392.789 229.326 392.461 230.981 392.461C232.321 392.461 233.503 392.671 234.528 393.091C235.553 393.485 236.393 394.037 237.05 394.746C237.733 395.429 238.245 396.244 238.587 397.19C238.928 398.135 239.099 399.147 239.099 400.224C239.099 402.904 238.285 405.058 236.656 406.687C235.053 408.316 232.925 409.13 230.272 409.13ZM230.272 406.372C231.848 406.372 233.214 405.886 234.37 404.913C235.526 403.915 236.104 402.47 236.104 400.579C236.104 398.818 235.553 397.479 234.449 396.559C233.346 395.613 231.953 395.14 230.272 395.14C228.669 395.14 227.29 395.679 226.134 396.756C224.978 397.807 224.4 399.081 224.4 400.579C224.4 402.155 224.978 403.521 226.134 404.677C227.29 405.807 228.669 406.372 230.272 406.372Z" fill="#0085FF"/>
<path d="M316.312 379.561C316.575 379.64 316.903 379.719 317.297 379.798C317.691 379.85 318.098 379.876 318.519 379.876C319.754 379.876 320.975 379.798 322.184 379.64C323.418 379.456 324.509 379.115 325.455 378.615C326.4 378.116 327.162 377.42 327.74 376.527C328.344 375.607 328.647 374.425 328.647 372.98C328.647 371.535 328.279 370.353 327.543 369.434C326.834 368.488 325.77 368.015 324.351 368.015C323.274 368.015 322.249 368.291 321.277 368.842C320.305 369.368 319.622 369.92 319.228 370.497H316.312L317.415 356.941H332.942V359.857H320.095L319.465 367.581C320.2 366.819 321.015 366.255 321.908 365.887C322.827 365.493 323.905 365.296 325.139 365.296C326.033 365.296 326.873 365.44 327.661 365.729C328.476 366.018 329.185 366.452 329.789 367.03C330.42 367.608 330.919 368.343 331.287 369.236C331.655 370.103 331.839 371.128 331.839 372.31C331.839 374.176 331.484 375.791 330.775 377.157C330.091 378.497 329.159 379.601 327.977 380.468C326.794 381.308 325.402 381.939 323.799 382.359C322.197 382.753 320.502 382.95 318.716 382.95C318.085 382.95 317.442 382.911 316.785 382.832C316.154 382.78 315.603 382.674 315.13 382.517L316.312 379.561Z" fill="#0085FF"/>
<path d="M381.505 321.199H378.353V314.893H367.319V312.174L377.052 295.584H381.505V312.174H387.811V314.893H381.505V321.199ZM370.629 312.174H378.353V298.894L370.629 312.174Z" fill="#0085FF"/>
<path d="M392.303 238.613L393.643 235.776C393.879 235.828 394.155 235.868 394.47 235.894C394.812 235.92 395.206 235.934 395.653 235.934C396.887 235.934 398.175 235.789 399.515 235.5C400.854 235.185 402.076 234.712 403.18 234.081C404.283 233.425 405.189 232.584 405.899 231.559C406.608 230.508 406.963 229.26 406.963 227.816C406.963 226.686 406.661 225.753 406.056 225.018C405.478 224.256 404.48 223.875 403.061 223.875C402.457 223.875 401.892 224.006 401.367 224.269C400.868 224.505 400.329 224.873 399.751 225.372L398.569 226.436L396.441 224.426L406.175 215.914H393.446V212.998H410.076V215.914L403.652 221.786C403.836 221.734 404.033 221.694 404.244 221.668C404.48 221.642 404.703 221.629 404.913 221.629C406.332 221.629 407.554 222.141 408.578 223.165C409.629 224.164 410.155 225.648 410.155 227.618C410.155 229.458 409.747 231.086 408.933 232.505C408.119 233.924 407.041 235.119 405.702 236.091C404.362 237.037 402.825 237.759 401.091 238.259C399.383 238.758 397.636 239.007 395.85 239.007C395.219 239.007 394.589 238.981 393.958 238.928C393.328 238.876 392.776 238.771 392.303 238.613Z" fill="#0085FF"/>
<path d="M383.003 151.733H364.718C364.718 150.235 364.928 148.921 365.348 147.792C365.769 146.662 366.32 145.677 367.003 144.836C367.686 143.969 368.461 143.207 369.328 142.551C370.222 141.867 371.128 141.25 372.047 140.698C372.941 140.147 373.808 139.621 374.648 139.122C375.515 138.623 376.277 138.097 376.934 137.546C377.617 136.994 378.156 136.39 378.55 135.733C378.97 135.076 379.18 134.314 379.18 133.447C379.18 132.633 379.01 131.937 378.668 131.359C378.326 130.781 377.893 130.308 377.368 129.94C376.868 129.572 376.304 129.31 375.673 129.152C375.069 128.994 374.491 128.916 373.939 128.916C372.231 128.916 370.8 129.467 369.644 130.571C368.514 131.648 367.949 132.948 367.949 134.472H364.915C364.915 133.342 365.138 132.252 365.585 131.201C366.031 130.124 366.649 129.191 367.437 128.403C368.251 127.589 369.223 126.945 370.353 126.472C371.483 125.973 372.744 125.723 374.136 125.723C375.213 125.723 376.251 125.907 377.249 126.275C378.248 126.643 379.115 127.155 379.85 127.812C380.612 128.469 381.216 129.27 381.663 130.216C382.11 131.135 382.333 132.16 382.333 133.29C382.333 134.472 382.123 135.51 381.702 136.403C381.308 137.296 380.77 138.097 380.087 138.807C379.43 139.49 378.668 140.107 377.801 140.659C376.96 141.211 376.093 141.749 375.2 142.275C373.703 143.168 372.284 144.101 370.944 145.073C369.604 146.045 368.698 147.293 368.225 148.816H383.003V151.733Z" fill="#0085FF"/>
<path d="M327.28 89.5998V92.516H306.513V89.5998H316.128V70.2507L309.744 73.9944L307.655 71.8664L316.128 66.901H319.281V89.5998H327.28Z" fill="#0085FF"/>
<path d="M230.521 236.433C233.786 236.433 236.433 233.786 236.433 230.521C236.433 227.257 233.786 224.61 230.521 224.61C227.257 224.61 224.61 227.257 224.61 230.521C224.61 233.786 227.257 236.433 230.521 236.433Z" fill="#0085FF"/>
<path d="M298.171 118.21L230.521 230.522L304.306 275.275" stroke="#0085FF" stroke-width="7" stroke-miterlimit="10"/>
</g>
<g clip-path="url(#clip1_147_197)">
<path d="M905.521 460.399C1032.48 460.399 1135.4 357.48 1135.4 230.521C1135.4 103.563 1032.48 0.643555 905.521 0.643555C778.563 0.643555 675.644 103.563 675.644 230.521C675.644 357.48 778.563 460.399 905.521 460.399Z" fill="white" stroke="white" stroke-width="3" stroke-miterlimit="10"/>
<path d="M905.521 443.323C1023.05 443.323 1118.32 348.048 1118.32 230.521C1118.32 112.995 1023.05 17.7202 905.521 17.7202C787.995 17.7202 692.72 112.995 692.72 230.521C692.72 348.048 787.995 443.323 905.521 443.323Z" fill="white" stroke="#0085FF" stroke-width="3" stroke-miterlimit="10"/>
<path d="M908.149 17.7202H902.895V38.7376H908.149V17.7202Z" fill="#0085FF"/>
<path d="M801.393 44.9126L796.843 47.5398L807.351 65.7414L811.902 63.1142L801.393 44.9126Z" fill="#0085FF"/>
<path d="M722.544 121.839L719.917 126.39L738.118 136.898L740.745 132.348L722.544 121.839Z" fill="#0085FF"/>
<path d="M692.72 227.894V233.149H713.738V227.894H692.72Z" fill="#0085FF"/>
<path d="M719.913 334.641L722.541 339.191L740.742 328.682L738.115 324.132L719.913 334.641Z" fill="#0085FF"/>
<path d="M796.836 413.486L801.386 416.113L811.895 397.911L807.345 395.284L796.836 413.486Z" fill="#0085FF"/>
<path d="M902.895 443.323H908.149V422.305H902.895V443.323Z" fill="#0085FF"/>
<path d="M1009.64 416.113L1014.19 413.486L1003.68 395.284L999.131 397.911L1009.64 416.113Z" fill="#0085FF"/>
<path d="M1086.13 341.476L1088.75 336.905L1070.47 326.396L1067.84 330.968L1086.13 341.476Z" fill="#0085FF"/>
<path d="M1118.32 233.149V227.894H1097.31V233.149H1118.32Z" fill="#0085FF"/>
<path d="M1091.13 126.394L1088.5 121.844L1070.3 132.352L1072.93 136.903L1091.13 126.394Z" fill="#0085FF"/>
<path d="M1016.18 48.8039L1011.61 46.1768L1001.1 64.4619L1005.67 67.0891L1016.18 48.8039Z" fill="#0085FF"/>
<path d="M905.022 62.6056V65.5217H884.255V62.6056H893.87V43.2564L887.486 47.0001L885.397 44.8721L893.87 39.9068H897.023V62.6056H905.022Z" fill="#0085FF"/>
<path d="M927.154 65.5217H908.869C908.869 64.0243 909.079 62.7107 909.499 61.581C909.92 60.4513 910.471 59.4661 911.155 58.6254C911.838 57.7584 912.613 56.9966 913.48 56.3398C914.373 55.6567 915.279 55.0393 916.199 54.4876C917.092 53.9359 917.959 53.4105 918.8 52.9113C919.667 52.4121 920.428 51.8867 921.085 51.335C921.768 50.7833 922.307 50.179 922.701 49.5222C923.121 48.8654 923.332 48.1036 923.332 47.2366C923.332 46.4222 923.161 45.726 922.819 45.148C922.478 44.57 922.044 44.0971 921.519 43.7293C921.02 43.3615 920.455 43.0988 919.824 42.9412C919.22 42.7835 918.642 42.7047 918.09 42.7047C916.383 42.7047 914.951 43.2564 913.795 44.3598C912.665 45.437 912.1 46.7374 912.1 48.2612H909.066C909.066 47.1315 909.289 46.0412 909.736 44.9904C910.182 43.9132 910.8 42.9806 911.588 42.1924C912.402 41.378 913.375 40.7343 914.504 40.2614C915.634 39.7623 916.895 39.5127 918.287 39.5127C919.364 39.5127 920.402 39.6966 921.401 40.0644C922.399 40.4322 923.266 40.9445 924.001 41.6013C924.763 42.2581 925.368 43.0594 925.814 44.0052C926.261 44.9247 926.484 45.9493 926.484 47.079C926.484 48.2612 926.274 49.2989 925.854 50.1922C925.46 51.0854 924.921 51.8867 924.238 52.596C923.581 53.2791 922.819 53.8965 921.952 54.4482C921.112 54.9999 920.245 55.5385 919.351 56.0639C917.854 56.9571 916.435 57.8898 915.095 58.8618C913.755 59.8339 912.849 61.0818 912.376 62.6056H927.154V65.5217Z" fill="#0085FF"/>
<path d="M824.447 90.7558V93.6719H803.679V90.7558H813.295V71.4066L806.91 75.1503L804.822 73.0223L813.295 68.057H816.447V90.7558H824.447Z" fill="#0085FF"/>
<path d="M848.076 90.7558V93.6719H827.308V90.7558H836.924V71.4066L830.54 75.1503L828.451 73.0223L836.924 68.057H840.076V90.7558H848.076Z" fill="#0085FF"/>
<path d="M768.146 148.252V151.168H747.379V148.252H756.994V128.902L750.61 132.646L748.521 130.518L756.994 125.553H760.147V148.252H768.146Z" fill="#0085FF"/>
<path d="M780.623 151.562C779.152 151.562 777.799 151.246 776.564 150.616C775.356 149.985 774.318 149.092 773.451 147.936C772.584 146.78 771.914 145.401 771.441 143.798C770.968 142.17 770.732 140.37 770.732 138.4C770.732 136.429 770.968 134.63 771.441 133.001C771.914 131.346 772.584 129.94 773.451 128.784C774.318 127.628 775.356 126.735 776.564 126.104C777.799 125.474 779.152 125.159 780.623 125.159C782.095 125.159 783.434 125.474 784.643 126.104C785.878 126.735 786.929 127.628 787.796 128.784C788.662 129.94 789.332 131.346 789.805 133.001C790.278 134.63 790.515 136.429 790.515 138.4C790.515 140.37 790.278 142.17 789.805 143.798C789.332 145.401 788.662 146.78 787.796 147.936C786.929 149.092 785.878 149.985 784.643 150.616C783.434 151.246 782.095 151.562 780.623 151.562ZM773.924 138.4C773.924 139.529 774.003 140.593 774.16 141.592C774.344 142.564 774.594 143.457 774.909 144.271L784.919 130.045C784.341 129.388 783.684 128.876 782.948 128.508C782.239 128.14 781.464 127.957 780.623 127.957C778.6 127.957 776.972 128.916 775.737 130.833C774.528 132.751 773.924 135.273 773.924 138.4ZM780.623 148.764C781.622 148.764 782.528 148.514 783.342 148.015C784.183 147.516 784.892 146.82 785.47 145.926C786.048 145.007 786.495 143.917 786.81 142.656C787.152 141.368 787.323 139.95 787.323 138.4C787.323 137.296 787.244 136.272 787.086 135.326C786.929 134.354 786.692 133.474 786.377 132.685L776.446 146.833C776.998 147.437 777.628 147.91 778.338 148.252C779.047 148.593 779.809 148.764 780.623 148.764Z" fill="#0085FF"/>
<path d="M735.569 212.25C736.909 212.25 738.157 212.499 739.313 212.998C740.469 213.471 741.468 214.167 742.308 215.087C743.149 215.98 743.806 217.097 744.279 218.437C744.778 219.776 745.027 221.3 745.027 223.008C745.027 225.635 744.686 227.934 744.003 229.904C743.32 231.875 742.4 233.503 741.244 234.791C740.088 236.078 738.735 237.05 737.185 237.707C735.661 238.337 734.046 238.653 732.338 238.653C731.55 238.653 730.749 238.574 729.934 238.416C729.146 238.285 728.345 238.075 727.53 237.786L728.476 235.106C729.107 235.316 729.724 235.474 730.328 235.579C730.933 235.684 731.524 235.736 732.102 235.736C733.441 235.736 734.689 235.487 735.845 234.988C737.001 234.462 738 233.753 738.84 232.86C739.681 231.94 740.364 230.85 740.89 229.589C741.441 228.328 741.783 226.962 741.914 225.49C741.257 226.463 740.325 227.277 739.116 227.934C737.934 228.591 736.515 228.919 734.86 228.919C733.52 228.919 732.338 228.722 731.313 228.328C730.289 227.908 729.435 227.356 728.752 226.673C728.095 225.963 727.596 225.136 727.254 224.19C726.913 223.244 726.742 222.233 726.742 221.156C726.742 218.476 727.543 216.322 729.146 214.693C730.775 213.064 732.916 212.25 735.569 212.25ZM735.569 215.008C733.993 215.008 732.627 215.507 731.471 216.506C730.315 217.478 729.737 218.909 729.737 220.801C729.737 222.561 730.289 223.914 731.392 224.86C732.496 225.779 733.888 226.239 735.569 226.239C737.172 226.239 738.551 225.714 739.707 224.663C740.863 223.586 741.441 222.298 741.441 220.801C741.441 219.225 740.863 217.872 739.707 216.742C738.551 215.586 737.172 215.008 735.569 215.008Z" fill="#0085FF"/>
<path d="M756.994 321.593C754.025 321.593 751.648 320.91 749.861 319.543C748.075 318.177 747.182 316.351 747.182 314.066C747.182 312.568 747.576 311.255 748.364 310.125C749.152 308.995 750.255 308.128 751.674 307.524C750.466 306.972 749.52 306.224 748.837 305.278C748.154 304.306 747.812 303.176 747.812 301.889C747.812 299.866 748.653 298.25 750.334 297.042C752.016 295.807 754.249 295.189 757.034 295.189C759.792 295.189 762.012 295.807 763.693 297.042C765.375 298.25 766.216 299.866 766.216 301.889C766.216 303.176 765.874 304.306 765.191 305.278C764.508 306.224 763.549 306.972 762.314 307.524C763.733 308.128 764.836 308.995 765.624 310.125C766.439 311.255 766.846 312.568 766.846 314.066C766.846 316.351 765.94 318.177 764.127 319.543C762.34 320.91 759.963 321.593 756.994 321.593ZM756.994 306.342C758.754 306.342 760.173 305.961 761.25 305.199C762.327 304.411 762.866 303.373 762.866 302.086C762.866 300.798 762.327 299.787 761.25 299.051C760.173 298.316 758.754 297.948 756.994 297.948C755.234 297.948 753.815 298.316 752.738 299.051C751.661 299.787 751.122 300.798 751.122 302.086C751.122 303.373 751.661 304.411 752.738 305.199C753.815 305.961 755.234 306.342 756.994 306.342ZM756.994 318.834C758.965 318.834 760.541 318.387 761.723 317.494C762.932 316.575 763.536 315.366 763.536 313.869C763.536 312.319 762.932 311.071 761.723 310.125C760.541 309.179 758.965 308.706 756.994 308.706C755.024 308.706 753.434 309.179 752.226 310.125C751.044 311.071 750.452 312.319 750.452 313.869C750.452 315.366 751.044 316.575 752.226 317.494C753.434 318.387 755.024 318.834 756.994 318.834Z" fill="#0085FF"/>
<path d="M814.674 382.372C814.674 377.302 815.357 372.967 816.723 369.368C818.115 365.742 820.651 362.511 824.329 359.673H811.915V363.851H808.763V356.757H828.624V359.673C824.604 362.563 821.78 365.795 820.151 369.368C818.549 372.941 817.748 377.276 817.748 382.372H814.674Z" fill="#0085FF"/>
<path d="M905.272 409.13C903.932 409.13 902.684 408.894 901.528 408.421C900.372 407.922 899.374 407.225 898.533 406.332C897.693 405.413 897.023 404.283 896.523 402.943C896.051 401.603 895.814 400.079 895.814 398.372C895.814 395.745 896.156 393.446 896.839 391.475C897.522 389.505 898.441 387.876 899.597 386.589C900.753 385.302 902.093 384.343 903.617 383.712C905.167 383.055 906.796 382.727 908.503 382.727C909.292 382.727 910.08 382.806 910.868 382.963C911.682 383.095 912.497 383.305 913.311 383.594L912.365 386.274C911.735 386.064 911.117 385.906 910.513 385.801C909.909 385.696 909.318 385.643 908.74 385.643C907.4 385.643 906.152 385.906 904.996 386.431C903.84 386.93 902.842 387.64 902.001 388.559C901.16 389.453 900.464 390.53 899.913 391.791C899.387 393.052 899.059 394.418 898.927 395.889C899.584 394.917 900.504 394.103 901.686 393.446C902.894 392.789 904.326 392.461 905.981 392.461C907.321 392.461 908.503 392.671 909.528 393.091C910.553 393.485 911.393 394.037 912.05 394.746C912.733 395.429 913.245 396.244 913.587 397.19C913.928 398.135 914.099 399.147 914.099 400.224C914.099 402.904 913.285 405.058 911.656 406.687C910.053 408.316 907.925 409.13 905.272 409.13ZM905.272 406.372C906.848 406.372 908.214 405.886 909.37 404.913C910.526 403.915 911.104 402.47 911.104 400.579C911.104 398.818 910.553 397.479 909.449 396.559C908.346 395.613 906.953 395.14 905.272 395.14C903.669 395.14 902.29 395.679 901.134 396.756C899.978 397.807 899.4 399.081 899.4 400.579C899.4 402.155 899.978 403.521 901.134 404.677C902.29 405.807 903.669 406.372 905.272 406.372Z" fill="#0085FF"/>
<path d="M991.312 379.561C991.575 379.64 991.903 379.719 992.297 379.798C992.691 379.85 993.098 379.876 993.519 379.876C994.754 379.876 995.975 379.798 997.184 379.64C998.418 379.456 999.509 379.115 1000.45 378.615C1001.4 378.116 1002.16 377.42 1002.74 376.527C1003.34 375.607 1003.65 374.425 1003.65 372.98C1003.65 371.535 1003.28 370.353 1002.54 369.434C1001.83 368.488 1000.77 368.015 999.351 368.015C998.274 368.015 997.249 368.291 996.277 368.842C995.305 369.368 994.622 369.92 994.228 370.497H991.312L992.415 356.941H1007.94V359.857H995.095L994.465 367.581C995.2 366.819 996.015 366.255 996.908 365.887C997.827 365.493 998.905 365.296 1000.14 365.296C1001.03 365.296 1001.87 365.44 1002.66 365.729C1003.48 366.018 1004.19 366.452 1004.79 367.03C1005.42 367.608 1005.92 368.343 1006.29 369.236C1006.65 370.103 1006.84 371.128 1006.84 372.31C1006.84 374.176 1006.48 375.791 1005.77 377.157C1005.09 378.497 1004.16 379.601 1002.98 380.468C1001.79 381.308 1000.4 381.939 998.799 382.359C997.197 382.753 995.502 382.95 993.716 382.95C993.085 382.95 992.442 382.911 991.785 382.832C991.154 382.78 990.603 382.674 990.13 382.517L991.312 379.561Z" fill="#0085FF"/>
<path d="M1056.51 321.199H1053.35V314.893H1042.32V312.174L1052.05 295.584H1056.51V312.174H1062.81V314.893H1056.51V321.199ZM1045.63 312.174H1053.35V298.894L1045.63 312.174Z" fill="#0085FF"/>
<path d="M1067.3 238.613L1068.64 235.776C1068.88 235.828 1069.16 235.868 1069.47 235.894C1069.81 235.92 1070.21 235.934 1070.65 235.934C1071.89 235.934 1073.17 235.789 1074.51 235.5C1075.85 235.185 1077.08 234.712 1078.18 234.081C1079.28 233.425 1080.19 232.584 1080.9 231.559C1081.61 230.508 1081.96 229.26 1081.96 227.816C1081.96 226.686 1081.66 225.753 1081.06 225.018C1080.48 224.256 1079.48 223.875 1078.06 223.875C1077.46 223.875 1076.89 224.006 1076.37 224.269C1075.87 224.505 1075.33 224.873 1074.75 225.372L1073.57 226.436L1071.44 224.426L1081.17 215.914H1068.45V212.998H1085.08V215.914L1078.65 221.786C1078.84 221.734 1079.03 221.694 1079.24 221.668C1079.48 221.642 1079.7 221.629 1079.91 221.629C1081.33 221.629 1082.55 222.141 1083.58 223.165C1084.63 224.164 1085.15 225.648 1085.15 227.618C1085.15 229.458 1084.75 231.086 1083.93 232.505C1083.12 233.924 1082.04 235.119 1080.7 236.091C1079.36 237.037 1077.82 237.759 1076.09 238.259C1074.38 238.758 1072.64 239.007 1070.85 239.007C1070.22 239.007 1069.59 238.981 1068.96 238.928C1068.33 238.876 1067.78 238.771 1067.3 238.613Z" fill="#0085FF"/>
<path d="M1058 151.733H1039.72C1039.72 150.235 1039.93 148.921 1040.35 147.792C1040.77 146.662 1041.32 145.677 1042 144.836C1042.69 143.969 1043.46 143.207 1044.33 142.551C1045.22 141.867 1046.13 141.25 1047.05 140.698C1047.94 140.147 1048.81 139.621 1049.65 139.122C1050.52 138.623 1051.28 138.097 1051.93 137.546C1052.62 136.994 1053.16 136.39 1053.55 135.733C1053.97 135.076 1054.18 134.314 1054.18 133.447C1054.18 132.633 1054.01 131.937 1053.67 131.359C1053.33 130.781 1052.89 130.308 1052.37 129.94C1051.87 129.572 1051.3 129.31 1050.67 129.152C1050.07 128.994 1049.49 128.916 1048.94 128.916C1047.23 128.916 1045.8 129.467 1044.64 130.571C1043.51 131.648 1042.95 132.948 1042.95 134.472H1039.91C1039.91 133.342 1040.14 132.252 1040.58 131.201C1041.03 130.124 1041.65 129.191 1042.44 128.403C1043.25 127.589 1044.22 126.945 1045.35 126.472C1046.48 125.973 1047.74 125.723 1049.14 125.723C1050.21 125.723 1051.25 125.907 1052.25 126.275C1053.25 126.643 1054.11 127.155 1054.85 127.812C1055.61 128.469 1056.22 129.27 1056.66 130.216C1057.11 131.135 1057.33 132.16 1057.33 133.29C1057.33 134.472 1057.12 135.51 1056.7 136.403C1056.31 137.296 1055.77 138.097 1055.09 138.807C1054.43 139.49 1053.67 140.107 1052.8 140.659C1051.96 141.211 1051.09 141.749 1050.2 142.275C1048.7 143.168 1047.28 144.101 1045.94 145.073C1044.6 146.045 1043.7 147.293 1043.22 148.816H1058V151.733Z" fill="#0085FF"/>
<path d="M1002.28 89.5998V92.516H981.513V89.5998H991.128V70.2507L984.744 73.9944L982.655 71.8664L991.128 66.901H994.281V89.5998H1002.28Z" fill="#0085FF"/>
<path d="M905.521 236.433C908.786 236.433 911.433 233.786 911.433 230.521C911.433 227.257 908.786 224.61 905.521 224.61C902.257 224.61 899.61 227.257 899.61 230.521C899.61 233.786 902.257 236.433 905.521 236.433Z" fill="#0085FF"/>
<path d="M1016.15 300.366L905.028 230.777L859 303.773" stroke="#0085FF" stroke-width="7" stroke-miterlimit="10"/>
</g>
<defs>
<clipPath id="clip0_147_197">
<rect width="461.03" height="461.03" fill="white"/>
</clipPath>
<clipPath id="clip1_147_197">
<rect width="461.03" height="461.03" fill="white" transform="translate(675)"/>
</clipPath>
</defs>
</svg>
