<svg width="534" height="673" viewBox="0 0 534 673" fill="none" xmlns="http://www.w3.org/2000/svg">
<path d="M0 347L55.0114 0H96.6705L73.1704 147.342H216.841L240.341 0H282L226.989 347H185.33L210.966 186.846H67.2954L41.6591 347H0Z" fill="#0085FF"/>
<rect x="236" y="375" width="297" height="297" stroke="#0085FF" stroke-width="2" stroke-dasharray="4 4"/>
<circle cx="375.619" cy="510.178" r="58.7079" stroke="#0085FF"/>
<mask id="path-4-inside-1_123_10" fill="white">
<path fill-rule="evenodd" clip-rule="evenodd" d="M347.884 673L355.914 622.787H235V506.343H373.213L394.3 374H517.261L469.907 673H347.884Z"/>
</mask>
<path fill-rule="evenodd" clip-rule="evenodd" d="M347.884 673L355.914 622.787H235V506.343H373.213L394.3 374H517.261L469.907 673H347.884Z" fill="white"/>
<path d="M347.884 673L345.909 672.684L345.539 675H347.884V673ZM355.914 622.787L357.889 623.103L358.259 620.787H355.914V622.787ZM235 622.787H233V624.787H235V622.787ZM235 506.343V504.343H233V506.343H235ZM373.213 506.343V508.343H374.92L375.189 506.658L373.213 506.343ZM394.3 374V372H392.594L392.325 373.685L394.3 374ZM517.261 374L519.236 374.313L519.603 372H517.261V374ZM469.907 673V675H471.615L471.882 673.313L469.907 673ZM349.859 673.316L357.889 623.103L353.939 622.471L345.909 672.684L349.859 673.316ZM355.914 620.787H235V624.787H355.914V620.787ZM237 622.787V506.343H233V622.787H237ZM235 508.343H373.213V504.343H235V508.343ZM375.189 506.658L396.275 374.315L392.325 373.685L371.238 506.029L375.189 506.658ZM394.3 376H517.261V372H394.3V376ZM515.286 373.687L467.931 672.687L471.882 673.313L519.236 374.313L515.286 373.687ZM469.907 671H347.884V675H469.907V671Z" fill="#0085FF" mask="url(#path-4-inside-1_123_10)"/>
<path d="M306.958 455.372L306.694 457H295.32L295.584 455.372H300.864L302.558 444.68L298.752 446.748L297.784 445.472L302.866 442.7H304.582L302.58 455.372H306.958ZM314.011 457.22C313.131 457.22 312.354 457.037 311.679 456.67C311.019 456.303 310.484 455.79 310.073 455.13C309.677 454.47 309.413 453.671 309.281 452.732C309.149 451.793 309.171 450.759 309.347 449.63C309.523 448.559 309.809 447.584 310.205 446.704C310.601 445.809 311.085 445.054 311.657 444.438C312.229 443.822 312.875 443.345 313.593 443.008C314.312 442.656 315.082 442.48 315.903 442.48C316.769 442.48 317.531 442.663 318.191 443.03C318.866 443.397 319.401 443.91 319.797 444.57C320.208 445.23 320.479 446.029 320.611 446.968C320.743 447.907 320.721 448.941 320.545 450.07C320.369 451.141 320.083 452.116 319.687 452.996C319.291 453.876 318.807 454.631 318.235 455.262C317.663 455.878 317.018 456.362 316.299 456.714C315.581 457.051 314.818 457.22 314.011 457.22ZM311.063 449.872C310.961 450.473 310.909 451.038 310.909 451.566C310.924 452.094 310.983 452.578 311.085 453.018L317.949 444.9C317.685 444.621 317.377 444.409 317.025 444.262C316.673 444.115 316.292 444.042 315.881 444.042C314.723 444.042 313.696 444.577 312.801 445.648C311.921 446.719 311.342 448.127 311.063 449.872ZM314.033 455.658C314.605 455.658 315.155 455.519 315.683 455.24C316.211 454.961 316.681 454.573 317.091 454.074C317.517 453.561 317.876 452.952 318.169 452.248C318.477 451.529 318.697 450.737 318.829 449.872C318.932 449.212 318.976 448.596 318.961 448.024C318.961 447.452 318.895 446.939 318.763 446.484L311.855 454.668C312.119 454.991 312.435 455.24 312.801 455.416C313.168 455.577 313.579 455.658 314.033 455.658ZM332.263 457H322.253C322.385 456.164 322.612 455.431 322.935 454.8C323.272 454.169 323.661 453.619 324.101 453.15C324.555 452.666 325.054 452.241 325.597 451.874C326.139 451.493 326.689 451.148 327.247 450.84C327.775 450.532 328.295 450.239 328.809 449.96C329.322 449.681 329.784 449.388 330.195 449.08C330.605 448.772 330.95 448.435 331.229 448.068C331.522 447.701 331.705 447.276 331.779 446.792C331.852 446.337 331.823 445.949 331.691 445.626C331.559 445.303 331.368 445.039 331.119 444.834C330.869 444.629 330.583 444.482 330.261 444.394C329.938 444.306 329.623 444.262 329.315 444.262C328.391 444.262 327.562 444.57 326.829 445.186C326.11 445.787 325.685 446.513 325.553 447.364H323.661C323.763 446.733 323.983 446.125 324.321 445.538C324.658 444.937 325.083 444.416 325.597 443.976C326.11 443.521 326.697 443.162 327.357 442.898C328.031 442.619 328.743 442.48 329.491 442.48C330.121 442.48 330.708 442.59 331.251 442.81C331.793 443.015 332.248 443.309 332.615 443.69C332.981 444.057 333.253 444.511 333.429 445.054C333.605 445.582 333.641 446.169 333.539 446.814C333.436 447.459 333.231 448.031 332.923 448.53C332.629 449.014 332.27 449.447 331.845 449.828C331.419 450.209 330.95 450.554 330.437 450.862C329.923 451.17 329.403 451.471 328.875 451.764C327.98 452.263 327.115 452.783 326.279 453.326C325.457 453.854 324.849 454.536 324.453 455.372H332.505L332.263 457ZM342.396 442.216C343.394 442.216 344.164 442.546 344.706 443.206C345.264 443.866 345.462 444.695 345.3 445.692C345.154 446.616 344.728 447.386 344.024 448.002C343.335 448.618 342.528 448.926 341.604 448.926C340.607 448.926 339.83 448.589 339.272 447.914C338.73 447.239 338.539 446.396 338.7 445.384C338.847 444.475 339.265 443.719 339.954 443.118C340.658 442.517 341.472 442.216 342.396 442.216ZM342.264 443.822C341.766 443.822 341.326 443.991 340.944 444.328C340.563 444.651 340.343 445.061 340.284 445.56C340.196 446.059 340.284 446.477 340.548 446.814C340.827 447.151 341.216 447.32 341.714 447.32C342.213 447.32 342.653 447.151 343.034 446.814C343.416 446.477 343.643 446.059 343.716 445.56C343.79 445.061 343.687 444.651 343.408 444.328C343.144 443.991 342.763 443.822 342.264 443.822Z" fill="#0085FF"/>
<path d="M217 147L232 155.66V138.34L217 147ZM227.375 148.5H234.292V145.5H227.375V148.5ZM241.208 148.5H248.125V145.5H241.208V148.5ZM255.042 148.5H258.5V145.5H255.042V148.5Z" fill="white"/>
<path d="M258.5 147H436V374.5" stroke="#0085FF" stroke-width="2" stroke-dasharray="6 6"/>
</svg>
