<svg width="984" height="994" viewBox="0 0 984 994" fill="none" xmlns="http://www.w3.org/2000/svg">
<path d="M339.726 786.171L269.574 786.169L449.852 208.174L533.324 208.176L713.574 786.18L641.646 786.178L592.81 624.337L388.57 624.332L339.726 786.171ZM408.996 558.53L572.388 558.533L490.698 287.316L408.996 558.53Z" fill="#0085FF"/>
<circle cx="492.056" cy="235.141" r="119" transform="rotate(-34.42 492.056 235.141)" stroke="#0085FF" stroke-width="2" stroke-dasharray="5 5"/>
<mask id="mask0_140_63" style="mask-type:alpha" maskUnits="userSpaceOnUse" x="372" y="115" width="241" height="241">
<circle cx="492.056" cy="235.141" r="120" transform="rotate(-34.42 492.056 235.141)" fill="#D9D9D9"/>
</mask>
<g mask="url(#mask0_140_63)">
<path d="M339.727 787.171L340.47 787.171L340.684 786.46L389.313 625.332L592.068 625.337L640.689 786.467L640.904 787.178L641.647 787.178L713.575 787.18L714.934 787.18L714.529 785.882L534.28 207.878L534.061 207.176L533.325 207.176L449.853 207.174L449.117 207.174L448.898 207.876L268.62 785.871L268.215 787.169L269.575 787.169L339.727 787.171ZM490.699 290.783L571.043 557.533L410.342 557.53L490.699 290.783Z" fill="white" stroke="#0085FF" stroke-width="2"/>
</g>
<path d="M661.867 130.904L650.354 131.794L656.881 141.319L661.867 130.904ZM596.439 176.949L598.501 175.536L597.371 173.887L595.308 175.3L596.439 176.949ZM602.626 172.71L606.75 169.884L605.62 168.234L601.495 171.06L602.626 172.71ZM610.875 167.058L614.999 164.231L613.869 162.581L609.744 165.408L610.875 167.058ZM619.124 161.405L623.249 158.579L622.118 156.929L617.993 159.755L619.124 161.405ZM627.373 155.752L631.498 152.926L630.367 151.276L626.243 154.103L627.373 155.752ZM635.622 150.1L639.747 147.274L638.616 145.624L634.492 148.45L635.622 150.1ZM643.871 144.447L647.996 141.621L646.866 139.971L642.741 142.797L643.871 144.447ZM652.121 138.795L656.245 135.969L655.115 134.319L650.99 137.145L652.121 138.795Z" fill="#0085FF"/>
</svg>
