<svg width="1897" height="1883" viewBox="0 0 1897 1883" fill="none" xmlns="http://www.w3.org/2000/svg">
<path d="M1262.27 1165.75C1262.26 1223.92 1252.17 1279.71 1232 1333.13C1211.82 1385.37 1183.34 1431.07 1146.55 1470.25C1110.95 1509.42 1067.05 1540.88 1014.83 1564.62C963.808 1587.17 908.036 1598.44 847.519 1598.44C783.441 1598.44 724.111 1588.34 669.528 1568.16C616.132 1546.79 569.855 1514.73 530.7 1471.99C492.73 1429.25 462.475 1375.83 439.933 1311.72C418.578 1246.42 407.903 1170.44 407.908 1083.78C407.916 944.883 420.976 832.104 447.087 745.443C474.384 658.782 511.173 591.709 557.454 544.226C604.922 495.555 660.101 462.318 722.993 444.514C787.071 426.711 855.302 416.624 927.686 414.254C978.711 413.07 1029.14 411.292 1078.98 408.921C1130 405.362 1174.5 392.306 1212.48 369.753L1212.47 508.65C1169.75 530.017 1126.44 541.886 1082.53 544.257C1039.81 545.442 988.196 547.22 927.678 549.59C806.643 554.332 715.865 580.444 655.345 627.927C596.011 674.222 560.408 760.883 548.534 887.908C575.829 842.798 614.989 805.405 666.016 775.729C717.042 744.865 778.154 729.436 849.351 729.44C907.495 729.444 961.485 740.132 1011.32 761.503C1062.35 781.688 1106.25 810.776 1143.03 848.768C1179.81 886.759 1208.88 933.06 1230.24 987.67C1251.6 1041.09 1262.27 1100.45 1262.27 1165.75ZM835.068 1457.76C915.758 1457.77 982.803 1429.87 1036.2 1374.08C1089.61 1318.29 1116.31 1247.65 1116.31 1162.18C1116.32 1076.7 1089.62 1006.06 1036.23 950.263C982.835 894.464 916.386 866.561 836.883 866.557C756.193 866.552 689.147 894.446 635.746 950.239C582.345 1006.03 555.642 1076.67 555.637 1162.14C555.632 1247.62 582.327 1318.26 635.721 1374.06C689.115 1429.86 755.564 1457.76 835.068 1457.76Z" fill="#0085FF"/>
<mask id="path-2-inside-1_140_38" fill="white">
<path fill-rule="evenodd" clip-rule="evenodd" d="M977.194 562.325C976.142 559.809 975.128 557.267 974.153 554.699C954.772 503.68 953.628 450.21 967.497 401.463C1007.5 400.209 1047.2 398.645 1086.59 396.771C1147.61 392.515 1200.84 376.899 1246.26 349.923L1246.25 516.055C1195.15 541.611 1143.35 555.807 1090.83 558.644C1057.49 559.569 1019.61 560.796 977.194 562.325Z"/>
</mask>
<path fill-rule="evenodd" clip-rule="evenodd" d="M977.194 562.325C976.142 559.809 975.128 557.267 974.153 554.699C954.772 503.68 953.628 450.21 967.497 401.463C1007.5 400.209 1047.2 398.645 1086.59 396.771C1147.61 392.515 1200.84 376.899 1246.26 349.923L1246.25 516.055C1195.15 541.611 1143.35 555.807 1090.83 558.644C1057.49 559.569 1019.61 560.796 977.194 562.325Z" fill="white"/>
<path d="M977.194 562.325L975.349 563.096L975.883 564.373L977.266 564.323L977.194 562.325ZM967.497 401.463L967.434 399.464L965.973 399.51L965.573 400.916L967.497 401.463ZM1086.59 396.771L1086.68 398.769L1086.7 398.768L1086.72 398.766L1086.59 396.771ZM1246.26 349.923L1248.26 349.923L1248.26 346.409L1245.24 348.203L1246.26 349.923ZM1246.25 516.055L1247.14 517.844L1248.25 517.291L1248.25 516.055L1246.25 516.055ZM1090.83 558.644L1090.89 560.643L1090.92 560.643L1090.94 560.641L1090.83 558.644ZM979.039 561.553C977.996 559.058 976.99 556.536 976.022 553.989L972.283 555.409C973.266 557.998 974.289 560.56 975.349 563.096L979.039 561.553ZM976.022 553.989C956.8 503.385 955.666 450.357 969.42 402.011L965.573 400.916C951.591 450.062 952.745 503.974 972.283 555.409L976.022 553.989ZM967.559 403.462C1007.58 402.208 1047.28 400.643 1086.68 398.769L1086.49 394.773C1047.11 396.647 1007.43 398.211 967.434 399.464L967.559 403.462ZM1086.72 398.766C1148.02 394.492 1201.55 378.801 1247.28 351.642L1245.24 348.203C1200.13 374.996 1147.21 390.538 1086.45 394.776L1086.72 398.766ZM1244.26 349.923L1244.25 516.055L1248.25 516.055L1248.26 349.923L1244.26 349.923ZM1245.35 514.267C1194.48 539.71 1142.94 553.826 1090.73 556.647L1090.94 560.641C1143.75 557.788 1195.82 543.512 1247.14 517.844L1245.35 514.267ZM1090.78 556.645C1057.43 557.57 1019.54 558.797 977.122 560.326L977.266 564.323C1019.68 562.794 1057.55 561.568 1090.89 560.643L1090.78 556.645Z" fill="#0085FF" mask="url(#path-2-inside-1_140_38)"/>
<circle cx="1202.25" cy="468.053" r="243" transform="rotate(-20.8 1202.25 468.053)" stroke="#0085FF" stroke-width="2" stroke-dasharray="5 5"/>
<path d="M1642.21 687.097L1635.45 677.731L1630.72 688.264L1642.21 687.097ZM1415.42 586.268L1418.11 587.48L1418.93 585.655L1416.24 584.444L1415.42 586.268ZM1423.5 589.902L1428.89 592.324L1429.71 590.5L1424.32 588.078L1423.5 589.902ZM1434.28 594.747L1439.67 597.169L1440.49 595.345L1435.1 592.922L1434.28 594.747ZM1445.06 599.592L1450.45 602.014L1451.27 600.19L1445.88 597.767L1445.06 599.592ZM1455.84 604.436L1461.23 606.859L1462.05 605.034L1456.66 602.612L1455.84 604.436ZM1466.62 609.281L1472.01 611.703L1472.83 609.879L1467.44 607.457L1466.62 609.281ZM1477.4 614.126L1482.79 616.548L1483.61 614.724L1478.22 612.302L1477.4 614.126ZM1488.18 618.971L1493.57 621.393L1494.39 619.569L1489 617.146L1488.18 618.971ZM1498.96 623.815L1504.35 626.238L1505.17 624.414L1499.78 621.991L1498.96 623.815ZM1509.74 628.66L1515.13 631.083L1515.95 629.258L1510.56 626.836L1509.74 628.66ZM1520.52 633.505L1525.91 635.927L1526.73 634.103L1521.34 631.681L1520.52 633.505ZM1531.3 638.35L1536.69 640.772L1537.51 638.948L1532.12 636.526L1531.3 638.35ZM1542.08 643.195L1547.47 645.617L1548.29 643.793L1542.9 641.37L1542.08 643.195ZM1552.86 648.039L1558.25 650.462L1559.07 648.638L1553.68 646.215L1552.86 648.039ZM1563.64 652.884L1569.03 655.307L1569.85 653.482L1564.46 651.06L1563.64 652.884ZM1574.42 657.729L1579.81 660.151L1580.63 658.327L1575.24 655.905L1574.42 657.729ZM1585.2 662.574L1590.59 664.996L1591.41 663.172L1586.02 660.75L1585.2 662.574ZM1595.98 667.419L1601.37 669.841L1602.19 668.017L1596.8 665.594L1595.98 667.419ZM1606.76 672.263L1612.15 674.686L1612.97 672.862L1607.58 670.439L1606.76 672.263ZM1617.54 677.108L1622.93 679.531L1623.75 677.706L1618.36 675.284L1617.54 677.108ZM1628.32 681.953L1633.71 684.375L1634.53 682.551L1629.14 680.129L1628.32 681.953Z" fill="#0085FF"/>
</svg>
