<svg width="1440" height="2259" viewBox="0 0 1440 2259" fill="none" xmlns="http://www.w3.org/2000/svg">
<path d="M-118.131 516.449L-176 476.794L299.429 101.899L368.286 149.083L190.257 727.776L130.923 687.117L182.119 526.006L13.6409 410.555L-118.131 516.449ZM67.6856 367.819L202.468 460.18L288.388 190.273L67.6856 367.819Z" fill="#0085FF"/>
<circle cx="319" cy="148" r="119" stroke="#0085FF" stroke-width="2" stroke-dasharray="5 5"/>
<mask id="mask0_147_4" style="mask-type:alpha" maskUnits="userSpaceOnUse" x="199" y="28" width="240" height="240">
<circle cx="319" cy="148" r="120" fill="#D9D9D9"/>
</mask>
<g mask="url(#mask0_147_4)">
<path d="M-118.697 517.274L-118.084 517.694L-117.505 517.228L13.6884 411.799L180.941 526.411L129.97 686.814L129.745 687.522L130.358 687.942L189.691 728.601L190.813 729.369L191.212 728.07L369.241 149.377L369.458 148.674L368.851 148.259L299.995 101.074L299.388 100.658L298.81 101.114L-176.619 476.008L-177.687 476.85L-176.565 477.619L-118.697 517.274ZM286.428 193.133L201.923 458.595L69.3608 367.754L286.428 193.133Z" fill="white" stroke="#0085FF" stroke-width="2"/>
</g>
<path d="M518 158L508 152.226V163.774L518 158ZM438 159H440.5V157H438V159ZM445.5 159H450.5V157H445.5V159ZM455.5 159H460.5V157H455.5V159ZM465.5 159H470.5V157H465.5V159ZM475.5 159H480.5V157H475.5V159ZM485.5 159H490.5V157H485.5V159ZM495.5 159H500.5V157H495.5V159ZM505.5 159H510.5V157H505.5V159Z" fill="#0085FF"/>
<path d="M871.215 883.473L871.22 883.482L871.226 883.49C904.439 931.465 947.967 972.473 1001.79 1006.52C1037.16 1028.89 1072.28 1045.71 1107.15 1056.99C1141.55 1069.04 1174.19 1074.56 1205.05 1073.55C1235.93 1072.54 1264.38 1065.12 1290.41 1051.29C1316.48 1037.45 1338.54 1016.23 1356.6 987.666C1375.68 957.502 1382.67 925.07 1377.55 890.412C1373.77 856.22 1360.07 824.598 1336.5 795.559C1369.34 798.081 1399.49 792.694 1426.92 779.378C1454.97 765.766 1475.89 748.119 1489.62 726.413C1520.42 677.706 1523.78 626.206 1499.7 572.033C1476.15 517.155 1432.02 469.303 1367.43 428.449C1319.74 398.282 1270.79 380.262 1220.58 374.413C1170.85 367.794 1121.43 374.33 1072.35 394.004L1071.57 394.315L1071.74 395.133L1092.23 495.247L1092.49 496.501L1093.64 495.948C1127.38 479.807 1162.33 473.555 1198.52 477.179L1198.54 477.18L1198.55 477.181C1235.22 480.041 1271.92 493.063 1308.65 516.293C1345.38 539.531 1371.18 565.504 1386.12 594.185L1386.12 594.197C1401.78 623.289 1401.63 650.264 1385.81 675.28C1370.89 698.862 1350.68 711.528 1325.11 713.402L1325.1 713.403L1325.08 713.404C1300.23 715.761 1273.29 707.832 1244.24 689.461L1121.06 611.547L1120.22 611.012L1119.68 611.858L1070.1 690.245L1069.57 691.09L1070.41 691.625L1199.35 773.18C1235.33 795.939 1258.39 820.189 1268.72 845.885L1268.72 845.894L1268.73 845.902C1279.8 872.04 1277.42 897.603 1261.55 922.701C1244.24 950.06 1218.69 963.651 1184.73 963.489C1150.73 963.326 1108.84 947.584 1059.01 916.066C1015.35 888.455 983.261 857.956 962.665 824.59C942.578 790.492 933.419 748.304 935.256 697.966L935.297 696.843L934.177 696.933L825.5 705.663L824.592 705.736L824.58 706.647C823.681 776.177 839.207 835.138 871.215 883.473Z" stroke="#0085FF" stroke-width="2"/>
<circle cx="895.5" cy="711.5" r="165.5" stroke="#0085FF" stroke-width="2" stroke-dasharray="5 5"/>
<path fill-rule="evenodd" clip-rule="evenodd" d="M989.487 848.955C962.739 867.28 930.371 878 895.5 878C880.285 878 865.548 875.959 851.545 872.137C831.051 823.48 821.208 767.922 822.015 705.463L957.556 694.576C955.333 755.475 965.977 806.935 989.487 848.955Z" fill="#0085FF"/>
<path d="M620.5 437.5L623.009 448.771L631.516 440.963L620.5 437.5ZM625.724 444.67L629.698 448.999L631.171 447.646L627.197 443.317L625.724 444.67ZM633.671 453.328L637.645 457.656L639.118 456.304L635.145 451.975L633.671 453.328ZM641.619 461.985L645.592 466.314L647.066 464.962L643.092 460.633L641.619 461.985ZM649.566 470.643L653.54 474.972L655.013 473.62L651.039 469.291L649.566 470.643ZM657.513 479.301L661.487 483.63L662.96 482.278L658.987 477.949L657.513 479.301ZM665.461 487.959L669.434 492.288L670.908 490.936L666.934 486.607L665.461 487.959ZM673.408 496.617L677.382 500.946L678.855 499.594L674.881 495.265L673.408 496.617ZM681.355 505.275L685.329 509.604L686.802 508.251L682.829 503.922L681.355 505.275ZM689.303 513.933L693.276 518.262L694.75 516.909L690.776 512.58L689.303 513.933ZM697.25 522.591L701.224 526.92L702.697 525.567L698.724 521.238L697.25 522.591ZM705.198 531.249L709.171 535.578L710.645 534.225L706.671 529.896L705.198 531.249ZM713.145 539.907L717.119 544.235L718.592 542.883L714.618 538.554L713.145 539.907ZM721.092 548.564L725.066 552.893L726.539 551.541L722.566 547.212L721.092 548.564ZM729.04 557.222L733.013 561.551L734.487 560.199L730.513 555.87L729.04 557.222ZM736.987 565.88L740.961 570.209L742.434 568.857L738.46 564.528L736.987 565.88ZM744.934 574.538L748.908 578.867L750.381 577.515L746.408 573.186L744.934 574.538ZM752.882 583.196L756.855 587.525L758.329 586.172L754.355 581.844L752.882 583.196ZM760.829 591.854L764.803 596.183L766.276 594.83L762.303 590.501L760.829 591.854ZM768.777 600.512L770.763 602.676L772.237 601.324L770.25 599.159L768.777 600.512Z" fill="#0085FF"/>
<path d="M441.35 1853.53C420.689 1907.91 391.444 1956.49 353.613 1999.26C316.204 2040.93 273.349 2073.54 225.048 2097.1C177.856 2121.08 125.64 2134.89 68.4006 2138.54C12.6915 2141.51 -43.449 2132.24 -100.021 2110.75C-159.921 2087.99 -211.8 2057.49 -255.657 2019.23C-297.984 1980.29 -329.861 1933.89 -351.288 1880.03C-371.605 1826.6 -380.918 1765.91 -379.225 1697.98C-376.002 1629.35 -359 1554.53 -328.221 1473.52C-278.89 1343.68 -226.633 1242.89 -171.45 1171.15C-115.157 1099.83 -56.948 1050.19 3.17831 1022.24C64.8356 993.594 128.222 982.118 193.337 987.808C259.561 993.919 326.927 1008.72 395.435 1032.21C443.554 1049.22 491.33 1065.47 538.762 1080.95C587.725 1095.74 633.96 1099.34 677.467 1091.74L628.136 1221.58C580.613 1226.38 535.909 1222.1 494.024 1208.73C453.669 1194.66 404.784 1177.99 347.368 1158.72C232.538 1120.17 138.404 1112.35 64.9666 1135.24C-6.93997 1157.45 -70.997 1225.82 -127.204 1340.35C-85.6695 1307.87 -35.7826 1286.82 22.4563 1277.2C81.1167 1266.47 143.725 1273.75 210.28 1299.03C264.633 1319.69 311.31 1348.85 350.309 1386.53C390.839 1423.51 421.551 1466.3 442.446 1514.87C463.341 1563.45 474.074 1617.06 474.645 1675.69C475.638 1733.22 464.54 1792.5 441.35 1853.53ZM-61.7044 1974.82C13.7249 2003.47 86.3063 2001.21 156.04 1968.01C225.773 1934.82 275.818 1878.27 306.176 1798.37C336.534 1718.46 336.663 1642.95 306.563 1571.83C276.464 1500.7 224.254 1451.02 149.934 1422.79C74.5045 1394.13 1.92318 1396.4 -67.8101 1429.59C-137.543 1462.78 -187.589 1519.33 -217.947 1599.24C-248.304 1679.14 -248.434 1754.65 -218.334 1825.78C-188.234 1896.9 -136.024 1946.58 -61.7044 1974.82Z" fill="#0085FF"/>
<mask id="path-11-inside-1_147_4" fill="white">
<path fill-rule="evenodd" clip-rule="evenodd" d="M389.135 1188.21C389.045 1185.48 389 1182.75 389 1180C389 1125.42 406.918 1075.03 437.193 1034.39C475.037 1047.42 512.701 1060.06 550.186 1072.29C608.75 1089.98 664.05 1094.29 716.088 1085.2L657.084 1240.5C600.243 1246.24 546.774 1241.12 496.675 1225.12C465.174 1214.15 429.328 1201.84 389.135 1188.21Z"/>
</mask>
<path fill-rule="evenodd" clip-rule="evenodd" d="M389.135 1188.21C389.045 1185.48 389 1182.75 389 1180C389 1125.42 406.918 1075.03 437.193 1034.39C475.037 1047.42 512.701 1060.06 550.186 1072.29C608.75 1089.98 664.05 1094.29 716.088 1085.2L657.084 1240.5C600.243 1246.24 546.774 1241.12 496.675 1225.12C465.174 1214.15 429.328 1201.84 389.135 1188.21Z" fill="white"/>
<path d="M389.135 1188.21L387.137 1188.27L387.182 1189.66L388.493 1190.1L389.135 1188.21ZM437.193 1034.39L437.844 1032.5L436.462 1032.02L435.589 1033.19L437.193 1034.39ZM550.186 1072.29L549.566 1074.19L549.587 1074.2L549.608 1074.2L550.186 1072.29ZM716.088 1085.2L717.958 1085.91L719.206 1082.62L715.744 1083.23L716.088 1085.2ZM657.084 1240.5L657.285 1242.49L658.515 1242.36L658.954 1241.21L657.084 1240.5ZM496.675 1225.12L496.017 1227.01L496.042 1227.02L496.067 1227.03L496.675 1225.12ZM391.134 1188.14C391.045 1185.44 391 1182.72 391 1180H387C387 1182.77 387.046 1185.53 387.137 1188.27L391.134 1188.14ZM391 1180C391 1125.87 408.771 1075.89 438.797 1035.58L435.589 1033.19C405.066 1074.17 387 1124.98 387 1180H391ZM436.542 1036.28C474.396 1049.32 512.07 1061.95 549.566 1074.19L550.807 1070.39C513.332 1058.16 475.678 1045.53 437.844 1032.5L436.542 1036.28ZM549.608 1074.2C608.423 1091.97 664.042 1096.32 716.432 1087.17L715.744 1083.23C664.059 1092.25 609.076 1087.99 550.765 1070.38L549.608 1074.2ZM714.219 1084.49L655.215 1239.79L658.954 1241.21L717.958 1085.91L714.219 1084.49ZM656.883 1238.51C600.291 1244.23 547.099 1239.12 497.284 1223.22L496.067 1227.03C546.448 1243.11 600.196 1248.26 657.285 1242.49L656.883 1238.51ZM497.333 1223.23C465.826 1212.25 429.974 1199.95 389.778 1186.31L388.493 1190.1C428.681 1203.73 464.523 1216.04 496.017 1227.01L497.333 1223.23Z" fill="#0085FF" mask="url(#path-11-inside-1_147_4)"/>
<circle cx="633" cy="1180" r="243" stroke="#0085FF" stroke-width="2" stroke-dasharray="5 5"/>
<path d="M966.5 1541L963.511 1529.85L955.346 1538.01L966.5 1541ZM790.293 1366.21L792.382 1368.3L793.796 1366.88L791.707 1364.79L790.293 1366.21ZM796.561 1372.47L800.739 1376.65L802.154 1375.24L797.975 1371.06L796.561 1372.47ZM804.918 1380.83L809.096 1385.01L810.511 1383.6L806.332 1379.42L804.918 1380.83ZM813.275 1389.19L817.454 1393.37L818.868 1391.95L814.689 1387.78L813.275 1389.19ZM821.632 1397.55L825.811 1401.72L827.225 1400.31L823.046 1396.13L821.632 1397.55ZM829.989 1405.9L834.168 1410.08L835.582 1408.67L831.404 1404.49L829.989 1405.9ZM838.346 1414.26L842.525 1418.44L843.939 1417.03L839.761 1412.85L838.346 1414.26ZM846.704 1422.62L850.882 1426.8L852.296 1425.38L848.118 1421.2L846.704 1422.62ZM855.061 1430.97L859.239 1435.15L860.654 1433.74L856.475 1429.56L855.061 1430.97ZM863.418 1439.33L867.596 1443.51L869.011 1442.1L864.832 1437.92L863.418 1439.33ZM871.775 1447.69L875.954 1451.87L877.368 1450.45L873.189 1446.28L871.775 1447.69ZM880.132 1456.05L884.311 1460.22L885.725 1458.81L881.546 1454.63L880.132 1456.05ZM888.489 1464.4L892.668 1468.58L894.082 1467.17L889.904 1462.99L888.489 1464.4ZM896.846 1472.76L901.025 1476.94L902.439 1475.53L898.261 1471.35L896.846 1472.76ZM905.204 1481.12L909.382 1485.3L910.796 1483.88L906.618 1479.7L905.204 1481.12ZM913.561 1489.47L917.739 1493.65L919.154 1492.24L914.975 1488.06L913.561 1489.47ZM921.918 1497.83L926.096 1502.01L927.511 1500.6L923.332 1496.42L921.918 1497.83ZM930.275 1506.19L934.454 1510.37L935.868 1508.95L931.689 1504.78L930.275 1506.19ZM938.632 1514.55L942.811 1518.72L944.225 1517.31L940.046 1513.13L938.632 1514.55ZM946.989 1522.9L951.168 1527.08L952.582 1525.67L948.404 1521.49L946.989 1522.9ZM955.346 1531.26L959.525 1535.44L960.939 1534.03L956.761 1529.85L955.346 1531.26Z" fill="#0085FF"/>
</svg>
