<svg width="1317" height="1288" viewBox="0 0 1317 1288" fill="none" xmlns="http://www.w3.org/2000/svg">
<path d="M543.214 919.62L543.223 919.624L543.232 919.628C596.945 942.422 655.652 953.815 719.343 953.82C761.184 953.823 799.86 949.272 835.367 940.16C870.878 931.955 901.416 919.184 926.961 901.83C952.509 884.473 972.597 862.993 987.208 837.394C1001.84 811.762 1009.14 782.033 1009.14 748.24C1009.14 712.548 997.715 681.402 974.862 654.847C953.389 627.971 924.912 608.566 889.471 596.62C918.574 581.2 941.174 560.533 957.242 534.615C973.667 508.122 981.915 482.027 981.917 456.342C981.921 398.71 957.23 353.391 907.929 320.473C858.685 286.684 795.815 269.825 719.39 269.82C662.957 269.816 611.954 280.75 566.397 302.64C520.828 323.628 482.555 355.566 451.582 398.432L451.093 399.109L451.672 399.71L522.5 473.371L523.388 474.294L524.068 473.21C543.955 441.535 570.156 417.567 602.681 401.286L602.691 401.281L602.7 401.276C635.226 384.089 673.202 375.481 716.659 375.484C760.13 375.487 795.812 383.652 823.767 399.908L823.779 399.914C852.566 416.131 866.857 439.01 866.855 468.61C866.853 496.514 856.534 518.025 835.925 533.276L835.917 533.283L835.908 533.289C816.158 548.569 789.155 556.265 754.787 556.262L609.033 556.252L608.033 556.252L608.033 557.252L608.027 650.004L608.027 651.004L609.027 651.004L761.592 651.015C804.167 651.018 836.619 659.187 859.083 675.385L859.09 675.39L859.098 675.395C882.424 691.569 894.081 714.443 894.079 744.14C894.077 776.512 879.74 801.661 850.954 819.673C822.129 837.71 778.31 846.796 719.35 846.792C667.698 846.788 624.272 838.165 589.031 820.973C553.829 802.891 523.538 772.131 498.186 728.605L497.62 727.634L496.721 728.309L409.537 793.775L408.808 794.322L409.285 795.098C445.69 854.343 490.327 895.876 543.214 919.62Z" stroke="#0085FF" stroke-width="2"/>
<circle cx="471.819" cy="761.293" r="165.5" transform="rotate(-32.31 471.819 761.293)" stroke="#0085FF" stroke-width="2" stroke-dasharray="5 5"/>
<path fill-rule="evenodd" clip-rule="evenodd" d="M624.724 827.23C611.912 857.014 590.285 883.375 560.813 902.014C547.954 910.146 534.408 916.299 520.53 920.552C477.202 890.383 439.187 848.688 406.485 795.469L515.221 713.82C545.892 766.478 582.393 804.282 624.724 827.23Z" fill="#0085FF"/>
<path d="M92.9448 676.704L101.09 684.889L104.106 673.743L92.9448 676.704ZM101.192 679.972L106.864 681.507L107.387 679.576L101.714 678.041L101.192 679.972ZM112.537 683.041L118.209 684.576L118.731 682.646L113.059 681.111L112.537 683.041ZM123.881 686.111L129.553 687.646L130.076 685.715L124.403 684.18L123.881 686.111ZM135.226 689.18L140.898 690.715L141.42 688.785L135.748 687.25L135.226 689.18ZM146.57 692.25L152.242 693.785L152.765 691.854L147.092 690.319L146.57 692.25ZM157.915 695.319L163.587 696.854L164.109 694.924L158.437 693.389L157.915 695.319ZM169.259 698.389L174.931 699.924L175.454 697.993L169.781 696.458L169.259 698.389ZM180.604 701.458L186.276 702.993L186.798 701.063L181.126 699.528L180.604 701.458ZM191.948 704.528L197.62 706.063L198.143 704.132L192.47 702.597L191.948 704.528ZM203.293 707.597L208.965 709.132L209.487 707.202L203.815 705.667L203.293 707.597ZM214.637 710.667L220.309 712.202L220.832 710.271L215.16 708.736L214.637 710.667ZM225.982 713.736L231.654 715.271L232.176 713.341L226.504 711.806L225.982 713.736ZM237.326 716.806L242.998 718.341L243.521 716.41L237.849 714.875L237.326 716.806ZM248.671 719.876L254.343 721.41L254.865 719.48L249.193 717.945L248.671 719.876ZM260.015 722.945L265.687 724.48L266.21 722.549L260.538 721.014L260.015 722.945ZM271.36 726.015L277.032 727.549L277.554 725.619L271.882 724.084L271.36 726.015ZM282.704 729.084L288.376 730.619L288.899 728.688L283.227 727.153L282.704 729.084ZM294.049 732.154L299.721 733.688L300.243 731.758L294.571 730.223L294.049 732.154ZM305.393 735.223L308.229 735.99L308.752 734.06L305.916 733.293L305.393 735.223Z" fill="#0085FF"/>
</svg>
