<svg width="503" height="363" viewBox="0 0 503 363" fill="none" xmlns="http://www.w3.org/2000/svg">
<path fill-rule="evenodd" clip-rule="evenodd" d="M502.301 116.912L502.301 106.7C497.219 104.904 493.578 100.058 493.578 94.3606C493.578 88.6636 497.219 83.817 502.301 82.0208V71.8089C497.219 70.0126 493.578 65.166 493.578 59.469C493.578 53.772 497.219 48.9254 502.301 47.1292V36.9171C497.219 35.1208 493.578 30.2742 493.578 24.5773C493.578 18.8803 497.219 14.0337 502.301 12.2375L502.301 0.589355L490.653 0.589355C488.856 5.6713 484.01 9.31228 478.313 9.31228C472.616 9.31228 467.769 5.6713 465.973 0.589355L455.761 0.589355C453.965 5.67131 449.118 9.3123 443.421 9.3123C437.724 9.3123 432.878 5.67131 431.081 0.589355L420.87 0.589355C419.073 5.67131 414.227 9.3123 408.53 9.3123C402.833 9.3123 397.986 5.67131 396.19 0.589355L385.978 0.589355C384.182 5.67131 379.335 9.3123 373.638 9.3123C367.941 9.3123 363.095 5.67131 361.298 0.589355L351.086 0.589355C349.29 5.67131 344.444 9.3123 338.747 9.3123C333.05 9.3123 328.203 5.67131 326.407 0.589355L316.195 0.589355C314.399 5.67131 309.552 9.3123 303.855 9.3123C298.158 9.3123 293.311 5.67131 291.515 0.589355L281.303 0.589355C279.507 5.67131 274.661 9.3123 268.964 9.3123C263.266 9.3123 258.42 5.67131 256.624 0.589355L246.412 0.589355C244.616 5.67131 239.769 9.3123 234.072 9.3123C228.375 9.3123 223.528 5.67131 221.732 0.589355L211.52 0.589355C209.724 5.67131 204.877 9.3123 199.18 9.3123C193.483 9.3123 188.637 5.67131 186.841 0.589355L176.629 0.589355C174.833 5.67131 169.986 9.3123 164.289 9.3123C158.592 9.3123 153.745 5.67131 151.949 0.589355L141.737 0.589355C139.941 5.67131 135.094 9.3123 129.397 9.3123C123.7 9.3123 118.854 5.67131 117.057 0.589355L106.846 0.589355C105.049 5.67131 100.203 9.3123 94.5058 9.3123C88.8087 9.3123 83.9621 5.67131 82.1659 0.589355L71.954 0.589355C70.1579 5.67131 65.3112 9.3123 59.6142 9.3123C53.9172 9.3123 49.0706 5.67131 47.2744 0.589355L37.0625 0.589355C35.2663 5.67131 30.4196 9.3123 24.7227 9.3123C19.0256 9.3123 14.179 5.67131 12.3828 0.589355L0.734497 0.589355V12.2377C5.81638 14.0339 9.45731 18.8805 9.45731 24.5775C9.45731 30.2745 5.81638 35.121 0.734497 36.9173L0.734497 47.1294C5.81644 48.9256 9.45743 53.7722 9.45743 59.4693C9.45743 65.1663 5.81644 70.0129 0.734497 71.8091V82.021C5.81644 83.8172 9.45743 88.6638 9.45743 94.3608C9.45743 100.058 5.81644 104.904 0.734497 106.701L0.734497 116.913C5.81644 118.709 9.45743 123.555 9.45743 129.252C9.45743 134.949 5.81644 139.796 0.734497 141.592V151.804C5.81644 153.6 9.45743 158.447 9.45743 164.144C9.45743 169.841 5.81644 174.688 0.734497 176.484V186.695C5.81638 188.492 9.45731 193.338 9.45731 199.035C9.45731 204.732 5.81638 209.579 0.734497 211.375V221.587C5.81644 223.383 9.45743 228.23 9.45743 233.927C9.45743 239.624 5.81644 244.47 0.734497 246.267L0.734497 256.479C5.81644 258.275 9.45743 263.121 9.45743 268.818C9.45743 274.515 5.81644 279.362 0.734497 281.158V291.37C5.81644 293.166 9.45743 298.013 9.45743 303.71C9.45743 309.407 5.81644 314.254 0.734497 316.05L0.734497 326.262C5.81644 328.058 9.45743 332.904 9.45743 338.601C9.45743 344.298 5.81644 349.145 0.734497 350.941V362.589L12.3827 362.589C14.1788 357.507 19.0255 353.866 24.7227 353.866C30.4197 353.866 35.2664 357.507 37.0626 362.589H47.2743C49.0704 357.507 53.9171 353.866 59.6142 353.866C65.3113 353.866 70.158 357.507 71.9541 362.589L82.1658 362.589C83.9619 357.507 88.8087 353.866 94.5058 353.866C100.203 353.866 105.05 357.507 106.846 362.589H117.057C118.853 357.507 123.7 353.866 129.397 353.866C135.094 353.866 139.941 357.507 141.737 362.589L151.949 362.589C153.745 357.507 158.592 353.866 164.289 353.866C169.986 353.866 174.833 357.507 176.629 362.589H186.84C188.637 357.507 193.483 353.866 199.18 353.866C204.878 353.866 209.724 357.507 211.52 362.589L221.732 362.589C223.528 357.507 228.375 353.866 234.072 353.866C239.769 353.866 244.616 357.507 246.412 362.589H256.624C258.42 357.507 263.266 353.866 268.964 353.866C274.661 353.866 279.507 357.507 281.303 362.589H291.515C293.311 357.507 298.158 353.866 303.855 353.866C309.552 353.866 314.399 357.507 316.195 362.589L326.407 362.589C328.203 357.507 333.05 353.866 338.747 353.866C344.444 353.866 349.29 357.507 351.087 362.589H361.298C363.094 357.507 367.941 353.866 373.638 353.866C379.335 353.866 384.182 357.507 385.978 362.589L396.19 362.589C397.986 357.507 402.833 353.866 408.53 353.866C414.227 353.866 419.074 357.507 420.87 362.589H431.081C432.878 357.507 437.724 353.866 443.421 353.866C449.118 353.866 453.965 357.507 455.761 362.589L465.973 362.589C467.769 357.507 472.616 353.866 478.313 353.866C484.01 353.866 488.856 357.507 490.653 362.589H502.301L502.301 350.941C497.219 349.145 493.578 344.298 493.578 338.601C493.578 332.904 497.219 328.058 502.301 326.261V316.049C497.219 314.253 493.578 309.407 493.578 303.71C493.578 298.013 497.219 293.166 502.301 291.37L502.301 281.158C497.219 279.362 493.578 274.515 493.578 268.818C493.578 263.121 497.219 258.275 502.301 256.478V246.266C497.219 244.47 493.578 239.624 493.578 233.927C493.578 228.23 497.219 223.383 502.301 221.587L502.301 211.375C497.219 209.579 493.578 204.732 493.578 199.035C493.578 193.338 497.219 188.491 502.301 186.695L502.301 176.484C497.219 174.687 493.578 169.841 493.578 164.144C493.578 158.447 497.219 153.6 502.301 151.804V141.592C497.219 139.796 493.578 134.949 493.578 129.252C493.578 123.555 497.219 118.709 502.301 116.912Z" fill="#0085FF"/>
<rect x="456.506" y="33.2998" width="296.578" height="409.976" transform="rotate(90 456.506 33.2998)" fill="white"/>
<path d="M78.5354 77.9522H86.8954V88.8322C85.2954 89.7656 83.7754 90.3522 82.3354 90.5922C80.8954 90.8322 79.4954 90.9522 78.1354 90.9522C76.3221 90.9522 74.7088 90.6322 73.2954 89.9922C71.8821 89.3256 70.6954 88.4056 69.7354 87.2322C68.7754 86.0322 68.0421 84.6056 67.5354 82.9522C67.0288 81.2722 66.7754 79.4189 66.7754 77.3922C66.7754 75.4189 67.0288 73.6189 67.5354 71.9922C68.0421 70.3389 68.7754 68.9389 69.7354 67.7922C70.6954 66.6456 71.8688 65.7522 73.2554 65.1122C74.6688 64.4722 76.2554 64.1522 78.0154 64.1522C79.9888 64.1522 81.6821 64.4856 83.0954 65.1522C84.5088 65.8189 85.7354 66.7256 86.7754 67.8722L84.7354 70.0722C83.9888 69.2189 83.0154 68.5256 81.8154 67.9922C80.6154 67.4589 79.4288 67.1922 78.2554 67.1922C75.6154 67.1922 73.5888 68.1389 72.1754 70.0322C70.7888 71.8989 70.0954 74.3522 70.0954 77.3922C70.0954 80.6456 70.8954 83.2189 72.4954 85.1122C74.1221 86.9789 76.4288 87.9122 79.4154 87.9122C80.0821 87.9122 80.7754 87.8856 81.4954 87.8322C82.2421 87.7522 82.9754 87.5522 83.6954 87.2322V80.9122H78.5354V77.9522ZM109.2 87.5922V90.5522H92.3998V87.5922H99.1998V67.5122H92.3998V64.5522H109.2V67.5122H102.4V87.5922H109.2ZM134.344 87.5922V90.5522H115.224V87.5922L130.384 67.5122H116.424V64.5522H134.104V67.5122L119.024 87.5922H134.344ZM141.929 90.5522H138.769L146.889 64.5522H150.649L158.769 90.5522H155.529L153.329 83.2722H144.129L141.929 90.5522ZM145.049 80.3122H152.409L148.729 68.1122L145.049 80.3122Z" fill="#0085FF"/>
<path opacity="0.6" d="M71.0635 123.894L73.4325 108.944H82.4715L82.1955 110.646H74.9735L74.2605 115.177H79.8725L79.5965 116.879H73.9845L73.1565 122.192H80.4705L80.1945 123.894H71.0635ZM87.7755 126.838C88.6955 126.838 89.5082 126.47 90.2135 125.734C90.9188 125.013 91.4248 123.763 91.7315 121.985C91.2868 122.46 90.7808 122.82 90.2135 123.066C89.6615 123.311 89.1018 123.434 88.5345 123.434C87.8905 123.434 87.3078 123.311 86.7865 123.066C86.2652 122.82 85.8358 122.468 85.4985 122.008C85.1612 121.548 84.9235 120.98 84.7855 120.306C84.6475 119.631 84.6475 118.872 84.7855 118.029C84.9235 117.185 85.1535 116.426 85.4755 115.752C85.7975 115.077 86.1808 114.51 86.6255 114.05C87.0855 113.59 87.5838 113.237 88.1205 112.992C88.6725 112.746 89.2322 112.624 89.7995 112.624C90.4742 112.624 91.0875 112.762 91.6395 113.038C92.1915 113.298 92.6362 113.689 92.9735 114.211C92.9888 113.965 93.0042 113.735 93.0195 113.521C93.0502 113.306 93.0885 113.084 93.1345 112.854H94.9515L93.5025 121.87C93.3032 123.127 93.0042 124.177 92.6055 125.021C92.2068 125.879 91.7315 126.562 91.1795 127.068C90.6428 127.574 90.0448 127.934 89.3855 128.149C88.7262 128.379 88.0362 128.494 87.3155 128.494C86.3802 128.494 85.5752 128.317 84.9005 127.965C84.2258 127.627 83.7198 127.167 83.3825 126.585L85.1075 125.642C85.3682 126.056 85.7208 126.355 86.1655 126.539C86.6255 126.738 87.1622 126.838 87.7755 126.838ZM90.1905 114.28C89.3778 114.28 88.6265 114.625 87.9365 115.315C87.2465 115.989 86.8172 116.894 86.6485 118.029C86.4645 119.163 86.6102 120.076 87.0855 120.766C87.5608 121.44 88.1972 121.778 88.9945 121.778C89.7458 121.778 90.4588 121.471 91.1335 120.858C91.8082 120.229 92.2605 119.401 92.4905 118.374L92.6055 117.684C92.6975 116.656 92.5058 115.836 92.0305 115.223C91.5552 114.594 90.9418 114.28 90.1905 114.28ZM101.797 126.838C102.747 126.838 103.575 126.462 104.281 125.711C104.986 124.959 105.484 123.687 105.776 121.893C105.331 122.383 104.817 122.767 104.235 123.043C103.652 123.303 103.054 123.434 102.441 123.434C101.26 123.434 100.317 123.058 99.6115 122.307C98.9062 121.54 98.6532 120.513 98.8525 119.225L99.8645 112.854H101.705L100.739 118.949C100.585 119.915 100.716 120.628 101.13 121.088C101.559 121.548 102.126 121.778 102.832 121.778C103.2 121.778 103.568 121.716 103.936 121.594C104.319 121.456 104.664 121.264 104.971 121.019C105.277 120.773 105.538 120.474 105.753 120.122C105.983 119.769 106.128 119.378 106.19 118.949L107.156 112.854H108.973L107.501 122.353C107.317 123.518 107.025 124.492 106.627 125.274C106.243 126.071 105.776 126.707 105.224 127.183C104.687 127.658 104.081 127.995 103.407 128.195C102.747 128.394 102.057 128.494 101.337 128.494C100.401 128.494 99.5962 128.317 98.9215 127.965C98.2468 127.627 97.7408 127.167 97.4035 126.585L99.1285 125.642C99.3892 126.056 99.7418 126.355 100.187 126.539C100.647 126.738 101.183 126.838 101.797 126.838ZM111.402 128.264L113.84 112.854H115.657C115.626 113.099 115.588 113.344 115.542 113.59C115.496 113.82 115.442 114.042 115.381 114.257C115.856 113.735 116.393 113.337 116.991 113.061C117.604 112.769 118.217 112.624 118.831 112.624C119.505 112.624 120.119 112.754 120.671 113.015C121.223 113.275 121.675 113.651 122.028 114.142C122.38 114.632 122.626 115.238 122.764 115.959C122.902 116.664 122.894 117.469 122.741 118.374C122.603 119.278 122.365 120.091 122.028 120.812C121.69 121.517 121.284 122.115 120.809 122.606C120.349 123.096 119.827 123.472 119.245 123.733C118.677 123.993 118.087 124.124 117.474 124.124C116.738 124.124 116.078 123.97 115.496 123.664C114.913 123.342 114.445 122.897 114.093 122.33C114.077 122.514 114.054 122.759 114.024 123.066C113.993 123.372 113.955 123.648 113.909 123.894L113.196 128.264H111.402ZM117.083 122.468C117.941 122.468 118.739 122.1 119.475 121.364C120.226 120.612 120.701 119.616 120.901 118.374C121.1 117.132 120.947 116.143 120.441 115.407C119.935 114.655 119.245 114.28 118.371 114.28C117.941 114.28 117.52 114.379 117.106 114.579C116.692 114.763 116.308 115.039 115.956 115.407C115.618 115.759 115.319 116.189 115.059 116.695C114.813 117.201 114.645 117.76 114.553 118.374C114.353 119.616 114.507 120.612 115.013 121.364C115.534 122.1 116.224 122.468 117.083 122.468ZM127.493 119.984L128.344 114.556H126.021L126.297 112.854H128.62L129.126 109.634L130.966 109.381L130.414 112.854H136.831L136.578 114.556H130.138L129.287 119.915C129.164 120.681 129.271 121.272 129.609 121.686C129.946 122.1 130.467 122.307 131.173 122.307C131.863 122.307 132.445 122.123 132.921 121.755C133.396 121.371 133.687 120.827 133.795 120.122C133.841 119.815 133.864 119.485 133.864 119.133C133.864 118.78 133.818 118.412 133.726 118.029L135.451 117.569C135.558 117.891 135.627 118.289 135.658 118.765C135.688 119.225 135.665 119.692 135.589 120.168C135.405 121.348 134.899 122.307 134.071 123.043C133.258 123.763 132.277 124.124 131.127 124.124C129.716 124.124 128.704 123.748 128.091 122.997C127.493 122.23 127.293 121.226 127.493 119.984Z" fill="#0085FF"/>
<path d="M108.284 308.391H98.0759C98.0759 307.555 98.1933 306.821 98.4279 306.191C98.6626 305.56 98.9706 305.01 99.3519 304.541C99.7333 304.057 100.166 303.631 100.65 303.265C101.149 302.883 101.655 302.539 102.168 302.231C102.667 301.923 103.151 301.629 103.62 301.351C104.104 301.072 104.529 300.779 104.896 300.471C105.277 300.163 105.578 299.825 105.798 299.459C106.033 299.092 106.15 298.667 106.15 298.183C106.15 297.728 106.055 297.339 105.864 297.017C105.673 296.694 105.431 296.43 105.138 296.225C104.859 296.019 104.544 295.873 104.192 295.785C103.855 295.697 103.532 295.653 103.224 295.653C102.271 295.653 101.471 295.961 100.826 296.577C100.195 297.178 99.8799 297.904 99.8799 298.755H98.1859C98.1859 298.124 98.3106 297.515 98.5599 296.929C98.8093 296.327 99.1539 295.807 99.5939 295.367C100.049 294.912 100.591 294.553 101.222 294.289C101.853 294.01 102.557 293.871 103.334 293.871C103.935 293.871 104.515 293.973 105.072 294.179C105.629 294.384 106.113 294.67 106.524 295.037C106.949 295.403 107.287 295.851 107.536 296.379C107.785 296.892 107.91 297.464 107.91 298.095C107.91 298.755 107.793 299.334 107.558 299.833C107.338 300.331 107.037 300.779 106.656 301.175C106.289 301.556 105.864 301.901 105.38 302.209C104.911 302.517 104.427 302.817 103.928 303.111C103.092 303.609 102.3 304.13 101.552 304.673C100.804 305.215 100.298 305.912 100.034 306.763H108.284V308.391ZM117.009 293.871C117.757 293.871 118.454 294.01 119.099 294.289C119.745 294.553 120.302 294.941 120.771 295.455C121.241 295.953 121.607 296.577 121.871 297.325C122.15 298.073 122.289 298.923 122.289 299.877C122.289 301.343 122.099 302.627 121.717 303.727C121.336 304.827 120.823 305.736 120.177 306.455C119.532 307.173 118.777 307.716 117.911 308.083C117.061 308.435 116.159 308.611 115.205 308.611C114.765 308.611 114.318 308.567 113.863 308.479C113.423 308.405 112.976 308.288 112.521 308.127L113.049 306.631C113.401 306.748 113.746 306.836 114.083 306.895C114.421 306.953 114.751 306.983 115.073 306.983C115.821 306.983 116.518 306.843 117.163 306.565C117.809 306.271 118.366 305.875 118.835 305.377C119.305 304.863 119.686 304.255 119.979 303.551C120.287 302.847 120.478 302.084 120.551 301.263C120.185 301.805 119.664 302.26 118.989 302.627C118.329 302.993 117.537 303.177 116.613 303.177C115.865 303.177 115.205 303.067 114.633 302.847C114.061 302.612 113.585 302.304 113.203 301.923C112.837 301.527 112.558 301.065 112.367 300.537C112.177 300.009 112.081 299.444 112.081 298.843C112.081 297.347 112.529 296.144 113.423 295.235C114.333 294.325 115.528 293.871 117.009 293.871ZM117.009 295.411C116.129 295.411 115.367 295.689 114.721 296.247C114.076 296.789 113.753 297.589 113.753 298.645C113.753 299.627 114.061 300.383 114.677 300.911C115.293 301.424 116.071 301.681 117.009 301.681C117.904 301.681 118.674 301.387 119.319 300.801C119.965 300.199 120.287 299.481 120.287 298.645C120.287 297.765 119.965 297.009 119.319 296.379C118.674 295.733 117.904 295.411 117.009 295.411ZM129.277 293.607C130.201 293.607 130.993 293.937 131.653 294.597C132.313 295.257 132.643 296.041 132.643 296.951C132.643 297.875 132.313 298.667 131.653 299.327C130.993 299.987 130.201 300.317 129.277 300.317C128.367 300.317 127.575 299.987 126.901 299.327C126.241 298.667 125.911 297.875 125.911 296.951C125.911 296.041 126.241 295.257 126.901 294.597C127.575 293.937 128.367 293.607 129.277 293.607ZM129.277 295.213C128.793 295.213 128.375 295.389 128.023 295.741C127.685 296.078 127.517 296.481 127.517 296.951C127.517 297.449 127.685 297.867 128.023 298.205C128.375 298.542 128.793 298.711 129.277 298.711C129.761 298.711 130.171 298.542 130.509 298.205C130.861 297.867 131.037 297.449 131.037 296.951C131.037 296.481 130.861 296.078 130.509 295.741C130.171 295.389 129.761 295.213 129.277 295.213ZM138.288 306.719C138.435 306.763 138.618 306.807 138.838 306.851C139.058 306.88 139.285 306.895 139.52 306.895C140.209 306.895 140.891 306.851 141.566 306.763C142.255 306.66 142.864 306.469 143.392 306.191C143.92 305.912 144.345 305.523 144.668 305.025C145.005 304.511 145.174 303.851 145.174 303.045C145.174 302.238 144.969 301.578 144.558 301.065C144.162 300.537 143.568 300.273 142.776 300.273C142.175 300.273 141.603 300.427 141.06 300.735C140.517 301.028 140.136 301.336 139.916 301.659H138.288L138.904 294.091H147.572V295.719H140.4L140.048 300.031C140.459 299.605 140.913 299.29 141.412 299.085C141.925 298.865 142.527 298.755 143.216 298.755C143.715 298.755 144.184 298.835 144.624 298.997C145.079 299.158 145.475 299.4 145.812 299.723C146.164 300.045 146.443 300.456 146.648 300.955C146.853 301.439 146.956 302.011 146.956 302.671C146.956 303.712 146.758 304.614 146.362 305.377C145.981 306.125 145.46 306.741 144.8 307.225C144.14 307.694 143.363 308.046 142.468 308.281C141.573 308.501 140.627 308.611 139.63 308.611C139.278 308.611 138.919 308.589 138.552 308.545C138.2 308.515 137.892 308.457 137.628 308.369L138.288 306.719ZM155.66 308.611C154.002 308.611 152.675 308.229 151.678 307.467C150.68 306.704 150.182 305.685 150.182 304.409C150.182 303.573 150.402 302.839 150.842 302.209C151.282 301.578 151.898 301.094 152.69 300.757C152.015 300.449 151.487 300.031 151.106 299.503C150.724 298.96 150.534 298.329 150.534 297.611C150.534 296.481 151.003 295.579 151.942 294.905C152.88 294.215 154.127 293.871 155.682 293.871C157.222 293.871 158.461 294.215 159.4 294.905C160.338 295.579 160.808 296.481 160.808 297.611C160.808 298.329 160.617 298.96 160.236 299.503C159.854 300.031 159.319 300.449 158.63 300.757C159.422 301.094 160.038 301.578 160.478 302.209C160.932 302.839 161.16 303.573 161.16 304.409C161.16 305.685 160.654 306.704 159.642 307.467C158.644 308.229 157.317 308.611 155.66 308.611ZM155.66 300.097C156.642 300.097 157.434 299.884 158.036 299.459C158.637 299.019 158.938 298.439 158.938 297.721C158.938 297.002 158.637 296.437 158.036 296.027C157.434 295.616 156.642 295.411 155.66 295.411C154.677 295.411 153.885 295.616 153.284 296.027C152.682 296.437 152.382 297.002 152.382 297.721C152.382 298.439 152.682 299.019 153.284 299.459C153.885 299.884 154.677 300.097 155.66 300.097ZM155.66 307.071C156.76 307.071 157.64 306.821 158.3 306.323C158.974 305.809 159.312 305.135 159.312 304.299C159.312 303.433 158.974 302.737 158.3 302.209C157.64 301.681 156.76 301.417 155.66 301.417C154.56 301.417 153.672 301.681 152.998 302.209C152.338 302.737 152.008 303.433 152.008 304.299C152.008 305.135 152.338 305.809 152.998 306.323C153.672 306.821 154.56 307.071 155.66 307.071ZM169.379 290.241L171.007 290.901L168.323 297.369L166.695 296.709L169.379 290.241ZM184.506 308.391H182.746V304.871H176.586V303.353L182.02 294.091H184.506V303.353H188.026V304.871H184.506V308.391ZM178.434 303.353H182.746V295.939L178.434 303.353ZM191.054 306.719C191.2 306.763 191.384 306.807 191.604 306.851C191.824 306.88 192.051 306.895 192.286 306.895C192.975 306.895 193.657 306.851 194.332 306.763C195.021 306.66 195.63 306.469 196.158 306.191C196.686 305.912 197.111 305.523 197.434 305.025C197.771 304.511 197.94 303.851 197.94 303.045C197.94 302.238 197.734 301.578 197.324 301.065C196.928 300.537 196.334 300.273 195.542 300.273C194.94 300.273 194.368 300.427 193.826 300.735C193.283 301.028 192.902 301.336 192.682 301.659H191.054L191.67 294.091H200.338V295.719H193.166L192.814 300.031C193.224 299.605 193.679 299.29 194.178 299.085C194.691 298.865 195.292 298.755 195.982 298.755C196.48 298.755 196.95 298.835 197.39 298.997C197.844 299.158 198.24 299.4 198.578 299.723C198.93 300.045 199.208 300.456 199.414 300.955C199.619 301.439 199.722 302.011 199.722 302.671C199.722 303.712 199.524 304.614 199.128 305.377C198.746 306.125 198.226 306.741 197.566 307.225C196.906 307.694 196.128 308.046 195.234 308.281C194.339 308.501 193.393 308.611 192.396 308.611C192.044 308.611 191.684 308.589 191.318 308.545C190.966 308.515 190.658 308.457 190.394 308.369L191.054 306.719ZM211.153 290.241L212.781 290.901L210.097 297.369L208.469 296.709L211.153 290.241ZM206.753 290.241L208.381 290.901L205.697 297.369L204.069 296.709L206.753 290.241ZM223.509 308.391L218.537 295.323V308.391H216.843V294.091H220.011L224.697 306.433V294.091H226.391V308.391H223.509ZM242.499 308.391L243.247 306.807C243.379 306.836 243.533 306.858 243.709 306.873C243.9 306.887 244.12 306.895 244.369 306.895C245.059 306.895 245.777 306.814 246.525 306.653C247.273 306.477 247.955 306.213 248.571 305.861C249.187 305.494 249.693 305.025 250.089 304.453C250.485 303.866 250.683 303.169 250.683 302.363C250.683 301.732 250.515 301.211 250.177 300.801C249.855 300.375 249.297 300.163 248.505 300.163C248.168 300.163 247.853 300.236 247.559 300.383C247.281 300.515 246.98 300.72 246.657 300.999L245.997 301.593L244.809 300.471L250.243 295.719H243.137V294.091H252.421V295.719L248.835 298.997C248.938 298.967 249.048 298.945 249.165 298.931C249.297 298.916 249.422 298.909 249.539 298.909C250.331 298.909 251.013 299.195 251.585 299.767C252.172 300.324 252.465 301.153 252.465 302.253C252.465 303.279 252.238 304.189 251.783 304.981C251.329 305.773 250.727 306.44 249.979 306.983C249.231 307.511 248.373 307.914 247.405 308.193C246.452 308.471 245.477 308.611 244.479 308.611C244.127 308.611 243.775 308.596 243.423 308.567C243.071 308.537 242.763 308.479 242.499 308.391ZM267.417 306.763V308.391H255.823V306.763H261.191V295.961L257.627 298.051L256.461 296.863L261.191 294.091H262.951V306.763H267.417ZM274.382 293.607C275.306 293.607 276.098 293.937 276.758 294.597C277.418 295.257 277.748 296.041 277.748 296.951C277.748 297.875 277.418 298.667 276.758 299.327C276.098 299.987 275.306 300.317 274.382 300.317C273.473 300.317 272.681 299.987 272.006 299.327C271.346 298.667 271.016 297.875 271.016 296.951C271.016 296.041 271.346 295.257 272.006 294.597C272.681 293.937 273.473 293.607 274.382 293.607ZM274.382 295.213C273.898 295.213 273.48 295.389 273.128 295.741C272.791 296.078 272.622 296.481 272.622 296.951C272.622 297.449 272.791 297.867 273.128 298.205C273.48 298.542 273.898 298.711 274.382 298.711C274.866 298.711 275.277 298.542 275.614 298.205C275.966 297.867 276.142 297.449 276.142 296.951C276.142 296.481 275.966 296.078 275.614 295.741C275.277 295.389 274.866 295.213 274.382 295.213ZM287.574 308.611C286.752 308.611 285.997 308.435 285.308 308.083C284.633 307.731 284.054 307.232 283.57 306.587C283.086 305.941 282.712 305.171 282.448 304.277C282.184 303.367 282.052 302.363 282.052 301.263C282.052 300.163 282.184 299.158 282.448 298.249C282.712 297.325 283.086 296.54 283.57 295.895C284.054 295.249 284.633 294.751 285.308 294.399C285.997 294.047 286.752 293.871 287.574 293.871C288.395 293.871 289.143 294.047 289.818 294.399C290.507 294.751 291.094 295.249 291.578 295.895C292.062 296.54 292.436 297.325 292.7 298.249C292.964 299.158 293.096 300.163 293.096 301.263C293.096 302.363 292.964 303.367 292.7 304.277C292.436 305.171 292.062 305.941 291.578 306.587C291.094 307.232 290.507 307.731 289.818 308.083C289.143 308.435 288.395 308.611 287.574 308.611ZM283.834 301.263C283.834 301.893 283.878 302.487 283.966 303.045C284.068 303.587 284.208 304.086 284.384 304.541L289.972 296.599C289.649 296.232 289.282 295.946 288.872 295.741C288.476 295.535 288.043 295.433 287.574 295.433C286.444 295.433 285.535 295.968 284.846 297.039C284.171 298.109 283.834 299.517 283.834 301.263ZM287.574 307.049C288.131 307.049 288.637 306.909 289.092 306.631C289.561 306.352 289.957 305.963 290.28 305.465C290.602 304.951 290.852 304.343 291.028 303.639C291.218 302.92 291.314 302.128 291.314 301.263C291.314 300.647 291.27 300.075 291.182 299.547C291.094 299.004 290.962 298.513 290.786 298.073L285.242 305.971C285.55 306.308 285.902 306.572 286.298 306.763C286.694 306.953 287.119 307.049 287.574 307.049ZM300.765 308.611C299.108 308.611 297.78 308.229 296.783 307.467C295.786 306.704 295.287 305.685 295.287 304.409C295.287 303.573 295.507 302.839 295.947 302.209C296.387 301.578 297.003 301.094 297.795 300.757C297.12 300.449 296.592 300.031 296.211 299.503C295.83 298.96 295.639 298.329 295.639 297.611C295.639 296.481 296.108 295.579 297.047 294.905C297.986 294.215 299.232 293.871 300.787 293.871C302.327 293.871 303.566 294.215 304.505 294.905C305.444 295.579 305.913 296.481 305.913 297.611C305.913 298.329 305.722 298.96 305.341 299.503C304.96 300.031 304.424 300.449 303.735 300.757C304.527 301.094 305.143 301.578 305.583 302.209C306.038 302.839 306.265 303.573 306.265 304.409C306.265 305.685 305.759 306.704 304.747 307.467C303.75 308.229 302.422 308.611 300.765 308.611ZM300.765 300.097C301.748 300.097 302.54 299.884 303.141 299.459C303.742 299.019 304.043 298.439 304.043 297.721C304.043 297.002 303.742 296.437 303.141 296.027C302.54 295.616 301.748 295.411 300.765 295.411C299.782 295.411 298.99 295.616 298.389 296.027C297.788 296.437 297.487 297.002 297.487 297.721C297.487 298.439 297.788 299.019 298.389 299.459C298.99 299.884 299.782 300.097 300.765 300.097ZM300.765 307.071C301.865 307.071 302.745 306.821 303.405 306.323C304.08 305.809 304.417 305.135 304.417 304.299C304.417 303.433 304.08 302.737 303.405 302.209C302.745 301.681 301.865 301.417 300.765 301.417C299.665 301.417 298.778 301.681 298.103 302.209C297.443 302.737 297.113 303.433 297.113 304.299C297.113 305.135 297.443 305.809 298.103 306.323C298.778 306.821 299.665 307.071 300.765 307.071ZM314.484 290.241L316.112 290.901L313.428 297.369L311.8 296.709L314.484 290.241ZM327.148 308.611C326.327 308.611 325.571 308.435 324.882 308.083C324.207 307.731 323.628 307.232 323.144 306.587C322.66 305.941 322.286 305.171 322.022 304.277C321.758 303.367 321.626 302.363 321.626 301.263C321.626 300.163 321.758 299.158 322.022 298.249C322.286 297.325 322.66 296.54 323.144 295.895C323.628 295.249 324.207 294.751 324.882 294.399C325.571 294.047 326.327 293.871 327.148 293.871C327.969 293.871 328.717 294.047 329.392 294.399C330.081 294.751 330.668 295.249 331.152 295.895C331.636 296.54 332.01 297.325 332.274 298.249C332.538 299.158 332.67 300.163 332.67 301.263C332.67 302.363 332.538 303.367 332.274 304.277C332.01 305.171 331.636 305.941 331.152 306.587C330.668 307.232 330.081 307.731 329.392 308.083C328.717 308.435 327.969 308.611 327.148 308.611ZM323.408 301.263C323.408 301.893 323.452 302.487 323.54 303.045C323.643 303.587 323.782 304.086 323.958 304.541L329.546 296.599C329.223 296.232 328.857 295.946 328.446 295.741C328.05 295.535 327.617 295.433 327.148 295.433C326.019 295.433 325.109 295.968 324.42 297.039C323.745 298.109 323.408 299.517 323.408 301.263ZM327.148 307.049C327.705 307.049 328.211 306.909 328.666 306.631C329.135 306.352 329.531 305.963 329.854 305.465C330.177 304.951 330.426 304.343 330.602 303.639C330.793 302.92 330.888 302.128 330.888 301.263C330.888 300.647 330.844 300.075 330.756 299.547C330.668 299.004 330.536 298.513 330.36 298.073L324.816 305.971C325.124 306.308 325.476 306.572 325.872 306.763C326.268 306.953 326.693 307.049 327.148 307.049ZM334.839 308.391L335.587 306.807C335.719 306.836 335.873 306.858 336.049 306.873C336.24 306.887 336.46 306.895 336.709 306.895C337.399 306.895 338.117 306.814 338.865 306.653C339.613 306.477 340.295 306.213 340.911 305.861C341.527 305.494 342.033 305.025 342.429 304.453C342.825 303.866 343.023 303.169 343.023 302.363C343.023 301.732 342.855 301.211 342.517 300.801C342.195 300.375 341.637 300.163 340.845 300.163C340.508 300.163 340.193 300.236 339.899 300.383C339.621 300.515 339.32 300.72 338.997 300.999L338.337 301.593L337.149 300.471L342.583 295.719H335.477V294.091H344.761V295.719L341.175 298.997C341.278 298.967 341.388 298.945 341.505 298.931C341.637 298.916 341.762 298.909 341.879 298.909C342.671 298.909 343.353 299.195 343.925 299.767C344.512 300.324 344.805 301.153 344.805 302.253C344.805 303.279 344.578 304.189 344.123 304.981C343.669 305.773 343.067 306.44 342.319 306.983C341.571 307.511 340.713 307.914 339.745 308.193C338.792 308.471 337.817 308.611 336.819 308.611C336.467 308.611 336.115 308.596 335.763 308.567C335.411 308.537 335.103 308.479 334.839 308.391ZM356.259 290.241L357.887 290.901L355.203 297.369L353.575 296.709L356.259 290.241ZM351.859 290.241L353.487 290.901L350.803 297.369L349.175 296.709L351.859 290.241ZM371.716 306.763V308.391H362.806V294.091H371.628V295.719H364.566V300.053H370.044V301.681H364.566V306.763H371.716Z" fill="#0085FF"/>
<path d="M43.7349 265.589L191.235 152.589L292.235 265.589H203.235L232.235 161.589L378.235 265.589L307.235 246.089L366.235 200.589L470.235 265.589" stroke="#0085FF" stroke-width="2"/>
</svg>
