<svg width="1953" height="622" viewBox="0 0 1953 622" fill="none" xmlns="http://www.w3.org/2000/svg">
<rect x="17.8167" y="1.31867" width="1908.93" height="115" transform="rotate(8.33116 17.8167 1.31867)" fill="white" stroke="#0085FF" stroke-width="2"/>
<rect x="58.9328" y="505.686" width="1891.81" height="115" transform="rotate(-0.180525 58.9328 505.686)" fill="white" stroke="#0085FF" stroke-width="2"/>
<path d="M162 593.212V526.033H206.855V593.212H198.587V533.681H170.268V593.212H162Z" fill="#0085FF"/>
<path d="M246.399 594.246C242.54 594.246 238.992 593.419 235.753 591.765C232.584 590.112 229.862 587.769 227.588 584.737C225.315 581.706 223.558 578.088 222.317 573.885C221.077 569.614 220.457 564.894 220.457 559.726C220.457 554.559 221.077 549.839 222.317 545.567C223.558 541.226 225.315 537.54 227.588 534.508C229.862 531.477 232.584 529.134 235.753 527.48C238.992 525.827 242.54 525 246.399 525C250.257 525 253.771 525.827 256.94 527.48C260.179 529.134 262.935 531.477 265.209 534.508C267.482 537.54 269.239 541.226 270.48 545.567C271.72 549.839 272.34 554.559 272.34 559.726C272.34 564.894 271.72 569.614 270.48 573.885C269.239 578.088 267.482 581.706 265.209 584.737C262.935 587.769 260.179 590.112 256.94 591.765C253.771 593.419 250.257 594.246 246.399 594.246ZM246.399 586.391C251.566 586.391 255.735 583.945 258.904 579.053C262.074 574.092 263.658 567.65 263.658 559.726C263.658 551.734 262.074 545.257 258.904 540.296C255.735 535.335 251.566 532.855 246.399 532.855C241.231 532.855 237.062 535.335 233.893 540.296C230.723 545.257 229.139 551.734 229.139 559.726C229.139 567.65 230.723 574.092 233.893 579.053C237.062 583.945 241.231 586.391 246.399 586.391Z" fill="#0085FF"/>
<path d="M329.66 526.033V593.212H321.392V563.24C319.256 564.136 317.017 564.825 314.674 565.307C312.331 565.721 309.679 565.927 306.716 565.927C303.822 565.927 300.997 565.617 298.241 564.997C295.554 564.308 293.142 563.24 291.006 561.793C288.939 560.277 287.286 558.314 286.045 555.902C284.805 553.491 284.185 550.562 284.185 547.117V526.033H292.763V546.6C292.763 550.734 294.176 553.697 297.001 555.489C299.826 557.28 303.478 558.176 307.956 558.176C310.299 558.176 312.641 558.004 314.984 557.659C317.327 557.246 319.463 556.557 321.392 555.592V526.033H329.66Z" fill="#0085FF"/>
<path d="M366.207 593.212V533.681H343.986V526.033H396.695V533.681H374.475V593.212H366.207Z" fill="#0085FF"/>
<path d="M414.638 593.212H406.474L427.454 526.033H437.169L458.15 593.212H449.778L444.094 574.402H420.323L414.638 593.212ZM422.7 566.754H441.717L432.208 535.232L422.7 566.754Z" fill="#0085FF"/>
<path d="M533.826 593.212V526.033H578.681V593.212H570.413V533.681H542.094V593.212H533.826Z" fill="#0085FF"/>
<path d="M618.225 594.246C614.366 594.246 610.818 593.419 607.58 591.765C604.41 590.112 601.688 587.769 599.415 584.737C597.141 581.706 595.384 578.088 594.144 573.885C592.903 569.614 592.283 564.894 592.283 559.726C592.283 554.559 592.903 549.839 594.144 545.567C595.384 541.226 597.141 537.54 599.415 534.508C601.688 531.477 604.41 529.134 607.58 527.48C610.818 525.827 614.366 525 618.225 525C622.083 525 625.597 525.827 628.767 527.48C632.005 529.134 634.761 531.477 637.035 534.508C639.309 537.54 641.066 541.226 642.306 545.567C643.546 549.839 644.166 554.559 644.166 559.726C644.166 564.894 643.546 569.614 642.306 573.885C641.066 578.088 639.309 581.706 637.035 584.737C634.761 587.769 632.005 590.112 628.767 591.765C625.597 593.419 622.083 594.246 618.225 594.246ZM618.225 586.391C623.392 586.391 627.561 583.945 630.73 579.053C633.9 574.092 635.485 567.65 635.485 559.726C635.485 551.734 633.9 545.257 630.73 540.296C627.561 535.335 623.392 532.855 618.225 532.855C613.057 532.855 608.889 535.335 605.719 540.296C602.55 545.257 600.965 551.734 600.965 559.726C600.965 567.65 602.55 574.092 605.719 579.053C608.889 583.945 613.057 586.391 618.225 586.391Z" fill="#0085FF"/>
<path d="M701.486 526.033V593.212H693.218V563.24C691.082 564.136 688.843 564.825 686.5 565.307C684.158 565.721 681.505 565.927 678.542 565.927C675.648 565.927 672.823 565.617 670.067 564.997C667.38 564.308 664.969 563.24 662.833 561.793C660.766 560.277 659.112 558.314 657.872 555.902C656.632 553.491 656.011 550.562 656.011 547.117V526.033H664.59V546.6C664.59 550.734 666.002 553.697 668.827 555.489C671.652 557.28 675.304 558.176 679.782 558.176C682.125 558.176 684.468 558.004 686.81 557.659C689.153 557.246 691.289 556.557 693.218 555.592V526.033H701.486Z" fill="#0085FF"/>
<path d="M738.033 593.212V533.681H715.812V526.033H768.522V533.681H746.301V593.212H738.033Z" fill="#0085FF"/>
<path d="M786.465 593.212H778.3L799.28 526.033H808.996L829.976 593.212H821.605L815.92 574.402H792.149L786.465 593.212ZM794.526 566.754H813.543L804.035 535.232L794.526 566.754Z" fill="#0085FF"/>
<path d="M905.653 593.212V526.033H950.507V593.212H942.239V533.681H913.921V593.212H905.653Z" fill="#0085FF"/>
<path d="M990.051 594.246C986.193 594.246 982.644 593.419 979.406 591.765C976.236 590.112 973.515 587.769 971.241 584.737C968.967 581.706 967.21 578.088 965.97 573.885C964.73 569.614 964.11 564.894 964.11 559.726C964.11 554.559 964.73 549.839 965.97 545.567C967.21 541.226 968.967 537.54 971.241 534.508C973.515 531.477 976.236 529.134 979.406 527.48C982.644 525.827 986.193 525 990.051 525C993.91 525 997.424 525.827 1000.59 527.48C1003.83 529.134 1006.59 531.477 1008.86 534.508C1011.13 537.54 1012.89 541.226 1014.13 545.567C1015.37 549.839 1015.99 554.559 1015.99 559.726C1015.99 564.894 1015.37 569.614 1014.13 573.885C1012.89 578.088 1011.13 581.706 1008.86 584.737C1006.59 587.769 1003.83 590.112 1000.59 591.765C997.424 593.419 993.91 594.246 990.051 594.246ZM990.051 586.391C995.219 586.391 999.387 583.945 1002.56 579.053C1005.73 574.092 1007.31 567.65 1007.31 559.726C1007.31 551.734 1005.73 545.257 1002.56 540.296C999.387 535.335 995.219 532.855 990.051 532.855C984.883 532.855 980.715 535.335 977.545 540.296C974.376 545.257 972.791 551.734 972.791 559.726C972.791 567.65 974.376 574.092 977.545 579.053C980.715 583.945 984.883 586.391 990.051 586.391Z" fill="#0085FF"/>
<path d="M1073.31 526.033V593.212H1065.04V563.24C1062.91 564.136 1060.67 564.825 1058.33 565.307C1055.98 565.721 1053.33 565.927 1050.37 565.927C1047.47 565.927 1044.65 565.617 1041.89 564.997C1039.21 564.308 1036.79 563.24 1034.66 561.793C1032.59 560.277 1030.94 558.314 1029.7 555.902C1028.46 553.491 1027.84 550.562 1027.84 547.117V526.033H1036.42V546.6C1036.42 550.734 1037.83 553.697 1040.65 555.489C1043.48 557.28 1047.13 558.176 1051.61 558.176C1053.95 558.176 1056.29 558.004 1058.64 557.659C1060.98 557.246 1063.12 556.557 1065.04 555.592V526.033H1073.31Z" fill="#0085FF"/>
<path d="M1109.86 593.212V533.681H1087.64V526.033H1140.35V533.681H1118.13V593.212H1109.86Z" fill="#0085FF"/>
<path d="M1158.29 593.212H1150.13L1171.11 526.033H1180.82L1201.8 593.212H1193.43L1187.75 574.402H1163.98L1158.29 593.212ZM1166.35 566.754H1185.37L1175.86 535.232L1166.35 566.754Z" fill="#0085FF"/>
<path d="M1277.48 593.212V526.033H1322.33V593.212H1314.07V533.681H1285.75V593.212H1277.48Z" fill="#0085FF"/>
<path d="M1361.88 594.246C1358.02 594.246 1354.47 593.419 1351.23 591.765C1348.06 590.112 1345.34 587.769 1343.07 584.737C1340.79 581.706 1339.04 578.088 1337.8 573.885C1336.56 569.614 1335.94 564.894 1335.94 559.726C1335.94 554.559 1336.56 549.839 1337.8 545.567C1339.04 541.226 1340.79 537.54 1343.07 534.508C1345.34 531.477 1348.06 529.134 1351.23 527.48C1354.47 525.827 1358.02 525 1361.88 525C1365.74 525 1369.25 525.827 1372.42 527.48C1375.66 529.134 1378.41 531.477 1380.69 534.508C1382.96 537.54 1384.72 541.226 1385.96 545.567C1387.2 549.839 1387.82 554.559 1387.82 559.726C1387.82 564.894 1387.2 569.614 1385.96 573.885C1384.72 578.088 1382.96 581.706 1380.69 584.737C1378.41 587.769 1375.66 590.112 1372.42 591.765C1369.25 593.419 1365.74 594.246 1361.88 594.246ZM1361.88 586.391C1367.04 586.391 1371.21 583.945 1374.38 579.053C1377.55 574.092 1379.14 567.65 1379.14 559.726C1379.14 551.734 1377.55 545.257 1374.38 540.296C1371.21 535.335 1367.04 532.855 1361.88 532.855C1356.71 532.855 1352.54 535.335 1349.37 540.296C1346.2 545.257 1344.62 551.734 1344.62 559.726C1344.62 567.65 1346.2 574.092 1349.37 579.053C1352.54 583.945 1356.71 586.391 1361.88 586.391Z" fill="#0085FF"/>
<path d="M1445.14 526.033V593.212H1436.87V563.24C1434.73 564.136 1432.5 564.825 1430.15 565.307C1427.81 565.721 1425.16 565.927 1422.19 565.927C1419.3 565.927 1416.48 565.617 1413.72 564.997C1411.03 564.308 1408.62 563.24 1406.49 561.793C1404.42 560.277 1402.76 558.314 1401.52 555.902C1400.28 553.491 1399.66 550.562 1399.66 547.117V526.033H1408.24V546.6C1408.24 550.734 1409.65 553.697 1412.48 555.489C1415.3 557.28 1418.96 558.176 1423.43 558.176C1425.78 558.176 1428.12 558.004 1430.46 557.659C1432.81 557.246 1434.94 556.557 1436.87 555.592V526.033H1445.14Z" fill="#0085FF"/>
<path d="M1481.69 593.212V533.681H1459.46V526.033H1512.17V533.681H1489.95V593.212H1481.69Z" fill="#0085FF"/>
<path d="M1530.12 593.212H1521.95L1542.93 526.033H1552.65L1573.63 593.212H1565.26L1559.57 574.402H1535.8L1530.12 593.212ZM1538.18 566.754H1557.2L1547.69 535.232L1538.18 566.754Z" fill="#0085FF"/>
<path d="M1649.31 593.212V526.033H1694.16V593.212H1685.89V533.681H1657.57V593.212H1649.31Z" fill="#0085FF"/>
<path d="M1733.7 594.246C1729.85 594.246 1726.3 593.419 1723.06 591.765C1719.89 590.112 1717.17 587.769 1714.89 584.737C1712.62 581.706 1710.86 578.088 1709.62 573.885C1708.38 569.614 1707.76 564.894 1707.76 559.726C1707.76 554.559 1708.38 549.839 1709.62 545.567C1710.86 541.226 1712.62 537.54 1714.89 534.508C1717.17 531.477 1719.89 529.134 1723.06 527.48C1726.3 525.827 1729.85 525 1733.7 525C1737.56 525 1741.08 525.827 1744.25 527.48C1747.48 529.134 1750.24 531.477 1752.51 534.508C1754.79 537.54 1756.54 541.226 1757.78 545.567C1759.03 549.839 1759.65 554.559 1759.65 559.726C1759.65 564.894 1759.03 569.614 1757.78 573.885C1756.54 578.088 1754.79 581.706 1752.51 584.737C1750.24 587.769 1747.48 590.112 1744.25 591.765C1741.08 593.419 1737.56 594.246 1733.7 594.246ZM1733.7 586.391C1738.87 586.391 1743.04 583.945 1746.21 579.053C1749.38 574.092 1750.96 567.65 1750.96 559.726C1750.96 551.734 1749.38 545.257 1746.21 540.296C1743.04 535.335 1738.87 532.855 1733.7 532.855C1728.54 532.855 1724.37 535.335 1721.2 540.296C1718.03 545.257 1716.44 551.734 1716.44 559.726C1716.44 567.65 1718.03 574.092 1721.2 579.053C1724.37 583.945 1728.54 586.391 1733.7 586.391Z" fill="#0085FF"/>
<path d="M1816.97 526.033V593.212H1808.7V563.24C1806.56 564.136 1804.32 564.825 1801.98 565.307C1799.64 565.721 1796.98 565.927 1794.02 565.927C1791.13 565.927 1788.3 565.617 1785.55 564.997C1782.86 564.308 1780.45 563.24 1778.31 561.793C1776.24 560.277 1774.59 558.314 1773.35 555.902C1772.11 553.491 1771.49 550.562 1771.49 547.117V526.033H1780.07V546.6C1780.07 550.734 1781.48 553.697 1784.31 555.489C1787.13 557.28 1790.78 558.176 1795.26 558.176C1797.6 558.176 1799.95 558.004 1802.29 557.659C1804.63 557.246 1806.77 556.557 1808.7 555.592V526.033H1816.97Z" fill="#0085FF"/>
<path d="M1901.94 593.212H1893.78L1914.76 526.033H1924.47L1945.45 593.212H1937.08L1931.4 574.402H1907.63L1901.94 593.212ZM1910.01 566.754H1929.02L1919.51 535.232L1910.01 566.754Z" fill="#0085FF"/>
<path d="M11.1643 81.3472L21.8296 15.0202L66.1156 22.1413L55.4504 88.4683L47.287 87.1557L56.7381 28.3797L28.7787 23.8839L19.3276 82.6599L11.1643 81.3472Z" fill="#0085FF"/>
<path d="M94.3284 95.7666C90.5188 95.1541 87.1466 93.7744 84.2119 91.6276C81.3451 89.4918 79.0299 86.7467 77.2663 83.3925C75.5027 80.0383 74.3423 76.1879 73.7851 71.8414C73.2388 67.4267 73.3758 62.6684 74.1962 57.5663C75.0166 52.4642 76.3782 47.9028 78.2809 43.882C80.1945 39.7931 82.5144 36.4326 85.2407 33.8003C87.9669 31.1681 91.0259 29.2872 94.4177 28.1577C97.8775 27.0392 101.512 26.7862 105.322 27.3988C109.131 28.0113 112.469 29.3855 115.336 31.5214C118.271 33.6682 120.62 36.4187 122.384 39.7729C124.147 43.1271 125.297 47.0455 125.832 51.5281C126.379 55.9427 126.242 60.7011 125.421 65.8032C124.601 70.9052 123.239 75.4667 121.336 79.4875C119.445 83.4403 117.136 86.7328 114.409 89.3651C111.683 91.9973 108.59 93.8727 105.13 94.9913C101.739 96.1207 98.1379 96.3792 94.3284 95.7666ZM95.5754 88.0115C100.677 88.8319 105.181 87.0787 109.087 82.7519C113.004 78.3571 115.592 72.2481 116.85 64.4249C118.118 56.5337 117.582 49.8875 115.24 44.4863C112.899 39.0851 109.177 35.9743 104.075 35.1539C98.9727 34.3335 94.4632 36.1207 90.5463 40.5155C86.6295 44.9103 84.0366 51.0534 82.7677 58.9446C81.5098 66.7678 82.0516 73.38 84.3933 78.7811C86.7459 84.1143 90.4733 87.1911 95.5754 88.0115Z" fill="#0085FF"/>
<path d="M187.363 41.6377L176.698 107.965L168.535 106.652L173.293 77.06C171.042 77.6053 168.722 77.93 166.332 78.0343C163.954 78.0706 161.302 77.8535 158.377 77.3831C155.519 76.9237 152.78 76.1691 150.157 75.1193C147.613 74.0124 145.402 72.5751 143.523 70.8075C141.722 68.9827 140.402 66.7814 139.56 64.2035C138.718 61.6256 138.571 58.636 139.118 55.2346L142.465 34.4181L150.935 35.78L147.669 56.0863C147.013 60.1679 147.937 63.3174 150.442 65.5346C152.947 67.7518 156.41 69.2159 160.832 69.9269C163.145 70.2988 165.485 70.5007 167.853 70.5325C170.231 70.4962 172.449 70.155 174.507 69.5089L179.2 40.325L187.363 41.6377Z" fill="#0085FF"/>
<path d="M212.781 113.767L222.232 54.9908L200.293 51.4631L201.507 43.912L253.548 52.2801L252.334 59.8312L230.395 56.3035L220.944 115.079L212.781 113.767Z" fill="#0085FF"/>
<path d="M260.599 121.456L252.537 120.16L283.917 57.1633L293.509 58.7057L303.558 128.364L295.293 127.035L292.667 107.56L269.197 103.787L260.599 121.456ZM272.758 96.6129L291.534 99.632L287.151 66.9998L272.758 96.6129Z" fill="#0085FF"/>
<path d="M378.275 140.378L388.94 74.0508L433.226 81.1719L422.561 147.499L414.398 146.186L423.849 87.4104L395.889 82.9146L386.438 141.691L378.275 140.378Z" fill="#0085FF"/>
<path d="M461.439 154.797C457.629 154.185 454.257 152.805 451.322 150.658C448.456 148.522 446.141 145.777 444.377 142.423C442.613 139.069 441.453 135.219 440.896 130.872C440.349 126.457 440.486 121.699 441.307 116.597C442.127 111.495 443.489 106.933 445.391 102.913C447.305 98.8238 449.625 95.4632 452.351 92.831C455.077 90.1987 458.136 88.3179 461.528 87.1884C464.988 86.0698 468.623 85.8168 472.432 86.4294C476.242 87.042 479.58 88.4162 482.447 90.552C485.382 92.6988 487.731 95.4493 489.494 98.8035C491.258 102.158 492.407 106.076 492.943 110.559C493.489 114.973 493.352 119.732 492.532 124.834C491.711 129.936 490.35 134.497 488.447 138.518C486.555 142.471 484.246 145.764 481.52 148.396C478.794 151.028 475.701 152.903 472.241 154.022C468.849 155.151 465.248 155.41 461.439 154.797ZM462.686 147.042C467.788 147.863 472.292 146.109 476.198 141.783C480.115 137.388 482.702 131.279 483.96 123.456C485.229 115.564 484.693 108.918 482.351 103.517C480.009 98.1158 476.287 95.005 471.185 94.1846C466.083 93.3642 461.574 95.1514 457.657 99.5462C453.74 103.941 451.147 110.084 449.878 117.975C448.62 125.798 449.162 132.411 451.504 137.812C453.857 143.145 457.584 146.222 462.686 147.042Z" fill="#0085FF"/>
<path d="M554.474 100.668L543.809 166.995L535.645 165.683L540.404 136.091C538.153 136.636 535.832 136.961 533.443 137.065C531.064 137.101 528.412 136.884 525.487 136.414C522.63 135.954 519.89 135.2 517.267 134.15C514.724 133.043 512.512 131.606 510.633 129.838C508.833 128.013 507.512 125.812 506.67 123.234C505.829 120.656 505.681 117.667 506.228 114.265L509.576 93.4488L518.045 94.8107L514.78 115.117C514.124 119.199 515.048 122.348 517.552 124.565C520.057 126.782 523.521 128.247 527.942 128.958C530.255 129.33 532.596 129.531 534.963 129.563C537.342 129.527 539.56 129.186 541.618 128.54L546.311 99.3557L554.474 100.668Z" fill="#0085FF"/>
<path d="M579.892 172.797L589.343 114.021L567.404 110.494L568.618 102.943L620.659 111.311L619.445 118.862L597.506 115.334L588.055 174.11L579.892 172.797Z" fill="#0085FF"/>
<path d="M627.709 180.486L619.648 179.19L651.028 116.194L660.62 117.736L670.669 187.394L662.403 186.065L659.777 166.591L636.308 162.817L627.709 180.486ZM639.869 155.644L658.645 158.663L654.261 126.03L639.869 155.644Z" fill="#0085FF"/>
<path d="M745.385 199.409L756.051 133.081L800.337 140.203L789.672 206.53L781.508 205.217L790.959 146.441L763 141.945L753.549 200.721L745.385 199.409Z" fill="#0085FF"/>
<path d="M828.55 213.828C824.74 213.215 821.368 211.836 818.433 209.689C815.566 207.553 813.251 204.808 811.487 201.454C809.724 198.1 808.563 194.249 808.006 189.903C807.46 185.488 807.597 180.73 808.417 175.628C809.238 170.526 810.599 165.964 812.502 161.943C814.416 157.854 816.736 154.494 819.462 151.862C822.188 149.229 825.247 147.349 828.639 146.219C832.099 145.1 835.733 144.848 839.543 145.46C843.352 146.073 846.691 147.447 849.557 149.583C852.492 151.729 854.841 154.48 856.605 157.834C858.369 161.188 859.518 165.107 860.053 169.589C860.6 174.004 860.463 178.762 859.642 183.864C858.822 188.967 857.46 193.528 855.558 197.549C853.666 201.502 851.357 204.794 848.631 207.426C845.904 210.059 842.811 211.934 839.352 213.053C835.96 214.182 832.359 214.441 828.55 213.828ZM829.797 206.073C834.899 206.893 839.403 205.14 843.309 200.813C847.225 196.418 849.813 190.309 851.071 182.486C852.34 174.595 851.803 167.949 849.462 162.548C847.12 157.146 843.398 154.036 838.296 153.215C833.194 152.395 828.684 154.182 824.768 158.577C820.851 162.972 818.258 169.115 816.989 177.006C815.731 184.829 816.273 191.441 818.614 196.842C820.967 202.176 824.694 205.252 829.797 206.073Z" fill="#0085FF"/>
<path d="M921.585 159.699L910.919 226.026L902.756 224.713L907.514 195.121C905.263 195.667 902.943 195.991 900.553 196.096C898.175 196.132 895.523 195.915 892.598 195.444C889.741 194.985 887.001 194.23 884.378 193.181C881.834 192.074 879.623 190.636 877.744 188.869C875.944 187.044 874.623 184.843 873.781 182.265C872.939 179.687 872.792 176.697 873.339 173.296L876.686 152.479L885.156 153.841L881.891 174.148C881.234 178.229 882.158 181.379 884.663 183.596C887.168 185.813 890.631 187.277 895.053 187.988C897.366 188.36 899.706 188.562 902.074 188.594C904.452 188.558 906.671 188.216 908.728 187.57L913.421 158.386L921.585 159.699Z" fill="#0085FF"/>
<path d="M947.002 231.828L956.453 173.052L934.514 169.524L935.728 161.973L987.77 170.341L986.555 177.893L964.617 174.365L955.165 233.141L947.002 231.828Z" fill="#0085FF"/>
<path d="M994.82 239.517L986.758 238.221L1018.14 175.225L1027.73 176.767L1037.78 246.425L1029.51 245.096L1026.89 225.622L1003.42 221.848L994.82 239.517ZM1006.98 214.674L1025.76 217.693L1021.37 185.061L1006.98 214.674Z" fill="#0085FF"/>
<path d="M1112.5 258.439L1123.16 192.112L1167.45 199.233L1156.78 265.56L1148.62 264.248L1158.07 205.472L1130.11 200.976L1120.66 259.752L1112.5 258.439Z" fill="#0085FF"/>
<path d="M1195.66 272.859C1191.85 272.246 1188.48 270.866 1185.54 268.72C1182.68 266.584 1180.36 263.839 1178.6 260.485C1176.83 257.13 1175.67 253.28 1175.12 248.933C1174.57 244.519 1174.71 239.76 1175.53 234.658C1176.35 229.556 1177.71 224.995 1179.61 220.974C1181.53 216.885 1183.85 213.525 1186.57 210.892C1189.3 208.26 1192.36 206.379 1195.75 205.25C1199.21 204.131 1202.84 203.878 1206.65 204.491C1210.46 205.103 1213.8 206.478 1216.67 208.613C1219.6 210.76 1221.95 213.511 1223.72 216.865C1225.48 220.219 1226.63 224.137 1227.16 228.62C1227.71 233.035 1227.57 237.793 1226.75 242.895C1225.93 247.997 1224.57 252.559 1222.67 256.58C1220.78 260.532 1218.47 263.825 1215.74 266.457C1213.01 269.089 1209.92 270.965 1206.46 272.083C1203.07 273.213 1199.47 273.471 1195.66 272.859ZM1196.91 265.103C1202.01 265.924 1206.51 264.171 1210.42 259.844C1214.34 255.449 1216.92 249.34 1218.18 241.517C1219.45 233.626 1218.91 226.979 1216.57 221.578C1214.23 216.177 1210.51 213.066 1205.41 212.246C1200.3 211.425 1195.79 213.213 1191.88 217.608C1187.96 222.002 1185.37 228.145 1184.1 236.037C1182.84 243.86 1183.38 250.472 1185.73 255.873C1188.08 261.206 1191.81 264.283 1196.91 265.103Z" fill="#0085FF"/>
<path d="M1288.7 218.73L1278.03 285.057L1269.87 283.744L1274.62 254.152C1272.37 254.697 1270.05 255.022 1267.66 255.126C1265.29 255.163 1262.63 254.946 1259.71 254.475C1256.85 254.016 1254.11 253.261 1251.49 252.211C1248.94 251.104 1246.73 249.667 1244.85 247.899C1243.05 246.075 1241.73 243.873 1240.89 241.295C1240.05 238.718 1239.9 235.728 1240.45 232.327L1243.8 211.51L1252.27 212.872L1249 233.178C1248.34 237.26 1249.27 240.409 1251.77 242.627C1254.28 244.844 1257.74 246.308 1262.16 247.019C1264.48 247.391 1266.82 247.593 1269.18 247.624C1271.56 247.588 1273.78 247.247 1275.84 246.601L1280.53 217.417L1288.7 218.73Z" fill="#0085FF"/>
<path d="M1314.11 290.859L1323.56 232.083L1301.62 228.555L1302.84 221.004L1354.88 229.372L1353.67 236.923L1331.73 233.395L1322.28 292.171L1314.11 290.859Z" fill="#0085FF"/>
<path d="M1361.93 298.548L1353.87 297.252L1385.25 234.255L1394.84 235.798L1404.89 305.456L1396.62 304.127L1394 284.652L1370.53 280.879L1361.93 298.548ZM1374.09 273.705L1392.87 276.724L1388.48 244.092L1374.09 273.705Z" fill="#0085FF"/>
<path d="M1479.61 317.47L1490.27 251.143L1534.56 258.264L1523.89 324.591L1515.73 323.278L1525.18 264.502L1497.22 260.007L1487.77 318.783L1479.61 317.47Z" fill="#0085FF"/>
<path d="M1562.77 331.889C1558.96 331.277 1555.59 329.897 1552.65 327.75C1549.79 325.614 1547.47 322.869 1545.71 319.515C1543.95 316.161 1542.78 312.311 1542.23 307.964C1541.68 303.549 1541.82 298.791 1542.64 293.689C1543.46 288.587 1544.82 284.025 1546.72 280.005C1548.64 275.916 1550.96 272.555 1553.68 269.923C1556.41 267.291 1559.47 265.41 1562.86 264.28C1566.32 263.162 1569.95 262.909 1573.76 263.521C1577.57 264.134 1580.91 265.508 1583.78 267.644C1586.71 269.791 1589.06 272.541 1590.83 275.896C1592.59 279.25 1593.74 283.168 1594.27 287.651C1594.82 292.065 1594.68 296.824 1593.86 301.926C1593.04 307.028 1591.68 311.589 1589.78 315.61C1587.89 319.563 1585.58 322.855 1582.85 325.488C1580.13 328.12 1577.03 329.995 1573.57 331.114C1570.18 332.243 1566.58 332.502 1562.77 331.889ZM1564.02 324.134C1569.12 324.955 1573.62 323.201 1577.53 318.875C1581.45 314.48 1584.03 308.371 1585.29 300.548C1586.56 292.656 1586.02 286.01 1583.68 280.609C1581.34 275.208 1577.62 272.097 1572.52 271.277C1567.42 270.456 1562.91 272.243 1558.99 276.638C1555.07 281.033 1552.48 287.176 1551.21 295.067C1549.95 302.89 1550.49 309.503 1552.84 314.904C1555.19 320.237 1558.92 323.314 1564.02 324.134Z" fill="#0085FF"/>
<path d="M1655.81 277.76L1645.14 344.087L1636.98 342.775L1641.74 313.183C1639.48 313.728 1637.16 314.053 1634.77 314.157C1632.4 314.193 1629.74 313.976 1626.82 313.506C1623.96 313.046 1621.22 312.292 1618.6 311.242C1616.06 310.135 1613.84 308.698 1611.97 306.93C1610.16 305.105 1608.84 302.904 1608 300.326C1607.16 297.748 1607.01 294.759 1607.56 291.357L1610.91 270.541L1619.38 271.903L1616.11 292.209C1615.46 296.291 1616.38 299.44 1618.88 301.657C1621.39 303.874 1624.85 305.339 1629.27 306.05C1631.59 306.421 1633.93 306.623 1636.29 306.655C1638.67 306.619 1640.89 306.278 1642.95 305.632L1647.64 276.448L1655.81 277.76Z" fill="#0085FF"/>
<path d="M1681.22 349.889L1690.67 291.113L1668.74 287.586L1669.95 280.035L1721.99 288.403L1720.78 295.954L1698.84 292.426L1689.39 351.202L1681.22 349.889Z" fill="#0085FF"/>
<path d="M1729.04 357.578L1720.98 356.282L1752.36 293.286L1761.95 294.828L1772 364.486L1763.74 363.157L1761.11 343.683L1737.64 339.909L1729.04 357.578ZM1741.2 332.736L1759.98 335.755L1755.59 303.122L1741.2 332.736Z" fill="#0085FF"/>
<rect x="32.3027" y="503.629" width="1928.91" height="115" transform="rotate(-12.2855 32.3027 503.629)" fill="white" stroke="#0085FF" stroke-width="2"/>
<mask id="path-6-outside-1_150_7" maskUnits="userSpaceOnUse" x="61.8053" y="135.686" width="1758.43" height="461.309" fill="black">
<rect fill="white" x="61.8053" y="135.686" width="1758.43" height="461.309"/>
<path d="M77.9356 594.056L63.2263 528.507L106.993 518.686L121.702 584.235L113.635 586.045L100.6 527.959L72.9685 534.159L86.0031 592.246L77.9356 594.056Z"/>
<path d="M160.512 576.585C156.748 577.43 153.104 577.4 149.582 576.496C146.128 575.576 142.959 573.886 140.077 571.426C137.194 568.966 134.688 565.821 132.558 561.991C130.412 558.095 128.774 553.625 127.642 548.583C126.511 543.541 126.082 538.8 126.357 534.36C126.617 529.853 127.524 525.871 129.079 522.415C130.634 518.96 132.776 516.078 135.507 513.77C138.304 511.448 141.586 509.864 145.351 509.019C149.115 508.174 152.725 508.212 156.18 509.131C159.702 510.036 162.904 511.718 165.786 514.178C168.669 516.639 171.19 519.851 173.351 523.815C175.496 527.711 177.135 532.181 178.266 537.223C179.398 542.265 179.826 547.006 179.551 551.446C179.261 555.818 178.339 559.733 176.784 563.189C175.229 566.645 173.053 569.534 170.255 571.856C167.525 574.164 164.277 575.74 160.512 576.585ZM158.793 568.921C163.835 567.789 167.367 564.49 169.388 559.023C171.394 553.488 171.53 546.855 169.795 539.124C168.045 531.325 165.081 525.353 160.902 521.206C156.723 517.059 152.113 515.552 147.07 516.683C142.028 517.815 138.504 521.148 136.498 526.682C134.491 532.217 134.363 538.883 136.113 546.682C137.848 554.413 140.805 560.352 144.984 564.499C149.147 568.578 153.75 570.052 158.793 568.921Z"/>
<path d="M226.818 491.797L241.527 557.346L233.46 559.156L226.897 529.911C225.009 531.253 222.975 532.416 220.795 533.399C218.6 534.315 216.057 535.098 213.166 535.747C210.342 536.38 207.518 536.696 204.693 536.695C201.92 536.611 199.333 536.097 196.932 535.153C194.583 534.126 192.54 532.572 190.802 530.491C189.064 528.409 187.817 525.688 187.063 522.326L182.447 501.754L190.817 499.876L195.32 519.944C196.225 523.978 198.252 526.559 201.401 527.689C204.549 528.818 208.309 528.892 212.679 527.912C214.964 527.399 217.213 526.718 219.423 525.869C221.618 524.952 223.551 523.812 225.223 522.449L218.751 493.607L226.818 491.797Z"/>
<path d="M277.187 549.344L264.152 491.257L242.471 496.123L240.796 488.66L292.227 477.119L293.901 484.582L272.22 489.447L285.255 547.533L277.187 549.344Z"/>
<path d="M324.444 538.739L316.477 540.527L322.239 470.384L331.718 468.257L366.899 529.212L358.731 531.045L349.066 513.936L325.871 519.141L324.444 538.739ZM326.516 511.158L345.072 506.994L328.892 478.319L326.516 511.158Z"/>
<path d="M440.739 512.642L426.03 447.093L469.797 437.272L484.506 502.821L476.438 504.631L463.404 446.545L435.772 452.746L448.807 510.832L440.739 512.642Z"/>
<path d="M523.316 495.171C519.551 496.016 515.908 495.986 512.386 495.082C508.931 494.162 505.763 492.472 502.881 490.012C499.998 487.552 497.492 484.407 495.361 480.578C493.216 476.681 491.577 472.211 490.446 467.169C489.314 462.127 488.886 457.386 489.161 452.946C489.421 448.439 490.328 444.458 491.883 441.002C493.437 437.546 495.58 434.664 498.31 432.357C501.108 430.034 504.389 428.45 508.154 427.605C511.919 426.761 515.529 426.798 518.984 427.717C522.505 428.622 525.708 430.304 528.59 432.764C531.472 435.225 533.994 438.437 536.154 442.401C538.3 446.297 539.938 450.767 541.07 455.809C542.201 460.851 542.63 465.592 542.355 470.032C542.065 474.405 541.143 478.319 539.588 481.775C538.033 485.231 535.857 488.12 533.059 490.443C530.329 492.75 527.081 494.326 523.316 495.171ZM521.596 487.507C526.639 486.376 530.17 483.076 532.192 477.609C534.198 472.074 534.334 465.441 532.599 457.71C530.849 449.911 527.885 443.939 523.706 439.792C519.527 435.646 514.916 434.138 509.874 435.27C504.832 436.401 501.308 439.734 499.301 445.269C497.295 450.803 497.167 457.47 498.917 465.268C500.652 473 503.609 478.939 507.787 483.085C511.951 487.165 516.554 488.639 521.596 487.507Z"/>
<path d="M589.622 410.383L604.331 475.932L596.264 477.742L589.701 448.498C587.813 449.839 585.779 451.002 583.599 451.985C581.403 452.902 578.86 453.684 575.969 454.333C573.146 454.967 570.322 455.283 567.497 455.281C564.724 455.197 562.137 454.683 559.736 453.739C557.387 452.712 555.344 451.158 553.606 449.077C551.867 446.995 550.621 444.274 549.867 440.912L545.25 420.34L553.62 418.462L558.124 438.53C559.029 442.564 561.056 445.145 564.205 446.275C567.353 447.404 571.112 447.479 575.482 446.498C577.768 445.985 580.016 445.304 582.227 444.455C584.422 443.539 586.355 442.399 588.026 441.035L581.554 412.194L589.622 410.383Z"/>
<path d="M639.991 467.93L626.956 409.844L605.274 414.709L603.6 407.246L655.031 395.705L656.705 403.168L635.024 408.033L648.058 466.12L639.991 467.93Z"/>
<path d="M687.247 457.326L679.281 459.113L685.043 388.971L694.522 386.843L729.703 447.798L721.535 449.631L711.87 432.522L688.675 437.727L687.247 457.326ZM689.32 429.744L707.876 425.58L691.696 396.905L689.32 429.744Z"/>
<path d="M803.543 431.229L788.834 365.68L832.6 355.858L847.31 421.407L839.242 423.218L826.207 365.131L798.576 371.332L811.611 429.418L803.543 431.229Z"/>
<path d="M886.12 413.757C882.355 414.602 878.712 414.572 875.19 413.668C871.735 412.748 868.567 411.059 865.684 408.598C862.802 406.138 860.296 402.993 858.165 399.164C856.02 395.267 854.381 390.798 853.25 385.755C852.118 380.713 851.69 375.972 851.965 371.532C852.224 367.025 853.132 363.044 854.686 359.588C856.241 356.132 858.384 353.25 861.114 350.943C863.912 348.62 867.193 347.036 870.958 346.192C874.723 345.347 878.333 345.384 881.787 346.304C885.309 347.208 888.511 348.89 891.394 351.351C894.276 353.811 896.798 357.023 898.958 360.987C901.104 364.884 902.742 369.353 903.874 374.395C905.005 379.438 905.434 384.179 905.159 388.618C904.869 392.991 903.947 396.905 902.392 400.361C900.837 403.817 898.661 406.706 895.863 409.029C893.133 411.336 889.885 412.913 886.12 413.757ZM884.4 406.093C889.442 404.962 892.974 401.662 894.996 396.195C897.002 390.661 897.138 384.028 895.403 376.296C893.653 368.498 890.688 362.525 886.51 358.378C882.331 354.232 877.72 352.724 872.678 353.856C867.636 354.987 864.111 358.32 862.105 363.855C860.099 369.389 859.971 376.056 861.721 383.855C863.456 391.586 866.412 397.525 870.591 401.671C874.755 405.751 879.358 407.225 884.4 406.093Z"/>
<path d="M952.426 328.969L967.135 394.518L959.067 396.329L952.505 367.084C950.617 368.425 948.583 369.588 946.403 370.572C944.207 371.488 941.664 372.27 938.773 372.919C935.95 373.553 933.125 373.869 930.3 373.867C927.528 373.783 924.941 373.269 922.54 372.325C920.191 371.299 918.148 369.745 916.409 367.663C914.671 365.582 913.425 362.86 912.671 359.499L908.054 338.926L916.424 337.048L920.928 357.116C921.833 361.15 923.86 363.732 927.008 364.861C930.157 365.99 933.916 366.065 938.286 365.084C940.572 364.571 942.82 363.89 945.03 363.041C947.226 362.125 949.159 360.985 950.83 359.621L944.358 330.78L952.426 328.969Z"/>
<path d="M1002.79 386.516L989.76 328.43L968.078 333.295L966.404 325.833L1017.83 314.292L1019.51 321.754L997.827 326.619L1010.86 384.706L1002.79 386.516Z"/>
<path d="M1050.05 375.912L1042.08 377.699L1047.85 307.557L1057.33 305.43L1092.51 366.385L1084.34 368.218L1074.67 351.109L1051.48 356.313L1050.05 375.912ZM1052.12 348.33L1070.68 344.167L1054.5 315.491L1052.12 348.33Z"/>
<path d="M1166.35 349.815L1151.64 284.266L1195.4 274.445L1210.11 339.994L1202.05 341.804L1189.01 283.717L1161.38 289.918L1174.41 348.004L1166.35 349.815Z"/>
<path d="M1248.92 332.344C1245.16 333.188 1241.52 333.159 1237.99 332.254C1234.54 331.335 1231.37 329.645 1228.49 327.185C1225.61 324.724 1223.1 321.579 1220.97 317.75C1218.82 313.853 1217.19 309.384 1216.05 304.342C1214.92 299.299 1214.49 294.558 1214.77 290.119C1215.03 285.612 1215.94 281.63 1217.49 278.174C1219.04 274.718 1221.19 271.836 1223.92 269.529C1226.72 267.206 1230 265.623 1233.76 264.778C1237.53 263.933 1241.14 263.97 1244.59 264.89C1248.11 265.794 1251.32 267.477 1254.2 269.937C1257.08 272.397 1259.6 275.609 1261.76 279.573C1263.91 283.47 1265.55 287.939 1266.68 292.982C1267.81 298.024 1268.24 302.765 1267.96 307.205C1267.67 311.577 1266.75 315.491 1265.2 318.947C1263.64 322.403 1261.46 325.293 1258.67 327.615C1255.94 329.923 1252.69 331.499 1248.92 332.344ZM1247.2 324.679C1252.25 323.548 1255.78 320.249 1257.8 314.781C1259.81 309.247 1259.94 302.614 1258.21 294.882C1256.46 287.084 1253.49 281.111 1249.31 276.965C1245.13 272.818 1240.52 271.311 1235.48 272.442C1230.44 273.573 1226.92 276.906 1224.91 282.441C1222.9 287.975 1222.77 294.642 1224.52 302.441C1226.26 310.172 1229.22 316.111 1233.4 320.258C1237.56 324.337 1242.16 325.811 1247.2 324.679Z"/>
<path d="M1315.23 247.556L1329.94 313.104L1321.87 314.915L1315.31 285.67C1313.42 287.012 1311.39 288.174 1309.21 289.158C1307.01 290.074 1304.47 290.857 1301.58 291.505C1298.75 292.139 1295.93 292.455 1293.1 292.453C1290.33 292.369 1287.74 291.855 1285.34 290.911C1282.99 289.885 1280.95 288.331 1279.21 286.249C1277.47 284.168 1276.23 281.446 1275.47 278.085L1270.86 257.513L1279.23 255.634L1283.73 275.702C1284.64 279.736 1286.66 282.318 1289.81 283.447C1292.96 284.577 1296.72 284.651 1301.09 283.67C1303.38 283.158 1305.62 282.476 1307.83 281.627C1310.03 280.711 1311.96 279.571 1313.63 278.207L1307.16 249.366L1315.23 247.556Z"/>
<path d="M1365.6 305.102L1352.56 247.016L1330.88 251.881L1329.21 244.419L1380.64 232.878L1382.31 240.34L1360.63 245.206L1373.67 303.292L1365.6 305.102Z"/>
<path d="M1412.86 294.498L1404.89 296.286L1410.65 226.143L1420.13 224.016L1455.31 284.971L1447.14 286.804L1437.48 269.695L1414.28 274.9L1412.86 294.498ZM1414.93 266.917L1433.48 262.753L1417.3 234.077L1414.93 266.917Z"/>
<path d="M1529.15 268.401L1514.44 202.852L1558.21 193.031L1572.92 258.58L1564.85 260.39L1551.81 202.304L1524.18 208.504L1537.22 266.591L1529.15 268.401Z"/>
<path d="M1611.73 250.93C1607.96 251.775 1604.32 251.745 1600.8 250.84C1597.34 249.921 1594.17 248.231 1591.29 245.771C1588.41 243.31 1585.9 240.166 1583.77 236.336C1581.63 232.44 1579.99 227.97 1578.86 222.928C1577.73 217.886 1577.3 213.145 1577.57 208.705C1577.83 204.198 1578.74 200.216 1580.29 196.76C1581.85 193.304 1583.99 190.423 1586.72 188.115C1589.52 185.793 1592.8 184.209 1596.57 183.364C1600.33 182.519 1603.94 182.557 1607.4 183.476C1610.92 184.381 1614.12 186.063 1617 188.523C1619.88 190.983 1622.41 194.195 1624.57 198.159C1626.71 202.056 1628.35 206.526 1629.48 211.568C1630.61 216.61 1631.04 221.351 1630.77 225.791C1630.48 230.163 1629.55 234.078 1628 237.534C1626.44 240.989 1624.27 243.879 1621.47 246.201C1618.74 248.509 1615.49 250.085 1611.73 250.93ZM1610.01 243.266C1615.05 242.134 1618.58 238.835 1620.6 233.367C1622.61 227.833 1622.75 221.2 1621.01 213.469C1619.26 205.67 1616.3 199.697 1612.12 195.551C1607.94 191.404 1603.33 189.897 1598.29 191.028C1593.24 192.16 1589.72 195.493 1587.71 201.027C1585.71 206.562 1585.58 213.228 1587.33 221.027C1589.06 228.758 1592.02 234.697 1596.2 238.844C1600.36 242.923 1604.97 244.397 1610.01 243.266Z"/>
<path d="M1678.03 166.142L1692.74 231.691L1684.67 233.501L1678.11 204.256C1676.22 205.598 1674.19 206.76 1672.01 207.744C1669.81 208.66 1667.27 209.443 1664.38 210.092C1661.56 210.725 1658.73 211.041 1655.91 211.04C1653.14 210.956 1650.55 210.442 1648.15 209.497C1645.8 208.471 1643.76 206.917 1642.02 204.836C1640.28 202.754 1639.03 200.033 1638.28 196.671L1633.66 176.099L1642.03 174.221L1646.54 194.289C1647.44 198.322 1649.47 200.904 1652.62 202.033C1655.76 203.163 1659.52 203.237 1663.89 202.257C1666.18 201.744 1668.43 201.063 1670.64 200.214C1672.83 199.297 1674.77 198.157 1676.44 196.794L1669.97 167.952L1678.03 166.142Z"/>
<path d="M1728.4 223.689L1715.37 165.602L1693.69 170.468L1692.01 163.005L1743.44 151.464L1745.12 158.926L1723.44 163.792L1736.47 221.878L1728.4 223.689Z"/>
<path d="M1775.66 213.084L1767.69 214.872L1773.45 144.729L1782.93 142.602L1818.11 203.557L1809.95 205.39L1800.28 188.281L1777.09 193.486L1775.66 213.084ZM1777.73 185.503L1796.29 181.339L1780.11 152.663L1777.73 185.503Z"/>
</mask>
<path d="M77.9356 594.056L63.2263 528.507L106.993 518.686L121.702 584.235L113.635 586.045L100.6 527.959L72.9685 534.159L86.0031 592.246L77.9356 594.056Z" stroke="#0085FF" stroke-width="2" mask="url(#path-6-outside-1_150_7)"/>
<path d="M160.512 576.585C156.748 577.43 153.104 577.4 149.582 576.496C146.128 575.576 142.959 573.886 140.077 571.426C137.194 568.966 134.688 565.821 132.558 561.991C130.412 558.095 128.774 553.625 127.642 548.583C126.511 543.541 126.082 538.8 126.357 534.36C126.617 529.853 127.524 525.871 129.079 522.415C130.634 518.96 132.776 516.078 135.507 513.77C138.304 511.448 141.586 509.864 145.351 509.019C149.115 508.174 152.725 508.212 156.18 509.131C159.702 510.036 162.904 511.718 165.786 514.178C168.669 516.639 171.19 519.851 173.351 523.815C175.496 527.711 177.135 532.181 178.266 537.223C179.398 542.265 179.826 547.006 179.551 551.446C179.261 555.818 178.339 559.733 176.784 563.189C175.229 566.645 173.053 569.534 170.255 571.856C167.525 574.164 164.277 575.74 160.512 576.585ZM158.793 568.921C163.835 567.789 167.367 564.49 169.388 559.023C171.394 553.488 171.53 546.855 169.795 539.124C168.045 531.325 165.081 525.353 160.902 521.206C156.723 517.059 152.113 515.552 147.07 516.683C142.028 517.815 138.504 521.148 136.498 526.682C134.491 532.217 134.363 538.883 136.113 546.682C137.848 554.413 140.805 560.352 144.984 564.499C149.147 568.578 153.75 570.052 158.793 568.921Z" stroke="#0085FF" stroke-width="2" mask="url(#path-6-outside-1_150_7)"/>
<path d="M226.818 491.797L241.527 557.346L233.46 559.156L226.897 529.911C225.009 531.253 222.975 532.416 220.795 533.399C218.6 534.315 216.057 535.098 213.166 535.747C210.342 536.38 207.518 536.696 204.693 536.695C201.92 536.611 199.333 536.097 196.932 535.153C194.583 534.126 192.54 532.572 190.802 530.491C189.064 528.409 187.817 525.688 187.063 522.326L182.447 501.754L190.817 499.876L195.32 519.944C196.225 523.978 198.252 526.559 201.401 527.689C204.549 528.818 208.309 528.892 212.679 527.912C214.964 527.399 217.213 526.718 219.423 525.869C221.618 524.952 223.551 523.812 225.223 522.449L218.751 493.607L226.818 491.797Z" stroke="#0085FF" stroke-width="2" mask="url(#path-6-outside-1_150_7)"/>
<path d="M277.187 549.344L264.152 491.257L242.471 496.123L240.796 488.66L292.227 477.119L293.901 484.582L272.22 489.447L285.255 547.533L277.187 549.344Z" stroke="#0085FF" stroke-width="2" mask="url(#path-6-outside-1_150_7)"/>
<path d="M324.444 538.739L316.477 540.527L322.239 470.384L331.718 468.257L366.899 529.212L358.731 531.045L349.066 513.936L325.871 519.141L324.444 538.739ZM326.516 511.158L345.072 506.994L328.892 478.319L326.516 511.158Z" stroke="#0085FF" stroke-width="2" mask="url(#path-6-outside-1_150_7)"/>
<path d="M440.739 512.642L426.03 447.093L469.797 437.272L484.506 502.821L476.438 504.631L463.404 446.545L435.772 452.746L448.807 510.832L440.739 512.642Z" stroke="#0085FF" stroke-width="2" mask="url(#path-6-outside-1_150_7)"/>
<path d="M523.316 495.171C519.551 496.016 515.908 495.986 512.386 495.082C508.931 494.162 505.763 492.472 502.881 490.012C499.998 487.552 497.492 484.407 495.361 480.578C493.216 476.681 491.577 472.211 490.446 467.169C489.314 462.127 488.886 457.386 489.161 452.946C489.421 448.439 490.328 444.458 491.883 441.002C493.437 437.546 495.58 434.664 498.31 432.357C501.108 430.034 504.389 428.45 508.154 427.605C511.919 426.761 515.529 426.798 518.984 427.717C522.505 428.622 525.708 430.304 528.59 432.764C531.472 435.225 533.994 438.437 536.154 442.401C538.3 446.297 539.938 450.767 541.07 455.809C542.201 460.851 542.63 465.592 542.355 470.032C542.065 474.405 541.143 478.319 539.588 481.775C538.033 485.231 535.857 488.12 533.059 490.443C530.329 492.75 527.081 494.326 523.316 495.171ZM521.596 487.507C526.639 486.376 530.17 483.076 532.192 477.609C534.198 472.074 534.334 465.441 532.599 457.71C530.849 449.911 527.885 443.939 523.706 439.792C519.527 435.646 514.916 434.138 509.874 435.27C504.832 436.401 501.308 439.734 499.301 445.269C497.295 450.803 497.167 457.47 498.917 465.268C500.652 473 503.609 478.939 507.787 483.085C511.951 487.165 516.554 488.639 521.596 487.507Z" stroke="#0085FF" stroke-width="2" mask="url(#path-6-outside-1_150_7)"/>
<path d="M589.622 410.383L604.331 475.932L596.264 477.742L589.701 448.498C587.813 449.839 585.779 451.002 583.599 451.985C581.403 452.902 578.86 453.684 575.969 454.333C573.146 454.967 570.322 455.283 567.497 455.281C564.724 455.197 562.137 454.683 559.736 453.739C557.387 452.712 555.344 451.158 553.606 449.077C551.867 446.995 550.621 444.274 549.867 440.912L545.25 420.34L553.62 418.462L558.124 438.53C559.029 442.564 561.056 445.145 564.205 446.275C567.353 447.404 571.112 447.479 575.482 446.498C577.768 445.985 580.016 445.304 582.227 444.455C584.422 443.539 586.355 442.399 588.026 441.035L581.554 412.194L589.622 410.383Z" stroke="#0085FF" stroke-width="2" mask="url(#path-6-outside-1_150_7)"/>
<path d="M639.991 467.93L626.956 409.844L605.274 414.709L603.6 407.246L655.031 395.705L656.705 403.168L635.024 408.033L648.058 466.12L639.991 467.93Z" stroke="#0085FF" stroke-width="2" mask="url(#path-6-outside-1_150_7)"/>
<path d="M687.247 457.326L679.281 459.113L685.043 388.971L694.522 386.843L729.703 447.798L721.535 449.631L711.87 432.522L688.675 437.727L687.247 457.326ZM689.32 429.744L707.876 425.58L691.696 396.905L689.32 429.744Z" stroke="#0085FF" stroke-width="2" mask="url(#path-6-outside-1_150_7)"/>
<path d="M803.543 431.229L788.834 365.68L832.6 355.858L847.31 421.407L839.242 423.218L826.207 365.131L798.576 371.332L811.611 429.418L803.543 431.229Z" stroke="#0085FF" stroke-width="2" mask="url(#path-6-outside-1_150_7)"/>
<path d="M886.12 413.757C882.355 414.602 878.712 414.572 875.19 413.668C871.735 412.748 868.567 411.059 865.684 408.598C862.802 406.138 860.296 402.993 858.165 399.164C856.02 395.267 854.381 390.798 853.25 385.755C852.118 380.713 851.69 375.972 851.965 371.532C852.224 367.025 853.132 363.044 854.686 359.588C856.241 356.132 858.384 353.25 861.114 350.943C863.912 348.62 867.193 347.036 870.958 346.192C874.723 345.347 878.333 345.384 881.787 346.304C885.309 347.208 888.511 348.89 891.394 351.351C894.276 353.811 896.798 357.023 898.958 360.987C901.104 364.884 902.742 369.353 903.874 374.395C905.005 379.438 905.434 384.179 905.159 388.618C904.869 392.991 903.947 396.905 902.392 400.361C900.837 403.817 898.661 406.706 895.863 409.029C893.133 411.336 889.885 412.913 886.12 413.757ZM884.4 406.093C889.442 404.962 892.974 401.662 894.996 396.195C897.002 390.661 897.138 384.028 895.403 376.296C893.653 368.498 890.688 362.525 886.51 358.378C882.331 354.232 877.72 352.724 872.678 353.856C867.636 354.987 864.111 358.32 862.105 363.855C860.099 369.389 859.971 376.056 861.721 383.855C863.456 391.586 866.412 397.525 870.591 401.671C874.755 405.751 879.358 407.225 884.4 406.093Z" stroke="#0085FF" stroke-width="2" mask="url(#path-6-outside-1_150_7)"/>
<path d="M952.426 328.969L967.135 394.518L959.067 396.329L952.505 367.084C950.617 368.425 948.583 369.588 946.403 370.572C944.207 371.488 941.664 372.27 938.773 372.919C935.95 373.553 933.125 373.869 930.3 373.867C927.528 373.783 924.941 373.269 922.54 372.325C920.191 371.299 918.148 369.745 916.409 367.663C914.671 365.582 913.425 362.86 912.671 359.499L908.054 338.926L916.424 337.048L920.928 357.116C921.833 361.15 923.86 363.732 927.008 364.861C930.157 365.99 933.916 366.065 938.286 365.084C940.572 364.571 942.82 363.89 945.03 363.041C947.226 362.125 949.159 360.985 950.83 359.621L944.358 330.78L952.426 328.969Z" stroke="#0085FF" stroke-width="2" mask="url(#path-6-outside-1_150_7)"/>
<path d="M1002.79 386.516L989.76 328.43L968.078 333.295L966.404 325.833L1017.83 314.292L1019.51 321.754L997.827 326.619L1010.86 384.706L1002.79 386.516Z" stroke="#0085FF" stroke-width="2" mask="url(#path-6-outside-1_150_7)"/>
<path d="M1050.05 375.912L1042.08 377.699L1047.85 307.557L1057.33 305.43L1092.51 366.385L1084.34 368.218L1074.67 351.109L1051.48 356.313L1050.05 375.912ZM1052.12 348.33L1070.68 344.167L1054.5 315.491L1052.12 348.33Z" stroke="#0085FF" stroke-width="2" mask="url(#path-6-outside-1_150_7)"/>
<path d="M1166.35 349.815L1151.64 284.266L1195.4 274.445L1210.11 339.994L1202.05 341.804L1189.01 283.717L1161.38 289.918L1174.41 348.004L1166.35 349.815Z" stroke="#0085FF" stroke-width="2" mask="url(#path-6-outside-1_150_7)"/>
<path d="M1248.92 332.344C1245.16 333.188 1241.52 333.159 1237.99 332.254C1234.54 331.335 1231.37 329.645 1228.49 327.185C1225.61 324.724 1223.1 321.579 1220.97 317.75C1218.82 313.853 1217.19 309.384 1216.05 304.342C1214.92 299.299 1214.49 294.558 1214.77 290.119C1215.03 285.612 1215.94 281.63 1217.49 278.174C1219.04 274.718 1221.19 271.836 1223.92 269.529C1226.72 267.206 1230 265.623 1233.76 264.778C1237.53 263.933 1241.14 263.97 1244.59 264.89C1248.11 265.794 1251.32 267.477 1254.2 269.937C1257.08 272.397 1259.6 275.609 1261.76 279.573C1263.91 283.47 1265.55 287.939 1266.68 292.982C1267.81 298.024 1268.24 302.765 1267.96 307.205C1267.67 311.577 1266.75 315.491 1265.2 318.947C1263.64 322.403 1261.46 325.293 1258.67 327.615C1255.94 329.923 1252.69 331.499 1248.92 332.344ZM1247.2 324.679C1252.25 323.548 1255.78 320.249 1257.8 314.781C1259.81 309.247 1259.94 302.614 1258.21 294.882C1256.46 287.084 1253.49 281.111 1249.31 276.965C1245.13 272.818 1240.52 271.311 1235.48 272.442C1230.44 273.573 1226.92 276.906 1224.91 282.441C1222.9 287.975 1222.77 294.642 1224.52 302.441C1226.26 310.172 1229.22 316.111 1233.4 320.258C1237.56 324.337 1242.16 325.811 1247.2 324.679Z" stroke="#0085FF" stroke-width="2" mask="url(#path-6-outside-1_150_7)"/>
<path d="M1315.23 247.556L1329.94 313.104L1321.87 314.915L1315.31 285.67C1313.42 287.012 1311.39 288.174 1309.21 289.158C1307.01 290.074 1304.47 290.857 1301.58 291.505C1298.75 292.139 1295.93 292.455 1293.1 292.453C1290.33 292.369 1287.74 291.855 1285.34 290.911C1282.99 289.885 1280.95 288.331 1279.21 286.249C1277.47 284.168 1276.23 281.446 1275.47 278.085L1270.86 257.513L1279.23 255.634L1283.73 275.702C1284.64 279.736 1286.66 282.318 1289.81 283.447C1292.96 284.577 1296.72 284.651 1301.09 283.67C1303.38 283.158 1305.62 282.476 1307.83 281.627C1310.03 280.711 1311.96 279.571 1313.63 278.207L1307.16 249.366L1315.23 247.556Z" stroke="#0085FF" stroke-width="2" mask="url(#path-6-outside-1_150_7)"/>
<path d="M1365.6 305.102L1352.56 247.016L1330.88 251.881L1329.21 244.419L1380.64 232.878L1382.31 240.34L1360.63 245.206L1373.67 303.292L1365.6 305.102Z" stroke="#0085FF" stroke-width="2" mask="url(#path-6-outside-1_150_7)"/>
<path d="M1412.86 294.498L1404.89 296.286L1410.65 226.143L1420.13 224.016L1455.31 284.971L1447.14 286.804L1437.48 269.695L1414.28 274.9L1412.86 294.498ZM1414.93 266.917L1433.48 262.753L1417.3 234.077L1414.93 266.917Z" stroke="#0085FF" stroke-width="2" mask="url(#path-6-outside-1_150_7)"/>
<path d="M1529.15 268.401L1514.44 202.852L1558.21 193.031L1572.92 258.58L1564.85 260.39L1551.81 202.304L1524.18 208.504L1537.22 266.591L1529.15 268.401Z" stroke="#0085FF" stroke-width="2" mask="url(#path-6-outside-1_150_7)"/>
<path d="M1611.73 250.93C1607.96 251.775 1604.32 251.745 1600.8 250.84C1597.34 249.921 1594.17 248.231 1591.29 245.771C1588.41 243.31 1585.9 240.166 1583.77 236.336C1581.63 232.44 1579.99 227.97 1578.86 222.928C1577.73 217.886 1577.3 213.145 1577.57 208.705C1577.83 204.198 1578.74 200.216 1580.29 196.76C1581.85 193.304 1583.99 190.423 1586.72 188.115C1589.52 185.793 1592.8 184.209 1596.57 183.364C1600.33 182.519 1603.94 182.557 1607.4 183.476C1610.92 184.381 1614.12 186.063 1617 188.523C1619.88 190.983 1622.41 194.195 1624.57 198.159C1626.71 202.056 1628.35 206.526 1629.48 211.568C1630.61 216.61 1631.04 221.351 1630.77 225.791C1630.48 230.163 1629.55 234.078 1628 237.534C1626.44 240.989 1624.27 243.879 1621.47 246.201C1618.74 248.509 1615.49 250.085 1611.73 250.93ZM1610.01 243.266C1615.05 242.134 1618.58 238.835 1620.6 233.367C1622.61 227.833 1622.75 221.2 1621.01 213.469C1619.26 205.67 1616.3 199.697 1612.12 195.551C1607.94 191.404 1603.33 189.897 1598.29 191.028C1593.24 192.16 1589.72 195.493 1587.71 201.027C1585.71 206.562 1585.58 213.228 1587.33 221.027C1589.06 228.758 1592.02 234.697 1596.2 238.844C1600.36 242.923 1604.97 244.397 1610.01 243.266Z" stroke="#0085FF" stroke-width="2" mask="url(#path-6-outside-1_150_7)"/>
<path d="M1678.03 166.142L1692.74 231.691L1684.67 233.501L1678.11 204.256C1676.22 205.598 1674.19 206.76 1672.01 207.744C1669.81 208.66 1667.27 209.443 1664.38 210.092C1661.56 210.725 1658.73 211.041 1655.91 211.04C1653.14 210.956 1650.55 210.442 1648.15 209.497C1645.8 208.471 1643.76 206.917 1642.02 204.836C1640.28 202.754 1639.03 200.033 1638.28 196.671L1633.66 176.099L1642.03 174.221L1646.54 194.289C1647.44 198.322 1649.47 200.904 1652.62 202.033C1655.76 203.163 1659.52 203.237 1663.89 202.257C1666.18 201.744 1668.43 201.063 1670.64 200.214C1672.83 199.297 1674.77 198.157 1676.44 196.794L1669.97 167.952L1678.03 166.142Z" stroke="#0085FF" stroke-width="2" mask="url(#path-6-outside-1_150_7)"/>
<path d="M1728.4 223.689L1715.37 165.602L1693.69 170.468L1692.01 163.005L1743.44 151.464L1745.12 158.926L1723.44 163.792L1736.47 221.878L1728.4 223.689Z" stroke="#0085FF" stroke-width="2" mask="url(#path-6-outside-1_150_7)"/>
<path d="M1775.66 213.084L1767.69 214.872L1773.45 144.729L1782.93 142.602L1818.11 203.557L1809.95 205.39L1800.28 188.281L1777.09 193.486L1775.66 213.084ZM1777.73 185.503L1796.29 181.339L1780.11 152.663L1777.73 185.503Z" stroke="#0085FF" stroke-width="2" mask="url(#path-6-outside-1_150_7)"/>
</svg>
