<svg width="698" height="540" viewBox="0 0 698 540" fill="none" xmlns="http://www.w3.org/2000/svg">
<path d="M1 538V539H2H44.9493H45.9493V538V377.923H191.051V538V539H192.051H235H236V538V189V188H235H192.051H191.051V189V336.191H45.9493V189V188H44.9493H2H1V189V538Z" stroke="#0085FF" stroke-width="2"/>
<path fill-rule="evenodd" clip-rule="evenodd" d="M535.391 314V260.312H384V138.557H535.391V0H666.911V314H535.391Z" fill="#0085FF"/>
<rect x="385" y="1" width="312" height="312" stroke="#0085FF" stroke-width="2" stroke-dasharray="4 4"/>
<rect x="479.322" y="82.886" width="73.6139" height="73.6139" stroke="#0085FF"/>
<path d="M449.338 65.48C450.145 65.48 450.856 65.634 451.472 65.942C452.088 66.2353 452.587 66.6533 452.968 67.196C453.349 67.7387 453.606 68.3987 453.738 69.176C453.885 69.9533 453.885 70.8113 453.738 71.75C453.533 73.026 453.181 74.1847 452.682 75.226C452.183 76.2673 451.575 77.162 450.856 77.91C450.137 78.6433 449.316 79.2153 448.392 79.626C447.483 80.022 446.515 80.22 445.488 80.22C445.063 80.22 444.608 80.176 444.124 80.088C443.64 80 443.215 79.8827 442.848 79.736L443.618 78.24C443.897 78.3427 444.212 78.4307 444.564 78.504C444.916 78.5627 445.239 78.592 445.532 78.592C447.043 78.592 448.363 78.0713 449.492 77.03C450.636 75.9887 451.413 74.61 451.824 72.894C451.34 73.4807 450.739 73.9427 450.02 74.28C449.301 74.6173 448.546 74.786 447.754 74.786C446.375 74.786 445.327 74.3607 444.608 73.51C443.904 72.6447 443.669 71.508 443.904 70.1C444.109 68.7213 444.711 67.6067 445.708 66.756C446.72 65.9053 447.93 65.48 449.338 65.48ZM449.272 67.02C448.319 67.02 447.497 67.3207 446.808 67.922C446.133 68.5087 445.723 69.286 445.576 70.254C445.429 71.1633 445.598 71.8967 446.082 72.454C446.581 73.0113 447.314 73.29 448.282 73.29C449.25 73.29 450.071 73.0113 450.746 72.454C451.421 71.8967 451.831 71.1633 451.978 70.254C452.125 69.286 451.949 68.5087 451.45 67.922C450.951 67.3207 450.225 67.02 449.272 67.02ZM461.011 80.22C460.131 80.22 459.354 80.0367 458.679 79.67C458.019 79.3033 457.484 78.79 457.073 78.13C456.677 77.47 456.413 76.6707 456.281 75.732C456.149 74.7933 456.171 73.7593 456.347 72.63C456.523 71.5593 456.809 70.584 457.205 69.704C457.601 68.8093 458.085 68.054 458.657 67.438C459.229 66.822 459.875 66.3453 460.593 66.008C461.312 65.656 462.082 65.48 462.903 65.48C463.769 65.48 464.531 65.6633 465.191 66.03C465.866 66.3967 466.401 66.91 466.797 67.57C467.208 68.23 467.479 69.0293 467.611 69.968C467.743 70.9067 467.721 71.9407 467.545 73.07C467.369 74.1407 467.083 75.116 466.687 75.996C466.291 76.876 465.807 77.6313 465.235 78.262C464.663 78.878 464.018 79.362 463.299 79.714C462.581 80.0513 461.818 80.22 461.011 80.22ZM458.063 72.872C457.961 73.4733 457.909 74.038 457.909 74.566C457.924 75.094 457.983 75.578 458.085 76.018L464.949 67.9C464.685 67.6213 464.377 67.4087 464.025 67.262C463.673 67.1153 463.292 67.042 462.881 67.042C461.723 67.042 460.696 67.5773 459.801 68.648C458.921 69.7187 458.342 71.1267 458.063 72.872ZM461.033 78.658C461.605 78.658 462.155 78.5187 462.683 78.24C463.211 77.9613 463.681 77.5727 464.091 77.074C464.517 76.5607 464.876 75.952 465.169 75.248C465.477 74.5293 465.697 73.7373 465.829 72.872C465.932 72.212 465.976 71.596 465.961 71.024C465.961 70.452 465.895 69.9387 465.763 69.484L458.855 77.668C459.119 77.9907 459.435 78.24 459.801 78.416C460.168 78.5773 460.579 78.658 461.033 78.658ZM476.205 65.216C477.202 65.216 477.972 65.546 478.515 66.206C479.072 66.866 479.27 67.6947 479.109 68.692C478.962 69.616 478.537 70.386 477.833 71.002C477.143 71.618 476.337 71.926 475.413 71.926C474.415 71.926 473.638 71.5887 473.081 70.914C472.538 70.2393 472.347 69.396 472.509 68.384C472.655 67.4747 473.073 66.7193 473.763 66.118C474.467 65.5167 475.281 65.216 476.205 65.216ZM476.073 66.822C475.574 66.822 475.134 66.9907 474.753 67.328C474.371 67.6507 474.151 68.0613 474.093 68.56C474.005 69.0587 474.093 69.4767 474.357 69.814C474.635 70.1513 475.024 70.32 475.523 70.32C476.021 70.32 476.461 70.1513 476.843 69.814C477.224 69.4767 477.451 69.0587 477.525 68.56C477.598 68.0613 477.495 67.6507 477.217 67.328C476.953 66.9907 476.571 66.822 476.073 66.822Z" fill="#0085FF"/>
<path d="M191.5 336.5L201.5 342.274V330.726L191.5 336.5ZM605.5 336.5V337.5H606.5V336.5H605.5ZM200.371 337.5H206.286V335.5H200.371V337.5ZM212.2 337.5H218.114V335.5H212.2V337.5ZM224.029 337.5H229.943V335.5H224.029V337.5ZM235.857 337.5H241.771V335.5H235.857V337.5ZM247.686 337.5H253.6V335.5H247.686V337.5ZM259.514 337.5H265.429V335.5H259.514V337.5ZM271.343 337.5H277.257V335.5H271.343V337.5ZM283.171 337.5H289.086V335.5H283.171V337.5ZM295 337.5H300.914V335.5H295V337.5ZM306.829 337.5H312.743V335.5H306.829V337.5ZM318.657 337.5H324.571V335.5H318.657V337.5ZM330.486 337.5H336.4V335.5H330.486V337.5ZM342.314 337.5H348.229V335.5H342.314V337.5ZM354.143 337.5H360.057V335.5H354.143V337.5ZM365.971 337.5H371.886V335.5H365.971V337.5ZM377.8 337.5H383.714V335.5H377.8V337.5ZM389.629 337.5H395.543V335.5H389.629V337.5ZM401.457 337.5H407.371V335.5H401.457V337.5ZM413.286 337.5H419.2V335.5H413.286V337.5ZM425.114 337.5H431.029V335.5H425.114V337.5ZM436.943 337.5H442.857V335.5H436.943V337.5ZM448.772 337.5H454.686V335.5H448.772V337.5ZM460.6 337.5H466.514V335.5H460.6V337.5ZM472.429 337.5H478.343V335.5H472.429V337.5ZM484.257 337.5H490.171V335.5H484.257V337.5ZM496.086 337.5H502V335.5H496.086V337.5ZM507.914 337.5H513.829V335.5H507.914V337.5ZM519.743 337.5H525.657V335.5H519.743V337.5ZM531.571 337.5H537.486V335.5H531.571V337.5ZM543.4 337.5H549.314V335.5H543.4V337.5ZM555.228 337.5H561.143V335.5H555.228V337.5ZM567.057 337.5H572.971V335.5H567.057V337.5ZM578.886 337.5H584.8V335.5H578.886V337.5ZM590.714 337.5H596.628V335.5H590.714V337.5ZM602.543 337.5H605.5V335.5H602.543V337.5ZM606.5 336.5V333.438H604.5V336.5H606.5ZM606.5 327.312V321.188H604.5V327.312H606.5ZM606.5 315.062V312H604.5V315.062H606.5Z" fill="#0085FF"/>
</svg>
