<svg width="685" height="555" viewBox="0 0 685 555" fill="none" xmlns="http://www.w3.org/2000/svg">
<path d="M131.517 112.038C126.582 102.892 133.399 91.834 143.787 92.1339L489.726 102.119C500.114 102.419 506.282 113.852 500.829 122.698L319.211 417.297C313.758 426.144 300.773 425.769 295.838 416.623L131.517 112.038Z" fill="#0085FF" stroke="white"/>
<path d="M201.991 152.434C198.153 145.32 203.456 136.72 211.535 136.953L419.504 142.956C427.583 143.189 432.38 152.081 428.139 158.962L318.956 336.066C314.714 342.947 304.614 342.655 300.777 335.541L201.991 152.434Z" stroke="white"/>
<path d="M138.385 112.711C134.729 105.937 139.779 97.7455 147.474 97.9676L485.708 107.731C493.403 107.953 497.972 116.422 493.932 122.974L316.36 411.012C312.32 417.565 302.702 417.288 299.047 410.513L138.385 112.711Z" stroke="white" stroke-width="2"/>
<path d="M206.242 150.477C204.049 146.412 207.079 141.497 211.695 141.63L419.041 147.615C423.658 147.749 426.399 152.83 423.975 156.762L315.119 333.335C312.695 337.267 306.924 337.1 304.731 333.035L206.242 150.477Z" stroke="white" stroke-width="2"/>
<path d="M267.684 174.614L296.532 192.399C296.832 192.583 297.206 192.597 297.518 192.435L341.082 169.804C348.787 166.289 356.6 171.259 350.468 175.591L313.522 201.228C312.93 201.639 312.953 202.522 313.567 202.9L342.909 220.99C343.19 221.163 343.538 221.186 343.84 221.052L356.733 215.329C361.902 213.509 366.333 222.081 359.459 225.352L350.166 230.191C350.006 230.274 349.871 230.399 349.776 230.553L345.942 236.773C345.863 236.901 345.814 237.046 345.798 237.197L344.551 249.534C343.702 254.85 337.518 254.376 336.608 247.974L334.852 235.635C334.81 235.341 334.64 235.081 334.387 234.925L305.563 217.155C304.954 216.78 304.16 217.146 304.05 217.852L297.172 262.041C296.221 268.326 288.747 262.424 288.959 256.978L288.449 207.152C288.445 206.809 288.266 206.492 287.974 206.311L259.112 188.519C251.486 183.817 259.471 169.551 267.684 174.614Z" fill="white"/>
<path d="M299.55 350.951L300.487 352.697L283.715 355.92L282.601 353.842L294.557 341.648L295.518 343.438L292.148 346.811L294.876 351.894L299.55 350.951ZM292.968 352.264L290.786 348.197L285.137 353.848L292.968 352.264Z" fill="white"/>
<path d="M286.285 330.158L287.92 329.281L292.902 338.562L291.266 339.44L289.25 335.683L278.156 341.637L280.173 345.394L278.537 346.271L273.556 336.99L275.191 336.112L277.208 339.869L288.301 333.915L286.285 330.158Z" fill="white"/>
<path d="M285.506 324.781L271.141 332.49L268.058 326.745C267.449 325.61 267.282 324.485 267.556 323.37C267.808 322.248 268.487 321.391 269.591 320.798C270.696 320.205 271.753 319.999 272.76 320.179C273.753 320.367 274.547 320.786 275.142 321.434L280.026 314.572L281.129 316.627L276.272 323.275L278.016 326.524L284.557 323.013L285.506 324.781ZM270.096 326.618L271.828 329.845L276.38 327.402L274.293 323.512C273.977 322.923 273.472 322.53 272.778 322.333C272.061 322.129 271.364 322.209 270.686 322.573C270.009 322.937 269.632 323.49 269.556 324.233C269.466 324.983 269.646 325.779 270.096 326.618Z" fill="white"/>
<path d="M262.939 295.727L264.422 298.49L257.795 304.864L271.01 297.772L271.923 299.473L257.559 307.182L255.887 304.066L262.436 297.706L253.527 299.669L251.867 296.575L266.231 288.866L267.144 290.568L254.017 297.612L262.939 295.727Z" fill="white"/>
<path d="M263.994 284.698L264.931 286.444L248.159 289.667L247.044 287.589L259.001 275.394L259.962 277.184L256.592 280.558L259.32 285.641L263.994 284.698ZM257.412 286.01L255.229 281.944L249.58 287.594L257.412 286.01Z" fill="white"/>
<path d="M250.729 263.905L252.364 263.028L257.345 272.309L255.71 273.187L253.694 269.43L242.6 275.384L244.616 279.14L242.981 280.018L238 270.736L239.635 269.859L241.651 273.616L252.745 267.662L250.729 263.905Z" fill="white"/>
<path d="M243.238 249.947L244.873 249.07L249.629 257.931L235.265 265.64L234.316 263.872L247.045 257.041L243.238 249.947Z" fill="white"/>
<path d="M221.433 205.393L207.069 213.102L203.938 207.268C203.321 206.119 203.202 204.977 203.581 203.844C203.945 202.719 204.701 201.848 205.85 201.232C206.543 200.86 207.221 200.639 207.885 200.567C208.534 200.503 209.141 200.557 209.707 200.727C210.273 200.898 210.782 201.175 211.235 201.559C211.679 201.927 212.036 202.362 212.305 202.863L214.451 206.863L220.484 203.625L221.433 205.393ZM205.787 206.788L207.755 210.456L212.816 207.74L210.859 204.094C210.503 203.431 209.944 202.991 209.183 202.774C208.398 202.549 207.652 202.627 206.945 203.007C206.209 203.402 205.734 203.951 205.523 204.652C205.311 205.354 205.399 206.066 205.787 206.788Z" fill="white"/>
<path d="M212.408 188.046C212.851 188.871 213.081 189.725 213.099 190.607C213.109 191.474 212.921 192.325 212.533 193.159C212.146 193.993 211.574 194.784 210.818 195.531C210.047 196.287 209.109 196.961 208.004 197.554C206.899 198.147 205.819 198.556 204.763 198.781C203.692 199.014 202.703 199.061 201.793 198.923C200.884 198.785 200.071 198.471 199.354 197.984C198.629 197.481 198.045 196.817 197.602 195.992C197.159 195.167 196.933 194.321 196.922 193.453C196.904 192.571 197.089 191.713 197.476 190.879C197.864 190.045 198.45 189.246 199.236 188.483C200.007 187.727 200.945 187.053 202.05 186.46C203.155 185.867 204.235 185.458 205.291 185.233C206.332 185.016 207.307 184.977 208.216 185.115C209.126 185.253 209.943 185.574 210.668 186.076C211.385 186.564 211.965 187.221 212.408 188.046ZM210.728 188.947C210.135 187.842 209.134 187.232 207.724 187.115C206.3 187.007 204.741 187.407 203.046 188.317C201.337 189.234 200.134 190.316 199.437 191.563C198.74 192.81 198.688 193.986 199.281 195.091C199.874 196.196 200.883 196.802 202.307 196.911C203.732 197.019 205.299 196.615 207.008 195.698C208.702 194.788 209.897 193.71 210.595 192.463C211.277 191.224 211.321 190.052 210.728 188.947Z" fill="white"/>
<path d="M206.669 181.118L204.502 180.687C204.674 179.911 204.669 179.07 204.485 178.163C204.279 177.248 203.935 176.342 203.453 175.443C202.907 174.427 202.255 173.724 201.495 173.334C200.736 172.945 199.988 172.948 199.252 173.343C198.5 173.746 198.148 174.381 198.196 175.247C198.221 176.107 198.414 177.369 198.777 179.034C199.139 180.7 199.246 182.066 199.097 183.132C198.948 184.199 198.299 185.04 197.15 185.657C196.502 186.005 195.856 186.181 195.213 186.184C194.562 186.173 193.948 186.019 193.371 185.721C192.779 185.432 192.236 185.021 191.742 184.489C191.225 183.951 190.777 183.328 190.397 182.621C190.01 181.899 189.698 181.089 189.463 180.19C189.213 179.3 189.187 178.279 189.386 177.129L191.315 177.489C191.167 178.308 191.171 179.094 191.327 179.845C191.469 180.604 191.721 181.322 192.085 182C192.591 182.942 193.198 183.613 193.905 184.012C194.604 184.395 195.329 184.386 196.081 183.982C196.832 183.579 197.208 182.988 197.208 182.21C197.2 181.418 197.061 180.382 196.792 179.103C196.637 178.389 196.493 177.661 196.359 176.916C196.225 176.172 196.179 175.467 196.219 174.8C196.26 174.133 196.414 173.519 196.682 172.957C196.95 172.396 197.401 171.945 198.034 171.605C198.815 171.186 199.569 170.981 200.294 170.99C200.998 170.992 201.653 171.153 202.261 171.472C202.868 171.791 203.435 172.246 203.961 172.837C204.464 173.42 204.913 174.081 205.309 174.817C205.83 175.79 206.242 176.821 206.543 177.912C206.829 179.011 206.871 180.08 206.669 181.118Z" fill="white"/>
<path d="M198.439 162.547L185.71 169.378L188.26 174.13L186.625 175.007L180.576 163.737L182.211 162.859L184.761 167.611L197.49 160.779L198.439 162.547Z" fill="white"/>
<path d="M213.103 125.176L214.552 123.509C215.14 124.043 215.873 124.455 216.752 124.746C217.648 125.021 218.606 125.172 219.625 125.199C220.779 125.23 221.713 125.012 222.428 124.546C223.142 124.08 223.511 123.429 223.533 122.593C223.556 121.741 223.179 121.12 222.404 120.732C221.645 120.327 220.453 119.869 218.827 119.357C217.202 118.846 215.963 118.261 215.111 117.602C214.258 116.944 213.85 115.963 213.884 114.659C213.904 113.924 214.072 113.276 214.388 112.716C214.72 112.156 215.159 111.699 215.704 111.346C216.249 110.976 216.875 110.708 217.581 110.543C218.306 110.361 219.069 110.281 219.871 110.303C220.69 110.324 221.548 110.456 222.445 110.697C223.342 110.922 224.241 111.406 225.141 112.149L223.872 113.646C223.234 113.11 222.55 112.724 221.82 112.487C221.091 112.234 220.342 112.096 219.573 112.076C218.503 112.048 217.62 112.242 216.923 112.658C216.243 113.075 215.892 113.709 215.869 114.562C215.846 115.414 216.173 116.033 216.848 116.419C217.54 116.806 218.508 117.199 219.752 117.6C220.449 117.82 221.153 118.056 221.866 118.309C222.578 118.562 223.214 118.872 223.773 119.238C224.332 119.604 224.789 120.043 225.143 120.554C225.497 121.065 225.665 121.68 225.646 122.399C225.622 123.284 225.427 124.04 225.059 124.666C224.708 125.276 224.243 125.765 223.665 126.134C223.086 126.504 222.41 126.77 221.637 126.933C220.88 127.081 220.084 127.143 219.248 127.121C218.145 127.091 217.045 126.937 215.949 126.657C214.853 126.36 213.904 125.866 213.103 125.176Z" fill="white"/>
<path d="M229.8 127.151L230.233 110.854L236.852 111.03C238.156 111.065 239.206 111.528 240.002 112.419C240.798 113.293 241.179 114.382 241.144 115.685C241.123 116.471 240.979 117.17 240.712 117.781C240.445 118.377 240.097 118.877 239.668 119.284C239.239 119.691 238.746 119.996 238.189 120.198C237.648 120.401 237.094 120.495 236.526 120.48L231.988 120.359L231.806 127.204L229.8 127.151ZM236.352 112.874L232.19 112.763L232.037 118.504L236.174 118.614C236.926 118.634 237.585 118.367 238.152 117.814C238.736 117.244 239.038 116.558 239.06 115.756C239.082 114.92 238.841 114.236 238.337 113.704C237.832 113.172 237.171 112.895 236.352 112.874Z" fill="white"/>
<path d="M255.086 125.966L255.037 127.822L244.883 127.552L245.316 111.255L255.37 111.523L255.321 113.378L247.273 113.164L247.141 118.103L253.384 118.269L253.335 120.124L247.092 119.958L246.938 125.75L255.086 125.966Z" fill="white"/>
<path d="M271.71 117.502L269.832 118.305C269.653 116.845 269.166 115.678 268.369 114.804C267.59 113.93 266.632 113.478 265.495 113.448C264.141 113.412 263.031 113.976 262.163 115.141C261.297 116.288 260.838 117.815 260.787 119.72C260.761 120.706 260.846 121.612 261.041 122.437C261.237 123.245 261.528 123.947 261.913 124.542C262.299 125.121 262.764 125.577 263.307 125.909C263.867 126.242 264.481 126.417 265.15 126.435C266.236 126.464 267.182 126.104 267.988 125.356C268.811 124.609 269.357 123.586 269.626 122.289L271.349 123.514C270.89 125.04 270.097 126.24 268.97 127.113C267.86 127.97 266.57 128.379 265.099 128.34C264.113 128.314 263.224 128.09 262.432 127.667C261.641 127.228 260.971 126.633 260.423 125.883C259.874 125.115 259.455 124.209 259.165 123.165C258.876 122.103 258.748 120.937 258.782 119.667C258.814 118.43 259.003 117.306 259.348 116.295C259.693 115.267 260.159 114.402 260.747 113.698C261.334 112.994 262.034 112.453 262.847 112.073C263.66 111.693 264.56 111.516 265.546 111.542C267.134 111.585 268.474 112.147 269.565 113.23C270.674 114.296 271.389 115.72 271.71 117.502Z" fill="white"/>
<path d="M284.726 126.755L284.677 128.61L274.147 128.33L274.196 126.475L278.458 126.588L278.793 114.002L274.531 113.889L274.58 112.034L285.11 112.314L285.061 114.169L280.799 114.056L280.464 126.641L284.726 126.755Z" fill="white"/>
<path d="M290.157 128.756L288.177 128.703L293.7 112.542L296.056 112.605L300.712 129.036L298.682 128.982L297.424 124.383L291.658 124.229L290.157 128.756ZM292.284 122.389L296.897 122.512L294.794 114.804L292.284 122.389Z" fill="white"/>
<path d="M315.594 127.576L315.545 129.431L305.491 129.164L305.925 112.867L307.93 112.921L307.546 127.362L315.594 127.576Z" fill="white"/>
<path d="M333.367 128.374L334.816 126.707C335.404 127.241 336.137 127.654 337.016 127.945C337.912 128.219 338.869 128.37 339.889 128.397C341.042 128.428 341.976 128.21 342.691 127.744C343.406 127.278 343.775 126.627 343.797 125.792C343.82 124.939 343.443 124.319 342.667 123.93C341.909 123.525 340.717 123.067 339.091 122.555C337.465 122.044 336.227 121.459 335.374 120.801C334.522 120.143 334.113 119.162 334.148 117.858C334.168 117.122 334.335 116.475 334.651 115.914C334.984 115.354 335.423 114.898 335.967 114.544C336.512 114.174 337.138 113.906 337.845 113.741C338.569 113.56 339.332 113.48 340.135 113.501C340.954 113.523 341.812 113.654 342.708 113.896C343.606 114.12 344.504 114.604 345.404 115.347L344.135 116.844C343.497 116.308 342.813 115.922 342.084 115.685C341.354 115.432 340.605 115.295 339.837 115.274C338.767 115.246 337.884 115.44 337.187 115.856C336.507 116.273 336.155 116.908 336.133 117.76C336.11 118.612 336.436 119.232 337.112 119.618C337.804 120.004 338.772 120.398 340.016 120.799C340.713 121.018 341.417 121.254 342.13 121.507C342.842 121.76 343.478 122.07 344.037 122.436C344.596 122.802 345.052 123.241 345.407 123.752C345.761 124.263 345.929 124.878 345.91 125.597C345.886 126.483 345.69 127.239 345.322 127.864C344.972 128.474 344.507 128.963 343.929 129.333C343.35 129.702 342.674 129.968 341.9 130.132C341.144 130.279 340.347 130.341 339.512 130.319C338.409 130.29 337.309 130.135 336.212 129.855C335.116 129.558 334.168 129.065 333.367 128.374Z" fill="white"/>
<path d="M360.317 128.765L360.268 130.62L350.114 130.35L350.547 114.054L360.601 114.321L360.551 116.177L352.504 115.963L352.372 120.902L358.615 121.068L358.566 122.923L352.323 122.757L352.169 128.548L360.317 128.765Z" fill="white"/>
<path d="M364.946 130.745L365.38 114.448L371.898 114.622C373.185 114.656 374.245 115.069 375.077 115.86C375.926 116.636 376.334 117.65 376.3 118.904C376.267 120.157 375.922 121.177 375.266 121.962C374.61 122.731 373.852 123.212 372.994 123.407L376.529 131.053L374.197 130.991L370.835 123.475L367.149 123.377L366.952 130.798L364.946 130.745ZM370.996 116.454L367.336 116.357L367.199 121.522L371.611 121.639C372.28 121.657 372.872 121.413 373.387 120.908C373.919 120.387 374.196 119.742 374.216 118.974C374.236 118.205 373.943 117.603 373.336 117.169C372.729 116.718 371.949 116.48 370.996 116.454Z" fill="white"/>
<path d="M386.247 131.311L382.938 131.223L378.708 114.803L380.889 114.861L384.709 129.715L389.313 115.085L391.394 115.14L386.247 131.311Z" fill="white"/>
<path d="M404.99 129.953L404.94 131.808L394.41 131.528L394.46 129.673L398.722 129.786L399.057 117.201L394.794 117.087L394.844 115.232L405.374 115.512L405.324 117.367L401.062 117.254L400.728 129.84L404.99 129.953Z" fill="white"/>
<path d="M422.039 121.5L420.161 122.303C419.983 120.843 419.495 119.676 418.699 118.802C417.919 117.928 416.961 117.476 415.825 117.446C414.471 117.41 413.36 117.974 412.493 119.139C411.626 120.286 411.168 121.813 411.117 123.718C411.091 124.704 411.175 125.61 411.371 126.435C411.567 127.243 411.857 127.945 412.243 128.54C412.629 129.119 413.094 129.575 413.637 129.907C414.197 130.24 414.811 130.415 415.479 130.433C416.566 130.462 417.512 130.102 418.318 129.354C419.141 128.607 419.686 127.584 419.955 126.287L421.679 127.512C421.22 129.038 420.427 130.238 419.3 131.111C418.19 131.968 416.9 132.377 415.429 132.338C414.443 132.312 413.554 132.088 412.762 131.665C411.971 131.226 411.301 130.631 410.752 129.88C410.204 129.113 409.785 128.207 409.495 127.163C409.205 126.101 409.077 124.935 409.111 123.665C409.144 122.428 409.333 121.304 409.678 120.293C410.023 119.265 410.489 118.399 411.076 117.696C411.664 116.992 412.364 116.451 413.177 116.071C413.99 115.691 414.889 115.514 415.875 115.54C417.463 115.583 418.803 116.145 419.895 117.228C421.004 118.294 421.719 119.718 422.039 121.5Z" fill="white"/>
<path d="M435.482 130.764L435.432 132.619L425.279 132.349L425.712 116.053L435.766 116.32L435.716 118.176L427.668 117.961L427.537 122.901L433.78 123.067L433.73 124.922L427.488 124.756L427.334 130.547L435.482 130.764Z" fill="white"/>
<path d="M336.381 349.025L337.961 349.999L332.63 358.645L318.753 350.09L324.031 341.529L325.611 342.503L321.386 349.356L325.592 351.949L328.869 346.633L330.449 347.607L327.172 352.923L332.103 355.963L336.381 349.025Z" fill="white"/>
<path d="M325.632 338.933L326.803 337.033L334.386 336.728L331.094 330.073L332.239 328.216L336.387 336.636L346.445 336.237L345.234 338.201L336.851 338.513L340.483 345.908L339.298 347.83L334.772 338.587L325.632 338.933Z" fill="white"/>
<path d="M348.388 333.086L334.511 324.531L337.985 318.894C338.67 317.784 339.597 317.109 340.767 316.867C341.923 316.618 343.056 316.835 344.166 317.519C344.835 317.932 345.367 318.407 345.762 318.945C346.142 319.474 346.401 320.027 346.538 320.602C346.674 321.177 346.69 321.756 346.585 322.34C346.49 322.91 346.293 323.436 345.994 323.92L343.612 327.785L349.44 331.378L348.388 333.086ZM339.328 320.253L337.143 323.797L342.032 326.811L344.204 323.288C344.599 322.648 344.699 321.943 344.505 321.175C344.305 320.384 343.863 319.778 343.18 319.357C342.469 318.918 341.756 318.784 341.043 318.953C340.33 319.122 339.758 319.555 339.328 320.253Z" fill="white"/>
<path d="M356.2 320.413L342.323 311.858L345.745 306.307C346.421 305.211 347.31 304.502 348.412 304.18C349.509 303.834 350.591 303.991 351.658 304.649C352.726 305.307 353.434 306.117 353.784 307.079C354.12 308.032 354.156 308.929 353.894 309.769L362.281 310.549L361.057 312.535L352.869 311.67L350.934 314.809L357.253 318.705L356.2 320.413ZM346.878 308.007L344.956 311.124L349.354 313.835L351.67 310.077C352.021 309.508 352.108 308.874 351.93 308.175C351.747 307.453 351.327 306.89 350.673 306.487C350.018 306.083 349.35 306.035 348.67 306.342C347.975 306.64 347.378 307.195 346.878 308.007Z" fill="white"/>
<path d="M367.948 297.82L369.528 298.794L364.197 307.441L350.32 298.886L355.598 290.325L357.178 291.299L352.953 298.152L357.159 300.744L360.436 295.428L362.016 296.402L358.739 301.718L363.67 304.759L367.948 297.82Z" fill="white"/>
<path d="M369.866 295.331L369.151 293.24C369.908 293 370.633 292.573 371.326 291.959C372.013 291.322 372.624 290.569 373.159 289.701C373.765 288.719 374.045 287.802 374.001 286.95C373.957 286.098 373.579 285.452 372.867 285.013C372.142 284.566 371.416 284.58 370.69 285.056C369.959 285.509 368.965 286.31 367.706 287.459C366.448 288.608 365.32 289.386 364.323 289.793C363.326 290.199 362.272 290.061 361.162 289.376C360.536 288.99 360.06 288.52 359.734 287.965C359.417 287.397 359.242 286.788 359.21 286.139C359.163 285.482 359.246 284.806 359.458 284.112C359.664 283.395 359.978 282.695 360.399 282.011C360.829 281.314 361.373 280.638 362.032 279.984C362.677 279.32 363.546 278.786 364.641 278.38L365.298 280.229C364.515 280.512 363.838 280.91 363.267 281.422C362.681 281.926 362.187 282.505 361.783 283.159C361.222 284.07 360.946 284.932 360.956 285.743C360.975 286.541 361.348 287.163 362.074 287.611C362.8 288.058 363.499 288.087 364.172 287.696C364.854 287.291 365.68 286.652 366.651 285.777C367.191 285.285 367.748 284.794 368.325 284.305C368.902 283.816 369.488 283.421 370.086 283.122C370.683 282.822 371.291 282.647 371.912 282.597C372.532 282.547 373.148 282.711 373.76 283.088C374.514 283.553 375.069 284.102 375.426 284.734C375.777 285.344 375.967 285.991 375.996 286.677C376.025 287.363 375.916 288.081 375.669 288.832C375.417 289.561 375.071 290.281 374.632 290.992C374.053 291.932 373.367 292.805 372.575 293.613C371.768 294.412 370.865 294.985 369.866 295.331Z" fill="white"/>
<path d="M377.757 282.53L377.043 280.439C377.8 280.199 378.525 279.772 379.217 279.158C379.905 278.521 380.516 277.768 381.051 276.9C381.657 275.918 381.937 275.001 381.893 274.149C381.849 273.296 381.471 272.651 380.759 272.212C380.033 271.765 379.308 271.779 378.582 272.255C377.851 272.708 376.857 273.509 375.598 274.658C374.34 275.807 373.212 276.585 372.215 276.992C371.218 277.398 370.164 277.259 369.054 276.575C368.428 276.189 367.952 275.719 367.626 275.164C367.308 274.595 367.134 273.987 367.101 273.338C367.055 272.681 367.137 272.005 367.349 271.311C367.556 270.594 367.87 269.893 368.291 269.21C368.721 268.513 369.265 267.837 369.924 267.182C370.569 266.519 371.438 265.985 372.533 265.579L373.19 267.428C372.407 267.711 371.73 268.109 371.158 268.621C370.573 269.124 370.079 269.704 369.675 270.358C369.113 271.269 368.838 272.13 368.848 272.942C368.867 273.74 369.24 274.362 369.966 274.809C370.691 275.257 371.391 275.285 372.064 274.895C372.745 274.49 373.572 273.851 374.543 272.976C375.082 272.484 375.64 271.993 376.217 271.504C376.793 271.015 377.38 270.62 377.977 270.321C378.575 270.021 379.183 269.846 379.803 269.796C380.423 269.746 381.039 269.91 381.651 270.287C382.406 270.752 382.961 271.301 383.318 271.933C383.669 272.543 383.859 273.19 383.888 273.876C383.917 274.562 383.808 275.28 383.561 276.031C383.308 276.76 382.963 277.479 382.524 278.191C381.945 279.13 381.259 280.004 380.466 280.812C379.66 281.611 378.757 282.183 377.757 282.53Z" fill="white"/>
<path d="M383.457 244.848C384.054 243.88 384.749 243.071 385.543 242.421C386.336 241.771 387.202 241.323 388.14 241.076C389.078 240.829 390.074 240.805 391.13 241.004C392.195 241.189 393.289 241.628 394.414 242.322C395.68 243.102 396.675 243.942 397.399 244.839C398.122 245.737 398.598 246.669 398.827 247.635C399.065 248.587 399.079 249.568 398.869 250.578C398.645 251.579 398.226 252.578 397.612 253.574C397.313 254.058 396.992 254.547 396.648 255.042C396.326 255.532 396.001 255.979 395.672 256.385L381.795 247.83C382.019 247.34 382.278 246.841 382.57 246.334C382.872 245.813 383.168 245.318 383.457 244.848ZM385.068 245.723C384.954 245.908 384.834 246.119 384.708 246.356C384.591 246.578 384.469 246.807 384.343 247.044L395.231 253.756C395.385 253.537 395.54 253.318 395.695 253.099C395.849 252.88 395.984 252.678 396.098 252.493C396.677 251.554 397.01 250.679 397.097 249.869C397.179 249.035 397.078 248.275 396.793 247.589C396.518 246.889 396.087 246.25 395.5 245.673C394.899 245.086 394.215 244.556 393.446 244.082C392.72 243.635 391.976 243.313 391.212 243.117C390.435 242.913 389.677 242.868 388.938 242.983C388.209 243.083 387.509 243.358 386.838 243.809C386.176 244.245 385.586 244.884 385.068 245.723Z" fill="white"/>
<path d="M407.407 233.814L408.987 234.788L403.656 243.435L389.779 234.88L395.057 226.319L396.637 227.293L392.412 234.146L396.618 236.739L399.895 231.423L401.475 232.397L398.198 237.713L403.129 240.753L407.407 233.814Z" fill="white"/>
<path d="M415.496 220.693L417.076 221.667L411.798 230.228L397.921 221.673L398.974 219.965L411.271 227.546L415.496 220.693Z" fill="white"/>
<path d="M422.967 208.575L424.547 209.549L419.019 218.516L417.439 217.542L419.676 213.912L408.959 207.305L406.722 210.935L405.142 209.961L410.67 200.994L412.249 201.968L410.012 205.597L420.729 212.204L422.967 208.575Z" fill="white"/>
<path d="M430.517 199.865L428.779 202.683L412.454 198.099L413.599 196.242L428.364 200.394L418.022 189.068L419.114 187.296L430.517 199.865Z" fill="white"/>
<path d="M438.974 182.61L440.554 183.584L435.223 192.23L421.346 183.675L426.624 175.114L428.204 176.088L423.979 182.941L428.185 185.534L431.462 180.218L433.042 181.192L429.765 186.508L434.696 189.548L438.974 182.61Z" fill="white"/>
<path d="M443.01 179.6L429.133 171.045L432.555 165.494C433.231 164.398 434.119 163.689 435.222 163.367C436.318 163.022 437.4 163.178 438.468 163.836C439.535 164.494 440.244 165.304 440.594 166.266C440.929 167.219 440.966 168.116 440.703 168.956L449.091 169.737L447.866 171.722L439.678 170.858L437.743 173.996L444.063 177.892L443.01 179.6ZM433.687 167.194L431.766 170.311L436.164 173.022L438.48 169.265C438.831 168.695 438.918 168.061 438.74 167.362C438.556 166.64 438.137 166.077 437.482 165.674C436.828 165.27 436.16 165.222 435.48 165.529C434.785 165.828 434.187 166.383 433.687 167.194Z" fill="white"/>
<path d="M452.823 163.682L446.739 159.931L435.919 160.037L437.104 158.116L445.72 158.095L441.842 150.43L443.026 148.508L447.792 158.223L453.876 161.974L452.823 163.682Z" fill="white"/>
<path d="M209.198 232.412L215.413 225.927L211.166 218.013L219.254 221.92L225.469 215.435L224.252 224.334L232.34 228.241L223.5 229.834L222.284 238.733L218.037 230.819L209.198 232.412Z" fill="white"/>
<path d="M171.551 122.776L180.279 124.897L184.992 117.251L185.673 126.207L194.401 128.327L186.094 131.742L186.775 140.698L180.96 133.853L172.652 137.268L177.366 129.622L171.551 122.776Z" fill="white"/>
<path d="M452.435 124.487L461.163 126.607L465.876 118.961L466.557 127.917L475.285 130.038L466.978 133.452L467.658 142.408L461.844 135.563L453.536 138.978L458.25 131.332L452.435 124.487Z" fill="white"/>
<path d="M301.077 370.003L309.805 372.123L314.519 364.477L315.2 373.433L323.928 375.553L315.62 378.968L316.301 387.924L310.486 381.079L302.179 384.494L306.892 376.848L301.077 370.003Z" fill="white"/>
<path d="M553.569 198.008C562.398 195.292 570.857 203.152 568.794 212.156L512.807 456.602C510.745 465.607 499.708 469.002 492.942 462.714L309.239 292.004C302.472 285.716 305.05 274.461 313.879 271.744L553.569 198.008Z" fill="#0085FF" stroke="white" stroke-width="2"/>
<path d="M551.907 203.613C558.529 201.576 564.873 207.471 563.326 214.224L508.784 452.36C507.238 459.113 498.96 461.66 493.885 456.943L314.925 290.641C309.849 285.925 311.783 277.483 318.405 275.446L551.907 203.613Z" stroke="white"/>
<path d="M534.515 236.971L525.798 246.352C525.557 246.611 525.471 246.98 525.573 247.319L531.017 265.498C531.81 268.733 529.325 271.331 528.103 268.634L521.287 253.253C520.996 252.597 520.129 252.452 519.641 252.978L511.382 261.865C511.155 262.109 511.065 262.449 511.141 262.774L512.332 267.858C512.657 269.985 509.03 270.999 508.271 268.102L507.131 264.308C507.079 264.137 506.984 263.984 506.854 263.863L504.954 262.098C504.845 261.996 504.715 261.921 504.573 261.876L500.039 260.452C498.052 259.701 498.686 257.368 501.219 257.531L505.812 257.826C506.112 257.845 506.405 257.729 506.609 257.509L514.74 248.759C515.225 248.237 515.024 247.39 514.357 247.141L498.673 241.286C496.321 240.418 499.14 238.025 501.223 238.542L520.128 242.265C520.468 242.332 520.818 242.218 521.054 241.964L529.782 232.572C532.15 230.024 537.065 234.227 534.515 236.971Z" fill="white"/>
<path d="M457.454 264.103L463.316 269.55L456.14 277.273C454.402 276.893 452.95 276.318 451.782 275.551C450.614 274.783 449.553 273.955 448.599 273.069C447.327 271.888 446.407 270.609 445.838 269.234C445.287 267.84 445.062 266.414 445.162 264.955C445.281 263.478 445.707 261.988 446.443 260.484C447.195 258.961 448.24 257.481 449.577 256.042C450.878 254.642 452.243 253.529 453.671 252.705C455.117 251.862 456.555 251.346 457.984 251.157C459.414 250.969 460.826 251.1 462.22 251.549C463.633 252.016 464.957 252.822 466.191 253.969C467.575 255.255 468.543 256.595 469.094 257.989C469.645 259.383 469.907 260.826 469.88 262.318L466.999 262.55C467.038 261.458 466.813 260.331 466.323 259.171C465.833 258.01 465.177 257.048 464.354 256.283C462.503 254.563 460.458 253.914 458.218 254.337C456.014 254.759 453.91 256.048 451.905 258.206C449.759 260.515 448.623 262.863 448.496 265.249C448.405 267.634 449.407 269.799 451.502 271.746C451.969 272.18 452.473 272.613 453.013 273.044C453.589 273.474 454.235 273.81 454.951 274.052L459.12 269.566L455.502 266.204L457.454 264.103Z" fill="white"/>
<path d="M459.538 282.706L476.687 264.252L483.98 271.029C485.42 272.367 486.212 273.914 486.356 275.671C486.537 277.426 485.968 279.014 484.649 280.433C483.33 281.853 481.893 282.687 480.338 282.935C478.801 283.164 477.441 282.959 476.259 282.318L472.497 294.748L469.888 292.324L473.715 280.219L469.592 276.387L461.782 284.791L459.538 282.706ZM481.074 272.243L476.979 268.438L471.544 274.286L476.48 278.874C477.228 279.569 478.156 279.884 479.262 279.818C480.404 279.751 481.38 279.282 482.189 278.412C482.998 277.541 483.277 276.548 483.024 275.432C482.79 274.297 482.14 273.234 481.074 272.243Z" fill="white"/>
<path d="M476.777 298.725L474.562 296.666L497.404 283.503L500.041 285.954L488.586 309.699L486.314 307.587L489.573 300.987L483.122 294.992L476.777 298.725ZM485.719 293.49L490.88 298.286L496.346 287.229L485.719 293.49Z" fill="white"/>
<path d="M507.048 322.94L505.096 325.041L491.688 312.582L493.641 310.481L517.515 306.107L507.726 297.011L509.679 294.91L522.076 306.43L520.124 308.531L496.305 312.957L507.048 322.94Z" fill="white"/>
<path d="M430.439 295.209L429.5 294.336L439.095 288.851L440.212 289.889L435.445 299.86L434.482 298.965L435.838 296.194L433.104 293.653L430.439 295.209ZM434.195 293.027L436.382 295.06L438.658 290.417L434.195 293.027Z" fill="white"/>
<path d="M443.384 302.917L448.411 297.508L449.362 298.392L444.368 303.766C443.683 304.503 442.889 304.88 441.987 304.898C441.091 304.908 440.259 304.555 439.49 303.841C438.722 303.127 438.309 302.323 438.254 301.429C438.205 300.527 438.524 299.708 439.208 298.971L444.202 293.597L445.153 294.481L440.126 299.89C439.707 300.342 439.518 300.847 439.562 301.404C439.605 301.961 439.869 302.464 440.352 302.914C440.836 303.363 441.357 303.589 441.916 303.591C442.475 303.594 442.964 303.369 443.384 302.917Z" fill="white"/>
<path d="M444.455 306.881L445.872 306.692C445.929 307.203 446.109 307.717 446.411 308.234C446.728 308.75 447.129 309.233 447.612 309.683C448.159 310.191 448.706 310.485 449.252 310.564C449.799 310.644 450.256 310.485 450.624 310.089C451 309.685 451.083 309.222 450.872 308.702C450.677 308.181 450.294 307.448 449.724 306.505C449.153 305.561 448.802 304.747 448.669 304.063C448.537 303.379 448.758 302.727 449.333 302.109C449.657 301.76 450.015 301.518 450.408 301.381C450.809 301.251 451.218 301.217 451.633 301.278C452.056 301.332 452.475 301.47 452.889 301.692C453.318 301.913 453.723 302.201 454.103 302.554C454.492 302.915 454.852 303.346 455.184 303.847C455.524 304.34 455.753 304.959 455.872 305.705L454.616 305.889C454.535 305.356 454.368 304.876 454.115 304.449C453.87 304.014 453.565 303.627 453.2 303.288C452.693 302.817 452.181 302.533 451.664 302.437C451.156 302.349 450.714 302.506 450.338 302.911C449.963 303.315 449.856 303.755 450.019 304.231C450.19 304.715 450.492 305.32 450.924 306.047C451.169 306.452 451.41 306.868 451.647 307.295C451.885 307.723 452.061 308.145 452.176 308.562C452.291 308.979 452.325 309.387 452.278 309.787C452.232 310.187 452.05 310.557 451.734 310.898C451.343 311.318 450.925 311.601 450.479 311.748C450.047 311.894 449.613 311.933 449.174 311.865C448.735 311.796 448.293 311.637 447.847 311.385C447.417 311.133 447.003 310.823 446.607 310.454C446.084 309.968 445.616 309.423 445.203 308.818C444.798 308.205 444.549 307.559 444.455 306.881Z" fill="white"/>
<path d="M453.382 316.529L459.746 309.681L457.19 307.306L458.007 306.426L464.071 312.06L463.253 312.94L460.697 310.565L454.333 317.413L453.382 316.529Z" fill="white"/>
<path d="M458.775 321.54L465.956 313.813L469.047 316.685C469.658 317.252 469.995 317.906 470.061 318.646C470.142 319.386 469.906 320.053 469.353 320.647C468.801 321.242 468.197 321.589 467.543 321.69C466.895 321.782 466.322 321.692 465.822 321.42L464.268 326.644L463.162 325.617L464.744 320.529L462.996 318.905L459.726 322.424L458.775 321.54ZM467.826 317.189L466.09 315.576L463.814 318.025L465.906 319.97C466.223 320.264 466.615 320.399 467.081 320.374C467.562 320.349 467.973 320.154 468.311 319.79C468.65 319.425 468.765 319.007 468.656 318.537C468.554 318.058 468.277 317.609 467.826 317.189Z" fill="white"/>
<path d="M471.429 331.66L470.612 332.539L465.618 327.899L466.436 327.02L468.457 328.898L474.003 322.93L471.982 321.052L472.799 320.172L477.793 324.812L476.975 325.692L474.954 323.814L469.408 329.782L471.429 331.66Z" fill="white"/>
<path d="M473.211 334.955L472.271 334.082L481.866 328.597L482.983 329.635L478.216 339.606L477.253 338.711L478.61 335.939L475.875 333.399L473.211 334.955ZM476.966 332.773L479.154 334.806L481.429 330.163L476.966 332.773Z" fill="white"/>
<path d="M382.02 264.371L515.172 388.105" stroke="#0085FF"/>
<path d="M353.201 295.382L355.377 294.515C355.481 294.665 355.612 294.827 355.772 295.002C355.946 295.191 356.156 295.399 356.401 295.627C357.079 296.257 357.859 296.835 358.742 297.361C359.638 297.872 360.548 298.237 361.474 298.456C362.414 298.66 363.338 298.663 364.248 298.466C365.171 298.254 365.999 297.753 366.733 296.963C367.306 296.346 367.614 295.683 367.656 294.972C367.725 294.261 367.37 293.544 366.591 292.82C366.259 292.511 365.882 292.295 365.461 292.17C365.066 292.045 364.584 291.971 364.013 291.949L362.824 291.927L362.676 289.743L372.342 290.06L365.352 283.564L366.833 281.971L375.965 290.457L374.484 292.05L367.976 291.98C368.104 292.045 368.232 292.124 368.361 292.217C368.504 292.324 368.633 292.43 368.749 292.538C369.528 293.262 369.938 294.165 369.981 295.247C370.051 296.329 369.586 297.408 368.586 298.485C367.652 299.489 366.602 300.171 365.434 300.531C364.267 300.89 363.068 300.994 361.839 300.841C360.623 300.674 359.413 300.284 358.207 299.672C357.016 299.074 355.93 298.318 354.949 297.407C354.603 297.085 354.27 296.749 353.95 296.398C353.631 296.048 353.381 295.709 353.201 295.382Z" fill="white"/>
<path d="M371.386 312.682C370.579 311.931 369.996 311.068 369.638 310.094C369.294 309.133 369.178 308.115 369.289 307.041C369.399 305.967 369.732 304.872 370.286 303.755C370.853 302.624 371.637 301.52 372.637 300.444C373.637 299.367 374.681 298.505 375.767 297.856C376.867 297.193 377.949 296.767 379.011 296.578C380.074 296.389 381.098 296.431 382.081 296.703C383.08 296.989 383.983 297.507 384.79 298.258C385.598 299.008 386.174 299.864 386.518 300.825C386.875 301.8 386.999 302.824 386.888 303.898C386.778 304.972 386.432 306.082 385.851 307.227C385.284 308.358 384.5 309.462 383.5 310.539C382.5 311.615 381.456 312.477 380.37 313.126C379.296 313.76 378.228 314.172 377.165 314.361C376.103 314.55 375.072 314.502 374.074 314.216C373.09 313.944 372.194 313.433 371.386 312.682ZM374.39 302.073C373.816 302.69 373.319 303.311 372.899 303.937C372.507 304.562 372.19 305.177 371.95 305.783L384.668 303.119C384.684 302.465 384.584 301.85 384.367 301.274C384.164 300.711 383.832 300.215 383.37 299.786C382.259 298.754 380.878 298.447 379.226 298.864C377.589 299.295 375.977 300.365 374.39 302.073ZM372.807 311.153C373.355 311.663 373.979 311.989 374.68 312.132C375.395 312.288 376.138 312.27 376.909 312.077C377.693 311.869 378.492 311.501 379.305 310.973C380.146 310.444 380.96 309.757 381.747 308.91C382.307 308.307 382.784 307.707 383.178 307.11C383.585 306.498 383.902 305.897 384.129 305.305L371.493 307.967C371.49 308.578 371.596 309.158 371.812 309.707C372.028 310.256 372.36 310.738 372.807 311.153Z" fill="white"/>
<path d="M375.888 322.923L375.236 320.673L406.68 311.658L407.331 313.908L375.888 322.923Z" fill="white"/>
<path d="M397.337 336.797C396.529 336.046 395.946 335.184 395.588 334.209C395.245 333.248 395.128 332.23 395.239 331.156C395.35 330.083 395.682 328.987 396.236 327.87C396.803 326.739 397.587 325.635 398.588 324.559C399.588 323.483 400.631 322.62 401.718 321.971C402.818 321.309 403.899 320.883 404.962 320.693C406.025 320.504 407.048 320.546 408.032 320.818C409.03 321.104 409.933 321.622 410.741 322.373C411.549 323.123 412.125 323.979 412.468 324.94C412.826 325.915 412.95 326.939 412.839 328.013C412.728 329.087 412.383 330.197 411.802 331.342C411.235 332.473 410.451 333.577 409.451 334.654C408.45 335.73 407.407 336.593 406.32 337.241C405.247 337.875 404.179 338.287 403.116 338.476C402.053 338.665 401.023 338.617 400.025 338.331C399.041 338.059 398.145 337.548 397.337 336.797ZM400.34 326.188C399.767 326.805 399.27 327.426 398.85 328.052C398.457 328.677 398.141 329.292 397.9 329.898L410.619 327.234C410.635 326.58 410.535 325.965 410.317 325.389C410.115 324.826 409.782 324.33 409.321 323.901C408.21 322.869 406.829 322.562 405.177 322.979C403.54 323.41 401.928 324.48 400.34 326.188ZM398.758 335.268C399.306 335.778 399.93 336.104 400.631 336.247C401.346 336.403 402.089 336.385 402.86 336.192C403.644 335.984 404.443 335.617 405.256 335.089C406.097 334.56 406.911 333.872 407.698 333.025C408.258 332.422 408.735 331.822 409.128 331.225C409.535 330.613 409.852 330.012 410.079 329.421L397.444 332.082C397.44 332.694 397.546 333.274 397.763 333.822C397.979 334.371 398.31 334.853 398.758 335.268Z" fill="white"/>
<path d="M412.936 350.891L411.205 349.283L414.406 345.838L408.347 340.208L409.727 338.722L423.495 334.625L425.94 336.898L417.518 345.961L420.98 349.179L419.599 350.664L416.137 347.447L412.936 350.891ZM411.545 340.411L415.786 344.353L422.528 337.097L411.545 340.411Z" fill="white"/>
<path d="M414.814 359.095L414.162 356.845L445.606 347.831L446.257 350.081L414.814 359.095Z" fill="white"/>
<path d="M441.765 377.681L431.724 368.35C432.484 367.532 433.267 366.922 434.071 366.519C434.875 366.117 435.678 365.86 436.48 365.749C437.295 365.624 438.108 365.603 438.917 365.687C439.755 365.77 440.566 365.895 441.351 366.063C442.121 366.217 442.864 366.372 443.579 366.529C444.309 366.698 444.994 366.8 445.635 366.834C446.29 366.881 446.892 366.826 447.442 366.668C448.006 366.524 448.509 366.215 448.949 365.741C449.362 365.296 449.622 364.829 449.728 364.339C449.834 363.849 449.836 363.369 449.734 362.9C449.646 362.444 449.47 362.013 449.203 361.605C448.952 361.21 448.674 360.872 448.371 360.591C447.434 359.719 446.367 359.29 445.172 359.303C444.005 359.315 443.035 359.737 442.261 360.57L440.595 359.021C441.168 358.404 441.845 357.923 442.623 357.576C443.415 357.216 444.228 357.021 445.061 356.993C445.921 356.964 446.782 357.108 447.642 357.426C448.516 357.73 449.335 358.237 450.1 358.948C450.691 359.497 451.168 360.127 451.529 360.838C451.891 361.548 452.107 362.27 452.177 363.004C452.262 363.752 452.187 364.498 451.952 365.243C451.731 365.973 451.333 366.647 450.76 367.264C450.16 367.91 449.517 368.369 448.833 368.643C448.163 368.93 447.461 369.093 446.726 369.132C446.018 369.17 445.286 369.118 444.53 368.977C443.788 368.85 443.039 368.701 442.282 368.533C441.006 368.256 439.753 368.042 438.524 367.889C437.295 367.737 436.164 367.956 435.13 368.547L443.245 376.088L441.765 377.681Z" fill="white"/>
<path d="M449.238 385.027C448.431 384.276 447.848 383.414 447.49 382.439C447.146 381.478 447.03 380.461 447.141 379.387C447.251 378.313 447.584 377.217 448.138 376.101C448.705 374.969 449.489 373.866 450.489 372.789C451.489 371.713 452.533 370.85 453.619 370.202C454.719 369.539 455.801 369.113 456.864 368.924C457.926 368.735 458.95 368.776 459.933 369.048C460.932 369.334 461.835 369.852 462.642 370.603C463.45 371.354 464.026 372.21 464.37 373.171C464.728 374.145 464.851 375.17 464.74 376.243C464.63 377.317 464.284 378.427 463.703 379.573C463.136 380.704 462.352 381.808 461.352 382.884C460.352 383.96 459.308 384.823 458.222 385.471C457.148 386.106 456.08 386.517 455.017 386.706C453.955 386.896 452.924 386.847 451.926 386.562C450.942 386.289 450.046 385.778 449.238 385.027ZM452.242 374.418C451.668 375.035 451.171 375.657 450.751 376.283C450.359 376.907 450.042 377.523 449.802 378.129L462.52 375.464C462.537 374.811 462.436 374.196 462.219 373.619C462.016 373.056 461.684 372.56 461.222 372.131C460.111 371.099 458.73 370.792 457.078 371.21C455.441 371.641 453.829 372.71 452.242 374.418ZM450.659 383.499C451.207 384.008 451.832 384.334 452.532 384.477C453.247 384.633 453.99 384.615 454.761 384.422C455.545 384.215 456.344 383.847 457.157 383.319C457.998 382.79 458.812 382.102 459.599 381.255C460.159 380.652 460.636 380.052 461.03 379.455C461.437 378.844 461.754 378.242 461.981 377.651L449.345 380.312C449.342 380.924 449.448 381.504 449.664 382.052C449.88 382.601 450.212 383.083 450.659 383.499Z" fill="white"/>
<path d="M470.018 400.967L468.538 402.56L457.134 391.963L458.614 390.37L463.894 395.276L473.717 384.706L468.311 383.493L468.244 381.265L475.418 382.876L477.149 384.485L465.625 396.885L470.018 400.967Z" fill="white"/>
<path d="M472.798 403.47C472.902 403.647 473.043 403.858 473.219 404.102C473.409 404.332 473.619 404.554 473.85 404.768C474.528 405.399 475.239 405.979 475.982 406.509C476.754 407.039 477.526 407.409 478.299 407.619C479.071 407.829 479.843 407.837 480.614 407.644C481.413 407.45 482.179 406.958 482.912 406.169C483.646 405.38 484.044 404.546 484.107 403.668C484.198 402.79 483.853 401.988 483.074 401.264C482.483 400.715 481.78 400.343 480.966 400.148C480.166 399.939 479.511 399.892 479.001 400.007L477.4 398.519L484.887 391.676L493.413 399.599L491.933 401.192L484.879 394.636L480.611 398.534C481.402 398.493 482.136 398.6 482.813 398.855C483.518 399.109 484.21 399.551 484.888 400.181C485.378 400.637 485.766 401.145 486.052 401.705C486.353 402.278 486.522 402.877 486.561 403.501C486.614 404.139 486.514 404.795 486.263 405.471C486.025 406.132 485.605 406.786 485.005 407.432C484.058 408.451 483.043 409.153 481.96 409.537C480.905 409.92 479.833 410.047 478.743 409.918C477.667 409.774 476.583 409.408 475.489 408.819C474.409 408.217 473.379 407.46 472.398 406.548C472.051 406.227 471.718 405.877 471.397 405.498C471.078 405.148 470.828 404.809 470.649 404.482L472.798 403.47Z" fill="white"/>
</svg>
