<svg width="775" height="658" viewBox="0 0 775 658" fill="none" xmlns="http://www.w3.org/2000/svg">
<circle cx="220.008" cy="264.784" r="160.257" transform="rotate(-0.142935 220.008 264.784)" fill="#0085FF" stroke="white" stroke-width="3"/>
<circle cx="220.008" cy="264.784" r="132.334" transform="rotate(-0.142935 220.008 264.784)" stroke="white"/>
<rect x="1.27495" y="213.84" width="438.28" height="101.91" transform="rotate(-0.142935 1.27495 213.84)" fill="#0085FF" stroke="white" stroke-width="2"/>
<path d="M24.0204 285.021L23.9221 245.587L40.0873 245.547C43.2713 245.539 45.8661 246.584 47.8716 248.682C49.877 250.74 50.8836 253.346 50.8914 256.501C50.8962 258.402 50.5943 260.101 49.9857 261.599C49.377 263.057 48.5637 264.292 47.5456 265.306C46.5276 266.32 45.3457 267.091 44 267.62C42.695 268.149 41.3485 268.415 39.9606 268.419L28.8777 268.446L28.919 285.008L24.0204 285.021ZM38.9963 250.039L28.8318 250.065L28.8665 263.957L38.9697 263.932C40.8067 263.927 42.397 263.236 43.7406 261.857C45.125 260.438 45.8148 258.758 45.81 256.817C45.8049 254.795 45.1681 253.158 43.8995 251.908C42.6309 250.657 40.9965 250.034 38.9963 250.039Z" fill="white"/>
<path d="M71.7588 285.508C69.4728 285.514 67.3693 285.034 65.4483 284.068C63.5681 283.102 61.9523 281.731 60.6007 279.955C59.2492 278.178 58.2029 276.058 57.462 273.592C56.721 271.087 56.3467 268.317 56.3391 265.284C56.3315 262.251 56.692 259.479 57.4205 256.97C58.149 254.42 59.1845 252.254 60.5272 250.471C61.8698 248.688 63.4788 247.309 65.3542 246.333C67.2704 245.358 69.3714 244.867 71.6574 244.862C73.9434 244.856 76.0265 245.336 77.9067 246.302C79.8277 247.268 81.464 248.639 82.8155 250.415C84.1671 252.191 85.2134 254.353 85.9545 256.899C86.6956 259.404 87.0699 262.174 87.0775 265.207C87.085 268.241 86.7245 271.012 85.996 273.521C85.2674 275.99 84.2317 278.116 82.8891 279.899C81.5464 281.682 79.917 283.061 78.0008 284.037C76.1255 285.012 74.0448 285.502 71.7588 285.508ZM71.7473 280.897C74.8089 280.89 77.275 279.448 79.1456 276.572C81.0161 273.655 81.9456 269.871 81.934 265.22C81.9223 260.529 80.9739 256.729 79.0889 253.822C77.2038 250.915 74.7305 249.465 71.6689 249.472C68.6073 249.48 66.1413 250.942 64.2708 253.859C62.4003 256.775 61.4709 260.58 61.4826 265.271C61.4942 269.922 62.4425 273.701 64.3275 276.609C66.2125 279.475 68.6857 280.905 71.7473 280.897Z" fill="white"/>
<path d="M93.2777 281.147L96.6964 277.013C98.1691 278.263 99.988 279.209 102.153 279.851C104.359 280.452 106.707 280.75 109.197 280.743C112.014 280.736 114.278 280.144 115.989 278.967C117.701 277.79 118.554 276.19 118.549 274.168C118.544 272.105 117.581 270.632 115.66 269.747C113.78 268.821 110.838 267.797 106.835 266.675C102.832 265.552 99.767 264.225 97.6404 262.694C95.5139 261.162 94.4467 258.819 94.4388 255.664C94.4344 253.885 94.7978 252.306 95.5292 250.93C96.3014 249.552 97.3395 248.417 98.6435 247.524C99.9475 246.591 101.456 245.9 103.17 245.45C104.924 244.961 106.78 244.713 108.74 244.709C110.74 244.704 112.843 244.961 115.049 245.481C117.254 245.961 119.482 247.068 121.731 248.801L118.74 252.51C117.145 251.26 115.449 250.374 113.651 249.853C111.854 249.291 110.016 249.013 108.138 249.017C105.526 249.024 103.384 249.555 101.713 250.611C100.083 251.666 99.2701 253.226 99.2752 255.288C99.2804 257.351 100.121 258.825 101.797 259.711C103.513 260.596 105.904 261.48 108.968 262.362C110.683 262.843 112.419 263.364 114.176 263.926C115.933 264.488 117.506 265.192 118.896 266.038C120.286 266.884 121.432 267.912 122.333 269.123C123.234 270.334 123.687 271.809 123.691 273.549C123.697 275.692 123.272 277.533 122.419 279.072C121.606 280.571 120.507 281.787 119.122 282.721C117.736 283.654 116.105 284.346 114.228 284.795C112.392 285.204 110.454 285.412 108.413 285.417C105.719 285.423 103.024 285.127 100.328 284.527C97.6321 283.886 95.282 282.76 93.2777 281.147Z" fill="white"/>
<path d="M142.738 284.724L142.651 249.781L129.486 249.813L129.475 245.324L160.703 245.246L160.715 249.736L147.55 249.768L147.637 284.712L142.738 284.724Z" fill="white"/>
<path d="M218.619 285.142C216.333 285.147 214.23 284.667 212.309 283.701C210.429 282.735 208.813 281.364 207.461 279.588C206.11 277.812 205.064 275.691 204.323 273.226C203.582 270.72 203.207 267.951 203.2 264.918C203.192 261.884 203.553 259.113 204.281 256.604C205.01 254.054 206.045 251.887 207.388 250.104C208.73 248.322 210.339 246.942 212.215 245.967C214.131 244.992 216.232 244.501 218.518 244.495C220.804 244.49 222.887 244.97 224.767 245.936C226.688 246.902 228.325 248.273 229.676 250.049C231.028 251.825 232.074 253.986 232.815 256.532C233.556 259.038 233.93 261.808 233.938 264.841C233.946 267.874 233.585 270.646 232.857 273.155C232.128 275.624 231.092 277.75 229.75 279.533C228.407 281.316 226.778 282.695 224.861 283.67C222.986 284.645 220.905 285.136 218.619 285.142ZM218.608 280.531C221.669 280.523 224.136 279.082 226.006 276.205C227.877 273.289 228.806 269.505 228.795 264.854C228.783 260.162 227.834 256.363 225.949 253.455C224.064 250.548 221.591 249.098 218.529 249.106C215.468 249.114 213.002 250.576 211.131 253.492C209.261 256.409 208.331 260.213 208.343 264.905C208.355 269.556 209.303 273.335 211.188 276.242C213.073 279.109 215.546 280.539 218.608 280.531Z" fill="white"/>
<path d="M247.128 284.464L247.03 245.031L274.033 244.964L274.044 249.453L251.939 249.508L251.973 262.855L266.607 262.818L266.618 267.307L251.984 267.344L252.027 284.452L247.128 284.464Z" fill="white"/>
<path d="M283.843 284.372L283.745 244.939L310.748 244.872L310.759 249.361L288.654 249.416L288.688 262.763L303.322 262.726L303.333 267.216L288.699 267.252L288.742 284.36L283.843 284.372Z" fill="white"/>
<path d="M341.611 279.739L341.622 284.228L315.905 284.292L315.893 279.803L326.303 279.777L326.227 249.323L315.817 249.349L315.806 244.859L341.524 244.795L341.535 249.284L331.125 249.31L331.201 279.765L341.611 279.739Z" fill="white"/>
<path d="M382.62 258.1L378.094 260.174C377.554 256.657 376.282 253.869 374.276 251.811C372.312 249.754 369.942 248.728 367.166 248.735C363.859 248.743 361.189 250.186 359.155 253.063C357.121 255.899 356.11 259.622 356.121 264.233C356.127 266.619 356.398 268.802 356.934 270.783C357.469 272.723 358.229 274.399 359.212 275.812C360.195 277.185 361.361 278.254 362.71 279.019C364.1 279.784 365.611 280.164 367.244 280.16C369.898 280.154 372.181 279.218 374.095 277.353C376.05 275.487 377.309 272.977 377.873 269.82L382.166 272.661C381.155 276.384 379.305 279.342 376.616 281.532C373.968 283.682 370.848 284.762 367.256 284.771C364.847 284.777 362.662 284.297 360.7 283.331C358.738 282.325 357.061 280.934 355.669 279.158C354.276 277.341 353.189 275.18 352.407 272.675C351.625 270.129 351.231 267.319 351.223 264.245C351.215 261.252 351.596 258.521 352.366 256.052C353.135 253.543 354.212 251.417 355.595 249.674C356.979 247.931 358.649 246.572 360.606 245.597C362.563 244.621 364.746 244.131 367.154 244.125C371.032 244.115 374.342 245.381 377.083 247.922C379.865 250.422 381.711 253.815 382.62 258.1Z" fill="white"/>
<path d="M416.082 279.553L416.093 284.042L391.294 284.104L391.196 244.671L415.75 244.61L415.761 249.099L396.106 249.148L396.136 261.1L411.382 261.062L411.393 265.551L396.147 265.589L396.182 279.603L416.082 279.553Z" fill="white"/>
<circle cx="466.655" cy="307.933" r="169.735" transform="rotate(32.1366 466.655 307.933)" fill="#0085FF" stroke="white" stroke-width="3"/>
<circle cx="466.227" cy="308.851" r="155.759" transform="rotate(32.1366 466.227 308.851)" stroke="white"/>
<circle cx="466.123" cy="308.889" r="116.467" transform="rotate(32.1366 466.123 308.889)" stroke="white"/>
<path d="M438.73 331.756L447.689 314.704C448.202 313.726 447.826 312.517 446.848 312.003L410.97 293.154C410.462 292.887 409.865 292.851 409.329 293.055L387.861 301.221C386.14 301.876 384.523 300.052 385.38 298.421L395.541 279.08C396.055 278.102 395.679 276.893 394.701 276.379L389.698 273.751C388.72 273.237 388.344 272.028 388.858 271.05L392.643 263.845C393.157 262.867 394.366 262.491 395.344 263.005L400.346 265.633C401.324 266.147 402.533 265.77 403.047 264.793L410.95 249.749C411.807 248.119 414.226 248.415 414.664 250.205L420.12 272.515C420.256 273.072 420.624 273.544 421.132 273.811L457.01 292.66C457.988 293.174 459.197 292.797 459.711 291.82L467.547 276.904C467.722 276.572 467.799 276.198 467.771 275.825L461.878 197.022C461.698 194.608 465.16 194.009 465.801 196.342L490.073 284.632C490.219 285.166 490.581 285.615 491.071 285.872L507.756 294.638C508.734 295.152 509.11 296.361 508.596 297.339L504.811 304.544C504.297 305.522 503.088 305.898 502.11 305.384L495.81 302.074C494.559 301.417 493.039 302.229 492.891 303.635L491.97 312.344C491.884 313.159 492.303 313.944 493.029 314.325L551.095 344.831C551.446 345.016 551.735 345.301 551.924 345.65L558.514 357.822C559.191 359.073 558.383 360.611 556.969 360.763L543.206 362.243C542.811 362.286 542.413 362.21 542.062 362.025L483.995 331.519C483.27 331.138 482.386 331.238 481.764 331.771L475.114 337.471C474.041 338.391 474.235 340.103 475.486 340.76L481.786 344.07C482.764 344.584 483.14 345.793 482.626 346.771L479.97 351.827C479.456 352.804 478.247 353.181 477.269 352.667L460.584 343.901C460.094 343.644 459.519 343.601 458.997 343.783L373.943 373.396C371.642 374.197 370.18 370.968 372.3 369.767L437.945 332.566C438.279 332.377 438.551 332.095 438.73 331.756Z" fill="white"/>
<path d="M578.99 378.875L579.743 377.859L586.162 386.663L585.267 387.871L574.978 384.286L575.75 383.244L578.613 384.272L580.805 381.316L578.99 378.875ZM581.537 382.317L579.784 384.682L584.58 386.406L581.537 382.317Z" fill="white"/>
<path d="M562.544 400.986L561.718 400.137L566.534 395.45L567.36 396.299L565.411 398.196L571.013 403.952L572.962 402.055L573.788 402.903L568.972 407.59L568.146 406.742L570.095 404.844L564.493 399.089L562.544 400.986Z" fill="white"/>
<path d="M550.763 410.507L556.718 419.032L553.308 421.415C552.635 421.885 551.935 422.075 551.208 421.984C550.478 421.908 549.884 421.542 549.426 420.887C548.968 420.231 548.759 419.577 548.798 418.925C548.843 418.282 549.049 417.748 549.415 417.323L544.703 414.74L545.923 413.888L550.497 416.469L552.426 415.122L549.713 411.24L550.763 410.507ZM553.076 420.132L554.991 418.795L553.104 416.093L550.795 417.705C550.445 417.95 550.234 418.299 550.161 418.753C550.085 419.222 550.188 419.658 550.469 420.06C550.75 420.463 551.129 420.66 551.605 420.653C552.087 420.654 552.578 420.481 553.076 420.132Z" fill="white"/>
<path d="M522.857 431.913L524.714 431.169L528.284 435.823L524.726 426.941L525.87 426.483L529.737 436.137L527.643 436.976L524.076 432.373L524.688 438.16L522.608 438.993L518.741 429.339L519.885 428.881L523.419 437.703L522.857 431.913Z" fill="white"/>
<path d="M504.87 434.605L506.103 434.328L505.213 445.187L503.745 445.517L498.298 436.081L499.562 435.797L501.059 438.445L504.649 437.639L504.87 434.605ZM504.55 438.875L501.677 439.52L504.183 443.959L504.55 438.875Z" fill="white"/>
<path d="M477.893 440.581L477.821 439.399L484.529 438.991L484.6 440.173L481.885 440.338L482.373 448.355L485.088 448.19L485.159 449.372L478.452 449.78L478.38 448.598L481.095 448.433L480.608 440.416L477.893 440.581Z" fill="white"/>
<path d="M455.742 440.558L455.861 439.38L462.245 440.028L461.194 450.375L459.92 450.246L460.851 441.077L455.742 440.558Z" fill="white"/>
<path d="M432.868 435.672L434.065 436.077L427.652 444.885L426.228 444.403L426.488 433.51L427.716 433.926L427.615 436.967L431.1 438.147L432.868 435.672ZM430.372 439.151L427.584 438.206L427.412 443.3L430.372 439.151Z" fill="white"/>
<path d="M406.719 426.672L407.274 425.626L413.211 428.774L412.656 429.82L410.253 428.546L406.49 435.642L408.893 436.916L408.338 437.962L402.401 434.814L402.956 433.768L405.359 435.042L409.122 427.946L406.719 426.672Z" fill="white"/>
<path d="M393.541 417.977L387.219 426.235L383.916 423.706C383.264 423.206 382.871 422.596 382.737 421.876C382.589 421.158 382.757 420.481 383.244 419.846C383.73 419.211 384.29 418.813 384.923 418.653C385.55 418.501 386.121 418.536 386.637 418.756L387.672 413.483L388.854 414.388L387.778 419.529L389.646 420.959L392.525 417.199L393.541 417.977ZM385.068 423.096L386.922 424.516L388.926 421.899L386.69 420.187C386.351 419.928 385.954 419.832 385.499 419.9C385.029 419.97 384.645 420.2 384.347 420.59C384.049 420.979 383.975 421.4 384.126 421.852C384.271 422.312 384.585 422.727 385.068 423.096Z" fill="white"/>
<path d="M365.039 398.19L366.316 399.73L362.979 404.554L370.344 398.447L371.131 399.395L363.125 406.034L361.685 404.297L364.974 399.491L359.653 401.846L358.223 400.122L366.228 393.484L367.015 394.432L359.699 400.498L365.039 398.19Z" fill="white"/>
<path d="M356.984 381.859L357.621 382.951L347.001 385.384L346.243 384.085L353.59 376.04L354.243 377.159L352.171 379.387L354.025 382.566L356.984 381.859ZM352.817 382.844L351.334 380.301L347.86 384.031L352.817 382.844Z" fill="white"/>
<path d="M343.146 357.931L344.25 357.503L346.68 363.768L345.576 364.196L344.592 361.661L337.104 364.565L338.088 367.101L336.984 367.53L334.554 361.264L335.658 360.836L336.641 363.372L344.13 360.467L343.146 357.931Z" fill="white"/>
<path d="M336.493 336.887L337.652 336.644L338.967 342.924L328.787 345.055L328.525 343.802L337.546 341.914L336.493 336.887Z" fill="white"/>
<path d="M334.208 313.546L334.187 314.81L323.842 311.393L323.866 309.889L334.317 306.811L334.296 308.107L331.37 308.939L331.311 312.619L334.208 313.546ZM330.133 312.232L330.181 309.288L325.277 310.68L330.133 312.232Z" fill="white"/>
<path d="M334.791 285.933L335.956 286.144L334.757 292.756L333.592 292.545L334.077 289.869L326.174 288.435L325.689 291.112L324.524 290.9L325.723 284.288L326.888 284.5L326.402 287.176L334.305 288.609L334.791 285.933Z" fill="white"/>
<path d="M338.898 271.367L329.1 267.881L330.494 263.961C330.77 263.187 331.23 262.627 331.874 262.279C332.513 261.917 333.209 261.87 333.962 262.138C334.716 262.407 335.266 262.817 335.612 263.371C335.949 263.921 336.091 264.475 336.04 265.034L341.376 264.403L340.877 265.805L335.654 266.358L334.865 268.574L339.327 270.161L338.898 271.367ZM331.427 264.871L330.644 267.072L333.75 268.177L334.694 265.524C334.837 265.122 334.806 264.714 334.602 264.302C334.391 263.876 334.055 263.581 333.592 263.416C333.13 263.252 332.707 263.311 332.324 263.593C331.93 263.872 331.631 264.298 331.427 264.871Z" fill="white"/>
<path d="M349.218 237.822L348.141 239.507L342.529 237.8L350.591 242.952L349.928 243.991L341.164 238.391L342.379 236.49L347.959 238.157L344.093 233.807L345.3 231.919L354.063 237.519L353.4 238.557L345.391 233.44L349.218 237.822Z" fill="white"/>
<path d="M362.328 225.139L361.485 226.081L355.904 216.724L356.907 215.603L366.822 220.121L365.957 221.086L363.201 219.799L360.746 222.541L362.328 225.139ZM360.109 221.477L362.073 219.284L357.455 217.125L360.109 221.477Z" fill="white"/>
<path d="M380.868 204.604L381.61 205.527L376.373 209.738L375.631 208.815L377.751 207.111L372.718 200.851L370.598 202.556L369.856 201.633L375.093 197.422L375.835 198.345L373.715 200.049L378.748 206.309L380.868 204.604Z" fill="white"/>
<path d="M398.702 191.974L399.287 193.003L393.709 196.174L388.57 187.132L389.683 186.5L394.237 194.512L398.702 191.974Z" fill="white"/>
<path d="M420.373 182.604L419.161 182.965L419.301 172.071L420.742 171.641L426.828 180.678L425.586 181.049L423.91 178.51L420.383 179.562L420.373 182.604ZM420.398 178.322L423.219 177.481L420.413 173.225L420.398 178.322Z" fill="white"/>
<path d="M446.785 174.786L446.939 175.96L440.275 176.831L440.122 175.657L442.819 175.305L441.778 167.34L439.081 167.693L438.927 166.519L445.591 165.648L445.744 166.822L443.047 167.174L444.088 175.139L446.785 174.786Z" fill="white"/>
<path d="M461.913 174.224L462.235 163.829L466.393 163.958C467.214 163.984 467.889 164.25 468.418 164.757C468.957 165.254 469.214 165.902 469.19 166.702C469.165 167.502 468.942 168.151 468.521 168.65C468.1 169.139 467.616 169.444 467.068 169.566L469.302 174.453L467.814 174.407L465.69 169.603L463.339 169.53L463.192 174.264L461.913 174.224ZM465.813 165.125L463.478 165.052L463.376 168.347L466.191 168.434C466.617 168.447 466.995 168.293 467.325 167.973C467.666 167.642 467.845 167.231 467.86 166.741C467.875 166.25 467.689 165.866 467.303 165.587C466.917 165.298 466.421 165.143 465.813 165.125Z" fill="white"/>
<path d="M496.663 173.655L494.729 173.144L494.641 167.279L492.196 176.529L491.005 176.215L493.663 166.16L495.844 166.736L495.96 172.559L498.922 167.55L501.088 168.122L498.43 178.177L497.239 177.862L499.667 168.674L496.663 173.655Z" fill="white"/>
<path d="M512.22 182.025L511.065 181.512L518.258 173.328L519.633 173.939L518.375 184.762L517.191 184.235L517.57 181.217L514.207 179.722L512.22 182.025ZM515.025 178.79L517.715 179.986L518.352 174.929L515.025 178.79Z" fill="white"/>
<path d="M538.315 193.813L537.662 194.801L532.056 191.096L532.709 190.108L534.978 191.608L539.407 184.907L537.138 183.407L537.791 182.419L543.397 186.125L542.744 187.113L540.475 185.613L536.046 192.313L538.315 193.813Z" fill="white"/>
<path d="M556.139 207.21L555.335 208.08L550.622 203.727L557.677 196.086L558.617 196.954L552.365 203.726L556.139 207.21Z" fill="white"/>
<path d="M571.442 224.731L570.73 223.687L581.152 220.51L581.999 221.752L575.237 230.296L574.507 229.225L576.417 226.857L574.344 223.817L571.442 224.731ZM575.529 223.454L577.188 225.886L580.39 221.92L575.529 223.454Z" fill="white"/>
<path d="M587.067 247.826L585.994 248.326L583.157 242.234L584.23 241.734L585.378 244.2L592.659 240.809L591.511 238.343L592.584 237.843L595.421 243.935L594.348 244.435L593.2 241.969L585.919 245.36L587.067 247.826Z" fill="white"/>
<path d="M592.146 262.071L602.154 259.243L603.285 263.246C603.508 264.037 603.458 264.76 603.133 265.417C602.822 266.082 602.282 266.522 601.512 266.74C600.742 266.957 600.056 266.941 599.453 266.69C598.86 266.436 598.423 266.066 598.142 265.581L594.156 269.184L593.751 267.752L597.691 264.278L597.051 262.015L592.494 263.303L592.146 262.071ZM601.998 263.045L601.362 260.797L598.191 261.693L598.956 264.403C599.072 264.813 599.333 265.128 599.738 265.346C600.156 265.571 600.602 265.617 601.074 265.484C601.546 265.35 601.857 265.057 602.006 264.605C602.166 264.15 602.163 263.63 601.998 263.045Z" fill="white"/>
<path d="M603.123 294.28L603.016 292.283L608.572 290.4L599.017 290.91L598.952 289.68L609.337 289.125L609.457 291.378L603.95 293.275L609.627 294.558L609.747 296.794L599.361 297.349L599.296 296.119L608.786 295.612L603.123 294.28Z" fill="white"/>
<path d="M599.931 312.366L600.068 311.11L610.055 315.466L609.892 316.961L599.201 319.063L599.342 317.774L602.332 317.215L602.731 313.557L599.931 312.366ZM603.868 314.051L603.549 316.978L608.56 316.043L603.868 314.051Z" fill="white"/>
<path d="M596.964 339.554L595.822 339.238L597.613 332.761L598.754 333.077L598.029 335.698L605.771 337.839L606.496 335.217L607.637 335.532L605.846 342.009L604.705 341.694L605.43 339.072L597.688 336.932L596.964 339.554Z" fill="white"/>
<path d="M589.645 360.891L588.571 360.394L591.267 354.572L600.704 358.942L600.166 360.104L591.803 356.231L589.645 360.891Z" fill="white"/>
<circle cx="253.005" cy="452.429" r="144.138" transform="rotate(49.2957 253.005 452.429)" fill="#0085FF" stroke="white" stroke-width="2"/>
<circle cx="253.005" cy="452.43" r="136.999" transform="rotate(49.2957 253.005 452.43)" stroke="white"/>
<path d="M190.433 363.014L189.514 361.947L200.862 356.957L201.955 358.227L195.325 368.702L194.384 367.607L196.261 364.699L193.589 361.592L190.433 363.014ZM194.879 361.023L197.018 363.508L200.166 358.637L194.879 361.023Z" fill="white"/>
<path d="M197.296 370.993L206.285 363.26L209.155 366.597C209.667 367.191 209.897 367.878 209.846 368.659C209.813 369.44 209.464 370.116 208.8 370.687C208.293 371.123 207.759 371.379 207.198 371.454C206.637 371.529 206.116 371.484 205.636 371.317C205.834 371.883 205.889 372.478 205.801 373.103C205.712 373.727 205.392 374.277 204.838 374.753C204.046 375.435 203.227 375.724 202.383 375.62C201.556 375.516 200.829 375.1 200.201 374.37L197.296 370.993ZM208.015 367.202L206.26 365.162L203.287 367.719L204.949 369.651C205.267 370.02 205.699 370.205 206.244 370.206C206.807 370.207 207.315 370.014 207.766 369.625C208.163 369.284 208.381 368.885 208.421 368.428C208.468 367.98 208.333 367.571 208.015 367.202ZM204.009 370.46L202.347 368.528L199.18 371.253L200.946 373.306C201.117 373.504 201.31 373.683 201.527 373.841C201.753 373.992 201.987 374.096 202.229 374.154C202.481 374.204 202.742 374.19 203.013 374.114C203.301 374.039 203.593 373.874 203.888 373.62C204.441 373.144 204.7 372.616 204.665 372.034C204.63 371.453 204.412 370.928 204.009 370.46Z" fill="white"/>
<path d="M215.554 380.217L214.224 379.622C214.926 378.815 215.322 377.988 215.412 377.142C215.51 376.306 215.296 375.581 214.769 374.969C214.142 374.239 213.307 373.931 212.265 374.044C211.232 374.149 210.19 374.653 209.139 375.557C208.596 376.025 208.148 376.512 207.797 377.018C207.455 377.515 207.216 378.011 207.079 378.505C206.952 378.991 206.928 379.458 207.009 379.905C207.097 380.362 207.296 380.771 207.606 381.131C208.11 381.717 208.755 382.038 209.544 382.097C210.34 382.164 211.151 381.952 211.979 381.459L212.142 382.964C211.101 383.469 210.075 383.638 209.066 383.472C208.074 383.307 207.237 382.828 206.555 382.035C206.098 381.504 205.794 380.927 205.643 380.304C205.502 379.674 205.502 379.031 205.645 378.376C205.796 377.713 206.084 377.05 206.508 376.387C206.942 375.716 207.509 375.079 208.21 374.476C208.892 373.89 209.588 373.44 210.298 373.127C211.016 372.807 211.706 372.629 212.365 372.594C213.025 372.559 213.652 372.663 214.245 372.905C214.838 373.147 215.363 373.533 215.82 374.065C216.556 374.92 216.893 375.899 216.832 377.002C216.787 378.107 216.361 379.178 215.554 380.217Z" fill="white"/>
<path d="M221.827 381.158C222.354 381.771 222.749 382.418 223.014 383.099C223.279 383.78 223.39 384.468 223.347 385.163C223.303 385.859 223.094 386.548 222.719 387.231C222.352 387.923 221.804 388.582 221.076 389.209C220.255 389.915 219.456 390.422 218.679 390.73C217.902 391.039 217.157 391.17 216.444 391.125C215.739 391.089 215.065 390.893 214.422 390.537C213.789 390.173 213.2 389.676 212.658 389.046C212.395 388.74 212.133 388.417 211.872 388.077C211.61 387.753 211.378 387.436 211.174 387.125L220.163 379.393C220.448 379.649 220.731 379.931 221.011 380.238C221.299 380.555 221.571 380.861 221.827 381.158ZM220.864 382.081C220.763 381.964 220.646 381.837 220.513 381.701C220.387 381.574 220.258 381.442 220.125 381.306L213.072 387.373C213.187 387.525 213.302 387.677 213.416 387.829C213.531 387.982 213.639 388.116 213.74 388.233C214.251 388.828 214.774 389.24 215.308 389.469C215.86 389.7 216.402 389.79 216.936 389.738C217.477 389.696 218.011 389.534 218.539 389.252C219.076 388.963 219.593 388.604 220.091 388.176C220.561 387.771 220.949 387.327 221.256 386.844C221.571 386.354 221.774 385.843 221.862 385.312C221.959 384.79 221.929 384.252 221.773 383.697C221.624 383.151 221.321 382.612 220.864 382.081Z" fill="white"/>
<path d="M170.823 396.164L188.801 380.699L190.723 382.933L183.089 389.5L189.673 397.154L197.307 390.587L199.229 392.822L181.252 408.287L179.329 406.052L187.627 398.915L181.043 391.261L172.745 398.399L170.823 396.164Z" fill="white"/>
<path d="M190.169 419.212C189.272 418.169 188.668 417.02 188.358 415.764C188.063 414.527 188.057 413.252 188.34 411.94C188.623 410.627 189.182 409.319 190.019 408.017C190.873 406.698 191.992 405.444 193.375 404.254C194.758 403.065 196.165 402.146 197.597 401.497C199.047 400.833 200.442 400.459 201.782 400.376C203.122 400.293 204.381 400.489 205.561 400.965C206.756 401.459 207.803 402.228 208.7 403.271C209.597 404.314 210.192 405.454 210.487 406.691C210.797 407.947 210.811 409.231 210.528 410.543C210.246 411.856 209.668 413.179 208.795 414.514C207.94 415.832 206.821 417.087 205.438 418.276C204.055 419.466 202.648 420.385 201.216 421.033C199.803 421.666 198.427 422.023 197.087 422.107C195.747 422.19 194.479 421.985 193.284 421.49C192.104 421.014 191.066 420.255 190.169 419.212ZM192.271 417.404C193.472 418.801 195.096 419.364 197.142 419.094C199.207 418.809 201.299 417.754 203.419 415.93C205.558 414.09 206.923 412.171 207.514 410.172C208.105 408.173 207.799 406.476 206.598 405.079C205.396 403.682 203.763 403.127 201.699 403.412C199.634 403.698 197.533 404.761 195.394 406.601C193.273 408.425 191.918 410.336 191.327 412.335C190.755 414.318 191.069 416.007 192.271 417.404Z" fill="white"/>
<path d="M206.92 438.125L217.918 417.679L201.489 431.812L199.639 429.661L217.617 414.196L221.077 418.218L210.679 437.516L226.195 424.168L228.046 426.319L210.068 441.784L206.92 438.125Z" fill="white"/>
<path d="M229.007 446.178L234.029 452.015L226.506 458.487C224.9 457.925 223.581 457.213 222.55 456.35C221.519 455.487 220.595 454.581 219.778 453.631C218.689 452.365 217.941 451.048 217.534 449.68C217.146 448.297 217.07 446.921 217.304 445.552C217.557 444.168 218.103 442.808 218.942 441.47C219.799 440.117 220.929 438.838 222.33 437.632C223.694 436.459 225.091 435.565 226.52 434.951C227.968 434.321 229.376 434.001 230.746 433.989C232.116 433.977 233.438 434.265 234.714 434.853C236.005 435.459 237.18 436.377 238.237 437.606C239.422 438.984 240.209 440.365 240.597 441.748C240.985 443.131 241.095 444.527 240.927 445.936L238.18 445.82C238.322 444.791 238.217 443.699 237.864 442.543C237.512 441.388 236.984 440.401 236.279 439.582C234.693 437.738 232.821 436.886 230.663 437.025C228.539 437.167 226.426 438.142 224.324 439.951C222.075 441.886 220.776 443.975 220.428 446.219C220.115 448.465 220.855 450.631 222.649 452.717C223.05 453.182 223.485 453.65 223.954 454.121C224.458 454.595 225.037 454.988 225.69 455.301L230.06 451.541L226.961 447.938L229.007 446.178Z" fill="white"/>
<path d="M243.104 480.186L261.082 464.721L263.004 466.955L253.739 474.926L270.189 475.307L272.808 478.352L258.554 477.782L254.974 493.985L252.451 491.052L255.652 477.654L250.752 477.496L245.026 482.421L243.104 480.186Z" fill="white"/>
<path d="M262.21 502.955C261.313 501.912 260.709 500.763 260.398 499.507C260.104 498.269 260.098 496.995 260.381 495.682C260.664 494.37 261.223 493.062 262.059 491.759C262.914 490.441 264.033 489.186 265.416 487.997C266.799 486.807 268.206 485.888 269.638 485.24C271.088 484.576 272.483 484.202 273.823 484.119C275.163 484.035 276.422 484.231 277.602 484.707C278.797 485.202 279.843 485.971 280.74 487.013C281.638 488.056 282.233 489.196 282.528 490.433C282.838 491.689 282.852 492.974 282.569 494.286C282.287 495.598 281.709 496.922 280.835 498.256C279.981 499.575 278.862 500.829 277.479 502.019C276.096 503.208 274.689 504.127 273.257 504.776C271.844 505.408 270.467 505.766 269.128 505.849C267.788 505.933 266.52 505.727 265.324 505.233C264.145 504.757 263.107 503.998 262.21 502.955ZM264.312 501.146C265.513 502.543 267.137 503.107 269.183 502.837C271.247 502.551 273.34 501.497 275.46 499.673C277.599 497.833 278.964 495.913 279.555 493.915C280.145 491.916 279.84 490.218 278.638 488.822C277.437 487.425 275.804 486.869 273.74 487.155C271.675 487.44 269.573 488.503 267.435 490.343C265.314 492.167 263.959 494.079 263.368 496.077C262.796 498.06 263.11 499.75 264.312 501.146Z" fill="white"/>
<path d="M278.961 521.867L289.959 501.422L273.53 515.555L271.68 513.404L289.658 497.938L293.118 501.961L282.72 521.258L298.236 507.91L300.086 510.061L282.109 525.527L278.961 521.867Z" fill="white"/>
<path d="M301.048 529.92L306.07 535.758L298.547 542.23C296.941 541.668 295.622 540.955 294.591 540.092C293.56 539.229 292.636 538.323 291.819 537.374C290.73 536.107 289.982 534.79 289.575 533.423C289.187 532.039 289.11 530.663 289.345 529.295C289.598 527.911 290.144 526.55 290.983 525.213C291.84 523.86 292.969 522.58 294.371 521.375C295.735 520.201 297.132 519.307 298.561 518.693C300.009 518.064 301.417 517.743 302.787 517.731C304.156 517.72 305.479 518.008 306.754 518.595C308.046 519.202 309.22 520.119 310.278 521.348C311.463 522.726 312.25 524.107 312.638 525.491C313.026 526.874 313.136 528.27 312.968 529.678L310.221 529.562C310.363 528.533 310.257 527.441 309.905 526.286C309.553 525.131 309.025 524.144 308.32 523.324C306.734 521.481 304.862 520.628 302.704 520.768C300.58 520.91 298.467 521.885 296.365 523.693C294.116 525.628 292.817 527.718 292.469 529.961C292.155 532.208 292.896 534.373 294.69 536.459C295.09 536.925 295.525 537.393 295.995 537.864C296.499 538.338 297.077 538.731 297.731 539.043L302.101 535.284L299.001 531.681L301.048 529.92Z" fill="white"/>
<path d="M154.609 466.896C155.332 467.736 155.878 468.621 156.247 469.55C156.617 470.479 156.778 471.415 156.73 472.359C156.682 473.303 156.41 474.236 155.913 475.158C155.427 476.092 154.696 476.979 153.72 477.818C152.62 478.764 151.547 479.441 150.499 479.847C149.452 480.254 148.445 480.421 147.48 480.348C146.526 480.288 145.61 480.012 144.735 479.518C143.871 479.014 143.067 478.33 142.324 477.465C141.962 477.045 141.603 476.602 141.245 476.136C140.885 475.693 140.565 475.259 140.285 474.833L152.33 464.471C152.72 464.824 153.107 465.211 153.491 465.633C153.886 466.067 154.259 466.488 154.609 466.896ZM153.32 468.134C153.182 467.973 153.022 467.799 152.84 467.612C152.668 467.438 152.491 467.257 152.308 467.07L142.858 475.2C143.015 475.408 143.173 475.616 143.331 475.825C143.488 476.033 143.636 476.217 143.774 476.378C144.476 477.193 145.19 477.761 145.917 478.082C146.667 478.404 147.403 478.534 148.124 478.473C148.856 478.424 149.576 478.212 150.286 477.838C151.008 477.453 151.703 476.974 152.37 476.4C153 475.858 153.519 475.261 153.926 474.61C154.345 473.948 154.611 473.257 154.723 472.538C154.845 471.831 154.796 471.099 154.576 470.343C154.366 469.599 153.947 468.863 153.32 468.134Z" fill="white"/>
<path d="M157.783 492.4L156.412 493.579L149.955 486.074L162 475.712L168.393 483.143L167.022 484.323L161.904 478.374L158.254 481.515L162.223 486.129L160.852 487.309L156.883 482.695L152.602 486.377L157.783 492.4Z" fill="white"/>
<path d="M159.482 497.148L171.527 486.787L175.736 491.679C176.565 492.642 176.918 493.703 176.797 494.861C176.687 496.008 176.151 496.997 175.187 497.825C174.607 498.325 174.008 498.679 173.392 498.887C172.787 499.084 172.198 499.161 171.624 499.118C171.049 499.075 170.506 498.918 169.995 498.649C169.494 498.392 169.063 498.053 168.702 497.633L165.816 494.279L160.757 498.631L159.482 497.148ZM174.077 492.525L171.431 489.449L167.188 493.099L169.818 496.157C170.296 496.713 170.921 497.014 171.691 497.06C172.485 497.108 173.179 496.877 173.772 496.367C174.389 495.836 174.725 495.214 174.778 494.501C174.832 493.789 174.598 493.13 174.077 492.525Z" fill="white"/>
<path d="M169.184 508.426L167.925 506.963L183.206 500.362L184.705 502.104L175.896 516.228L174.604 514.727L177.1 510.806L173.434 506.544L169.184 508.426ZM175.172 505.791L178.105 509.201L182.29 502.634L175.172 505.791Z" fill="white"/>
<path d="M178.504 519.26L190.549 508.898L194.694 513.716C195.512 514.667 195.908 515.702 195.882 516.821C195.878 517.942 195.413 518.901 194.487 519.698C193.56 520.495 192.599 520.914 191.602 520.954C190.617 520.984 189.774 520.753 189.071 520.262L185.869 527.821L184.386 526.098L187.608 518.748L185.264 516.024L179.779 520.742L178.504 519.26ZM192.78 514.265L190.453 511.56L186.635 514.844L189.441 518.105C189.866 518.599 190.43 518.867 191.132 518.908C191.856 518.951 192.503 518.728 193.071 518.239C193.639 517.75 193.881 517.145 193.797 516.422C193.725 515.688 193.386 514.97 192.78 514.265Z" fill="white"/>
<path d="M190.39 533.077L201.064 523.894L197.636 519.91L199.007 518.73L207.138 528.181L205.766 529.361L202.339 525.377L191.665 534.559L190.39 533.077Z" fill="white"/>
<path d="M205.576 547.956L204.205 549.136L197.749 541.631L209.794 531.269L216.186 538.699L214.815 539.879L209.698 533.931L206.047 537.071L210.016 541.685L208.645 542.865L204.676 538.251L200.395 541.933L205.576 547.956Z" fill="white"/>
<path d="M221.52 544.675C222.243 545.515 222.789 546.399 223.158 547.328C223.527 548.257 223.688 549.194 223.64 550.138C223.592 551.082 223.32 552.015 222.823 552.937C222.337 553.871 221.606 554.758 220.63 555.597C219.531 556.543 218.457 557.219 217.41 557.626C216.362 558.033 215.356 558.2 214.391 558.127C213.436 558.067 212.521 557.79 211.645 557.297C210.782 556.793 209.978 556.109 209.234 555.244C208.873 554.824 208.513 554.381 208.155 553.915C207.795 553.472 207.476 553.038 207.196 552.612L219.241 542.25C219.63 542.603 220.017 542.99 220.401 543.412C220.796 543.846 221.169 544.267 221.52 544.675ZM220.231 545.913C220.093 545.752 219.932 545.578 219.75 545.391C219.578 545.216 219.401 545.036 219.219 544.848L209.768 552.979C209.926 553.187 210.083 553.395 210.241 553.603C210.399 553.812 210.547 553.996 210.685 554.157C211.386 554.972 212.101 555.54 212.828 555.86C213.578 556.183 214.313 556.313 215.034 556.252C215.766 556.202 216.487 555.991 217.197 555.617C217.919 555.232 218.613 554.752 219.281 554.178C219.911 553.636 220.429 553.04 220.836 552.389C221.256 551.727 221.522 551.036 221.633 550.317C221.756 549.609 221.707 548.878 221.486 548.121C221.276 547.378 220.858 546.641 220.231 545.913Z" fill="white"/>
<path d="M311.934 504.531C311.488 504.013 311.189 503.441 311.036 502.816C310.891 502.2 310.89 501.565 311.033 500.91C311.176 500.256 311.457 499.604 311.876 498.953C312.304 498.295 312.864 497.668 313.556 497.074C314.247 496.479 314.95 496.019 315.665 495.694C316.389 495.361 317.085 495.172 317.754 495.129C318.422 495.085 319.05 495.181 319.638 495.416C320.233 495.661 320.754 496.042 321.199 496.56C321.645 497.079 321.941 497.646 322.085 498.262C322.238 498.887 322.243 499.527 322.1 500.181C321.957 500.836 321.667 501.496 321.23 502.162C320.801 502.82 320.241 503.447 319.55 504.042C318.859 504.637 318.155 505.097 317.441 505.422C316.735 505.739 316.048 505.919 315.379 505.963C314.711 506.007 314.079 505.906 313.484 505.661C312.896 505.426 312.38 505.049 311.934 504.531ZM314.523 498.198C314.126 498.539 313.777 498.888 313.474 499.245C313.189 499.603 312.951 499.961 312.761 500.318L320.786 499.549C320.841 499.147 320.822 498.761 320.728 498.391C320.643 498.03 320.472 497.701 320.217 497.405C319.605 496.693 318.774 496.408 317.727 496.552C316.688 496.706 315.62 497.254 314.523 498.198ZM312.916 503.687C313.218 504.038 313.581 504.282 314.002 504.418C314.432 504.564 314.892 504.603 315.38 504.537C315.878 504.463 316.396 504.291 316.934 504.022C317.489 503.753 318.039 503.385 318.583 502.917C318.97 502.584 319.306 502.247 319.59 501.906C319.883 501.557 320.12 501.208 320.301 500.859L312.328 501.632C312.283 502.009 312.308 502.374 312.403 502.727C312.498 503.08 312.669 503.4 312.916 503.687Z" fill="white"/>
<path d="M323.635 515.783L322.612 516.663L316.319 509.348L317.342 508.468L320.256 511.855L327.046 506.014L323.797 504.895L323.911 503.517L328.221 505.002L329.176 506.113L321.211 512.965L323.635 515.783Z" fill="white"/>
<path d="M329.318 524.459L323.777 518.018C324.303 517.566 324.827 517.244 325.351 517.051C325.875 516.858 326.388 516.755 326.89 516.741C327.401 516.72 327.903 516.763 328.396 516.87C328.907 516.979 329.398 517.112 329.87 517.269C330.335 517.417 330.782 517.564 331.212 517.709C331.649 517.864 332.065 517.974 332.457 518.039C332.858 518.113 333.233 518.12 333.583 518.06C333.941 518.01 334.272 517.854 334.576 517.592C334.862 517.347 335.054 517.076 335.154 516.782C335.253 516.487 335.288 516.191 335.258 515.895C335.235 515.608 335.156 515.33 335.021 515.06C334.893 514.8 334.745 514.573 334.578 514.378C334.061 513.777 333.433 513.439 332.696 513.365C331.976 513.292 331.348 513.486 330.813 513.946L329.894 512.877C330.29 512.536 330.741 512.285 331.245 512.126C331.758 511.958 332.272 511.894 332.788 511.933C333.32 511.974 333.841 512.122 334.349 512.378C334.867 512.625 335.336 512.994 335.758 513.484C336.085 513.863 336.334 514.284 336.508 514.747C336.681 515.21 336.764 515.67 336.757 516.127C336.757 516.594 336.659 517.049 336.462 517.491C336.275 517.926 335.983 518.314 335.587 518.655C335.172 519.012 334.744 519.251 334.303 519.373C333.87 519.504 333.426 519.556 332.97 519.53C332.531 519.505 332.084 519.423 331.627 519.284C331.179 519.154 330.727 519.011 330.272 518.855C329.505 518.598 328.748 518.379 328.001 518.201C327.254 518.022 326.541 518.08 325.863 518.373L330.341 523.579L329.318 524.459Z" fill="white"/>
<path d="M330.567 525.911L331.969 525.526C332.022 525.626 332.092 525.735 332.178 525.854C332.272 525.982 332.387 526.125 332.522 526.282C332.896 526.717 333.337 527.127 333.845 527.511C334.361 527.888 334.897 528.176 335.453 528.374C336.018 528.564 336.587 528.63 337.162 528.57C337.746 528.503 338.291 528.251 338.798 527.815C339.195 527.474 339.43 527.086 339.505 526.651C339.598 526.217 339.429 525.751 338.999 525.251C338.816 525.038 338.598 524.879 338.347 524.773C338.113 524.669 337.821 524.59 337.47 524.537L336.739 524.442L336.799 523.086L342.736 523.945L338.879 519.461L339.902 518.581L344.941 524.438L343.918 525.319L339.911 524.829C339.985 524.878 340.059 524.935 340.131 525.001C340.212 525.077 340.285 525.151 340.348 525.225C340.778 525.725 340.969 526.31 340.919 526.98C340.888 527.652 340.526 528.285 339.834 528.88C339.189 529.435 338.494 529.783 337.75 529.925C337.005 530.066 336.259 530.048 335.512 529.869C334.774 529.683 334.055 529.359 333.354 528.899C332.662 528.448 332.045 527.908 331.503 527.279C331.312 527.057 331.13 526.827 330.958 526.589C330.785 526.351 330.655 526.125 330.567 525.911Z" fill="white"/>
<path d="M148.352 520.532C147.89 519.994 147.589 519.393 147.45 518.728C147.319 518.072 147.346 517.39 147.53 516.681C147.714 515.971 148.048 515.258 148.532 514.541C149.026 513.815 149.662 513.118 150.44 512.449C151.218 511.779 152.003 511.255 152.794 510.874C153.596 510.485 154.362 510.252 155.091 510.176C155.819 510.1 156.498 510.176 157.127 510.403C157.764 510.64 158.313 511.027 158.776 511.565C159.238 512.102 159.535 512.699 159.665 513.354C159.805 514.019 159.782 514.707 159.598 515.416C159.414 516.125 159.07 516.847 158.565 517.582C158.071 518.308 157.434 519.006 156.657 519.675C155.879 520.344 155.094 520.869 154.302 521.249C153.521 521.621 152.766 521.844 152.037 521.92C151.308 521.996 150.626 521.916 149.989 521.679C149.36 521.452 148.814 521.069 148.352 520.532ZM151.443 513.615C150.997 513.998 150.602 514.388 150.257 514.785C149.931 515.182 149.657 515.577 149.435 515.969L158.196 514.793C158.274 514.359 158.27 513.945 158.184 513.552C158.106 513.168 157.935 512.822 157.671 512.515C157.035 511.776 156.145 511.507 155 511.707C153.863 511.917 152.677 512.553 151.443 513.615ZM149.457 519.582C149.77 519.946 150.154 520.193 150.607 520.321C151.068 520.458 151.566 520.481 152.1 520.388C152.645 520.287 153.215 520.08 153.812 519.767C154.428 519.455 155.042 519.035 155.654 518.509C156.089 518.134 156.469 517.757 156.793 517.378C157.127 516.991 157.4 516.605 157.612 516.223L148.906 517.4C148.841 517.807 148.853 518.198 148.941 518.573C149.029 518.948 149.201 519.284 149.457 519.582Z" fill="white"/>
<path d="M160.589 532.113L159.437 533.103L152.911 525.517L154.063 524.526L157.084 528.039L164.723 521.467L161.239 520.407L161.423 518.921L166.045 520.33L167.036 521.481L158.075 529.19L160.589 532.113Z" fill="white"/>
<path d="M166.392 541.187L160.646 534.508C161.237 533.999 161.822 533.63 162.4 533.4C162.978 533.17 163.54 533.037 164.087 533.001C164.644 532.956 165.188 532.98 165.72 533.074C166.27 533.168 166.799 533.289 167.305 533.438C167.804 533.577 168.284 533.715 168.745 533.853C169.215 534 169.661 534.1 170.086 534.152C170.518 534.214 170.926 534.206 171.309 534.127C171.7 534.057 172.067 533.875 172.409 533.581C172.731 533.304 172.952 533.005 173.073 532.684C173.194 532.363 173.244 532.044 173.224 531.728C173.213 531.42 173.139 531.125 173.003 530.841C172.875 530.567 172.725 530.329 172.552 530.127C172.015 529.503 171.347 529.168 170.548 529.12C169.768 529.073 169.077 529.309 168.476 529.826L167.522 528.718C167.968 528.334 168.469 528.046 169.024 527.852C169.59 527.649 170.152 527.558 170.711 527.578C171.288 527.599 171.848 527.735 172.389 527.988C172.941 528.231 173.436 528.606 173.874 529.115C174.212 529.509 174.466 529.95 174.634 530.44C174.803 530.929 174.873 531.42 174.845 531.912C174.825 532.413 174.698 532.906 174.465 533.39C174.243 533.866 173.908 534.295 173.462 534.679C172.996 535.08 172.52 535.356 172.035 535.506C171.559 535.665 171.073 535.741 170.578 535.732C170.102 535.724 169.619 535.656 169.129 535.526C168.647 535.407 168.162 535.273 167.674 535.125C166.851 534.881 166.037 534.68 165.232 534.521C164.427 534.361 163.65 534.454 162.899 534.799L167.543 540.197L166.392 541.187Z" fill="white"/>
<path d="M167.687 542.693L169.229 542.219C169.282 542.323 169.353 542.437 169.442 542.561C169.539 542.695 169.657 542.843 169.798 543.006C170.186 543.457 170.647 543.879 171.183 544.27C171.728 544.652 172.299 544.938 172.894 545.127C173.5 545.307 174.117 545.352 174.744 545.263C175.382 545.166 175.986 544.871 176.557 544.381C177.003 543.997 177.276 543.57 177.376 543.099C177.496 542.63 177.332 542.135 176.887 541.617C176.697 541.397 176.467 541.235 176.198 541.132C175.948 541.03 175.634 540.958 175.255 540.917L174.464 540.846L174.588 539.386L181.007 540.051L177.008 535.401L178.159 534.411L183.385 540.486L182.233 541.476L177.897 541.124C177.975 541.173 178.053 541.232 178.129 541.3C178.214 541.377 178.289 541.454 178.355 541.531C178.801 542.049 178.983 542.669 178.9 543.392C178.836 544.115 178.415 544.811 177.638 545.48C176.912 546.104 176.141 546.509 175.325 546.693C174.509 546.877 173.698 546.89 172.893 546.731C172.099 546.562 171.331 546.246 170.589 545.783C169.855 545.328 169.208 544.775 168.646 544.122C168.448 543.892 168.26 543.653 168.083 543.405C167.906 543.156 167.774 542.919 167.687 542.693Z" fill="white"/>
<path d="M165.927 407.43L284.989 545.832" stroke="white"/>
<path d="M138.892 430.687L257.954 569.089" stroke="white"/>
<path d="M160.459 442.21L153.063 433.612C153.767 433.006 154.47 432.574 155.171 432.315C155.872 432.055 156.558 431.916 157.23 431.897C157.914 431.868 158.586 431.924 159.245 432.066C159.928 432.21 160.585 432.386 161.216 432.595C161.837 432.792 162.435 432.987 163.01 433.181C163.595 433.386 164.15 433.532 164.676 433.618C165.211 433.716 165.713 433.725 166.182 433.644C166.66 433.576 167.104 433.367 167.511 433.016C167.894 432.687 168.153 432.325 168.286 431.93C168.42 431.536 168.467 431.141 168.427 430.745C168.398 430.361 168.293 429.99 168.113 429.629C167.942 429.281 167.745 428.978 167.522 428.718C166.831 427.915 165.993 427.465 165.006 427.368C164.043 427.272 163.203 427.533 162.486 428.149L161.259 426.722C161.79 426.265 162.393 425.929 163.068 425.714C163.755 425.489 164.443 425.402 165.133 425.453C165.845 425.507 166.541 425.704 167.221 426.044C167.912 426.373 168.54 426.865 169.103 427.52C169.539 428.026 169.872 428.589 170.103 429.207C170.334 429.825 170.444 430.44 170.432 431.052C170.432 431.676 170.299 432.284 170.035 432.876C169.784 433.458 169.392 433.978 168.861 434.435C168.305 434.913 167.732 435.234 167.142 435.398C166.562 435.574 165.968 435.645 165.358 435.61C164.771 435.578 164.172 435.469 163.562 435.285C162.963 435.113 162.359 434.923 161.75 434.715C160.725 434.373 159.712 434.083 158.713 433.846C157.714 433.609 156.761 433.688 155.853 434.082L161.831 441.031L160.459 442.21Z" fill="white"/>
<path d="M164.492 444.049C164.561 444.205 164.657 444.391 164.779 444.608C164.914 444.815 165.066 445.017 165.236 445.215C165.736 445.795 166.267 446.338 166.83 446.842C167.416 447.348 168.018 447.723 168.635 447.966C169.252 448.209 169.888 448.285 170.542 448.196C171.219 448.108 171.897 447.772 172.576 447.187C173.256 446.603 173.663 445.951 173.798 445.234C173.955 444.517 173.747 443.826 173.173 443.159C172.738 442.652 172.194 442.282 171.541 442.048C170.901 441.804 170.365 441.706 169.934 441.754L168.754 440.383L175.575 435.418L181.856 442.719L180.485 443.899L175.288 437.858L171.401 440.686C172.056 440.723 172.651 440.878 173.186 441.149C173.743 441.422 174.271 441.849 174.771 442.429C175.132 442.849 175.404 443.303 175.587 443.791C175.781 444.291 175.864 444.799 175.837 445.317C175.82 445.848 175.676 446.38 175.405 446.914C175.146 447.438 174.738 447.939 174.182 448.417C173.305 449.172 172.402 449.659 171.473 449.878C170.566 450.098 169.67 450.106 168.784 449.901C167.911 449.685 167.051 449.285 166.205 448.702C165.371 448.108 164.593 447.391 163.871 446.551C163.616 446.254 163.374 445.935 163.145 445.595C162.915 445.277 162.741 444.975 162.624 444.689L164.492 444.049Z" fill="white"/>
<path d="M196.605 459.639C197.327 460.479 197.873 461.363 198.243 462.292C198.612 463.221 198.773 464.158 198.725 465.102C198.677 466.046 198.405 466.979 197.908 467.9C197.422 468.835 196.691 469.722 195.715 470.561C194.615 471.507 193.542 472.183 192.495 472.59C191.447 472.997 190.441 473.164 189.476 473.091C188.521 473.031 187.606 472.754 186.73 472.261C185.866 471.757 185.063 471.073 184.319 470.208C183.958 469.788 183.598 469.345 183.24 468.879C182.88 468.436 182.561 468.001 182.281 467.576L194.326 457.214C194.715 457.567 195.102 457.954 195.486 458.376C195.881 458.81 196.254 459.231 196.605 459.639ZM195.316 460.876C195.178 460.716 195.017 460.542 194.835 460.355C194.663 460.18 194.486 459.999 194.304 459.812L184.853 467.943C185.011 468.151 185.168 468.359 185.326 468.567C185.484 468.776 185.632 468.96 185.77 469.121C186.471 469.936 187.185 470.504 187.913 470.824C188.663 471.146 189.398 471.277 190.119 471.215C190.851 471.166 191.572 470.955 192.282 470.581C193.004 470.196 193.698 469.716 194.366 469.142C194.996 468.6 195.514 468.004 195.921 467.353C196.341 466.691 196.606 466 196.718 465.28C196.841 464.573 196.792 463.842 196.571 463.085C196.361 462.342 195.943 461.605 195.316 460.876Z" fill="white"/>
<path d="M199.778 485.142L198.407 486.322L191.951 478.817L203.996 468.455L210.388 475.886L209.017 477.066L203.9 471.117L200.249 474.258L204.219 478.872L202.847 480.051L198.878 475.437L194.597 479.12L199.778 485.142Z" fill="white"/>
<path d="M216.776 491.595L214.966 490.766C215.903 489.68 216.426 488.564 216.535 487.417C216.655 486.282 216.354 485.294 215.631 484.454C214.77 483.454 213.636 483.022 212.227 483.159C210.831 483.285 209.429 483.954 208.02 485.165C207.292 485.792 206.694 486.446 206.226 487.128C205.772 487.799 205.455 488.468 205.278 489.137C205.113 489.794 205.089 490.428 205.205 491.038C205.331 491.66 205.607 492.218 206.032 492.712C206.723 493.515 207.602 493.962 208.67 494.054C209.749 494.158 210.844 493.882 211.956 493.226L212.201 495.273C210.799 495.942 209.414 496.155 208.045 495.914C206.7 495.674 205.559 495.011 204.624 493.923C203.997 493.195 203.577 492.406 203.363 491.558C203.162 490.699 203.152 489.826 203.334 488.939C203.529 488.04 203.908 487.144 204.472 486.251C205.049 485.346 205.806 484.49 206.745 483.683C207.659 482.896 208.594 482.296 209.55 481.883C210.518 481.459 211.448 481.228 212.34 481.191C213.233 481.154 214.082 481.305 214.889 481.643C215.696 481.98 216.413 482.514 217.04 483.243C218.049 484.416 218.521 485.752 218.455 487.249C218.411 488.748 217.852 490.197 216.776 491.595Z" fill="white"/>
<path d="M227.37 519.989L219.973 511.391C220.677 510.785 221.38 510.353 222.081 510.093C222.782 509.834 223.469 509.695 224.141 509.676C224.825 509.646 225.496 509.703 226.156 509.845C226.838 509.988 227.495 510.165 228.127 510.374C228.748 510.571 229.345 510.766 229.92 510.959C230.506 511.165 231.061 511.311 231.586 511.397C232.122 511.495 232.624 511.503 233.092 511.423C233.571 511.355 234.014 511.146 234.422 510.795C234.805 510.465 235.063 510.104 235.197 509.709C235.33 509.315 235.377 508.92 235.338 508.524C235.309 508.14 235.204 507.768 235.023 507.408C234.853 507.06 234.656 506.756 234.433 506.497C233.742 505.694 232.903 505.244 231.917 505.147C230.953 505.051 230.113 505.312 229.397 505.928L228.169 504.501C228.7 504.044 229.303 503.708 229.978 503.493C230.665 503.267 231.354 503.18 232.043 503.232C232.756 503.286 233.452 503.482 234.131 503.822C234.823 504.152 235.45 504.644 236.013 505.298C236.449 505.805 236.782 506.367 237.013 506.986C237.244 507.604 237.354 508.219 237.343 508.83C237.342 509.454 237.21 510.063 236.946 510.655C236.694 511.237 236.302 511.757 235.771 512.214C235.215 512.692 234.642 513.013 234.052 513.176C233.473 513.353 232.878 513.423 232.268 513.389C231.681 513.357 231.083 513.248 230.473 513.064C229.873 512.891 229.269 512.702 228.661 512.494C227.635 512.151 226.623 511.862 225.623 511.625C224.624 511.388 223.671 511.466 222.763 511.86L228.741 518.81L227.37 519.989Z" fill="white"/>
<path d="M232.838 526.72C232.242 526.028 231.843 525.264 231.64 524.429C231.448 523.605 231.448 522.756 231.641 521.881C231.834 521.005 232.211 520.132 232.774 519.262C233.348 518.38 234.099 517.541 235.026 516.744C235.952 515.947 236.894 515.33 237.851 514.894C238.821 514.447 239.753 514.193 240.647 514.133C241.541 514.073 242.381 514.2 243.166 514.513C243.962 514.839 244.658 515.347 245.253 516.039C245.848 516.731 246.242 517.488 246.434 518.312C246.637 519.148 246.643 520.003 246.45 520.878C246.257 521.754 245.867 522.637 245.28 523.529C244.705 524.41 243.955 525.25 243.028 526.047C242.102 526.844 241.16 527.46 240.202 527.897C239.258 528.323 238.338 528.566 237.444 528.626C236.549 528.686 235.704 528.553 234.908 528.227C234.123 527.914 233.433 527.412 232.838 526.72ZM236.317 518.245C235.786 518.702 235.317 519.17 234.911 519.648C234.529 520.127 234.21 520.606 233.954 521.084L244.693 520.036C244.768 519.498 244.743 518.982 244.619 518.487C244.505 518.005 244.278 517.566 243.937 517.171C243.119 516.22 242.009 515.842 240.608 516.037C239.217 516.244 237.787 516.98 236.317 518.245ZM234.153 525.588C234.557 526.057 235.041 526.383 235.605 526.564C236.18 526.757 236.794 526.809 237.448 526.719C238.114 526.619 238.808 526.388 239.528 526.026C240.272 525.666 241.008 525.173 241.737 524.546C242.256 524.099 242.706 523.648 243.087 523.191C243.48 522.724 243.798 522.256 244.041 521.789L233.371 522.843C233.31 523.346 233.343 523.834 233.47 524.306C233.596 524.778 233.824 525.205 234.153 525.588Z" fill="white"/>
<path d="M242.396 537.831C241.801 537.139 241.402 536.376 241.199 535.54C241.007 534.716 241.007 533.867 241.2 532.992C241.392 532.117 241.77 531.244 242.332 530.373C242.907 529.492 243.658 528.652 244.584 527.855C245.511 527.058 246.453 526.442 247.41 526.005C248.379 525.558 249.311 525.304 250.206 525.244C251.1 525.184 251.94 525.311 252.725 525.624C253.521 525.95 254.217 526.458 254.812 527.15C255.407 527.842 255.801 528.6 255.993 529.423C256.196 530.259 256.201 531.114 256.008 531.99C255.815 532.865 255.426 533.748 254.839 534.64C254.264 535.522 253.513 536.361 252.587 537.158C251.66 537.955 250.718 538.572 249.761 539.008C248.816 539.434 247.897 539.677 247.002 539.737C246.108 539.797 245.263 539.664 244.467 539.339C243.682 539.025 242.991 538.523 242.396 537.831ZM245.875 529.356C245.344 529.813 244.876 530.281 244.47 530.759C244.087 531.239 243.768 531.717 243.513 532.195L254.252 531.147C254.327 530.609 254.302 530.093 254.177 529.599C254.063 529.116 253.836 528.677 253.496 528.282C252.678 527.331 251.568 526.953 250.167 527.148C248.776 527.356 247.345 528.092 245.875 529.356ZM243.712 536.699C244.116 537.169 244.6 537.494 245.164 537.675C245.739 537.868 246.353 537.92 247.007 537.831C247.673 537.731 248.366 537.5 249.087 537.138C249.83 536.777 250.567 536.284 251.295 535.657C251.814 535.211 252.264 534.759 252.645 534.302C253.039 533.835 253.357 533.368 253.6 532.901L242.93 533.954C242.869 534.458 242.902 534.945 243.028 535.417C243.154 535.889 243.382 536.316 243.712 536.699Z" fill="white"/>
<path d="M250.52 544.05C250.589 544.206 250.685 544.392 250.807 544.609C250.942 544.816 251.094 545.018 251.264 545.216C251.764 545.796 252.295 546.339 252.858 546.843C253.444 547.35 254.045 547.724 254.663 547.967C255.28 548.21 255.916 548.287 256.569 548.197C257.246 548.109 257.924 547.773 258.604 547.188C259.283 546.604 259.69 545.953 259.825 545.235C259.983 544.519 259.775 543.827 259.201 543.16C258.765 542.653 258.221 542.283 257.569 542.049C256.928 541.805 256.392 541.707 255.961 541.755L254.782 540.384L261.603 535.419L267.884 542.72L266.512 543.9L261.315 537.859L257.428 540.687C258.084 540.724 258.679 540.879 259.213 541.15C259.771 541.423 260.299 541.85 260.799 542.431C261.16 542.851 261.432 543.304 261.615 543.792C261.809 544.292 261.892 544.801 261.864 545.319C261.848 545.849 261.704 546.381 261.432 546.916C261.173 547.439 260.766 547.94 260.21 548.418C259.333 549.173 258.43 549.66 257.5 549.879C256.594 550.1 255.698 550.107 254.812 549.902C253.938 549.686 253.079 549.287 252.233 548.703C251.399 548.109 250.621 547.392 249.898 546.552C249.643 546.255 249.401 545.937 249.173 545.596C248.942 545.278 248.769 544.976 248.651 544.69L250.52 544.05Z" fill="white"/>
<path d="M324.256 542.282L320.797 547.973L325.14 553.021L318.659 551.49L315.199 557.181L314.653 550.543L308.172 549.012L314.315 546.441L313.769 539.804L318.113 544.852L324.256 542.282Z" fill="white"/>
<path d="M177.794 372.03L174.335 377.721L178.678 382.769L172.197 381.238L168.737 386.929L168.191 380.291L161.71 378.759L167.854 376.189L167.307 369.551L171.651 374.6L177.794 372.03Z" fill="white"/>
<path d="M303.756 433.824L295.818 424.597C295.458 424.179 294.827 424.131 294.408 424.491L275.958 440.364C275.744 440.547 275.618 440.813 275.61 441.095L275.202 456.395C275.172 457.499 273.639 457.747 273.262 456.709L267.109 439.741C267.028 439.519 266.871 439.332 266.666 439.214L250.084 429.733C249.113 429.178 249.646 427.691 250.749 427.879L266.569 430.588C266.862 430.639 267.163 430.555 267.389 430.361L285.819 414.507C286.237 414.146 286.285 413.515 285.925 413.096L278.942 404.979L243.989 373.642C243.115 372.859 244.071 371.471 245.114 372.008L288.246 394.221C288.608 394.407 289.047 394.355 289.356 394.09L297.859 386.775C298.278 386.414 298.909 386.462 299.269 386.881L302.737 390.911C303.097 391.33 303.05 391.961 302.631 392.322L299.071 395.384C298.537 395.844 298.633 396.696 299.255 397.026L304.301 399.699C304.665 399.892 305.109 399.842 305.421 399.574L335.072 374.066C335.225 373.935 335.413 373.853 335.612 373.83L344.179 372.863C344.88 372.784 345.44 373.435 345.257 374.116L343.021 382.442C342.969 382.636 342.86 382.81 342.707 382.941L313.056 408.449C312.744 408.717 312.629 409.15 312.765 409.538L314.654 414.926C314.887 415.591 315.716 415.813 316.25 415.354L319.81 412.291C320.229 411.931 320.86 411.978 321.22 412.397L323.734 415.318C324.094 415.737 324.046 416.369 323.628 416.729L315.138 424.032C314.822 424.304 314.708 424.742 314.85 425.133L332.457 473.471C332.862 474.584 331.34 475.353 330.685 474.367L303.756 433.824Z" fill="white"/>
</svg>
