<svg width="470" height="334" viewBox="0 0 470 334" fill="none" xmlns="http://www.w3.org/2000/svg">
<rect x="214.96" y="1.38654" width="304.442" height="142.208" rx="19" transform="rotate(33.6468 214.96 1.38654)" fill="#0085FF" stroke="white" stroke-width="2"/>
<rect x="216.397" y="13.652" width="288.457" height="123.379" rx="10.5" transform="rotate(33.6468 216.397 13.652)" stroke="white"/>
<path d="M221.826 27.4917L220.855 30.9599L223.853 32.9554L220.255 33.1033L219.283 36.5714L218.031 33.1947L214.432 33.3425L217.256 31.1077L216.004 27.731L219.002 29.7265L221.826 27.4917Z" fill="white"/>
<path d="M232.331 34.4832L231.359 37.9513L234.358 39.9468L230.759 40.0947L229.788 43.5628L228.535 40.1861L224.936 40.334L227.761 38.0992L226.508 34.7225L229.506 36.718L232.331 34.4832Z" fill="white"/>
<path d="M242.835 41.4744L241.863 44.9425L244.862 46.9381L241.263 47.0859L240.292 50.554L239.039 47.1773L235.44 47.3252L238.265 45.0904L237.012 41.7137L240.01 43.7092L242.835 41.4744Z" fill="white"/>
<path d="M422.908 161.327L421.937 164.795L424.935 166.791L421.336 166.939L420.365 170.407L419.112 167.03L415.514 167.178L418.338 164.943L417.085 161.566L420.084 163.562L422.908 161.327Z" fill="white"/>
<path d="M433.412 168.319L432.441 171.787L435.439 173.782L431.841 173.93L430.869 177.398L429.617 174.022L426.018 174.169L428.842 171.935L427.59 168.558L430.588 170.553L433.412 168.319Z" fill="white"/>
<path d="M443.916 175.31L442.945 178.778L445.943 180.774L442.345 180.921L441.373 184.389L440.12 181.013L436.522 181.161L439.346 178.926L438.094 175.549L441.092 177.545L443.916 175.31Z" fill="white"/>
<path d="M408.819 181.356C408.371 181.058 408.022 180.687 407.774 180.245C407.534 179.808 407.399 179.325 407.369 178.797C407.339 178.269 407.415 177.713 407.596 177.129C407.782 176.537 408.075 175.941 408.474 175.341C408.874 174.741 409.311 174.24 409.785 173.84C410.265 173.432 410.754 173.139 411.252 172.963C411.751 172.787 412.248 172.725 412.744 172.778C413.248 172.836 413.724 173.014 414.172 173.313C414.62 173.611 414.965 173.979 415.205 174.416C415.453 174.858 415.592 175.343 415.622 175.871C415.652 176.399 415.571 176.963 415.379 177.563C415.193 178.155 414.9 178.752 414.501 179.352C414.101 179.952 413.664 180.452 413.19 180.853C412.721 181.245 412.237 181.529 411.739 181.706C411.24 181.882 410.739 181.941 410.235 181.883C409.739 181.83 409.267 181.654 408.819 181.356ZM409.447 175.988C409.218 176.332 409.026 176.672 408.872 177.008C408.731 177.342 408.625 177.665 408.556 177.977L414.49 175.672C414.447 175.355 414.351 175.066 414.201 174.805C414.06 174.549 413.861 174.336 413.605 174.165C412.989 173.755 412.298 173.717 411.533 174.051C410.776 174.39 410.081 175.036 409.447 175.988ZM409.386 180.504C409.69 180.706 410.017 180.814 410.366 180.827C410.724 180.845 411.081 180.777 411.438 180.622C411.801 180.459 412.158 180.218 412.509 179.897C412.874 179.574 413.214 179.177 413.528 178.705C413.752 178.369 413.936 178.04 414.08 177.72C414.229 177.392 414.335 177.076 414.399 176.772L408.505 179.068C408.551 179.364 408.647 179.636 408.794 179.884C408.941 180.132 409.138 180.339 409.386 180.504Z" fill="white"/>
<path d="M420.086 187.4L419.494 188.288L413.168 184.077L413.759 183.189L416.688 185.139L420.611 179.244L417.908 179.09L417.703 178.018L421.291 178.224L422.251 178.863L417.649 185.778L420.086 187.4Z" fill="white"/>
<path d="M426.236 192.776L420.666 189.068C420.97 188.612 421.3 188.254 421.657 187.995C422.014 187.737 422.382 187.548 422.761 187.431C423.145 187.305 423.535 187.23 423.932 187.206C424.343 187.179 424.744 187.175 425.136 187.193C425.52 187.206 425.891 187.222 426.248 187.24C426.614 187.264 426.952 187.258 427.264 187.223C427.584 187.194 427.871 187.119 428.124 186.999C428.385 186.884 428.604 186.694 428.779 186.43C428.945 186.182 429.034 185.935 429.047 185.69C429.06 185.445 429.024 185.213 428.938 184.994C428.861 184.781 428.742 184.586 428.582 184.411C428.43 184.24 428.27 184.099 428.102 183.987C427.581 183.641 427.033 183.518 426.458 183.62C425.895 183.719 425.459 184.001 425.15 184.465L424.226 183.85C424.455 183.506 424.744 183.219 425.093 182.989C425.448 182.752 425.825 182.593 426.225 182.513C426.638 182.43 427.065 182.431 427.505 182.516C427.95 182.593 428.385 182.772 428.809 183.055C429.137 183.273 429.416 183.539 429.645 183.854C429.875 184.168 430.035 184.5 430.126 184.849C430.225 185.204 430.247 185.571 430.191 185.949C430.141 186.32 430.001 186.677 429.772 187.021C429.532 187.382 429.258 187.655 428.948 187.842C428.647 188.034 428.321 188.169 427.969 188.247C427.63 188.322 427.273 188.355 426.897 188.347C426.529 188.345 426.156 188.333 425.777 188.312C425.14 188.281 424.519 188.277 423.913 188.302C423.308 188.326 422.779 188.523 422.326 188.891L426.828 191.887L426.236 192.776Z" fill="white"/>
<path d="M427.492 193.611L428.476 193.019C428.537 193.083 428.613 193.151 428.704 193.222C428.803 193.3 428.92 193.384 429.056 193.474C429.432 193.725 429.854 193.942 430.32 194.125C430.792 194.301 431.26 194.404 431.724 194.436C432.194 194.46 432.64 194.387 433.064 194.219C433.493 194.043 433.854 193.735 434.147 193.294C434.376 192.95 434.473 192.605 434.439 192.258C434.417 191.909 434.19 191.59 433.758 191.303C433.574 191.18 433.375 191.106 433.162 191.079C432.962 191.05 432.723 191.053 432.446 191.088L431.87 191.172L431.629 190.129L436.32 189.509L432.443 186.928L433.034 186.04L438.1 189.412L437.509 190.3L434.361 190.786C434.428 190.808 434.496 190.836 434.566 190.87C434.643 190.91 434.714 190.951 434.778 190.994C435.21 191.282 435.478 191.686 435.582 192.205C435.7 192.723 435.559 193.281 435.16 193.882C434.787 194.442 434.333 194.855 433.797 195.122C433.261 195.389 432.691 195.535 432.085 195.56C431.485 195.576 430.871 195.485 430.241 195.285C429.62 195.091 429.037 194.813 428.493 194.451C428.301 194.323 428.114 194.187 427.933 194.043C427.751 193.899 427.604 193.755 427.492 193.611Z" fill="white"/>
<path d="M205.764 46.0343L204.816 45.4031L212.447 39.2219L213.575 39.973L210.818 49.3982L209.846 48.751L210.64 46.1266L207.879 44.2889L205.764 46.0343ZM208.746 43.5843L210.955 45.0545L212.288 40.6579L208.746 43.5843Z" fill="white"/>
<path d="M212.854 50.7534L218.048 42.9502L221.013 44.9238C221.542 45.2754 221.874 45.7564 222.01 46.3669C222.16 46.9747 222.043 47.5668 221.66 48.143C221.367 48.5832 221.012 48.8901 220.596 49.0637C220.181 49.2373 219.769 49.3096 219.361 49.2806C219.641 49.675 219.817 50.1215 219.89 50.6201C219.962 51.1186 219.838 51.608 219.519 52.0882C219.061 52.7765 218.494 53.1676 217.82 53.2614C217.159 53.3525 216.504 53.1824 215.856 52.7509L212.854 50.7534ZM220.27 45.6243L218.457 44.4178L216.739 46.9988L218.456 48.1414C218.784 48.3598 219.159 48.4128 219.58 48.3005C220.015 48.1856 220.362 47.932 220.623 47.5398C220.852 47.1957 220.931 46.8437 220.858 46.4838C220.794 46.1292 220.598 45.8427 220.27 45.6243ZM217.913 48.9577L216.196 47.8151L214.366 50.5643L216.191 51.7788C216.367 51.8959 216.556 51.9931 216.759 52.0703C216.967 52.1395 217.171 52.1713 217.371 52.1658C217.576 52.1523 217.775 52.0882 217.967 51.9734C218.172 51.8559 218.36 51.6691 218.53 51.413C218.85 50.9328 218.931 50.4728 218.773 50.033C218.616 49.5931 218.329 49.2347 217.913 48.9577Z" fill="white"/>
<path d="M229.015 54.0777L227.855 53.8946C228.214 53.1291 228.334 52.4117 228.213 51.7426C228.101 51.0787 227.772 50.5657 227.228 50.2035C226.58 49.772 225.866 49.7072 225.088 50.0091C224.315 50.303 223.625 50.9061 223.018 51.8185C222.703 52.2907 222.468 52.7575 222.311 53.2189C222.159 53.6723 222.086 54.103 222.092 54.5109C222.103 54.9109 222.19 55.2748 222.353 55.6026C222.523 55.9358 222.769 56.2089 223.089 56.422C223.609 56.7682 224.18 56.8824 224.801 56.7647C225.43 56.6522 226.009 56.3211 226.536 55.7714L227.001 56.895C226.311 57.4981 225.558 57.84 224.742 57.9206C223.94 57.9985 223.186 57.8031 222.482 57.3344C222.01 57.0201 221.645 56.639 221.389 56.1913C221.138 55.7355 220.994 55.241 220.956 54.7078C220.924 54.1665 220.996 53.5972 221.175 52.9998C221.358 52.3943 221.652 51.7875 222.057 51.1793C222.451 50.587 222.887 50.0974 223.364 49.7104C223.846 49.3154 224.338 49.0364 224.839 48.8734C225.34 48.7104 225.847 48.6607 226.359 48.7243C226.871 48.7879 227.363 48.9768 227.835 49.2911C228.596 49.7971 229.076 50.4807 229.277 51.3418C229.491 52.2002 229.403 53.1122 229.015 54.0777Z" fill="white"/>
<path d="M234.065 53.5069C234.609 53.8691 235.06 54.2847 235.418 54.7537C235.776 55.2227 236.016 55.7292 236.139 56.273C236.262 56.8169 236.256 57.3902 236.12 57.9929C235.993 58.6009 235.719 59.2211 235.298 59.8533C234.824 60.5656 234.322 61.1206 233.791 61.5183C233.261 61.916 232.716 62.171 232.156 62.2834C231.604 62.4012 231.04 62.3896 230.464 62.2487C229.893 62.0998 229.328 61.839 228.768 61.4661C228.496 61.285 228.221 61.0905 227.943 60.8828C227.669 60.6883 227.418 60.4925 227.191 60.2954L232.385 52.4922C232.662 52.6307 232.943 52.7891 233.229 52.9675C233.522 53.1513 233.801 53.3311 234.065 53.5069ZM233.53 54.4152C233.426 54.3459 233.307 54.2727 233.174 54.1955C233.048 54.1236 232.919 54.049 232.786 53.9718L228.711 60.0943C228.833 60.1875 228.956 60.2807 229.079 60.374C229.202 60.4672 229.315 60.5484 229.419 60.6177C229.947 60.9692 230.443 61.1782 230.907 61.2445C231.385 61.3081 231.823 61.2651 232.223 61.1155C232.631 60.9712 233.007 60.7363 233.35 60.4107C233.699 60.0772 234.018 59.6943 234.305 59.2621C234.577 58.854 234.777 58.4325 234.904 57.9978C235.037 57.5551 235.078 57.1204 235.027 56.6938C234.984 56.2726 234.84 55.8647 234.595 55.4703C234.357 55.0812 234.002 54.7295 233.53 54.4152Z" fill="white"/>
<path d="M282.982 73.609C283.816 74.1643 284.508 74.7994 285.059 75.5144C285.61 76.2294 285.982 76.9997 286.176 77.8255C286.37 78.6513 286.367 79.5202 286.167 80.4323C285.979 81.3525 285.568 82.2895 284.934 83.2431C284.219 84.3175 283.459 85.153 282.654 85.7499C281.85 86.3467 281.022 86.7272 280.169 86.8912C279.328 87.0635 278.468 87.0395 277.588 86.8194C276.716 86.5873 275.85 86.1855 274.991 85.6139C274.574 85.3363 274.153 85.0384 273.727 84.7204C273.306 84.4225 272.921 84.1229 272.573 83.8215L280.407 72.052C280.831 72.265 281.262 72.5083 281.7 72.7821C282.15 73.0639 282.577 73.3396 282.982 73.609ZM282.175 74.9798C282.016 74.8737 281.834 74.7613 281.63 74.6427C281.438 74.5323 281.24 74.4179 281.035 74.2993L274.889 83.5338C275.077 83.6765 275.265 83.8192 275.454 83.9619C275.642 84.1047 275.816 84.2291 275.975 84.3352C276.785 84.8741 277.544 85.1964 278.252 85.3022C278.981 85.4041 279.65 85.3439 280.258 85.1216C280.878 84.9075 281.449 84.5556 281.97 84.066C282.498 83.5643 282.979 82.9876 283.413 82.3357C283.823 81.7201 284.123 81.0835 284.313 80.426C284.51 79.7564 284.568 79.098 284.485 78.4508C284.415 77.8118 284.19 77.1919 283.811 76.5912C283.445 75.9987 282.899 75.4616 282.175 74.9798Z" fill="white"/>
<path d="M292.08 94.8713L291.188 96.2112L283.736 91.251L291.569 79.4815L298.948 84.3928L298.056 85.7327L292.149 81.8012L289.775 85.3683L294.357 88.4179L293.465 89.7578L288.884 86.7082L286.1 90.8909L292.08 94.8713Z" fill="white"/>
<path d="M294.733 98.5702L302.566 86.8008L307.424 90.0341C308.381 90.671 308.951 91.5033 309.134 92.5311C309.326 93.5468 309.108 94.5255 308.481 95.467C308.104 96.0344 307.674 96.4801 307.193 96.8043C306.72 97.1164 306.229 97.3213 305.722 97.4189C305.214 97.5166 304.706 97.5091 304.197 97.3966C303.7 97.2923 303.242 97.1013 302.825 96.8237L299.495 94.6069L296.205 99.55L294.733 98.5702ZM306.201 91.1536L303.146 89.1205L300.387 93.2669L303.423 95.2878C303.975 95.6552 304.59 95.7684 305.268 95.6275C305.966 95.4826 306.508 95.1204 306.894 94.541C307.295 93.9375 307.431 93.322 307.299 92.6947C307.168 92.0674 306.802 91.5537 306.201 91.1536Z" fill="white"/>
<path d="M305.932 106.024L304.478 105.057L316.047 95.7734L317.777 96.9247L313.679 111.18L312.188 110.188L313.37 106.219L309.137 103.402L305.932 106.024ZM310.452 102.344L313.838 104.598L315.821 97.9483L310.452 102.344Z" fill="white"/>
<path d="M316.689 113.184L324.523 101.415L329.307 104.599C330.252 105.228 330.852 106.028 331.108 107C331.385 107.968 331.222 108.904 330.619 109.809C330.016 110.715 329.289 111.302 328.437 111.571C327.594 111.828 326.807 111.827 326.077 111.568L325.191 118.843L323.48 117.704L324.434 110.605L321.729 108.804L318.162 114.164L316.689 113.184ZM327.79 105.523L325.103 103.734L322.621 107.465L325.859 109.62C326.35 109.947 326.904 110.045 327.521 109.916C328.158 109.783 328.662 109.439 329.031 108.883C329.401 108.328 329.459 107.749 329.206 107.145C328.961 106.529 328.489 105.988 327.79 105.523Z" fill="white"/>
<path d="M330.41 122.316L337.351 111.887L333.395 109.253L334.287 107.913L343.672 114.16L342.78 115.5L338.824 112.866L331.882 123.296L330.41 122.316Z" fill="white"/>
<path d="M347.248 131.59L346.357 132.93L338.904 127.97L346.737 116.2L354.116 121.112L353.225 122.451L347.318 118.52L344.944 122.087L349.526 125.137L348.634 126.477L344.052 123.427L341.268 127.61L347.248 131.59Z" fill="white"/>
<path d="M360.217 125.015C361.051 125.571 361.744 126.206 362.295 126.921C362.846 127.636 363.218 128.406 363.412 129.232C363.606 130.058 363.603 130.927 363.403 131.839C363.215 132.759 362.804 133.696 362.169 134.649C361.454 135.724 360.694 136.559 359.89 137.156C359.086 137.753 358.257 138.133 357.404 138.298C356.564 138.47 355.704 138.446 354.823 138.226C353.951 137.994 353.086 137.592 352.227 137.02C351.81 136.743 351.389 136.445 350.963 136.127C350.542 135.829 350.157 135.529 349.809 135.228L357.642 123.458C358.067 123.671 358.498 123.915 358.935 124.188C359.385 124.47 359.812 124.746 360.217 125.015ZM359.411 126.386C359.252 126.28 359.07 126.168 358.865 126.049C358.673 125.939 358.475 125.824 358.271 125.706L352.125 134.94C352.313 135.083 352.501 135.226 352.689 135.368C352.878 135.511 353.051 135.635 353.211 135.742C354.021 136.28 354.78 136.603 355.488 136.709C356.217 136.81 356.885 136.75 357.494 136.528C358.114 136.314 358.685 135.962 359.205 135.472C359.734 134.971 360.215 134.394 360.649 133.742C361.059 133.126 361.358 132.49 361.548 131.832C361.746 131.163 361.804 130.504 361.721 129.857C361.651 129.218 361.426 128.598 361.047 127.998C360.68 127.405 360.135 126.868 359.411 126.386Z" fill="white"/>
<path d="M359.548 241.29L365.304 232.641L366.853 233.672L361.135 242.264C360.35 243.442 359.326 244.141 358.062 244.361C356.807 244.568 355.553 244.255 354.301 243.421C353.049 242.588 352.276 241.552 351.982 240.314C351.697 239.064 351.947 237.849 352.731 236.671L358.45 228.078L359.999 229.109L354.242 237.759C353.761 238.481 353.619 239.227 353.814 239.997C354.009 240.767 354.501 241.414 355.288 241.938C356.075 242.463 356.862 242.666 357.648 242.549C358.433 242.432 359.067 242.012 359.548 241.29Z" fill="white"/>
<path d="M362.008 246.603L363.952 246.032C364.156 246.734 364.532 247.414 365.081 248.072C365.652 248.726 366.331 249.316 367.118 249.84C368.009 250.432 368.847 250.726 369.634 250.719C370.421 250.712 371.025 250.392 371.447 249.758C371.877 249.112 371.882 248.448 371.46 247.765C371.061 247.078 370.346 246.137 369.317 244.94C368.289 243.743 367.599 242.68 367.248 241.752C366.897 240.824 367.051 239.865 367.709 238.877C368.08 238.319 368.525 237.902 369.044 237.626C369.576 237.358 370.142 237.223 370.74 237.219C371.347 237.202 371.968 237.305 372.603 237.526C373.26 237.744 373.897 238.058 374.517 238.471C375.15 238.892 375.76 239.417 376.347 240.045C376.943 240.661 377.414 241.478 377.762 242.496L376.041 243.024C375.799 242.296 375.449 241.66 374.991 241.118C374.541 240.562 374.019 240.087 373.425 239.692C372.599 239.142 371.812 238.855 371.063 238.833C370.327 238.818 369.745 239.135 369.314 239.781C368.884 240.427 368.841 241.066 369.185 241.697C369.541 242.337 370.111 243.118 370.893 244.041C371.334 244.554 371.773 245.084 372.21 245.631C372.647 246.178 372.997 246.73 373.258 247.289C373.52 247.847 373.667 248.411 373.698 248.98C373.728 249.549 373.563 250.106 373.2 250.651C372.753 251.323 372.234 251.809 371.642 252.11C371.072 252.407 370.47 252.555 369.837 252.555C369.204 252.554 368.545 252.426 367.858 252.17C367.193 251.91 366.537 251.565 365.892 251.136C365.04 250.569 364.251 249.907 363.526 249.15C362.809 248.38 362.303 247.531 362.008 246.603Z" fill="white"/>
<path d="M374.337 256.482L372.807 255.464L384.962 245.724L386.782 246.936L382.489 261.908L380.921 260.864L382.158 256.696L377.705 253.732L374.337 256.482ZM379.086 252.621L382.649 254.993L384.727 248.009L379.086 252.621Z" fill="white"/>
<path d="M223.621 156.168L214.421 150.045C214.903 149.322 215.431 148.758 216.006 148.353C216.58 147.948 217.175 147.656 217.789 147.479C218.411 147.289 219.046 147.18 219.693 147.154C220.363 147.123 221.017 147.128 221.657 147.169C222.284 147.202 222.889 147.238 223.473 147.279C224.069 147.328 224.622 147.329 225.129 147.283C225.65 147.245 226.116 147.133 226.525 146.948C226.948 146.771 227.299 146.474 227.577 146.055C227.839 145.662 227.977 145.268 227.991 144.874C228.005 144.481 227.939 144.107 227.793 143.754C227.66 143.409 227.46 143.093 227.194 142.805C226.94 142.527 226.675 142.295 226.397 142.111C225.538 141.539 224.64 141.326 223.704 141.472C222.789 141.614 222.087 142.053 221.597 142.789L220.07 141.773C220.434 141.227 220.897 140.775 221.459 140.417C222.03 140.046 222.641 139.802 223.291 139.686C223.962 139.565 224.658 139.579 225.379 139.729C226.108 139.866 226.822 140.168 227.523 140.634C228.065 140.995 228.528 141.432 228.912 141.944C229.296 142.456 229.567 142.993 229.726 143.557C229.898 144.129 229.945 144.719 229.865 145.325C229.794 145.919 229.577 146.489 229.214 147.035C228.834 147.606 228.395 148.037 227.896 148.327C227.41 148.627 226.882 148.834 226.31 148.948C225.76 149.058 225.178 149.101 224.565 149.077C223.964 149.062 223.355 149.032 222.736 148.987C221.696 148.917 220.682 148.892 219.695 148.913C218.709 148.934 217.851 149.233 217.124 149.811L224.559 154.76L223.621 156.168Z" fill="white"/>
<path d="M225.695 157.549L227.282 156.627C227.384 156.732 227.51 156.843 227.66 156.961C227.824 157.088 228.018 157.227 228.242 157.376C228.864 157.79 229.558 158.151 230.325 158.46C231.1 158.756 231.867 158.937 232.625 159.002C233.391 159.054 234.118 158.952 234.804 158.694C235.499 158.424 236.078 157.94 236.543 157.242C236.906 156.696 237.054 156.144 236.987 155.587C236.941 155.025 236.561 154.507 235.847 154.032C235.543 153.829 235.217 153.704 234.868 153.655C234.541 153.602 234.151 153.599 233.7 153.647L232.763 153.765L232.339 152.081L239.973 151.229L233.569 146.966L234.506 145.557L242.874 151.126L241.936 152.535L236.816 153.221C236.926 153.257 237.037 153.304 237.152 153.361C237.279 153.428 237.396 153.496 237.501 153.567C238.215 154.042 238.665 154.698 238.851 155.536C239.059 156.371 238.846 157.264 238.212 158.216C237.621 159.104 236.892 159.755 236.026 160.167C235.161 160.58 234.234 160.797 233.248 160.817C232.269 160.826 231.264 160.66 230.231 160.32C229.211 159.99 228.252 159.525 227.353 158.927C227.036 158.716 226.727 158.492 226.427 158.256C226.126 158.019 225.883 157.783 225.695 157.549Z" fill="white"/>
<path d="M259.518 174.402L264.206 167.358L258.08 163.28L259.017 161.871L266.73 167.005L261.358 175.077C260.336 176.612 259.19 177.489 257.92 177.706C256.658 177.91 255.367 177.572 254.045 176.693C253.424 176.279 252.921 175.816 252.537 175.304C252.166 174.801 251.906 174.289 251.757 173.769C251.629 173.244 251.608 172.717 251.693 172.188C251.787 171.646 251.986 171.146 252.29 170.689C252.602 170.22 252.993 169.848 253.461 169.574C253.93 169.3 254.438 169.125 254.984 169.049L255.421 170.713C255.088 170.784 254.781 170.901 254.502 171.063C254.231 171.212 254.002 171.426 253.816 171.706C253.479 172.213 253.421 172.816 253.643 173.513C253.874 174.198 254.386 174.804 255.179 175.332C255.972 175.86 256.748 176.056 257.506 175.92C258.265 175.783 258.935 175.277 259.518 174.402Z" fill="white"/>
<path d="M271.505 182.682L277.271 174.02L278.857 175.076L273.129 183.681C272.344 184.861 271.31 185.555 270.027 185.764C268.752 185.959 267.474 185.63 266.191 184.777C264.909 183.924 264.112 182.871 263.801 181.62C263.498 180.356 263.739 179.134 264.524 177.953L270.252 169.348L271.838 170.404L266.073 179.066C265.591 179.79 265.454 180.541 265.66 181.319C265.867 182.098 266.373 182.755 267.18 183.292C267.986 183.829 268.788 184.042 269.586 183.932C270.384 183.822 271.024 183.406 271.505 182.682Z" fill="white"/>
<path d="M279.912 193.634L282.957 179.344L275.431 190.652L273.904 189.636L282.14 177.261L284.995 179.162L282.11 192.653L289.219 181.972L290.745 182.989L282.509 195.363L279.912 193.634Z" fill="white"/>
<path d="M308.533 210.651L307.595 212.06L297.146 205.105L298.084 203.696L302.922 206.916L309.143 197.569L304.727 197.239L304.361 195.512L310.22 195.951L311.806 197.006L304.508 207.972L308.533 210.651Z" fill="white"/>
<path d="M323.068 204.227C323.742 204.676 324.29 205.214 324.711 205.843C325.141 206.458 325.419 207.129 325.546 207.855C325.682 208.568 325.654 209.327 325.461 210.133C325.281 210.947 324.917 211.767 324.368 212.592C323.523 213.861 322.612 214.857 321.635 215.58C320.657 216.303 319.671 216.782 318.676 217.017C317.68 217.252 316.687 217.268 315.696 217.067C314.726 216.861 313.812 216.472 312.953 215.9C312.556 215.636 312.178 215.33 311.819 214.981C311.465 214.654 311.13 214.284 310.813 213.872L312.15 212.894C312.4 213.206 312.66 213.489 312.93 213.742C313.2 213.995 313.481 214.219 313.772 214.412C314.446 214.861 315.154 215.158 315.896 215.304C316.646 215.438 317.377 215.429 318.087 215.279C318.806 215.117 319.5 214.819 320.17 214.385C320.853 213.961 321.464 213.415 322.003 212.749C321.36 212.998 320.629 213.079 319.81 212.992C319.004 212.913 318.184 212.597 317.352 212.043C316.677 211.594 316.146 211.103 315.757 210.569C315.377 210.023 315.125 209.471 315.001 208.912C314.898 208.349 314.913 207.782 315.045 207.211C315.178 206.64 315.417 206.094 315.763 205.574C316.625 204.279 317.721 203.507 319.051 203.257C320.394 203.015 321.733 203.339 323.068 204.227ZM322.181 205.56C321.388 205.032 320.54 204.816 319.638 204.911C318.744 204.993 317.992 205.492 317.384 206.405C316.818 207.256 316.661 208.094 316.912 208.92C317.171 209.734 317.724 210.423 318.57 210.986C319.376 211.522 320.239 211.73 321.159 211.61C322.087 211.476 322.791 211.048 323.273 210.325C323.78 209.563 323.924 208.716 323.706 207.783C323.496 206.838 322.988 206.097 322.181 205.56Z" fill="white"/>
<path d="M197.274 96.1007L214.715 69.8961L225.209 76.8808C227.276 78.2566 228.494 80.0754 228.862 82.3373C229.249 84.5723 228.744 86.738 227.349 88.8343C226.508 90.0975 225.558 91.0941 224.499 91.8239C223.457 92.5269 222.382 92.9939 221.272 93.2248C220.162 93.4558 219.054 93.4549 217.947 93.2223C216.866 93.0072 215.875 92.5999 214.974 92.0002L207.779 87.2114L200.454 98.2173L197.274 96.1007ZM222.508 79.3879L215.91 74.996L209.765 84.2281L216.324 88.5935C217.516 89.3873 218.854 89.6183 220.337 89.2865C221.864 88.9455 223.057 88.13 223.915 86.8399C224.81 85.4961 225.123 84.1342 224.856 82.7543C224.59 81.3743 223.807 80.2522 222.508 79.3879Z" fill="white"/>
<path d="M227.996 117.13C226.512 116.143 225.362 114.912 224.545 113.438C223.756 111.981 223.317 110.371 223.23 108.606C223.142 106.841 223.406 104.981 224.02 103.024C224.652 101.04 225.639 99.0401 226.98 97.0244C228.322 95.0086 229.786 93.3263 231.372 91.9775C232.976 90.6017 234.609 89.6136 236.27 89.0131C237.932 88.4126 239.587 88.1955 241.235 88.3618C242.91 88.5458 244.49 89.1316 245.974 90.1194C247.458 91.1071 248.595 92.3292 249.384 93.7856C250.201 95.2596 250.652 96.879 250.74 98.6436C250.827 100.408 250.546 102.296 249.896 104.307C249.264 106.29 248.277 108.29 246.935 110.306C245.594 112.322 244.13 114.004 242.544 115.353C240.976 116.675 239.361 117.636 237.699 118.237C236.038 118.837 234.369 119.045 232.694 118.861C231.046 118.695 229.48 118.118 227.996 117.13ZM230.035 114.066C232.023 115.389 234.261 115.502 236.75 114.405C239.257 113.282 241.539 111.174 243.596 108.084C245.671 104.966 246.743 102.034 246.812 99.2873C246.881 96.5409 245.922 94.5062 243.934 93.1833C241.947 91.8604 239.7 91.7609 237.193 92.8846C234.686 94.0084 232.395 96.1291 230.32 99.2468C228.262 102.338 227.199 105.256 227.13 108.003C227.079 110.722 228.048 112.744 230.035 114.066Z" fill="white"/>
<path d="M244.706 127.67L262.147 101.466L272.482 108.344C274.523 109.703 275.807 111.45 276.336 113.586C276.909 115.712 276.525 117.783 275.183 119.799C273.841 121.815 272.238 123.133 270.372 123.752C268.524 124.345 266.808 124.367 265.224 123.817L263.071 139.894L259.374 137.433L261.672 121.743L255.828 117.854L247.886 129.787L244.706 127.67ZM269.145 110.428L263.341 106.565L257.814 114.87L264.81 119.527C265.87 120.232 267.075 120.433 268.424 120.129C269.818 119.816 270.927 119.041 271.75 117.805C272.572 116.568 272.717 115.288 272.184 113.963C271.668 112.612 270.655 111.434 269.145 110.428Z" fill="white"/>
<path d="M274.344 147.397L289.8 124.176L281.253 118.487L283.239 115.504L303.512 128.997L301.527 131.981L292.98 126.292L277.524 149.514L274.344 147.397Z" fill="white"/>
<path d="M311.375 167.739L309.389 170.722L293.449 160.113L310.89 133.908L314.07 136.025L298.615 159.246L311.375 167.739Z" fill="white"/>
<path d="M316.807 175.659L313.667 173.569L339.178 152.736L342.914 155.223L333.542 186.798L330.323 184.655L333.02 175.863L323.877 169.777L316.807 175.659ZM326.777 167.403L334.091 172.271L338.618 157.541L326.777 167.403Z" fill="white"/>
<path d="M350.858 198.323L357.813 168.397L341.875 192.344L338.814 190.307L356.255 164.102L361.979 167.912L355.393 196.164L370.446 173.547L373.507 175.584L356.066 201.789L350.858 198.323Z" fill="white"/>
<path d="M386.929 184.169C388.731 185.368 390.222 186.748 391.401 188.309C392.581 189.869 393.369 191.558 393.766 193.374C394.164 195.189 394.131 197.106 393.667 199.125C393.23 201.161 392.305 203.24 390.891 205.363C389.299 207.755 387.617 209.622 385.845 210.963C384.073 212.305 382.254 213.169 380.39 213.557C378.552 213.963 376.677 213.937 374.764 213.478C372.869 212.992 370.994 212.132 369.139 210.898C368.238 210.298 367.329 209.654 366.41 208.965C365.501 208.321 364.671 207.672 363.921 207.017L381.362 180.813C382.282 181.27 383.214 181.793 384.16 182.384C385.132 182.992 386.055 183.587 386.929 184.169ZM385.13 187.218C384.785 186.988 384.392 186.746 383.95 186.491C383.535 186.253 383.106 186.007 382.664 185.751L368.979 206.312C369.385 206.621 369.792 206.93 370.198 207.239C370.604 207.548 370.979 207.817 371.324 208.047C373.073 209.211 374.718 209.899 376.26 210.11C377.846 210.313 379.305 210.16 380.638 209.651C381.998 209.159 383.253 208.366 384.403 207.27C385.571 206.147 386.638 204.859 387.604 203.408C388.516 202.037 389.189 200.624 389.623 199.168C390.075 197.684 390.221 196.23 390.061 194.805C389.927 193.397 389.456 192.036 388.648 190.723C387.866 189.427 386.693 188.258 385.13 187.218Z" fill="white"/>
<path d="M181.048 120.939L180.553 116.946C180.485 116.398 179.986 116.009 179.438 116.077L171.112 117.107C170.832 117.142 170.58 117.293 170.417 117.524L169.093 119.403C168.457 120.306 167.042 119.663 167.304 118.59L168.108 115.294C168.164 115.064 168.137 114.821 168.031 114.61L166.438 111.429C165.938 110.429 167.206 109.486 168.019 110.254L169.713 111.853C169.93 112.058 170.226 112.155 170.522 112.119L178.821 111.091C179.369 111.024 179.758 110.524 179.69 109.976L179.265 106.537L175.994 93.8677C175.701 92.7318 177.265 92.1063 177.836 93.1313L184.289 104.723C184.487 105.079 184.882 105.28 185.286 105.229L188.504 104.831C189.052 104.763 189.551 105.153 189.619 105.701L189.716 106.485C189.784 107.033 189.395 107.533 188.847 107.601L188.583 107.633C187.884 107.72 187.491 108.483 187.826 109.102L188.231 109.849C188.427 110.211 188.824 110.415 189.233 110.365L203.429 108.607C203.628 108.583 203.83 108.619 204.009 108.71L205.956 109.711C206.583 110.034 206.689 110.886 206.159 111.352L204.515 112.797C204.364 112.93 204.177 113.014 203.978 113.039L189.781 114.796C189.373 114.847 189.037 115.142 188.935 115.541L188.725 116.364C188.551 117.046 189.118 117.69 189.817 117.604L190.081 117.571C190.629 117.503 191.128 117.892 191.196 118.441L191.225 118.671C191.293 119.219 190.903 119.719 190.355 119.787L187.155 120.183C186.742 120.234 186.404 120.535 186.306 120.94L183.007 134.542C182.728 135.693 181.034 135.49 181.035 134.306L181.048 120.939Z" fill="white"/>
<rect x="18.6589" y="137.283" width="355" height="158" rx="19" transform="rotate(6.08095 18.6589 137.283)" fill="#0085FF" stroke="white" stroke-width="2"/>
<rect x="27.3318" y="149.269" width="335.212" height="136" rx="10" transform="rotate(6.08095 27.3318 149.269)" stroke="white" stroke-width="2" stroke-dasharray="4 4"/>
<path d="M39.1299 169.795C38.5359 169.732 38.0033 169.546 37.5319 169.238C37.0711 168.932 36.6905 168.527 36.3902 168.023C36.0899 167.519 35.8788 166.933 35.7568 166.266C35.6359 165.588 35.6179 164.851 35.7026 164.056C35.7874 163.26 35.9602 162.544 36.2212 161.906C36.4833 161.258 36.8142 160.72 37.214 160.29C37.6137 159.861 38.0711 159.545 38.5861 159.342C39.1117 159.141 39.6715 159.072 40.2655 159.135C40.8595 159.198 41.3869 159.383 41.8477 159.69C42.319 159.998 42.7049 160.403 43.0052 160.907C43.3055 161.411 43.5155 162.008 43.6352 162.696C43.7561 163.374 43.7742 164.111 43.6894 164.906C43.6047 165.702 43.4318 166.418 43.1708 167.056C42.911 167.682 42.5812 168.21 42.1815 168.64C41.7817 169.069 41.319 169.384 40.7934 169.586C40.2784 169.788 39.7239 169.858 39.1299 169.795ZM36.9913 164.193C36.9427 164.649 36.9288 165.082 36.9495 165.492C36.9819 165.892 37.0443 166.263 37.1365 166.606L41.7895 161.293C41.5844 161.003 41.3413 160.768 41.0601 160.588C40.7896 160.409 40.4846 160.301 40.1452 160.265C39.3285 160.178 38.6296 160.495 38.0486 161.216C37.4782 161.938 37.1258 162.931 36.9913 164.193ZM39.2502 168.665C39.6533 168.708 40.03 168.646 40.3802 168.48C40.7411 168.315 41.0574 168.064 41.3292 167.728C41.6021 167.382 41.8293 166.961 42.0108 166.465C42.2041 165.96 42.334 165.395 42.4007 164.769C42.4482 164.324 42.4604 163.907 42.4375 163.518C42.4156 163.119 42.358 162.753 42.2646 162.421L37.6468 167.706C37.8436 167.974 38.0778 168.192 38.3495 168.36C38.6212 168.529 38.9214 168.63 39.2502 168.665ZM53.3146 169.954L53.1891 171.132L44.8046 170.238L44.93 169.061L48.8121 169.475L49.6443 161.663L46.9058 162.9L46.1541 161.951L49.7883 160.311L51.0611 160.446L50.0848 169.61L53.3146 169.954ZM62.1243 172.084L54.7421 171.297C54.8065 170.693 54.9479 170.171 55.1662 169.733C55.3845 169.295 55.6496 168.921 55.9615 168.611C56.2746 168.291 56.6202 168.016 56.9985 167.788C57.3885 167.551 57.781 167.341 58.1759 167.158C58.5603 166.973 58.9329 166.798 59.2938 166.633C59.6653 166.469 59.9955 166.289 60.2844 166.095C60.5839 165.902 60.8273 165.681 61.0147 165.433C61.2126 165.186 61.3302 164.887 61.3675 164.537C61.4025 164.208 61.3635 163.92 61.2505 163.672C61.1375 163.424 60.9828 163.214 60.7865 163.043C60.6008 162.873 60.3841 162.743 60.1363 162.652C59.8991 162.562 59.6691 162.506 59.4464 162.482C58.757 162.408 58.1552 162.57 57.641 162.965C57.1386 163.352 56.8546 163.852 56.7891 164.468L55.564 164.337C55.6126 163.881 55.7497 163.45 55.9752 163.045C56.2018 162.63 56.4912 162.28 56.8433 161.995C57.2071 161.702 57.6273 161.484 58.1037 161.341C58.5812 161.188 59.1011 161.142 59.6632 161.202C60.0981 161.248 60.5092 161.367 60.8964 161.558C61.2836 161.75 61.6116 161.994 61.8804 162.291C62.1597 162.589 62.3692 162.938 62.5088 163.339C62.6496 163.73 62.6957 164.153 62.6471 164.609C62.5962 165.086 62.4668 165.496 62.2586 165.839C62.0611 166.182 61.8092 166.483 61.5029 166.74C61.2084 166.987 60.8742 167.204 60.5005 167.389C60.1374 167.576 59.7642 167.756 59.3809 167.93C58.7379 168.226 58.1251 168.541 57.5423 168.876C56.9596 169.211 56.54 169.676 56.2835 170.271L62.2498 170.906L62.1243 172.084ZM63.7887 172.261L64.4516 171.173C64.5448 171.204 64.6545 171.232 64.7807 171.256C64.9174 171.282 65.076 171.304 65.2563 171.323C65.7548 171.376 66.2807 171.373 66.8341 171.314C67.3886 171.245 67.9021 171.106 68.3747 170.899C68.8485 170.681 69.2506 170.381 69.581 169.998C69.9126 169.604 70.1094 169.115 70.1716 168.532C70.2202 168.076 70.1383 167.686 69.926 167.364C69.7254 167.031 69.3388 166.834 68.766 166.773C68.522 166.747 68.2884 166.776 68.0649 166.86C67.8532 166.934 67.62 167.059 67.3652 167.236L66.8421 167.614L66.0694 166.711L70.3653 163.693L65.2263 163.146L65.3518 161.969L72.0658 162.684L71.9403 163.861L69.0945 165.956C69.171 165.942 69.2522 165.935 69.3382 165.933C69.4348 165.933 69.5255 165.937 69.6104 165.946C70.1831 166.007 70.6543 166.266 71.0239 166.724C71.4052 167.172 71.5535 167.794 71.4688 168.59C71.3897 169.332 71.1552 169.972 70.7654 170.51C70.3756 171.048 69.8893 171.484 69.3065 171.819C68.7249 172.143 68.0734 172.369 67.3518 172.496C66.6409 172.624 65.9249 172.649 65.2036 172.573C64.9491 172.545 64.6956 172.508 64.4433 172.459C64.191 172.411 63.9728 172.345 63.7887 172.261Z" fill="white"/>
<path d="M314.851 199.007L313.594 198.873L317.926 188.876L319.421 189.035L321.549 199.721L320.26 199.584L319.694 196.595L316.035 196.205L314.851 199.007ZM316.526 195.067L319.453 195.378L318.507 190.37L316.526 195.067ZM324.248 200.008L325.349 189.667L329.279 190.086C329.979 190.16 330.553 190.463 331.001 190.993C331.46 191.514 331.649 192.156 331.568 192.92C331.506 193.503 331.315 193.987 330.995 194.371C330.675 194.756 330.307 195.038 329.891 195.219C330.369 195.463 330.772 195.812 331.099 196.265C331.426 196.718 331.556 197.263 331.488 197.899C331.391 198.812 331.034 199.487 330.419 199.926C329.816 200.355 329.084 200.524 328.225 200.432L324.248 200.008ZM328.908 191.156L326.505 190.9L326.141 194.321L328.416 194.563C328.851 194.61 329.247 194.469 329.603 194.143C329.971 193.806 330.183 193.379 330.239 192.859C330.287 192.403 330.184 192.016 329.928 191.699C329.683 191.384 329.342 191.203 328.908 191.156ZM328.301 195.645L326.026 195.403L325.637 199.046L328.056 199.304C328.289 199.329 328.525 199.327 328.764 199.299C329.004 199.26 329.221 199.187 329.415 199.079C329.61 198.96 329.773 198.795 329.902 198.583C330.044 198.362 330.133 198.082 330.169 197.743C330.237 197.106 330.08 196.612 329.699 196.261C329.318 195.909 328.852 195.704 328.301 195.645ZM341.849 194.981L340.614 195.396C340.574 194.459 340.324 193.692 339.862 193.095C339.41 192.5 338.824 192.164 338.102 192.087C337.243 191.996 336.508 192.298 335.898 192.995C335.288 193.681 334.919 194.629 334.791 195.838C334.724 196.464 334.732 197.044 334.814 197.578C334.898 198.102 335.047 198.563 335.262 198.961C335.478 199.349 335.751 199.662 336.079 199.901C336.418 200.141 336.8 200.284 337.224 200.329C337.914 200.402 338.534 200.222 339.084 199.787C339.645 199.353 340.044 198.731 340.281 197.919L341.315 198.785C340.946 199.733 340.381 200.456 339.62 200.954C338.87 201.443 338.029 201.637 337.096 201.538C336.47 201.471 335.916 201.284 335.434 200.975C334.953 200.655 334.557 200.243 334.246 199.738C333.937 199.222 333.716 198.625 333.584 197.946C333.454 197.256 333.432 196.508 333.518 195.702C333.601 194.917 333.778 194.212 334.049 193.586C334.32 192.95 334.661 192.423 335.07 192.006C335.479 191.588 335.952 191.279 336.488 191.079C337.024 190.878 337.605 190.812 338.231 190.878C339.239 190.986 340.062 191.411 340.702 192.155C341.353 192.89 341.735 193.831 341.849 194.981ZM346.523 191.826C347.245 191.903 347.901 192.08 348.494 192.358C349.087 192.635 349.583 193.01 349.983 193.482C350.384 193.954 350.672 194.521 350.848 195.183C351.035 195.847 351.083 196.597 350.994 197.435C350.894 198.379 350.685 199.183 350.367 199.846C350.05 200.51 349.645 201.041 349.152 201.439C348.669 201.838 348.109 202.116 347.47 202.273C346.832 202.42 346.142 202.453 345.4 202.374C345.039 202.336 344.669 202.286 344.289 202.224C343.919 202.174 343.572 202.11 343.248 202.032L344.349 191.691C344.693 191.685 345.051 191.696 345.424 191.725C345.807 191.755 346.173 191.789 346.523 191.826ZM346.463 192.994C346.325 192.98 346.171 192.968 346 192.961C345.84 192.955 345.674 192.948 345.503 192.94L344.639 201.054C344.808 201.083 344.976 201.112 345.145 201.14C345.313 201.169 345.467 201.191 345.604 201.205C346.305 201.28 346.9 201.231 347.39 201.058C347.892 200.875 348.302 200.608 348.618 200.255C348.945 199.904 349.194 199.48 349.365 198.983C349.537 198.476 349.654 197.936 349.715 197.363C349.772 196.822 349.752 196.305 349.655 195.812C349.558 195.308 349.375 194.86 349.106 194.467C348.848 194.074 348.496 193.747 348.052 193.485C347.619 193.225 347.089 193.061 346.463 192.994Z" fill="white"/>
<path d="M127.912 192.948L125.391 192.68L134.049 172.898L137.049 173.217L141.345 194.38L138.76 194.104L137.616 188.185L130.277 187.403L127.912 192.948ZM131.26 185.151L137.131 185.776L135.219 175.857L131.26 185.151Z" fill="white"/>
<path d="M146.565 194.936L148.746 174.463L157.042 175.347C158.68 175.522 159.99 176.15 160.972 177.231C161.978 178.294 162.397 179.612 162.229 181.187C162.061 182.762 161.519 184.01 160.604 184.932C159.69 185.833 158.676 186.362 157.562 186.519L161.307 196.506L158.339 196.19L154.802 186.384L150.111 185.885L149.118 195.208L146.565 194.936ZM155.709 177.562L151.051 177.066L150.36 183.554L155.975 184.152C156.826 184.243 157.605 183.997 158.313 183.414C159.044 182.812 159.461 182.028 159.564 181.063C159.667 180.097 159.352 179.309 158.621 178.701C157.892 178.071 156.922 177.691 155.709 177.562Z" fill="white"/>
<path d="M165.698 196.974L167.879 176.501L176.175 177.385C177.812 177.56 179.122 178.188 180.104 179.269C181.11 180.332 181.529 181.651 181.361 183.225C181.193 184.8 180.651 186.049 179.736 186.97C178.822 187.871 177.809 188.4 176.695 188.558L180.439 198.544L177.471 198.228L173.934 188.423L169.243 187.923L168.25 197.246L165.698 196.974ZM174.841 179.6L170.183 179.104L169.492 185.592L175.107 186.191C175.958 186.281 176.737 186.035 177.445 185.452C178.176 184.85 178.593 184.067 178.696 183.101C178.799 182.135 178.485 181.348 177.753 180.739C177.025 180.109 176.054 179.73 174.841 179.6Z" fill="white"/>
<path d="M197.713 198.027L197.465 200.358L184.064 198.93L184.312 196.6L189.737 197.178L191.421 181.367L185.997 180.789L186.245 178.458L199.646 179.886L199.398 182.216L193.974 181.639L192.289 197.45L197.713 198.027Z" fill="white"/>
<path d="M211.939 201.9L207.727 201.451L203.973 180.347L206.749 180.642L210.137 199.733L217.47 181.785L220.118 182.067L211.939 201.9Z" fill="white"/>
<path d="M236.52 202.162L236.272 204.492L223.349 203.116L225.53 182.643L238.325 184.006L238.077 186.337L227.835 185.246L227.174 191.451L235.119 192.297L234.87 194.628L226.925 193.781L226.15 201.057L236.52 202.162Z" fill="white"/>
<path d="M248.799 184.931C250.245 185.085 251.563 185.438 252.752 185.989C253.941 186.541 254.937 187.284 255.741 188.219C256.545 189.154 257.125 190.277 257.48 191.589C257.856 192.904 257.956 194.39 257.779 196.049C257.58 197.918 257.163 199.508 256.529 200.821C255.894 202.134 255.083 203.184 254.096 203.97C253.129 204.759 252.006 205.309 250.725 205.618C249.447 205.907 248.063 205.971 246.574 205.813C245.851 205.736 245.109 205.635 244.347 205.512C243.605 205.412 242.909 205.284 242.258 205.13L244.439 184.658C245.129 184.646 245.847 184.67 246.594 184.728C247.362 184.789 248.097 184.856 248.799 184.931ZM248.681 187.244C248.405 187.214 248.095 187.192 247.753 187.177C247.431 187.164 247.099 187.15 246.757 187.134L245.046 203.197C245.384 203.255 245.722 203.312 246.06 203.369C246.398 203.426 246.705 203.47 246.982 203.499C248.386 203.649 249.579 203.553 250.562 203.212C251.569 202.852 252.389 202.323 253.022 201.626C253.677 200.931 254.175 200.093 254.517 199.11C254.86 198.106 255.092 197.037 255.213 195.903C255.327 194.832 255.286 193.808 255.089 192.832C254.894 191.834 254.526 190.946 253.985 190.166C253.465 189.389 252.76 188.74 251.869 188.22C250.999 187.703 249.936 187.378 248.681 187.244Z" fill="white"/>
<path d="M123.563 222.878C122.767 222.793 122.053 222.549 121.421 222.145C120.802 221.743 120.291 221.213 119.887 220.553C119.483 219.894 119.198 219.128 119.032 218.256C118.868 217.369 118.841 216.407 118.952 215.368C119.062 214.329 119.291 213.394 119.639 212.562C119.987 211.717 120.429 211.015 120.963 210.455C121.497 209.895 122.108 209.484 122.797 209.222C123.501 208.96 124.25 208.872 125.046 208.957C125.842 209.042 126.549 209.285 127.168 209.687C127.8 210.091 128.319 210.622 128.723 211.282C129.127 211.941 129.41 212.721 129.573 213.621C129.737 214.507 129.764 215.469 129.653 216.508C129.543 217.547 129.314 218.482 128.966 219.314C128.621 220.132 128.181 220.82 127.647 221.38C127.113 221.939 126.494 222.35 125.791 222.611C125.102 222.874 124.359 222.963 123.563 222.878ZM120.678 215.552C120.615 216.148 120.598 216.713 120.627 217.249C120.672 217.772 120.757 218.257 120.882 218.705L127.096 211.781C126.82 211.401 126.493 211.093 126.116 210.857C125.753 210.622 125.344 210.48 124.889 210.432C123.795 210.315 122.86 210.727 122.084 211.667C121.323 212.609 120.854 213.904 120.678 215.552ZM123.72 221.403C124.26 221.46 124.765 221.381 125.233 221.165C125.716 220.95 126.139 220.624 126.502 220.186C126.866 219.735 127.169 219.185 127.41 218.539C127.668 217.88 127.84 217.142 127.927 216.324C127.989 215.742 128.004 215.198 127.971 214.69C127.941 214.168 127.862 213.691 127.736 213.257L121.569 220.144C121.834 220.494 122.148 220.78 122.513 221.001C122.877 221.222 123.28 221.356 123.72 221.403Z" fill="white"/>
<path d="M136.346 224.24C134.74 224.069 133.492 223.572 132.602 222.748C131.713 221.925 131.332 220.911 131.46 219.706C131.545 218.916 131.832 218.246 132.321 217.696C132.811 217.146 133.457 216.752 134.258 216.515C133.635 216.155 133.166 215.706 132.849 215.168C132.535 214.616 132.413 214 132.486 213.322C132.599 212.255 133.145 211.452 134.122 210.911C135.101 210.357 136.344 210.16 137.85 210.321C139.343 210.48 140.509 210.933 141.349 211.681C142.191 212.415 142.555 213.316 142.441 214.382C142.369 215.061 142.121 215.637 141.697 216.11C141.274 216.569 140.713 216.909 140.014 217.129C140.748 217.529 141.296 218.05 141.659 218.691C142.036 219.333 142.183 220.049 142.098 220.839C141.97 222.044 141.377 222.955 140.32 223.57C139.277 224.188 137.952 224.411 136.346 224.24ZM137.203 216.199C138.155 216.3 138.944 216.181 139.569 215.841C140.196 215.488 140.546 214.972 140.618 214.293C140.69 213.614 140.456 213.05 139.915 212.6C139.373 212.15 138.626 211.874 137.674 211.773C136.722 211.672 135.934 211.784 135.31 212.11C134.686 212.435 134.338 212.938 134.265 213.616C134.193 214.295 134.426 214.873 134.964 215.351C135.504 215.815 136.25 216.097 137.203 216.199ZM136.501 222.785C137.567 222.899 138.445 222.754 139.134 222.351C139.84 221.936 140.235 221.334 140.319 220.544C140.406 219.727 140.149 219.034 139.548 218.466C138.962 217.899 138.136 217.559 137.07 217.445C136.004 217.332 135.118 217.49 134.411 217.919C133.718 218.349 133.328 218.973 133.241 219.79C133.157 220.58 133.409 221.251 133.997 221.804C134.6 222.345 135.435 222.672 136.501 222.785Z" fill="white"/>
<path d="M159.077 226.451L160.516 212.946L169.917 213.947L169.754 215.485L162.058 214.665L161.571 219.236L166.666 219.779L166.502 221.316L161.407 220.774L160.783 226.633L159.077 226.451Z" fill="white"/>
<path d="M179.72 227.095L179.556 228.633L170.922 227.713L172.361 214.207L180.909 215.118L180.746 216.656L173.902 215.927L173.466 220.02L178.775 220.585L178.611 222.123L173.303 221.558L172.791 226.357L179.72 227.095Z" fill="white"/>
<path d="M183.662 229.07L185.101 215.565L190.367 216.126C191.305 216.226 192.074 216.623 192.676 217.317C193.293 217.999 193.549 218.839 193.442 219.837C193.361 220.598 193.107 221.23 192.68 221.731C192.253 222.232 191.761 222.599 191.204 222.834C191.846 223.155 192.386 223.612 192.826 224.205C193.266 224.798 193.442 225.51 193.353 226.341C193.226 227.533 192.752 228.414 191.929 228.984C191.122 229.543 190.143 229.761 188.992 229.638L183.662 229.07ZM189.873 217.523L186.654 217.18L186.178 221.647L189.226 221.972C189.809 222.034 190.339 221.852 190.815 221.427C191.307 220.989 191.59 220.431 191.662 219.752C191.725 219.156 191.585 218.651 191.241 218.236C190.912 217.823 190.455 217.585 189.873 217.523ZM189.076 223.385L186.027 223.06L185.52 227.818L188.761 228.164C189.073 228.197 189.39 228.196 189.71 228.16C190.031 228.11 190.322 228.015 190.581 227.874C190.842 227.72 191.059 227.505 191.232 227.229C191.421 226.941 191.539 226.575 191.586 226.132C191.675 225.301 191.463 224.655 190.952 224.194C190.44 223.733 189.815 223.464 189.076 223.385Z" fill="white"/>
<path d="M218.288 232.759L208.396 231.705C208.48 230.916 208.668 230.235 208.959 229.664C209.25 229.093 209.603 228.605 210.02 228.201C210.438 227.783 210.9 227.426 211.406 227.13C211.928 226.821 212.453 226.548 212.981 226.31C213.496 226.071 213.994 225.843 214.477 225.629C214.974 225.416 215.416 225.182 215.802 224.929C216.202 224.678 216.528 224.39 216.778 224.067C217.042 223.745 217.199 223.355 217.247 222.898C217.293 222.468 217.24 222.092 217.087 221.767C216.935 221.443 216.727 221.168 216.464 220.944C216.214 220.721 215.923 220.55 215.591 220.431C215.273 220.313 214.965 220.238 214.666 220.206C213.743 220.108 212.937 220.316 212.25 220.832C211.578 221.334 211.2 221.987 211.114 222.791L209.472 222.616C209.536 222.02 209.718 221.458 210.019 220.93C210.321 220.388 210.707 219.932 211.178 219.562C211.664 219.179 212.226 218.896 212.864 218.711C213.503 218.513 214.199 218.454 214.952 218.535C215.535 218.597 216.086 218.754 216.606 219.005C217.125 219.256 217.565 219.577 217.926 219.965C218.301 220.355 218.583 220.813 218.772 221.337C218.962 221.848 219.025 222.401 218.962 222.996C218.895 223.62 218.723 224.155 218.446 224.602C218.182 225.05 217.846 225.441 217.437 225.776C217.043 226.098 216.596 226.38 216.096 226.621C215.61 226.863 215.111 227.097 214.598 227.323C213.738 227.707 212.918 228.117 212.139 228.553C211.359 228.988 210.799 229.594 210.457 230.37L218.452 231.222L218.288 232.759Z" fill="white"/>
<path d="M225.826 233.772C225.03 233.688 224.316 233.443 223.683 233.04C223.065 232.638 222.553 232.107 222.149 231.447C221.745 230.788 221.46 230.022 221.295 229.15C221.13 228.264 221.103 227.301 221.214 226.262C221.325 225.224 221.554 224.288 221.901 223.457C222.25 222.611 222.691 221.909 223.225 221.349C223.759 220.79 224.371 220.379 225.06 220.116C225.763 219.855 226.513 219.766 227.309 219.851C228.105 219.936 228.812 220.179 229.43 220.581C230.063 220.985 230.581 221.517 230.985 222.176C231.389 222.835 231.673 223.615 231.836 224.515C232 225.401 232.027 226.364 231.916 227.403C231.805 228.441 231.576 229.377 231.229 230.208C230.883 231.026 230.443 231.715 229.909 232.274C229.375 232.834 228.757 233.244 228.053 233.505C227.364 233.768 226.622 233.857 225.826 233.772ZM222.941 226.446C222.877 227.042 222.86 227.608 222.889 228.143C222.934 228.666 223.019 229.151 223.144 229.599L229.358 222.675C229.082 222.295 228.756 221.988 228.378 221.751C228.015 221.516 227.606 221.375 227.152 221.326C226.057 221.21 225.122 221.621 224.347 222.561C223.585 223.503 223.116 224.798 222.941 226.446ZM225.983 232.297C226.523 232.355 227.027 232.275 227.496 232.059C227.979 231.844 228.402 231.518 228.764 231.08C229.129 230.629 229.432 230.08 229.673 229.433C229.93 228.774 230.102 228.036 230.189 227.219C230.251 226.637 230.266 226.092 230.234 225.584C230.203 225.063 230.125 224.585 229.999 224.151L223.832 231.038C224.096 231.389 224.411 231.674 224.775 231.895C225.14 232.116 225.542 232.25 225.983 232.297Z" fill="white"/>
<path d="M243.854 235.483L233.962 234.429C234.046 233.639 234.233 232.959 234.524 232.387C234.815 231.816 235.169 231.328 235.586 230.925C236.004 230.507 236.466 230.15 236.972 229.853C237.494 229.545 238.019 229.271 238.547 229.034C239.061 228.794 239.56 228.567 240.043 228.352C240.54 228.139 240.981 227.906 241.368 227.653C241.768 227.401 242.093 227.114 242.343 226.79C242.608 226.468 242.764 226.079 242.813 225.621C242.859 225.192 242.805 224.815 242.653 224.491C242.501 224.166 242.293 223.892 242.029 223.668C241.78 223.445 241.489 223.274 241.157 223.155C240.839 223.037 240.531 222.962 240.232 222.93C239.308 222.832 238.503 223.04 237.815 223.555C237.144 224.058 236.765 224.711 236.68 225.514L235.038 225.34C235.101 224.744 235.284 224.182 235.584 223.654C235.886 223.111 236.273 222.655 236.743 222.285C237.23 221.903 237.792 221.619 238.429 221.435C239.069 221.237 239.765 221.178 240.518 221.258C241.101 221.32 241.652 221.477 242.171 221.729C242.691 221.98 243.131 222.3 243.492 222.689C243.867 223.079 244.149 223.536 244.337 224.061C244.527 224.571 244.591 225.124 244.527 225.72C244.461 226.343 244.289 226.878 244.011 227.325C243.748 227.773 243.412 228.165 243.002 228.5C242.608 228.822 242.162 229.103 241.662 229.344C241.176 229.587 240.677 229.821 240.164 230.046C239.304 230.431 238.484 230.841 237.704 231.276C236.925 231.712 236.364 232.317 236.023 233.094L244.018 233.945L243.854 235.483Z" fill="white"/>
<path d="M257.61 235.393L257.447 236.931L246.212 235.734L246.376 234.196L251.577 234.751L252.664 224.549L249 226.155L247.99 224.912L252.852 222.782L254.558 222.964L253.283 234.932L257.61 235.393Z" fill="white"/>
<path d="M60.701 249.729L55.4494 249.17L52.8506 234.079L50.2071 258.893L46.9721 258.548L49.8454 231.577L55.7693 232.208L58.4234 247.178L64.1298 233.099L70.0117 233.725L67.1384 260.696L63.9034 260.352L66.5291 235.704L60.701 249.729Z" fill="white"/>
<path d="M91.3965 260.175L91.0694 263.246L73.4239 261.366L73.751 258.295L80.8932 259.056L83.1123 238.226L75.9701 237.465L76.2972 234.395L93.9427 236.275L93.6155 239.345L86.4733 238.584L84.2543 259.414L91.3965 260.175Z" fill="white"/>
<path d="M111.051 265.374L104.182 239.715L101.556 264.363L98.3212 264.018L101.195 237.047L107.244 237.692L113.713 261.923L116.193 238.645L119.428 238.99L116.555 265.961L111.051 265.374Z" fill="white"/>
<path d="M136.243 268.058L129.373 242.399L126.748 267.047L123.513 266.702L126.386 239.731L132.436 240.375L138.905 264.607L141.385 241.329L144.62 241.673L141.746 268.644L136.243 268.058Z" fill="white"/>
<path d="M167.685 268.302L167.358 271.373L150.342 269.56L153.216 242.589L170.063 244.384L169.736 247.454L156.25 246.018L155.379 254.192L165.84 255.307L165.513 258.377L155.052 257.263L154.031 266.848L167.685 268.302Z" fill="white"/>
<path d="M175.828 272.275L172.509 271.922L183.911 245.859L187.86 246.28L193.515 274.16L190.112 273.797L188.606 265.999L178.943 264.97L175.828 272.275ZM180.237 262.002L187.967 262.825L185.45 249.758L180.237 262.002Z" fill="white"/>
<path d="M200.641 274.919L203.515 247.948L214.606 249.129C216.791 249.362 218.493 250.271 219.712 251.855C220.934 253.412 221.43 255.27 221.2 257.427C221.062 258.727 220.728 259.867 220.199 260.846C219.672 261.797 219.022 262.581 218.248 263.198C217.475 263.815 216.606 264.254 215.644 264.515C214.709 264.779 213.766 264.86 212.813 264.759L205.209 263.949L204.002 275.277L200.641 274.919ZM213.523 252.119L206.548 251.376L205.536 260.878L212.468 261.617C213.729 261.751 214.871 261.397 215.896 260.555C216.951 259.688 217.55 258.591 217.691 257.263C217.838 255.88 217.524 254.714 216.747 253.764C215.97 252.814 214.895 252.265 213.523 252.119Z" fill="white"/>
<path d="M233.351 278.823C231.782 278.656 230.375 278.17 229.13 277.366C227.912 276.565 226.906 275.507 226.111 274.191C225.316 272.875 224.757 271.347 224.433 269.606C224.111 267.837 224.061 265.915 224.282 263.841C224.503 261.766 224.957 259.898 225.644 258.236C226.334 256.547 227.205 255.144 228.259 254.025C229.313 252.906 230.52 252.084 231.879 251.557C233.266 251.033 234.744 250.855 236.312 251.022C237.881 251.189 239.274 251.673 240.492 252.474C241.737 253.279 242.758 254.338 243.552 255.654C244.347 256.97 244.903 258.526 245.222 260.322C245.543 262.091 245.593 264.013 245.372 266.087C245.151 268.162 244.698 270.03 244.011 271.692C243.327 273.325 242.458 274.701 241.404 275.82C240.35 276.939 239.129 277.76 237.742 278.284C236.383 278.81 234.919 278.99 233.351 278.823ZM233.687 275.669C235.787 275.893 237.587 275.092 239.084 273.265C240.585 271.41 241.504 268.893 241.843 265.711C242.185 262.503 241.818 259.834 240.742 257.705C239.666 255.576 238.077 254.399 235.977 254.176C233.876 253.952 232.075 254.767 230.575 256.622C229.074 258.476 228.153 261.008 227.811 264.217C227.472 267.398 227.841 270.053 228.917 272.182C229.996 274.283 231.586 275.446 233.687 275.669Z" fill="white"/>
<path d="M269.081 279.104L268.754 282.175L251.906 280.38L254.78 253.409L258.141 253.767L255.594 277.668L269.081 279.104Z" fill="white"/>
<path d="M292.928 281.645L292.6 284.715L274.955 282.836L275.282 279.765L282.424 280.526L284.643 259.696L277.501 258.935L277.828 255.864L295.474 257.744L295.147 260.815L288.004 260.054L285.785 280.884L292.928 281.645Z" fill="white"/>
<path d="M298.82 282.818L301.473 280.247C302.39 281.212 303.567 281.995 305.004 282.596C306.473 283.172 308.061 283.551 309.769 283.733C311.702 283.939 313.299 283.703 314.561 283.026C315.823 282.349 316.528 281.319 316.675 279.936C316.825 278.525 316.275 277.446 315.023 276.697C313.802 275.923 311.861 275.003 309.199 273.936C306.536 272.869 304.533 271.732 303.188 270.526C301.844 269.32 301.287 267.638 301.516 265.48C301.646 264.263 302.013 263.211 302.617 262.324C303.25 261.44 304.047 260.742 305.008 260.229C305.972 259.688 307.058 259.328 308.267 259.149C309.507 258.945 310.799 258.915 312.143 259.059C313.516 259.205 314.939 259.538 316.413 260.059C317.89 260.552 319.336 261.475 320.749 262.829L318.421 265.141C317.42 264.167 316.323 263.434 315.128 262.944C313.937 262.425 312.698 262.097 311.409 261.96C309.617 261.769 308.108 261.972 306.883 262.569C305.686 263.169 305.012 264.174 304.862 265.585C304.712 266.996 305.178 268.066 306.262 268.797C307.373 269.531 308.947 270.314 310.983 271.147C312.124 271.604 313.276 272.09 314.439 272.606C315.602 273.122 316.629 273.721 317.519 274.403C318.41 275.085 319.119 275.874 319.647 276.77C320.174 277.665 320.375 278.708 320.248 279.897C320.092 281.363 319.664 282.591 318.964 283.579C318.294 284.543 317.45 285.292 316.43 285.827C315.41 286.362 314.239 286.713 312.918 286.88C311.629 287.022 310.283 287.019 308.883 286.87C307.034 286.673 305.208 286.268 303.404 285.656C301.602 285.017 300.074 284.071 298.82 282.818Z" fill="white"/>
<path d="M26.7099 274.569L25.2445 274.413L24.5409 270L23.7667 277.266L22.8641 277.17L23.7055 269.271L25.3585 269.448L26.0777 273.825L27.6914 269.696L29.3326 269.871L28.4912 277.769L27.5885 277.673L28.3574 270.455L26.7099 274.569Z" fill="white"/>
<path d="M35.2646 277.581L35.1688 278.481L30.2451 277.956L30.3409 277.057L32.3338 277.269L32.9837 271.169L30.9907 270.957L31.0865 270.058L36.0102 270.582L35.9144 271.482L33.9215 271.269L33.2717 277.369L35.2646 277.581Z" fill="white"/>
<path d="M40.7445 279.075L38.864 271.575L38.095 278.792L37.1923 278.696L38.0338 270.798L39.7219 270.978L41.4927 278.061L42.2189 271.244L43.1216 271.34L42.2802 279.238L40.7445 279.075Z" fill="white"/>
<path d="M47.7738 279.823L45.8933 272.323L45.1243 279.541L44.2217 279.445L45.0631 271.547L46.7512 271.727L48.522 278.809L49.2483 271.993L50.1509 272.089L49.3095 279.987L47.7738 279.823Z" fill="white"/>
<path d="M56.5519 279.849L56.4561 280.748L51.7082 280.243L52.5496 272.344L57.2506 272.845L57.1548 273.744L53.3917 273.343L53.1367 275.737L56.0557 276.048L55.9599 276.947L53.0409 276.636L52.7418 279.443L56.5519 279.849Z" fill="white"/>
<path d="M58.8196 281L57.8934 280.902L61.1147 273.257L62.2167 273.374L63.755 281.526L62.8055 281.425L62.3963 279.145L59.6999 278.857L58.8196 281ZM60.0654 277.987L62.2224 278.217L61.5387 274.396L60.0654 277.987Z" fill="white"/>
<path d="M65.7434 281.738L66.5848 273.84L69.6797 274.169C70.2893 274.234 70.7632 274.498 71.1013 274.96C71.4402 275.414 71.576 275.957 71.5087 276.588C71.4681 276.969 71.3733 277.303 71.2241 277.59C71.0758 277.87 70.8932 278.1 70.6762 278.282C70.4593 278.463 70.2162 278.593 69.9471 278.671C69.6858 278.75 69.4223 278.775 69.1565 278.747L67.0346 278.52L66.6812 281.838L65.7434 281.738ZM69.3729 275.046L67.4269 274.839L67.1304 277.621L69.0648 277.827C69.4165 277.865 69.7359 277.76 70.0232 277.512C70.3191 277.256 70.4878 276.934 70.5292 276.546C70.5724 276.14 70.4862 275.799 70.2706 275.523C70.0551 275.246 69.7559 275.087 69.3729 275.046Z" fill="white"/>
<path d="M74.8699 282.833C74.4323 282.786 74.0401 282.646 73.6935 282.413C73.3547 282.18 73.0754 281.872 72.8554 281.488C72.6355 281.104 72.4815 280.657 72.3935 280.148C72.3063 279.631 72.2951 279.069 72.3598 278.461C72.4245 277.853 72.554 277.306 72.7482 276.819C72.9432 276.323 73.1887 275.911 73.4845 275.582C73.7804 275.253 74.1185 275.011 74.4987 274.855C74.8867 274.699 75.2996 274.645 75.7373 274.692C76.1749 274.738 76.5632 274.878 76.902 275.111C77.2486 275.344 77.5318 275.653 77.7518 276.037C77.9717 276.421 78.1248 276.875 78.2112 277.401C78.2983 277.918 78.3095 278.48 78.2448 279.088C78.1801 279.696 78.0506 280.243 77.8565 280.73C77.6631 281.209 77.4185 281.613 77.1226 281.942C76.8268 282.271 76.4848 282.513 76.0968 282.669C75.7165 282.825 75.3076 282.88 74.8699 282.833ZM74.9683 281.909C75.5545 281.972 76.058 281.735 76.4787 281.198C76.9004 280.653 77.1608 279.915 77.2601 278.983C77.3602 278.043 77.2615 277.263 76.9642 276.641C76.6668 276.02 76.225 275.678 75.6389 275.615C75.0527 275.553 74.5488 275.794 74.1272 276.339C73.7055 276.884 73.4446 277.626 73.3445 278.566C73.2453 279.498 73.3444 280.274 73.6417 280.896C73.94 281.509 74.3822 281.847 74.9683 281.909Z" fill="white"/>
<path d="M84.845 282.863L84.7492 283.763L80.0482 283.262L80.8896 275.363L81.8275 275.463L81.0819 282.462L84.845 282.863Z" fill="white"/>
<path d="M91.4992 283.572L91.4034 284.471L86.4797 283.947L86.5755 283.048L88.5684 283.26L89.2182 277.16L87.2253 276.948L87.3211 276.049L92.2448 276.573L92.149 277.472L90.1561 277.26L89.5063 283.36L91.4992 283.572Z" fill="white"/>
<path d="M93.1425 283.907L93.887 283.151C94.1416 283.432 94.4691 283.659 94.8695 283.833C95.2786 283.999 95.7215 284.108 96.1983 284.159C96.7375 284.216 97.1838 284.145 97.5371 283.945C97.8903 283.745 98.0886 283.443 98.1317 283.038C98.1757 282.625 98.0236 282.309 97.6752 282.092C97.3356 281.867 96.7949 281.601 96.0531 281.292C95.3114 280.984 94.7537 280.654 94.3801 280.303C94.0065 279.952 93.8533 279.46 93.9206 278.829C93.9586 278.472 94.0626 278.164 94.2326 277.903C94.4105 277.644 94.6339 277.438 94.903 277.286C95.1729 277.127 95.4768 277.02 95.8145 276.966C96.1609 276.904 96.5217 276.894 96.8969 276.934C97.2798 276.974 97.6767 277.07 98.0875 277.22C98.4992 277.362 98.9014 277.631 99.2941 278.025L98.6407 278.705C98.3627 278.421 98.0573 278.208 97.7247 278.066C97.3929 277.916 97.0472 277.822 96.6877 277.784C96.1875 277.731 95.766 277.792 95.4231 277.969C95.0881 278.146 94.8985 278.441 94.8545 278.854C94.8105 279.267 94.9392 279.58 95.2407 279.793C95.5499 280.006 95.9882 280.233 96.5553 280.473C96.8732 280.606 97.1942 280.746 97.5181 280.895C97.8421 281.045 98.1279 281.218 98.3755 281.417C98.6231 281.615 98.8199 281.845 98.966 282.107C99.112 282.368 99.1665 282.673 99.1294 283.021C99.0837 283.45 98.9623 283.81 98.7654 284.101C98.5772 284.384 98.3403 284.604 98.0547 284.762C97.7691 284.92 97.4418 285.025 97.0728 285.075C96.7125 285.119 96.337 285.12 95.9462 285.078C95.4304 285.023 94.921 284.908 94.4181 284.731C93.9161 284.547 93.4909 284.272 93.1425 283.907Z" fill="white"/>
<path d="M101.162 282.93L101.265 281.958L105.486 282.408L105.382 283.38L101.162 282.93Z" fill="white"/>
<path d="M112.962 285.859L112.867 286.758L108.166 286.257L109.007 278.359L109.945 278.459L109.199 285.458L112.962 285.859Z" fill="white"/>
<path d="M117.046 287.326C116.608 287.279 116.216 287.139 115.869 286.906C115.531 286.673 115.251 286.365 115.031 285.981C114.811 285.597 114.657 285.15 114.569 284.641C114.482 284.124 114.471 283.562 114.536 282.954C114.6 282.347 114.73 281.799 114.924 281.312C115.119 280.817 115.365 280.404 115.66 280.075C115.956 279.746 116.294 279.504 116.675 279.348C117.063 279.193 117.476 279.138 117.913 279.185C118.351 279.231 118.739 279.371 119.078 279.604C119.425 279.837 119.708 280.146 119.928 280.53C120.148 280.914 120.301 281.369 120.387 281.894C120.474 282.411 120.485 282.974 120.421 283.581C120.356 284.189 120.227 284.736 120.032 285.223C119.839 285.702 119.594 286.107 119.299 286.435C119.003 286.764 118.661 287.007 118.273 287.162C117.892 287.318 117.484 287.373 117.046 287.326ZM117.144 286.403C117.73 286.465 118.234 286.228 118.655 285.691C119.076 285.146 119.337 284.408 119.436 283.476C119.536 282.536 119.437 281.756 119.14 281.134C118.843 280.513 118.401 280.171 117.815 280.108C117.229 280.046 116.725 280.287 116.303 280.832C115.881 281.377 115.621 282.119 115.52 283.059C115.421 283.991 115.52 284.767 115.818 285.389C116.116 286.002 116.558 286.34 117.144 286.403Z" fill="white"/>
<path d="M121.26 286.902L122.004 286.146C122.259 286.427 122.586 286.655 122.987 286.828C123.396 286.995 123.839 287.104 124.316 287.154C124.855 287.212 125.301 287.141 125.654 286.941C126.008 286.741 126.206 286.438 126.249 286.033C126.293 285.62 126.141 285.305 125.793 285.087C125.453 284.863 124.912 284.596 124.17 284.288C123.429 283.979 122.871 283.65 122.497 283.298C122.124 282.947 121.971 282.456 122.038 281.824C122.076 281.468 122.18 281.159 122.35 280.899C122.528 280.639 122.751 280.433 123.02 280.282C123.29 280.122 123.594 280.015 123.932 279.961C124.278 279.9 124.639 279.889 125.014 279.929C125.397 279.97 125.794 280.065 126.205 280.216C126.616 280.358 127.019 280.626 127.411 281.02L126.758 281.7C126.48 281.416 126.175 281.204 125.842 281.062C125.51 280.912 125.165 280.818 124.805 280.779C124.305 280.726 123.883 280.788 123.54 280.964C123.205 281.141 123.016 281.437 122.972 281.85C122.928 282.263 123.057 282.576 123.358 282.788C123.667 283.001 124.105 283.228 124.673 283.469C124.991 283.601 125.311 283.742 125.635 283.891C125.959 284.04 126.245 284.214 126.493 284.412C126.74 284.611 126.937 284.841 127.083 285.102C127.229 285.363 127.284 285.668 127.247 286.016C127.201 286.446 127.08 286.806 126.883 287.096C126.694 287.379 126.458 287.6 126.172 287.758C125.886 287.916 125.559 288.02 125.19 288.071C124.83 288.114 124.454 288.115 124.063 288.074C123.548 288.019 123.038 287.903 122.535 287.727C122.033 287.542 121.608 287.267 121.26 286.902Z" fill="white"/>
<path d="M136.142 289.238L135.216 289.139L138.437 281.494L139.539 281.612L141.078 289.763L140.128 289.662L139.719 287.382L137.022 287.095L136.142 289.238ZM137.388 286.224L139.545 286.454L138.861 282.633L137.388 286.224Z" fill="white"/>
<path d="M146.184 290.307L144.304 282.807L143.535 290.025L142.632 289.929L143.474 282.031L145.162 282.211L146.933 289.293L147.659 282.477L148.561 282.573L147.72 290.471L146.184 290.307Z" fill="white"/>
<path d="M153.117 287.175L155.567 287.436L155.215 290.741C154.716 290.975 154.252 291.105 153.822 291.133C153.392 291.161 152.978 291.154 152.579 291.112C152.048 291.055 151.585 290.907 151.192 290.669C150.799 290.422 150.481 290.106 150.238 289.719C149.995 289.325 149.827 288.868 149.732 288.35C149.637 287.824 149.623 287.253 149.689 286.638C149.753 286.038 149.885 285.499 150.086 285.021C150.288 284.535 150.549 284.132 150.867 283.814C151.185 283.495 151.558 283.261 151.985 283.11C152.42 282.959 152.896 282.912 153.412 282.967C153.99 283.028 154.475 283.182 154.868 283.429C155.261 283.676 155.591 283.989 155.858 284.37L155.189 284.975C154.998 284.692 154.735 284.451 154.401 284.252C154.066 284.052 153.727 283.934 153.383 283.898C152.61 283.815 151.985 284.039 151.51 284.57C151.043 285.094 150.76 285.818 150.662 286.741C150.557 287.73 150.708 288.536 151.115 289.161C151.532 289.779 152.178 290.135 153.053 290.228C153.248 290.249 153.452 290.262 153.665 290.269C153.886 290.268 154.108 290.23 154.329 290.155L154.534 288.235L153.022 288.074L153.117 287.175Z" fill="white"/>
<path d="M161.992 291.082L161.896 291.981L157.148 291.475L157.989 283.577L162.69 284.078L162.595 284.977L158.832 284.576L158.577 286.97L161.496 287.281L161.4 288.18L158.481 287.869L158.182 290.676L161.992 291.082Z" fill="white"/>
<path d="M169.197 291.85L169.101 292.749L164.4 292.248L165.242 284.35L166.179 284.45L165.434 291.449L169.197 291.85Z" fill="white"/>
<path d="M176.05 292.58L175.955 293.479L171.207 292.973L172.048 285.075L176.749 285.576L176.653 286.475L172.89 286.074L172.635 288.468L175.554 288.779L175.458 289.678L172.539 289.367L172.24 292.174L176.05 292.58Z" fill="white"/>
<path d="M177.494 292.893L178.239 292.137C178.493 292.418 178.821 292.646 179.221 292.819C179.63 292.986 180.073 293.094 180.55 293.145C181.089 293.203 181.536 293.131 181.889 292.931C182.242 292.731 182.44 292.429 182.484 292.024C182.528 291.611 182.375 291.296 182.027 291.078C181.687 290.854 181.147 290.587 180.405 290.279C179.663 289.97 179.106 289.64 178.732 289.289C178.358 288.938 178.205 288.447 178.273 287.815C178.31 287.458 178.414 287.15 178.584 286.889C178.762 286.63 178.986 286.424 179.255 286.273C179.525 286.113 179.829 286.006 180.166 285.952C180.513 285.891 180.874 285.88 181.249 285.92C181.632 285.961 182.029 286.056 182.439 286.206C182.851 286.349 183.253 286.617 183.646 287.011L182.993 287.691C182.715 287.407 182.409 287.195 182.077 287.053C181.745 286.903 181.399 286.808 181.04 286.77C180.539 286.717 180.118 286.778 179.775 286.955C179.44 287.132 179.25 287.427 179.206 287.841C179.162 288.254 179.291 288.566 179.593 288.779C179.902 288.992 180.34 289.219 180.907 289.46C181.225 289.592 181.546 289.732 181.87 289.882C182.194 290.031 182.48 290.205 182.727 290.403C182.975 290.602 183.172 290.831 183.318 291.093C183.464 291.354 183.518 291.659 183.481 292.007C183.436 292.437 183.314 292.796 183.117 293.087C182.929 293.37 182.692 293.59 182.407 293.748C182.121 293.906 181.794 294.011 181.425 294.062C181.064 294.105 180.689 294.106 180.298 294.065C179.782 294.01 179.273 293.894 178.77 293.717C178.268 293.533 177.843 293.258 177.494 292.893Z" fill="white"/>
<path d="M194.694 291.727C194.624 292.383 194.616 292.98 194.669 293.519C194.731 294.05 194.833 294.54 194.975 294.989C195.117 295.438 195.294 295.855 195.506 296.238C195.725 296.63 195.954 297.002 196.193 297.355L195.504 297.921C195.218 297.571 194.947 297.178 194.694 296.741C194.447 296.313 194.236 295.844 194.061 295.334C193.894 294.825 193.775 294.271 193.704 293.674C193.634 293.068 193.637 292.417 193.711 291.721C193.785 291.024 193.92 290.391 194.115 289.822C194.31 289.245 194.544 288.725 194.814 288.262C195.093 287.8 195.398 287.386 195.729 287.02C196.069 286.647 196.416 286.319 196.77 286.037L197.324 286.735C197.016 287.03 196.718 287.343 196.43 287.672C196.143 287.994 195.88 288.351 195.64 288.743C195.409 289.137 195.208 289.578 195.037 290.068C194.874 290.558 194.76 291.111 194.694 291.727Z" fill="white"/>
<path d="M203.968 295.554L203.873 296.453L198.949 295.929L199.045 295.029L201.038 295.242L201.687 289.142L199.694 288.929L199.79 288.03L204.714 288.555L204.618 289.454L202.625 289.242L201.975 295.342L203.968 295.554Z" fill="white"/>
<path d="M209.448 297.047L207.568 289.547L206.799 296.765L205.896 296.669L206.738 288.77L208.426 288.95L210.196 296.033L210.923 289.216L211.825 289.312L210.984 297.211L209.448 297.047Z" fill="white"/>
<path d="M215 297.639L215.746 290.64L213.226 290.371L213.321 289.472L219.3 290.109L219.204 291.008L216.684 290.739L215.938 297.739L215 297.639Z" fill="white"/>
<path d="M225.256 297.822L225.16 298.721L220.412 298.215L221.253 290.317L225.954 290.818L225.859 291.717L222.095 291.316L221.84 293.71L224.759 294.021L224.664 294.92L221.745 294.609L221.446 297.416L225.256 297.822Z" fill="white"/>
<path d="M227.347 298.954L228.189 291.056L231.237 291.38C231.839 291.445 232.319 291.684 232.678 292.099C233.046 292.507 233.197 293.015 233.132 293.622C233.067 294.23 232.866 294.712 232.528 295.069C232.19 295.419 231.816 295.625 231.406 295.687L232.764 299.531L231.673 299.415L230.392 295.641L228.669 295.457L228.285 299.054L227.347 298.954ZM230.743 292.237L229.031 292.055L228.764 294.558L230.828 294.778C231.14 294.811 231.427 294.715 231.688 294.488C231.958 294.255 232.113 293.952 232.153 293.579C232.192 293.207 232.078 292.904 231.811 292.67C231.544 292.429 231.188 292.285 230.743 292.237Z" fill="white"/>
<path d="M237.566 300.043L235.685 292.542L234.916 299.76L234.013 299.664L234.855 291.766L236.543 291.946L238.314 299.029L239.04 292.212L239.943 292.308L239.101 300.206L237.566 300.043Z" fill="white"/>
<path d="M241.582 300.47L240.656 300.372L243.877 292.727L244.979 292.844L246.517 300.996L245.568 300.895L245.159 298.615L242.462 298.328L241.582 300.47ZM242.828 297.457L244.985 297.687L244.301 293.866L242.828 297.457Z" fill="white"/>
<path d="M250.147 301.383L250.893 294.384L248.372 294.115L248.468 293.216L254.447 293.853L254.351 294.752L251.831 294.484L251.085 301.483L250.147 301.383Z" fill="white"/>
<path d="M260.203 301.545L260.107 302.444L255.183 301.919L255.279 301.02L257.272 301.233L257.922 295.133L255.929 294.92L256.025 294.021L260.949 294.546L260.853 295.445L258.86 295.233L258.21 301.332L260.203 301.545Z" fill="white"/>
<path d="M264.662 303.052C264.224 303.005 263.832 302.865 263.485 302.632C263.146 302.399 262.867 302.091 262.647 301.707C262.427 301.323 262.273 300.876 262.185 300.367C262.098 299.85 262.087 299.288 262.152 298.68C262.216 298.073 262.346 297.525 262.54 297.038C262.735 296.542 262.98 296.13 263.276 295.801C263.572 295.472 263.91 295.23 264.29 295.074C264.678 294.918 265.091 294.864 265.529 294.911C265.967 294.957 266.355 295.097 266.694 295.33C267.04 295.563 267.324 295.872 267.544 296.256C267.763 296.64 267.917 297.094 268.003 297.62C268.09 298.137 268.101 298.699 268.037 299.307C267.972 299.915 267.842 300.462 267.648 300.949C267.455 301.428 267.21 301.832 266.914 302.161C266.619 302.49 266.277 302.733 265.888 302.888C265.508 303.044 265.099 303.099 264.662 303.052ZM264.76 302.129C265.346 302.191 265.85 301.954 266.27 301.417C266.692 300.872 266.953 300.134 267.052 299.202C267.152 298.262 267.053 297.482 266.756 296.86C266.459 296.239 266.017 295.897 265.431 295.834C264.844 295.772 264.341 296.013 263.919 296.558C263.497 297.103 263.236 297.845 263.136 298.785C263.037 299.717 263.136 300.493 263.433 301.115C263.732 301.728 264.174 302.066 264.76 302.129Z" fill="white"/>
<path d="M272.712 303.787L270.832 296.287L270.063 303.505L269.16 303.408L270.001 295.51L271.69 295.69L273.46 302.773L274.187 295.956L275.089 296.052L274.248 303.95L272.712 303.787Z" fill="white"/>
<path d="M281.666 303.831L281.57 304.73L276.869 304.23L277.711 296.331L278.649 296.431L277.903 303.43L281.666 303.831Z" fill="white"/>
<path d="M290.787 305.712L289.861 305.614L293.082 297.969L294.184 298.086L295.723 306.238L294.773 306.137L294.364 303.857L291.668 303.57L290.787 305.712ZM292.033 302.699L294.19 302.929L293.506 299.108L292.033 302.699Z" fill="white"/>
<path d="M302.379 306.038L302.283 306.937L297.359 306.413L297.455 305.513L299.448 305.726L300.098 299.626L298.105 299.413L298.201 298.514L303.125 299.039L303.029 299.938L301.036 299.726L300.386 305.826L302.379 306.038Z" fill="white"/>
<path d="M304.67 307.191L305.511 299.293L308.559 299.618C309.161 299.682 309.642 299.922 310.001 300.337C310.368 300.744 310.519 301.252 310.455 301.86C310.39 302.467 310.188 302.95 309.85 303.307C309.513 303.656 309.139 303.862 308.729 303.925L310.086 307.768L308.996 307.652L307.714 303.878L305.991 303.695L305.608 307.291L304.67 307.191ZM308.065 300.475L306.354 300.292L306.087 302.795L308.15 303.015C308.463 303.048 308.75 302.952 309.011 302.726C309.281 302.492 309.436 302.189 309.475 301.817C309.515 301.444 309.401 301.141 309.133 300.908C308.867 300.666 308.511 300.522 308.065 300.475Z" fill="white"/>
<path d="M311.77 307.948L312.611 300.049L315.706 300.379C316.316 300.444 316.789 300.708 317.128 301.17C317.467 301.624 317.602 302.166 317.535 302.798C317.494 303.179 317.4 303.513 317.25 303.8C317.102 304.079 316.92 304.31 316.703 304.492C316.486 304.673 316.243 304.803 315.973 304.881C315.712 304.96 315.449 304.985 315.183 304.956L313.061 304.73L312.708 308.048L311.77 307.948ZM315.399 301.256L313.453 301.049L313.157 303.831L315.091 304.037C315.443 304.075 315.762 303.969 316.049 303.721C316.345 303.466 316.514 303.144 316.556 302.755C316.599 302.35 316.512 302.009 316.297 301.732C316.081 301.456 315.782 301.297 315.399 301.256Z" fill="white"/>
<path d="M320.896 309.043C320.459 308.996 320.066 308.856 319.72 308.623C319.381 308.39 319.102 308.082 318.882 307.698C318.662 307.314 318.508 306.867 318.42 306.358C318.333 305.841 318.321 305.278 318.386 304.671C318.451 304.063 318.58 303.516 318.774 303.029C318.97 302.533 319.215 302.121 319.511 301.792C319.807 301.463 320.145 301.221 320.525 301.065C320.913 300.909 321.326 300.855 321.764 300.902C322.201 300.948 322.589 301.088 322.928 301.321C323.275 301.554 323.558 301.863 323.778 302.247C323.998 302.631 324.151 303.085 324.237 303.611C324.325 304.128 324.336 304.69 324.271 305.298C324.206 305.905 324.077 306.453 323.883 306.94C323.689 307.419 323.445 307.823 323.149 308.152C322.853 308.481 322.511 308.723 322.123 308.879C321.743 309.035 321.334 309.089 320.896 309.043ZM320.995 308.119C321.581 308.182 322.084 307.945 322.505 307.408C322.927 306.863 323.187 306.125 323.286 305.193C323.386 304.253 323.288 303.473 322.99 302.851C322.693 302.229 322.251 301.888 321.665 301.825C321.079 301.763 320.575 302.004 320.153 302.549C319.732 303.094 319.471 303.836 319.371 304.776C319.272 305.707 319.371 306.484 319.668 307.106C319.966 307.719 320.408 308.057 320.995 308.119Z" fill="white"/>
<path d="M325.758 309.438L326.599 301.54L329.647 301.864C330.249 301.928 330.73 302.168 331.088 302.583C331.456 302.991 331.607 303.499 331.543 304.106C331.478 304.714 331.276 305.196 330.938 305.553C330.6 305.902 330.227 306.108 329.817 306.171L331.174 310.015L330.084 309.899L328.802 306.125L327.079 305.941L326.696 309.538L325.758 309.438ZM329.153 302.721L327.442 302.539L327.175 305.042L329.238 305.262C329.551 305.295 329.838 305.199 330.099 304.972C330.369 304.739 330.524 304.436 330.563 304.063C330.603 303.691 330.489 303.388 330.221 303.154C329.955 302.913 329.599 302.769 329.153 302.721Z" fill="white"/>
<path d="M334.499 310.369L335.245 303.37L332.724 303.102L332.82 302.202L338.799 302.839L338.703 303.738L336.182 303.47L335.437 310.469L334.499 310.369Z" fill="white"/>
<path d="M342.459 307.616C342.528 306.96 342.532 306.367 342.47 305.836C342.417 305.297 342.319 304.804 342.178 304.354C342.036 303.905 341.855 303.488 341.635 303.105C341.424 302.713 341.199 302.341 340.96 301.988L341.648 301.422C341.935 301.772 342.201 302.165 342.447 302.601C342.702 303.03 342.913 303.499 343.08 304.008C343.255 304.518 343.377 305.076 343.447 305.682C343.518 306.279 343.516 306.926 343.442 307.623C343.368 308.319 343.233 308.956 343.037 309.534C342.842 310.103 342.605 310.618 342.327 311.08C342.056 311.543 341.751 311.957 341.412 312.322C341.079 312.696 340.736 313.024 340.382 313.306L339.828 312.608C340.136 312.313 340.434 312.001 340.722 311.671C341.01 311.349 341.269 310.992 341.501 310.599C341.74 310.207 341.941 309.765 342.104 309.274C342.275 308.785 342.393 308.232 342.459 307.616Z" fill="white"/>
<path d="M64.6718 194.085L63.8915 201.409C63.8539 201.762 64.0059 202.108 64.291 202.319L73.1541 208.879C74.6813 210.134 74.4248 212.252 72.8851 211.405L64.7164 206.825C64.0902 206.474 63.309 206.877 63.233 207.591L62.5587 213.92C62.5234 214.251 62.6553 214.578 62.9104 214.792L65.1184 216.645C66.0288 217.54 64.6667 219.311 63.2758 218.204L61.4738 216.873C61.3308 216.768 61.1623 216.702 60.9855 216.683L59.6568 216.542C59.5089 216.526 59.3593 216.543 59.219 216.593L56.6454 217.498C55.4347 217.848 54.9062 216.514 56.1674 215.691L58.2925 214.303C58.5439 214.139 58.7083 213.871 58.7401 213.572L59.406 207.321C59.4815 206.613 58.8136 206.055 58.1302 206.255L49.1816 208.88C47.7556 209.305 48.2437 207.165 49.417 206.67L59.5164 201.814C59.8285 201.664 60.0407 201.363 60.0774 201.019L60.8593 193.679C61.0779 191.627 64.9072 191.875 64.6718 194.085Z" fill="white"/>
<path d="M319.231 221.204L318.451 228.528C318.414 228.881 318.566 229.227 318.851 229.438L327.714 235.998C329.241 237.253 328.984 239.371 327.445 238.524L319.276 233.944C318.65 233.592 317.869 233.996 317.793 234.71L317.118 241.039C317.083 241.37 317.215 241.697 317.47 241.911L319.678 243.763C320.588 244.659 319.226 246.43 317.835 245.323L316.033 243.992C315.89 243.887 315.722 243.821 315.545 243.802L314.216 243.661C314.068 243.645 313.919 243.662 313.779 243.712L311.205 244.617C309.994 244.967 309.466 243.633 310.727 242.81L312.852 241.422C313.103 241.258 313.268 240.989 313.3 240.691L313.966 234.44C314.041 233.732 313.373 233.174 312.69 233.374L303.741 235.999C302.315 236.423 302.803 234.284 303.977 233.789L314.076 228.933C314.388 228.783 314.6 228.482 314.637 228.137L315.419 220.798C315.638 218.746 319.467 218.994 319.231 221.204Z" fill="white"/>
<rect x="116.227" y="198.463" width="149" height="33" rx="3.5" transform="rotate(6.08095 116.227 198.463)" stroke="white"/>
</svg>
