<svg width="589" height="373" viewBox="0 0 589 373" fill="none" xmlns="http://www.w3.org/2000/svg">
<path d="M288.119 171.258C284.934 193.22 266.966 211.185 239.937 222.312C212.943 233.424 177.177 237.58 139.056 232.051C100.936 226.522 67.8235 212.376 45.099 194.053C22.3445 175.706 10.221 153.377 13.4064 131.415C16.5917 109.452 34.5592 91.4874 61.5885 80.3607C88.5822 69.2485 124.349 65.0925 162.469 70.6214C200.59 76.1502 233.702 90.2961 256.427 108.619C279.181 126.966 291.305 149.295 288.119 171.258Z" fill="white" stroke="#0085FF" stroke-width="3"/>
<path d="M279.439 169.999C276.571 189.768 259.684 205.697 234.482 215.402C209.298 225.101 175.916 228.533 140.316 223.37C104.715 218.207 73.6843 205.432 52.2925 188.978C30.8863 172.513 19.2203 152.443 22.0876 132.674C24.9549 112.904 41.842 96.9752 67.0438 87.2699C92.2288 77.5712 125.61 74.1388 161.211 79.3021C196.811 84.4655 227.842 97.24 249.234 113.694C270.64 130.159 282.306 150.229 279.439 169.999Z" stroke="#0085FF"/>
<path d="M65.5413 121.344L240.992 146.791" stroke="#0085FF"/>
<path d="M59.9053 160.202L235.356 185.649" stroke="#0085FF"/>
<path d="M266.085 164.054L259.977 167.672C259.672 167.852 259.486 168.181 259.487 168.536L259.527 179.173C259.437 181.081 257.649 182.106 257.415 180.424L256.249 171.5C256.156 170.788 255.366 170.403 254.748 170.769L249.515 173.869C249.228 174.039 249.045 174.34 249.026 174.673L248.868 177.435C248.701 178.658 246.542 178.626 246.595 176.909L246.585 174.753C246.584 174.576 246.536 174.401 246.445 174.248L245.796 173.152C245.72 173.024 245.616 172.914 245.493 172.831L243.311 171.365C242.34 170.629 243.068 169.449 244.434 169.95L246.722 170.789C247.004 170.893 247.318 170.864 247.576 170.711L252.747 167.648C253.359 167.285 253.407 166.416 252.838 165.988L245.674 160.603C244.521 159.744 246.46 158.886 247.522 159.508L257.103 164.517C257.41 164.678 257.778 164.668 258.076 164.491L264.197 160.866C265.913 159.849 267.933 162.959 266.085 164.054Z" fill="#0085FF"/>
<path d="M79.0129 115.996L81.3133 100.135L83.293 100.422L82.3162 107.157L89.0967 108.14L90.0734 101.405L92.0531 101.692L89.7527 117.553L87.773 117.266L88.8348 109.946L82.0543 108.962L80.9926 116.283L79.0129 115.996Z" fill="#0085FF"/>
<path d="M99.1607 119.167C98.3193 119.045 97.5569 118.785 96.8735 118.387C96.1925 117.973 95.6257 117.467 95.1733 116.87C94.7397 116.259 94.4205 115.556 94.2156 114.762C94.0295 113.955 94.0014 113.104 94.1311 112.209C94.2609 111.314 94.5285 110.514 94.934 109.809C95.356 109.106 95.8616 108.523 96.4509 108.061C97.0567 107.6 97.7438 107.277 98.5121 107.089C99.2828 106.885 100.089 106.844 100.93 106.966C101.772 107.088 102.533 107.357 103.214 107.771C103.897 108.169 104.464 108.675 104.914 109.288C105.364 109.902 105.683 110.604 105.872 111.395C106.077 112.189 106.114 113.033 105.985 113.928C105.855 114.823 105.578 115.63 105.153 116.349C104.748 117.054 104.242 117.637 103.636 118.097C103.033 118.541 102.346 118.865 101.575 119.069C100.807 119.256 100.002 119.289 99.1607 119.167ZM99.465 117.243C100.57 117.403 101.551 117.147 102.406 116.474C103.264 115.784 103.781 114.838 103.955 113.634C104.13 112.43 103.903 111.384 103.274 110.495C102.647 109.59 101.781 109.058 100.675 108.898C99.5536 108.735 98.5637 108.998 97.7057 109.688C96.85 110.361 96.3349 111.299 96.1603 112.503C95.9857 113.707 96.2118 114.761 96.8386 115.666C97.4677 116.555 98.3432 117.08 99.465 117.243Z" fill="#0085FF"/>
<path d="M137.369 113.771L135.417 114.335C135.408 112.889 135.059 111.692 134.371 110.745C133.7 109.801 132.803 109.247 131.681 109.084C130.345 108.891 129.181 109.311 128.188 110.347C127.198 111.366 126.569 112.803 126.3 114.657C126.161 115.617 126.14 116.511 126.239 117.339C126.341 118.151 126.548 118.87 126.861 119.497C127.177 120.108 127.585 120.607 128.084 120.995C128.6 121.386 129.188 121.629 129.848 121.724C130.92 121.88 131.899 121.64 132.782 121.004C133.683 120.37 134.341 119.436 134.756 118.201L136.321 119.599C135.692 121.035 134.769 122.114 133.553 122.835C132.355 123.541 131.031 123.789 129.579 123.579C128.606 123.438 127.751 123.114 127.016 122.609C126.283 122.088 125.688 121.428 125.231 120.631C124.777 119.818 124.466 118.884 124.298 117.83C124.134 116.76 124.141 115.606 124.32 114.37C124.495 113.166 124.811 112.091 125.268 111.144C125.728 110.181 126.289 109.39 126.951 108.772C127.614 108.154 128.369 107.707 129.218 107.431C130.066 107.156 130.977 107.089 131.95 107.23C133.518 107.457 134.78 108.163 135.736 109.349C136.712 110.52 137.256 111.994 137.369 113.771Z" fill="#0085FF"/>
<path d="M138.612 124.64C138.676 124.201 138.752 123.68 138.839 123.078C138.945 122.462 139.049 121.805 139.15 121.105C139.254 120.389 139.363 119.641 139.476 118.86C139.592 118.063 139.707 117.266 139.823 116.469C139.938 115.672 140.054 114.875 140.17 114.078C140.285 113.28 140.394 112.532 140.495 111.833C140.597 111.133 140.683 110.481 140.754 109.877C140.843 109.259 140.92 108.73 140.984 108.291L142.963 108.578L142.291 113.214C142.253 113.475 142.207 113.734 142.153 113.991C142.118 114.236 142.073 114.486 142.018 114.744C142.53 114.237 143.138 113.877 143.843 113.664C144.548 113.45 145.279 113.399 146.038 113.509C146.665 113.6 147.234 113.798 147.746 114.105C148.276 114.398 148.719 114.769 149.075 115.22C149.431 115.67 149.683 116.196 149.831 116.799C149.996 117.405 150.028 118.057 149.926 118.756L148.857 126.126L146.828 125.831L147.855 118.755C148.008 117.698 147.841 116.876 147.353 116.29C146.867 115.688 146.221 115.329 145.412 115.212C144.983 115.149 144.552 115.162 144.118 115.248C143.701 115.337 143.316 115.497 142.962 115.728C142.628 115.946 142.333 116.235 142.078 116.597C141.84 116.961 141.687 117.379 141.618 117.851L140.592 124.927L138.612 124.64Z" fill="#0085FF"/>
<path d="M160.378 114.044C159.784 113.958 159.302 113.68 158.932 113.211C158.581 112.728 158.448 112.194 158.533 111.608C158.618 111.023 158.896 110.557 159.368 110.21C159.858 109.849 160.4 109.712 160.994 109.798C161.588 109.884 162.06 110.168 162.411 110.651C162.781 111.12 162.924 111.647 162.839 112.233C162.754 112.819 162.466 113.292 161.976 113.653C161.505 113.999 160.972 114.13 160.378 114.044ZM165.789 126.738L165.527 128.543L151.99 126.58L152.252 124.774L158.686 125.708L159.861 117.606L154.318 116.802L154.58 114.997L162.103 116.088C161.959 116.964 161.814 117.906 161.668 118.915C161.524 119.907 161.377 120.916 161.229 121.94L160.641 125.991L165.789 126.738Z" fill="#0085FF"/>
<path d="M190.626 126.079L187.532 125.631L186.332 116.662L184.215 131.254L182.31 130.978L184.61 115.117L188.1 115.623L189.335 124.522L193.024 116.337L196.488 116.839L194.188 132.7L192.283 132.424L194.385 117.929L190.626 126.079Z" fill="#0085FF"/>
<path d="M204.892 120.5C204.298 120.414 203.816 120.136 203.446 119.667C203.095 119.184 202.962 118.65 203.047 118.065C203.132 117.479 203.41 117.013 203.882 116.666C204.372 116.305 204.914 116.168 205.508 116.254C206.102 116.34 206.574 116.625 206.925 117.107C207.295 117.576 207.438 118.103 207.353 118.689C207.268 119.275 206.98 119.748 206.49 120.109C206.019 120.456 205.486 120.586 204.892 120.5ZM210.303 133.194L210.041 134.999L196.505 133.036L196.766 131.231L203.2 132.164L204.375 124.062L198.832 123.258L199.094 121.453L206.617 122.544C206.473 123.42 206.328 124.362 206.182 125.371C206.038 126.363 205.892 127.372 205.743 128.397L205.155 132.447L210.303 133.194Z" fill="#0085FF"/>
<path d="M212.803 135.4C212.947 134.524 213.09 133.59 213.234 132.597C213.381 131.589 213.528 130.572 213.677 129.547C213.825 128.522 213.972 127.514 214.116 126.522C214.262 125.513 214.39 124.568 214.501 123.687L216.481 123.974C216.443 124.235 216.397 124.494 216.343 124.752C216.308 124.996 216.263 125.247 216.209 125.505C216.72 124.997 217.328 124.637 218.033 124.424C218.738 124.21 219.469 124.159 220.228 124.269C220.839 124.357 221.4 124.555 221.911 124.862C222.441 125.154 222.876 125.525 223.215 125.973C223.571 126.423 223.823 126.949 223.972 127.552C224.137 128.158 224.168 128.81 224.067 129.51L222.998 136.879L221.018 136.592L222.045 129.515C222.198 128.458 222.031 127.636 221.543 127.051C221.058 126.449 220.411 126.089 219.602 125.972C219.173 125.91 218.742 125.922 218.308 126.008C217.891 126.097 217.506 126.257 217.152 126.489C216.818 126.706 216.523 126.995 216.268 127.357C216.03 127.721 215.877 128.139 215.809 128.611L214.782 135.687L212.803 135.4Z" fill="#0085FF"/>
<path d="M227.641 137.552C227.704 137.113 227.78 136.592 227.867 135.99C227.973 135.375 228.077 134.717 228.179 134.017C228.282 133.302 228.391 132.553 228.504 131.773C228.62 130.975 228.735 130.178 228.851 129.381C228.967 128.584 229.082 127.787 229.198 126.99C229.313 126.193 229.422 125.444 229.523 124.745C229.625 124.045 229.711 123.393 229.782 122.789C229.871 122.171 229.948 121.642 230.012 121.203L231.992 121.49L231.319 126.127C231.281 126.387 231.235 126.646 231.181 126.904C231.146 127.148 231.101 127.399 231.047 127.657C231.558 127.149 232.166 126.789 232.871 126.576C233.576 126.362 234.308 126.311 235.066 126.421C235.693 126.512 236.262 126.711 236.774 127.017C237.304 127.31 237.747 127.682 238.103 128.132C238.459 128.582 238.711 129.109 238.859 129.712C239.024 130.317 239.056 130.969 238.954 131.669L237.886 139.038L235.856 138.744L236.883 131.667C237.036 130.61 236.869 129.788 236.381 129.203C235.896 128.601 235.249 128.241 234.44 128.124C234.011 128.062 233.58 128.074 233.146 128.16C232.729 128.249 232.344 128.41 231.99 128.641C231.656 128.858 231.361 129.147 231.106 129.509C230.868 129.873 230.715 130.291 230.647 130.763L229.62 137.839L227.641 137.552Z" fill="#0085FF"/>
<path d="M90.037 151.67L89.7835 153.419L76.6821 151.519L76.9357 149.77L83.0016 150.65L84.6841 139.049L80.3312 140.71L79.1987 139.243L84.9754 137.041L86.9642 137.329L84.9904 150.938L90.037 151.67Z" fill="#0085FF"/>
<path d="M103.745 155.444L92.2101 153.771C92.3403 152.873 92.5871 152.105 92.9505 151.466C93.3139 150.827 93.7476 150.287 94.2517 149.845C94.758 149.388 95.3131 149.002 95.9172 148.687C96.5401 148.36 97.1655 148.072 97.7936 147.826C98.4051 147.577 98.9977 147.341 99.5714 147.119C100.162 146.899 100.688 146.653 101.15 146.383C101.629 146.114 102.022 145.801 102.327 145.444C102.65 145.088 102.848 144.651 102.924 144.131C102.995 143.643 102.947 143.21 102.782 142.832C102.617 142.454 102.385 142.131 102.085 141.862C101.802 141.596 101.469 141.387 101.085 141.235C100.717 141.085 100.36 140.985 100.011 140.934C98.9342 140.778 97.983 140.978 97.1578 141.534C96.3515 142.076 95.882 142.804 95.7495 143.718L93.8353 143.44C93.9335 142.763 94.1692 142.13 94.5424 141.54C94.9178 140.935 95.3883 140.433 95.9541 140.032C96.5387 139.618 97.2079 139.321 97.9617 139.141C98.7177 138.945 99.535 138.911 100.413 139.039C101.093 139.137 101.732 139.342 102.329 139.654C102.927 139.966 103.43 140.353 103.836 140.814C104.26 141.277 104.572 141.813 104.771 142.421C104.973 143.013 105.025 143.648 104.926 144.325C104.824 145.034 104.601 145.637 104.258 146.134C103.932 146.633 103.522 147.064 103.03 147.427C102.556 147.777 102.022 148.077 101.427 148.329C100.848 148.582 100.255 148.826 99.6453 149.059C98.623 149.458 97.6469 149.887 96.7171 150.347C95.7873 150.808 95.107 151.473 94.6762 152.343L103.999 153.695L103.745 155.444Z" fill="#0085FF"/>
<path d="M105.744 159.618L104.194 158.404L121.68 137.949L123.23 139.163L105.744 159.618Z" fill="#0085FF"/>
<path d="M127.433 159.121C126.505 158.986 125.679 158.673 124.955 158.182C124.247 157.694 123.67 157.063 123.224 156.291C122.777 155.518 122.475 154.63 122.316 153.626C122.159 152.606 122.166 151.505 122.338 150.324C122.509 149.143 122.815 148.085 123.255 147.152C123.697 146.203 124.242 145.422 124.889 144.808C125.537 144.194 126.269 143.753 127.086 143.486C127.92 143.221 128.801 143.156 129.729 143.29C130.657 143.425 131.475 143.737 132.183 144.225C132.907 144.716 133.492 145.348 133.938 146.12C134.385 146.893 134.685 147.797 134.84 148.832C134.996 149.852 134.989 150.953 134.818 152.134C134.646 153.316 134.341 154.373 133.901 155.306C133.463 156.224 132.92 156.989 132.273 157.603C131.626 158.217 130.885 158.656 130.051 158.921C129.234 159.189 128.361 159.255 127.433 159.121ZM124.351 150.616C124.253 151.293 124.21 151.939 124.223 152.552C124.254 153.151 124.334 153.71 124.462 154.227L132.014 146.613C131.706 146.166 131.337 145.799 130.905 145.511C130.489 145.226 130.016 145.045 129.486 144.968C128.21 144.783 127.099 145.209 126.153 146.246C125.224 147.285 124.623 148.742 124.351 150.616ZM127.676 157.443C128.306 157.534 128.9 157.468 129.457 157.243C130.031 157.021 130.539 156.668 130.981 156.185C131.426 155.687 131.802 155.074 132.111 154.347C132.438 153.606 132.669 152.771 132.804 151.842C132.9 151.181 132.939 150.559 132.922 149.978C132.907 149.38 132.835 148.831 132.704 148.33L125.209 155.903C125.505 156.316 125.861 156.657 126.279 156.927C126.697 157.196 127.163 157.369 127.676 157.443Z" fill="#0085FF"/>
<path d="M136.159 160.145L137.251 158.566C137.395 158.619 137.566 158.668 137.763 158.713C137.976 158.76 138.223 158.804 138.505 158.845C139.284 158.958 140.109 158.989 140.979 158.938C141.852 158.872 142.663 158.7 143.414 158.423C144.167 158.13 144.812 157.709 145.349 157.16C145.888 156.594 146.22 155.879 146.346 155.012C146.444 154.335 146.334 153.748 146.017 153.252C145.719 152.742 145.122 152.422 144.227 152.293C143.846 152.237 143.478 152.264 143.124 152.374C142.789 152.47 142.417 152.641 142.009 152.888L141.17 153.417L140.003 152.018L146.883 147.805L138.854 146.64L139.107 144.892L149.598 146.413L149.345 148.162L144.782 151.095C144.902 151.08 145.03 151.074 145.165 151.078C145.316 151.084 145.458 151.096 145.591 151.115C146.486 151.245 147.212 151.664 147.769 152.372C148.346 153.067 148.548 154.005 148.377 155.186C148.217 156.289 147.818 157.228 147.181 158.004C146.544 158.78 145.76 159.398 144.831 159.859C143.903 160.303 142.871 160.596 141.733 160.736C140.613 160.879 139.489 160.869 138.362 160.706C137.964 160.648 137.569 160.575 137.175 160.485C136.782 160.396 136.443 160.283 136.159 160.145Z" fill="#0085FF"/>
<path d="M150.464 166.104L148.914 164.89L166.4 144.435L167.95 145.649L150.464 166.104Z" fill="#0085FF"/>
<path d="M179.476 164.642L179.222 166.391L166.121 164.491L166.374 162.742L172.44 163.622L174.123 152.021L169.77 153.681L168.637 152.214L174.414 150.013L176.403 150.301L174.429 163.91L179.476 164.642Z" fill="#0085FF"/>
<path d="M190.399 152.09C191.244 152.212 192.01 152.476 192.696 152.881C193.384 153.27 193.953 153.779 194.403 154.407C194.856 155.02 195.173 155.749 195.355 156.596C195.554 157.445 195.578 158.381 195.43 159.405C195.202 160.98 194.786 162.327 194.184 163.446C193.582 164.565 192.86 165.458 192.019 166.124C191.178 166.79 190.24 167.249 189.205 167.501C188.189 167.739 187.142 167.781 186.065 167.624C185.567 167.552 185.069 167.432 184.569 167.263C184.083 167.112 183.596 166.912 183.107 166.665L183.937 165.144C184.316 165.328 184.692 165.479 185.064 165.597C185.436 165.716 185.804 165.801 186.169 165.854C187.014 165.977 187.823 165.941 188.596 165.748C189.371 165.539 190.062 165.205 190.67 164.746C191.281 164.272 191.806 163.68 192.247 162.972C192.705 162.267 193.039 161.479 193.25 160.609C192.751 161.132 192.092 161.535 191.273 161.818C190.47 162.103 189.546 162.171 188.502 162.019C187.657 161.897 186.928 161.67 186.316 161.34C185.706 160.994 185.216 160.586 184.844 160.113C184.491 159.628 184.248 159.086 184.115 158.488C183.982 157.89 183.962 157.268 184.056 156.622C184.289 155.015 184.982 153.797 186.134 152.967C187.304 152.139 188.725 151.847 190.399 152.09ZM190.159 153.744C189.165 153.599 188.26 153.774 187.443 154.266C186.63 154.743 186.141 155.549 185.976 156.683C185.823 157.739 186.053 158.6 186.667 159.268C187.283 159.92 188.122 160.324 189.183 160.477C190.194 160.624 191.109 160.435 191.93 159.911C192.753 159.371 193.229 158.652 193.36 157.754C193.497 156.809 193.25 155.945 192.619 155.162C191.99 154.363 191.17 153.89 190.159 153.744Z" fill="#0085FF"/>
<path d="M201.965 169.93C200.093 169.659 198.652 169.032 197.644 168.049C196.636 167.067 196.231 165.89 196.43 164.52C196.56 163.622 196.923 162.871 197.518 162.265C198.114 161.66 198.885 161.241 199.833 161.009C199.118 160.567 198.587 160.032 198.238 159.402C197.892 158.757 197.774 158.049 197.886 157.277C198.062 156.064 198.733 155.172 199.899 154.601C201.067 154.015 202.529 153.849 204.286 154.104C206.026 154.356 207.373 154.929 208.327 155.824C209.282 156.702 209.672 157.748 209.496 158.961C209.384 159.732 209.07 160.378 208.555 160.899C208.042 161.403 207.372 161.765 206.545 161.982C207.387 162.474 208.008 163.095 208.407 163.845C208.823 164.596 208.965 165.421 208.835 166.319C208.636 167.689 207.906 168.701 206.643 169.354C205.398 170.01 203.838 170.202 201.965 169.93ZM203.292 160.787C204.402 160.948 205.33 160.849 206.076 160.491C206.824 160.117 207.254 159.544 207.366 158.772C207.478 158 207.226 157.345 206.61 156.805C205.995 156.265 205.132 155.915 204.022 155.754C202.911 155.593 201.984 155.684 201.241 156.026C200.497 156.369 200.069 156.926 199.958 157.698C199.846 158.47 200.095 159.141 200.706 159.712C201.319 160.267 202.181 160.626 203.292 160.787ZM202.205 168.277C203.448 168.457 204.482 168.333 205.305 167.906C206.147 167.465 206.634 166.796 206.764 165.898C206.899 164.969 206.626 164.165 205.946 163.488C205.282 162.812 204.329 162.385 203.086 162.204C201.843 162.024 200.799 162.162 199.955 162.619C199.126 163.078 198.645 163.772 198.51 164.701C198.38 165.599 198.648 166.377 199.314 167.037C199.998 167.683 200.962 168.096 202.205 168.277Z" fill="#0085FF"/>
<path d="M216.872 172.092C214.999 171.821 213.559 171.194 212.55 170.211C211.542 169.229 211.137 168.052 211.336 166.682C211.466 165.784 211.829 165.032 212.425 164.427C213.02 163.822 213.792 163.403 214.739 163.171C214.025 162.729 213.493 162.194 213.145 161.564C212.798 160.919 212.681 160.211 212.793 159.439C212.969 158.226 213.64 157.334 214.805 156.763C215.973 156.177 217.436 156.011 219.193 156.266C220.933 156.518 222.28 157.091 223.233 157.986C224.189 158.864 224.579 159.91 224.403 161.123C224.291 161.894 223.977 162.54 223.462 163.061C222.948 163.565 222.278 163.926 221.451 164.144C222.294 164.636 222.915 165.257 223.313 166.007C223.729 166.758 223.872 167.583 223.741 168.481C223.543 169.851 222.812 170.863 221.55 171.516C220.304 172.172 218.745 172.364 216.872 172.092ZM218.198 162.949C219.308 163.11 220.237 163.011 220.982 162.653C221.73 162.279 222.16 161.706 222.272 160.934C222.384 160.162 222.132 159.507 221.517 158.967C220.901 158.427 220.038 158.077 218.928 157.916C217.818 157.755 216.891 157.846 216.147 158.188C215.404 158.531 214.976 159.088 214.864 159.86C214.752 160.632 215.002 161.303 215.613 161.874C216.226 162.429 217.088 162.788 218.198 162.949ZM217.112 170.439C218.355 170.619 219.388 170.495 220.212 170.068C221.054 169.627 221.54 168.958 221.67 168.06C221.805 167.131 221.532 166.327 220.852 165.65C220.189 164.974 219.235 164.547 217.992 164.366C216.749 164.186 215.706 164.324 214.861 164.781C214.033 165.24 213.552 165.934 213.417 166.863C213.286 167.761 213.554 168.539 214.22 169.199C214.905 169.845 215.869 170.258 217.112 170.439Z" fill="#0085FF"/>
<path d="M100.344 191.028L96.9965 190.543L94.5799 173.998L96.7862 174.318L98.9657 189.284L105.307 175.553L107.412 175.859L100.344 191.028Z" fill="#0085FF"/>
<path d="M115.729 179.507C115.12 179.418 114.625 179.139 114.245 178.668C113.883 178.184 113.745 177.649 113.83 177.064C113.915 176.478 114.198 176.012 114.68 175.667C115.181 175.308 115.736 175.172 116.344 175.261C116.953 175.349 117.438 175.635 117.799 176.119C118.18 176.59 118.328 177.118 118.243 177.704C118.158 178.289 117.865 178.762 117.364 179.121C116.882 179.466 116.337 179.595 115.729 179.507ZM121.315 192.226L121.053 194.032L107.181 192.02L107.443 190.214L114.037 191.17L115.212 183.069L109.531 182.245L109.793 180.44L117.503 181.558C117.358 182.434 117.213 183.376 117.067 184.385C116.923 185.377 116.776 186.386 116.628 187.41L116.04 191.461L121.315 192.226Z" fill="#0085FF"/>
<path d="M133.838 192.398L135.298 193.581C134.651 194.351 133.811 194.91 132.776 195.259C131.761 195.593 130.662 195.675 129.478 195.503C128.582 195.373 127.767 195.105 127.031 194.7C126.298 194.278 125.691 193.766 125.208 193.164C124.728 192.547 124.382 191.84 124.169 191.045C123.959 190.234 123.919 189.381 124.048 188.487C124.178 187.592 124.449 186.792 124.862 186.088C125.292 185.387 125.816 184.807 126.435 184.348C127.054 183.89 127.765 183.569 128.568 183.387C129.374 183.188 130.216 183.153 131.096 183.28C131.924 183.4 132.665 183.649 133.318 184.026C133.99 184.389 134.543 184.86 134.977 185.438C135.428 186.018 135.746 186.687 135.929 187.444C136.132 188.188 136.17 188.999 136.043 189.877C136.014 190.073 135.975 190.283 135.925 190.508C135.878 190.717 135.822 190.925 135.757 191.132L125.867 189.697C125.902 190.765 126.263 191.665 126.951 192.396C127.656 193.129 128.592 193.58 129.758 193.75C130.553 193.865 131.322 193.802 132.064 193.561C132.826 193.306 133.418 192.918 133.838 192.398ZM130.663 185.011C129.564 184.852 128.605 185.037 127.786 185.566C126.984 186.097 126.422 186.879 126.1 187.912L134.113 189.074C134.148 188 133.857 187.094 133.239 186.356C132.621 185.619 131.762 185.171 130.663 185.011Z" fill="#0085FF"/>
<path d="M141.137 192.709L141.972 186.95L139.36 186.572L139.622 184.766L142.234 185.145L142.73 181.728L144.797 181.754L144.263 185.439L151.491 186.487L151.229 188.293L144.001 187.245L143.23 192.564C143.095 193.491 143.219 194.24 143.603 194.811C144.003 195.384 144.584 195.725 145.344 195.836C146.122 195.949 146.768 195.843 147.281 195.519C147.813 195.181 148.133 194.637 148.242 193.889C148.289 193.564 148.306 193.209 148.293 192.825C148.279 192.441 148.218 192.034 148.108 191.602L150.055 191.387C150.174 191.753 150.257 192.196 150.302 192.718C150.35 193.223 150.337 193.728 150.264 194.232C150.082 195.485 149.512 196.44 148.553 197.098C147.614 197.743 146.46 197.966 145.09 197.767C143.602 197.551 142.519 196.987 141.84 196.075C141.18 195.149 140.946 194.027 141.137 192.709Z" fill="#0085FF"/>
<path d="M154.296 198.853C154.44 197.977 154.584 197.043 154.728 196.051C154.875 195.042 155.022 194.025 155.171 193C155.319 191.976 155.466 190.967 155.61 189.975C155.756 188.966 155.884 188.021 155.995 187.14L158.024 187.435C157.986 187.695 157.94 187.954 157.885 188.212C157.85 188.456 157.805 188.707 157.75 188.965C158.272 188.459 158.894 188.101 159.615 187.89C160.336 187.679 161.085 187.63 161.863 187.742C162.489 187.833 163.064 188.033 163.589 188.341C164.133 188.636 164.579 189.008 164.929 189.458C165.295 189.909 165.555 190.437 165.709 191.041C165.88 191.647 165.915 192.3 165.813 192.999L164.744 200.369L162.716 200.074L163.742 192.998C163.895 191.94 163.721 191.118 163.219 190.53C162.72 189.926 162.056 189.564 161.228 189.444C160.788 189.38 160.346 189.391 159.903 189.476C159.476 189.564 159.081 189.722 158.72 189.952C158.378 190.169 158.077 190.457 157.818 190.818C157.575 191.182 157.42 191.599 157.351 192.071L156.325 199.147L154.296 198.853Z" fill="#0085FF"/>
<path d="M182.856 199.856C182.712 200.849 182.308 201.612 181.644 202.147C180.999 202.668 180.211 202.861 179.281 202.726C178.588 202.626 178.031 202.362 177.609 201.935C177.188 201.509 176.952 201.051 176.902 200.562C176.315 201.042 175.642 201.393 174.885 201.615C174.147 201.824 173.381 201.87 172.586 201.755C171.419 201.586 170.521 201.173 169.891 200.517C169.281 199.847 169.042 199.057 169.174 198.146C169.315 197.17 169.785 196.432 170.582 195.933C171.379 195.434 172.378 195.156 173.578 195.097C174.222 195.058 174.88 195.045 175.551 195.059C176.222 195.074 176.917 195.1 177.637 195.138L177.764 194.259C177.887 193.413 177.67 192.767 177.113 192.321C176.573 191.877 175.957 191.605 175.264 191.505C174.486 191.392 173.81 191.468 173.237 191.734C172.665 191.983 172.343 192.36 172.27 192.864C172.268 192.881 172.262 192.921 172.252 192.986C172.262 193.038 172.27 193.105 172.275 193.189L170.32 193.279C170.326 193.114 170.323 192.956 170.311 192.805C170.315 192.656 170.32 192.565 170.324 192.532C170.471 191.524 171.056 190.762 172.08 190.246C173.107 189.714 174.305 189.547 175.674 189.746C177.145 189.959 178.243 190.484 178.968 191.319C179.709 192.158 179.996 193.155 179.829 194.31L178.993 200.068C178.958 200.312 179.005 200.527 179.133 200.711C179.262 200.896 179.461 201.008 179.732 201.047C180.104 201.101 180.417 200.964 180.672 200.636C180.929 200.291 181.101 199.818 181.188 199.216L182.856 199.856ZM171.31 198.231C171.242 198.703 171.364 199.111 171.677 199.456C172.006 199.802 172.467 200.019 173.058 200.104C173.802 200.212 174.537 200.145 175.263 199.901C175.989 199.657 176.604 199.282 177.11 198.774L177.421 196.626C176.648 196.597 175.89 196.587 175.147 196.595C174.403 196.604 173.786 196.639 173.293 196.7C172.731 196.768 172.273 196.951 171.919 197.248C171.568 197.53 171.365 197.857 171.31 198.231Z" fill="#0085FF"/>
<path d="M183.998 203.161C184.143 202.285 184.287 201.351 184.431 200.359C184.577 199.35 184.724 198.333 184.873 197.308C185.022 196.284 185.168 195.275 185.312 194.283C185.458 193.274 185.586 192.329 185.697 191.448L187.599 191.724C187.575 191.887 187.552 192.05 187.528 192.212C187.507 192.359 187.476 192.512 187.436 192.672C187.797 192.326 188.186 192.083 188.603 191.945C189.022 191.789 189.452 191.744 189.891 191.808C190.432 191.886 190.892 192.11 191.27 192.481C191.667 192.837 191.936 193.3 192.078 193.869C192.463 193.36 192.905 192.992 193.403 192.765C193.902 192.539 194.414 192.463 194.938 192.539C195.716 192.652 196.313 193.055 196.731 193.746C197.151 194.422 197.286 195.272 197.138 196.297L195.892 204.886L194.015 204.614L195.24 196.171C195.325 195.585 195.262 195.128 195.051 194.798C194.856 194.471 194.573 194.28 194.201 194.226C193.66 194.148 193.181 194.361 192.762 194.865C192.344 195.369 192.064 196.109 191.922 197.085L190.896 204.162L189.019 203.889L190.244 195.446C190.329 194.861 190.266 194.403 190.055 194.074C189.844 193.744 189.544 193.551 189.155 193.495C188.631 193.419 188.159 193.633 187.741 194.137C187.34 194.643 187.068 195.384 186.927 196.36L185.9 203.437L183.998 203.161Z" fill="#0085FF"/>
<path d="M48.514 169.655L39.1321 168.294L39.6766 164.54C39.7736 163.871 40.0731 163.33 40.5752 162.917C41.0691 162.492 41.6624 162.33 42.3553 162.43C42.8845 162.507 43.3176 162.704 43.6547 163.022C43.9918 163.34 44.2342 163.701 44.3819 164.105C44.6241 163.654 44.9586 163.278 45.3853 162.978C45.812 162.678 46.3141 162.57 46.8914 162.654C47.7189 162.774 48.3199 163.135 48.6942 163.738C49.0605 164.329 49.184 165.034 49.065 165.855L48.514 169.655ZM40.6372 164.928L40.3044 167.223L43.4076 167.673L43.7228 165.499C43.7831 165.084 43.6716 164.7 43.3886 164.349C43.0973 163.986 42.716 163.77 42.2445 163.702C41.8307 163.642 41.4741 163.73 41.1746 163.966C40.8766 164.192 40.6975 164.512 40.6372 164.928ZM44.7043 165.642L44.3891 167.815L47.6944 168.294L48.0294 165.984C48.0618 165.761 48.07 165.535 48.0542 165.305C48.0288 165.074 47.9709 164.864 47.8804 164.675C47.7803 164.484 47.6366 164.324 47.4492 164.193C47.2536 164.051 47.0019 163.958 46.694 163.913C46.1167 163.829 45.6598 163.965 45.3235 164.319C44.9871 164.674 44.7807 165.115 44.7043 165.642Z" fill="#0085FF"/>
<path d="M44.6598 152.638L44.9874 153.833C44.1312 153.844 43.4217 154.061 42.8589 154.487C42.2976 154.902 41.967 155.454 41.8671 156.143C41.7481 156.964 41.9934 157.677 42.6031 158.282C43.2032 158.887 44.0518 159.268 45.1487 159.428C45.7164 159.51 46.2456 159.519 46.7362 159.456C47.2172 159.391 47.6437 159.262 48.0157 159.068C48.3782 158.872 48.675 158.62 48.9064 158.312C49.1391 157.994 49.2849 157.633 49.3437 157.227C49.4392 156.569 49.3002 155.969 48.9266 155.429C48.5545 154.878 48.0035 154.478 47.2735 154.227L48.1062 153.262C48.9547 153.643 49.5903 154.206 50.0129 154.95C50.4274 155.683 50.57 156.495 50.4407 157.386C50.354 157.984 50.1599 158.51 49.8584 158.962C49.5473 159.414 49.1551 159.781 48.6817 160.064C48.1988 160.346 47.645 160.54 47.0205 160.646C46.3864 160.75 45.7037 160.749 44.9724 160.643C44.2603 160.54 43.6248 160.35 43.0657 160.072C42.497 159.793 42.0308 159.451 41.667 159.047C41.3032 158.642 41.0411 158.18 40.8807 157.66C40.7203 157.14 40.6835 156.582 40.7702 155.984C40.9098 155.021 41.3319 154.245 42.0366 153.654C42.7331 153.051 43.6075 152.713 44.6598 152.638Z" fill="#0085FF"/>
<path d="M52.0941 144.97L51.0714 152.022C50.5229 151.942 50.0535 151.791 49.6633 151.569C49.273 151.347 48.943 151.082 48.6733 150.774C48.394 150.464 48.1583 150.125 47.9662 149.756C47.766 149.375 47.5906 148.993 47.4399 148.609C47.2878 148.235 47.1439 147.873 47.0081 147.522C46.8737 147.161 46.7239 146.839 46.5586 146.557C46.3947 146.264 46.2035 146.024 45.985 145.837C45.7679 145.64 45.5007 145.519 45.1831 145.473C44.8848 145.43 44.6203 145.458 44.3895 145.559C44.1587 145.66 43.9612 145.803 43.7971 145.986C43.6345 146.159 43.5067 146.362 43.4137 146.597C43.3221 146.822 43.2609 147.041 43.2301 147.253C43.1346 147.912 43.2566 148.493 43.596 148.998C43.9274 149.491 44.3721 149.778 44.9302 149.859L44.7605 151.029C44.3467 150.969 43.9599 150.825 43.5999 150.597C43.2304 150.367 42.9233 150.08 42.6788 149.734C42.426 149.377 42.2446 148.967 42.1346 148.507C42.015 148.044 41.9941 147.545 42.072 147.008C42.1322 146.592 42.2576 146.202 42.4482 145.837C42.6387 145.471 42.8749 145.164 43.1566 144.915C43.4398 144.656 43.767 144.466 44.1384 144.344C44.5002 144.22 44.888 144.189 45.3017 144.249C45.7347 144.311 46.1031 144.448 46.4067 144.657C46.7118 144.857 46.9752 145.107 47.1968 145.408C47.4102 145.698 47.5937 146.024 47.7473 146.388C47.9024 146.741 48.0511 147.104 48.1936 147.477C48.437 148.102 48.6993 148.698 48.9803 149.267C49.2614 149.835 49.6678 150.251 50.1994 150.514L51.026 144.815L52.0941 144.97Z" fill="#0085FF"/>
<path d="M52.3247 143.38L51.3604 142.713C51.3929 142.624 51.4228 142.52 51.45 142.4C51.4787 142.27 51.5056 142.118 51.5306 141.946C51.5996 141.47 51.6187 140.966 51.5878 140.434C51.5473 139.9 51.4424 139.404 51.2732 138.945C51.0944 138.484 50.8371 138.09 50.5015 137.762C50.1563 137.433 49.7191 137.23 49.1899 137.153C48.7761 137.093 48.4176 137.16 48.1144 137.354C47.803 137.536 47.6076 137.901 47.5283 138.448C47.4945 138.681 47.511 138.906 47.5778 139.123C47.6365 139.328 47.7411 139.555 47.8916 139.804L48.2152 140.317L47.36 141.031L44.7868 136.825L44.0749 141.734L43.0068 141.579L43.937 135.165L45.0051 135.32L46.7964 138.109C46.7874 138.036 46.784 137.958 46.7861 137.875C46.7897 137.782 46.7974 137.696 46.8092 137.615C46.8885 137.067 47.1445 136.624 47.5771 136.283C48.0015 135.931 48.5746 135.807 49.2962 135.911C49.9698 136.009 50.5436 136.253 51.0177 136.642C51.4917 137.032 51.8693 137.511 52.1504 138.079C52.4218 138.646 52.6005 139.277 52.6863 139.972C52.7736 140.657 52.7673 141.344 52.6674 142.033C52.6321 142.276 52.5873 142.518 52.5327 142.759C52.4782 142.999 52.4089 143.206 52.3247 143.38Z" fill="#0085FF"/>
<path d="M54.4443 128.766L54.268 129.982L51.9586 129.647L51.3414 133.902L50.3455 133.758L44.8134 129.122L45.0625 127.405L51.139 128.286L51.4917 125.855L52.4876 125.999L52.1349 128.431L54.4443 128.766ZM50.5306 132.481L50.9627 129.502L46.0985 128.797L50.5306 132.481Z" fill="#0085FF"/>
<path d="M46.0855 119.335C46.1605 118.819 46.3217 118.351 46.5691 117.931C46.807 117.511 47.1178 117.163 47.5016 116.887C47.8758 116.61 48.3215 116.416 48.8387 116.305C49.3574 116.184 49.9294 116.169 50.5549 116.259C51.5171 116.399 52.34 116.653 53.0235 117.021C53.7069 117.389 54.2521 117.83 54.6589 118.344C55.0658 118.858 55.3461 119.432 55.5 120.064C55.6457 120.686 55.6708 121.325 55.5753 121.984C55.5312 122.288 55.4575 122.593 55.3542 122.899C55.262 123.196 55.1402 123.493 54.9888 123.792L54.0602 123.285C54.1725 123.053 54.2647 122.823 54.337 122.596C54.4093 122.368 54.4616 122.143 54.494 121.92C54.5689 121.404 54.5473 120.909 54.4291 120.437C54.3013 119.963 54.0974 119.54 53.8172 119.169C53.5275 118.796 53.1663 118.474 52.7339 118.205C52.3028 117.925 51.8216 117.721 51.2901 117.592C51.6094 117.897 51.8555 118.3 52.0285 118.801C52.2029 119.291 52.2438 119.856 52.1512 120.494C52.0763 121.011 51.938 121.457 51.7364 121.831C51.5251 122.204 51.2753 122.504 50.9869 122.731C50.6903 122.946 50.3593 123.095 49.9938 123.176C49.6283 123.258 49.2483 123.27 48.8538 123.213C47.8723 123.07 47.1281 122.647 46.6211 121.942C46.1156 121.228 45.9371 120.359 46.0855 119.335ZM47.0959 119.482C47.0077 120.09 47.1141 120.643 47.4151 121.142C47.7065 121.639 48.1986 121.938 48.8914 122.039C49.5361 122.132 50.0625 121.991 50.4706 121.616C50.8691 121.239 51.1154 120.727 51.2094 120.078C51.2991 119.46 51.1838 118.901 50.8635 118.399C50.5337 117.896 50.0945 117.605 49.546 117.525C48.9687 117.441 48.4408 117.592 47.9624 117.978C47.4743 118.363 47.1855 118.864 47.0959 119.482Z" fill="#0085FF"/>
<path d="M56.9807 112.294C56.9058 112.811 56.7494 113.279 56.5115 113.7C56.264 114.119 55.9532 114.467 55.579 114.744C55.1952 115.019 54.744 115.218 54.2253 115.339C53.7081 115.45 53.1368 115.46 52.5113 115.37C51.5491 115.23 50.7262 114.976 50.0428 114.608C49.3593 114.24 48.8141 113.799 48.4073 113.285C48.0004 112.771 47.7242 112.203 47.5785 111.582C47.4246 110.949 47.3954 110.304 47.4909 109.645C47.535 109.341 47.608 109.041 47.7098 108.746C47.8035 108.439 47.926 108.136 48.0774 107.837L49.006 108.344C48.8937 108.576 48.8015 108.806 48.7292 109.033C48.6569 109.261 48.6046 109.486 48.5723 109.709C48.4973 110.225 48.5237 110.721 48.6515 111.194C48.7697 111.667 48.9737 112.089 49.2634 112.462C49.5436 112.834 49.8991 113.16 50.3301 113.44C50.7626 113.709 51.2446 113.908 51.7761 114.037C51.4568 113.732 51.21 113.334 51.0355 112.844C50.8626 112.343 50.8224 111.773 50.915 111.135C50.9899 110.618 51.133 110.173 51.3443 109.8C51.5459 109.426 51.795 109.131 52.0916 108.916C52.38 108.689 52.7069 108.534 53.0724 108.453C53.4379 108.371 53.8179 108.359 54.2125 108.416C55.1939 108.559 55.9374 108.987 56.4429 109.702C56.9499 110.407 57.1291 111.27 56.9807 112.294ZM55.9704 112.147C56.0585 111.539 55.9569 110.987 55.6656 110.489C55.3646 109.99 54.8677 109.691 54.1748 109.59C53.5301 109.497 53.0085 109.638 52.61 110.015C52.2019 110.39 51.9508 110.902 51.8568 111.551C51.7671 112.169 51.8873 112.729 52.2171 113.232C52.5374 113.734 52.9717 114.024 53.5202 114.104C54.0975 114.188 54.6302 114.037 55.1183 113.653C55.5967 113.267 55.8807 112.765 55.9704 112.147Z" fill="#0085FF"/>
<path d="M534.622 95.654C549.344 121.784 544.823 155.599 525.433 189.215C506.05 222.821 471.849 256.139 427.413 281.174C382.976 306.209 336.759 318.198 297.973 317.365C259.174 316.532 227.91 302.878 213.188 276.748C198.467 250.618 202.988 216.803 222.377 183.187C241.761 149.581 275.961 116.263 320.398 91.2279C364.835 66.1926 411.052 54.2037 449.838 55.0368C488.636 55.8703 519.9 69.5237 534.622 95.654Z" fill="white" stroke="#0085FF"/>
<path d="M522.526 102.469C535.238 125.032 530.596 154.912 512.175 185.221C493.784 215.483 461.817 245.855 420.598 269.078C379.378 292.301 336.838 303.905 301.425 303.956C265.958 304.008 237.996 292.497 225.284 269.933C212.572 247.369 217.214 217.49 235.634 187.181C254.026 156.919 285.992 126.547 327.212 103.324C368.432 80.1006 410.972 68.4965 446.385 68.4455C481.852 68.3944 509.814 79.9049 522.526 102.469Z" stroke="#0085FF" stroke-width="3"/>
<path d="M239.539 227.047L478.461 92.439" stroke="#0085FF"/>
<path d="M269.351 279.962L508.274 145.355" stroke="#0085FF"/>
<path d="M295.551 148.857L290.15 151.9C289.894 151.445 289.731 151.011 289.662 150.598C289.593 150.186 289.588 149.795 289.646 149.426C289.699 149.049 289.798 148.688 289.941 148.345C290.088 147.989 290.25 147.65 290.428 147.33C290.597 147.014 290.763 146.71 290.926 146.418C291.097 146.122 291.232 145.836 291.332 145.559C291.439 145.278 291.495 145.005 291.499 144.74C291.511 144.47 291.442 144.204 291.294 143.941C291.155 143.694 290.985 143.511 290.785 143.392C290.586 143.273 290.377 143.202 290.159 143.178C289.948 143.149 289.736 143.163 289.523 143.22C289.318 143.273 289.133 143.345 288.971 143.437C288.466 143.721 288.138 144.127 287.985 144.654C287.836 145.169 287.891 145.658 288.152 146.121L287.256 146.626C287.062 146.283 286.942 145.915 286.894 145.521C286.842 145.12 286.864 144.734 286.962 144.363C287.064 143.981 287.241 143.623 287.493 143.292C287.742 142.952 288.071 142.667 288.483 142.435C288.801 142.256 289.139 142.139 289.497 142.084C289.854 142.03 290.198 142.041 290.528 142.118C290.865 142.191 291.181 142.334 291.474 142.546C291.764 142.751 292.005 143.025 292.198 143.368C292.4 143.727 292.516 144.077 292.545 144.419C292.581 144.755 292.559 145.088 292.479 145.417C292.401 145.734 292.282 146.048 292.12 146.36C291.966 146.668 291.802 146.976 291.628 147.284C291.339 147.804 291.08 148.323 290.85 148.842C290.621 149.36 290.566 149.889 290.687 150.431L295.052 147.972L295.551 148.857Z" fill="#0085FF"/>
<path d="M296.955 146.868C297.046 146.848 297.157 146.818 297.286 146.776C297.412 146.726 297.537 146.667 297.661 146.597C298.025 146.391 298.373 146.164 298.703 145.915C299.036 145.654 299.3 145.369 299.494 145.06C299.688 144.751 299.794 144.412 299.811 144.045C299.833 143.665 299.72 143.256 299.472 142.817C299.225 142.378 298.914 142.081 298.54 141.924C298.168 141.755 297.773 141.788 297.354 142.024C297.036 142.204 296.781 142.458 296.588 142.787C296.391 143.108 296.283 143.39 296.266 143.631L295.404 144.116L293.411 139.816L297.997 137.232L298.496 138.118L294.701 140.255L295.837 142.706C295.924 142.352 296.067 142.045 296.268 141.785C296.473 141.512 296.757 141.273 297.122 141.067C297.386 140.919 297.659 140.823 297.941 140.779C298.231 140.732 298.515 140.745 298.792 140.82C299.077 140.891 299.35 141.031 299.612 141.241C299.869 141.443 300.098 141.724 300.301 142.083C300.62 142.649 300.791 143.199 300.816 143.732C300.843 144.252 300.756 144.742 300.555 145.202C300.35 145.654 300.047 146.078 299.645 146.472C299.239 146.858 298.772 147.2 298.245 147.497C298.059 147.602 297.862 147.697 297.654 147.783C297.459 147.872 297.278 147.932 297.111 147.962L296.955 146.868Z" fill="#0085FF"/>
<path d="M313.705 138.787C313.271 139.032 312.817 139.161 312.345 139.175C311.88 139.185 311.42 139.086 310.967 138.88C310.513 138.673 310.079 138.366 309.665 137.958C309.247 137.542 308.869 137.035 308.532 136.436C308.195 135.838 307.957 135.252 307.818 134.679C307.674 134.097 307.632 133.559 307.69 133.064C307.748 132.569 307.902 132.125 308.151 131.732C308.408 131.335 308.754 131.014 309.188 130.769C309.623 130.525 310.072 130.397 310.537 130.388C311.01 130.374 311.473 130.47 311.927 130.677C312.381 130.884 312.819 131.199 313.242 131.623C313.66 132.039 314.038 132.546 314.375 133.144C314.712 133.742 314.95 134.328 315.089 134.902C315.224 135.467 315.262 135.997 315.203 136.493C315.145 136.988 314.988 137.434 314.731 137.831C314.482 138.223 314.14 138.542 313.705 138.787ZM313.193 137.878C313.775 137.55 314.085 137.002 314.123 136.234C314.156 135.459 313.914 134.612 313.397 133.695C312.876 132.77 312.275 132.12 311.594 131.747C310.914 131.374 310.283 131.351 309.701 131.679C309.119 132.007 308.811 132.559 308.778 133.334C308.744 134.11 308.988 134.96 309.51 135.885C310.026 136.803 310.625 137.448 311.306 137.821C311.982 138.187 312.611 138.205 313.193 137.878Z" fill="#0085FF"/>
<path d="M320.996 127.759L320.364 128.651C319.872 128.014 319.321 127.599 318.712 127.406C318.11 127.209 317.545 127.259 317.018 127.557C316.389 127.911 316.04 128.48 315.971 129.265C315.898 130.042 316.118 130.886 316.63 131.795C316.895 132.266 317.188 132.668 317.509 133.002C317.826 133.328 318.156 133.578 318.5 133.753C318.839 133.919 319.179 134.006 319.52 134.013C319.87 134.016 320.199 133.93 320.51 133.755C321.014 133.471 321.345 133.043 321.503 132.47C321.669 131.893 321.631 131.263 321.389 130.58L322.521 130.683C322.74 131.526 322.715 132.308 322.446 133.027C322.18 133.734 321.705 134.28 321.022 134.665C320.564 134.923 320.095 135.061 319.615 135.079C319.13 135.09 318.657 134.994 318.195 134.791C317.729 134.581 317.283 134.27 316.857 133.858C316.426 133.439 316.04 132.926 315.699 132.32C315.366 131.729 315.136 131.149 315.01 130.58C314.879 130.002 314.848 129.467 314.919 128.975C314.989 128.484 315.157 128.037 315.422 127.636C315.686 127.235 316.047 126.905 316.505 126.647C317.242 126.232 318.013 126.129 318.816 126.339C319.622 126.536 320.349 127.009 320.996 127.759Z" fill="#0085FF"/>
<path d="M327.131 131.065L323.248 124.173L320.745 125.583L320.246 124.697L326.183 121.352L326.682 122.238L324.179 123.648L328.062 130.541L327.131 131.065Z" fill="#0085FF"/>
<path d="M334.644 126.99C334.209 127.235 333.755 127.365 333.283 127.379C332.818 127.388 332.359 127.29 331.905 127.083C331.451 126.876 331.017 126.569 330.603 126.161C330.185 125.745 329.807 125.238 329.47 124.64C329.133 124.041 328.895 123.456 328.756 122.882C328.613 122.301 328.57 121.763 328.628 121.267C328.687 120.772 328.84 120.328 329.089 119.936C329.346 119.539 329.692 119.218 330.127 118.973C330.561 118.728 331.011 118.601 331.476 118.591C331.948 118.577 332.411 118.674 332.865 118.88C333.319 119.087 333.757 119.402 334.18 119.826C334.599 120.242 334.976 120.749 335.313 121.348C335.651 121.946 335.889 122.532 336.028 123.105C336.162 123.67 336.2 124.201 336.142 124.696C336.084 125.191 335.926 125.637 335.669 126.034C335.42 126.427 335.078 126.746 334.644 126.99ZM334.131 126.081C334.713 125.753 335.023 125.205 335.061 124.438C335.094 123.662 334.853 122.816 334.336 121.898C333.814 120.973 333.213 120.324 332.533 119.95C331.852 119.577 331.221 119.554 330.639 119.882C330.057 120.21 329.749 120.762 329.716 121.537C329.683 122.313 329.927 123.163 330.448 124.089C330.965 125.006 331.564 125.652 332.244 126.025C332.92 126.39 333.549 126.409 334.131 126.081Z" fill="#0085FF"/>
<path d="M339.46 124.119L335.078 116.341L337.953 114.721C338.466 114.432 339.005 114.365 339.572 114.518C340.142 114.66 340.589 115.017 340.913 115.592C341.16 116.031 341.27 116.462 341.244 116.887C341.217 117.312 341.108 117.689 340.915 118.018C341.361 117.956 341.807 118.004 342.254 118.163C342.701 118.321 343.059 118.639 343.329 119.118C343.715 119.804 343.808 120.45 343.608 121.057C343.412 121.651 342.999 122.125 342.37 122.48L339.46 124.119ZM338.232 115.652L336.475 116.642L337.924 119.215L339.589 118.277C339.907 118.098 340.106 117.807 340.186 117.404C340.269 116.99 340.201 116.587 339.98 116.196C339.787 115.853 339.525 115.633 339.194 115.535C338.871 115.434 338.55 115.472 338.232 115.652ZM340.047 119.091L338.383 120.028L339.926 122.769L341.696 121.772C341.866 121.676 342.026 121.56 342.174 121.424C342.318 121.279 342.429 121.122 342.507 120.952C342.58 120.774 342.609 120.58 342.592 120.368C342.578 120.145 342.5 119.905 342.356 119.65C342.086 119.171 341.735 118.902 341.302 118.841C340.869 118.78 340.451 118.863 340.047 119.091Z" fill="#0085FF"/>
<path d="M350.678 116.632L351.177 117.518L346.463 120.174L342.081 112.395L346.749 109.766L347.248 110.651L343.511 112.756L344.839 115.114L347.738 113.481L348.236 114.366L345.338 115.999L346.895 118.764L350.678 116.632Z" fill="#0085FF"/>
<path d="M353.35 116.294L348.967 108.516L351.994 106.811C352.591 106.474 353.191 106.378 353.794 106.522C354.4 106.653 354.871 107.018 355.208 107.617C355.545 108.215 355.674 108.789 355.595 109.338C355.511 109.879 355.301 110.313 354.964 110.639L358.727 113.264L357.645 113.874L353.996 111.263L352.285 112.227L354.281 115.769L353.35 116.294ZM352.097 107.919L350.397 108.877L351.786 111.342L353.835 110.188C354.145 110.013 354.347 109.736 354.441 109.358C354.537 108.967 354.482 108.588 354.276 108.221C354.069 107.854 353.766 107.652 353.366 107.614C352.962 107.568 352.539 107.67 352.097 107.919Z" fill="#0085FF"/>
<path d="M372.325 105.603L366.924 108.646C366.668 108.191 366.505 107.757 366.436 107.344C366.367 106.931 366.362 106.54 366.42 106.172C366.473 105.795 366.572 105.434 366.715 105.091C366.862 104.734 367.024 104.396 367.202 104.076C367.371 103.759 367.537 103.456 367.7 103.164C367.871 102.868 368.006 102.582 368.106 102.305C368.213 102.024 368.269 101.751 368.273 101.486C368.285 101.216 368.216 100.95 368.068 100.687C367.929 100.44 367.759 100.257 367.559 100.138C367.36 100.019 367.151 99.9477 366.933 99.9235C366.722 99.8949 366.51 99.9091 366.297 99.9661C366.092 100.019 365.908 100.091 365.745 100.183C365.24 100.467 364.912 100.873 364.759 101.4C364.61 101.915 364.665 102.404 364.926 102.867L364.03 103.372C363.836 103.029 363.716 102.661 363.668 102.267C363.616 101.866 363.638 101.48 363.736 101.109C363.838 100.727 364.015 100.369 364.267 100.038C364.516 99.6982 364.845 99.4125 365.257 99.1808C365.575 99.0016 365.913 98.8847 366.271 98.8303C366.628 98.7758 366.972 98.7871 367.302 98.8641C367.639 98.9368 367.955 99.0796 368.248 99.2924C368.538 99.4973 368.779 99.7713 368.972 100.114C369.174 100.473 369.29 100.823 369.319 101.165C369.355 101.501 369.333 101.834 369.253 102.163C369.175 102.48 369.056 102.794 368.894 103.106C368.74 103.414 368.576 103.721 368.403 104.03C368.113 104.55 367.854 105.069 367.624 105.588C367.395 106.106 367.34 106.635 367.461 107.177L371.826 104.718L372.325 105.603Z" fill="#0085FF"/>
<path d="M376.52 103.397C376.086 103.642 375.632 103.772 375.16 103.786C374.695 103.795 374.235 103.697 373.782 103.49C373.328 103.283 372.894 102.976 372.48 102.568C372.062 102.152 371.684 101.645 371.347 101.047C371.01 100.448 370.772 99.8624 370.633 99.2891C370.489 98.7078 370.447 98.1695 370.505 97.6742C370.563 97.1789 370.717 96.735 370.966 96.3424C371.223 95.9455 371.569 95.6246 372.003 95.3798C372.438 95.135 372.888 95.0077 373.352 94.9981C373.825 94.9841 374.288 95.0804 374.742 95.2872C375.196 95.4939 375.634 95.8092 376.057 96.2331C376.475 96.649 376.853 97.1562 377.19 97.7545C377.527 98.3528 377.765 98.9386 377.904 99.5119C378.039 100.077 378.077 100.608 378.019 101.103C377.96 101.598 377.803 102.044 377.546 102.441C377.297 102.834 376.955 103.152 376.52 103.397ZM372.29 100.515C372.483 100.858 372.688 101.168 372.906 101.445C373.126 101.71 373.353 101.94 373.585 102.134L374.108 96.1488C373.825 96.0456 373.543 95.9993 373.263 96.01C372.991 96.0164 372.73 96.0895 372.482 96.2294C371.884 96.566 371.567 97.1283 371.531 97.9161C371.502 98.6996 371.755 99.566 372.29 100.515ZM376.042 102.548C376.337 102.382 376.562 102.155 376.717 101.868C376.88 101.576 376.97 101.247 376.988 100.879C377.001 100.504 376.947 100.099 376.824 99.6633C376.705 99.2156 376.513 98.7564 376.247 98.2857C376.059 97.9506 375.86 97.6526 375.652 97.3916C375.439 97.1227 375.218 96.8948 374.99 96.7079L374.477 102.656C374.744 102.748 375.011 102.787 375.279 102.772C375.547 102.758 375.801 102.683 376.042 102.548Z" fill="#0085FF"/>
<path d="M386.284 97.7388L380.883 100.782C380.627 100.327 380.464 99.8931 380.395 99.4801C380.326 99.0671 380.321 98.6761 380.379 98.3072C380.432 97.9302 380.531 97.5699 380.674 97.2262C380.821 96.8701 380.983 96.5318 381.161 96.2113C381.33 95.8951 381.496 95.5913 381.659 95.2998C381.83 95.0039 381.965 94.7176 382.065 94.4408C382.172 94.1596 382.228 93.8865 382.232 93.6214C382.243 93.352 382.175 93.0857 382.027 92.8225C381.888 92.5751 381.718 92.3922 381.518 92.2735C381.319 92.1548 381.11 92.0833 380.891 92.0591C380.681 92.0305 380.469 92.0447 380.256 92.1018C380.051 92.1545 379.866 92.2267 379.703 92.3185C379.199 92.6027 378.871 93.0085 378.718 93.5359C378.568 94.051 378.624 94.5399 378.885 95.0026L377.989 95.5075C377.795 95.1645 377.675 94.7963 377.627 94.4028C377.574 94.0014 377.597 93.6155 377.695 93.245C377.796 92.8622 377.973 92.505 378.226 92.1734C378.475 91.8338 378.804 91.5482 379.216 91.3164C379.534 91.1372 379.872 91.0203 380.23 90.9659C380.587 90.9114 380.931 90.9227 381.261 90.9998C381.598 91.0724 381.914 91.2152 382.207 91.4281C382.497 91.6329 382.738 91.9069 382.931 92.25C383.133 92.609 383.249 92.959 383.277 93.3002C383.314 93.6371 383.292 93.97 383.212 94.2991C383.134 94.6158 383.015 94.93 382.853 95.2418C382.699 95.5493 382.535 95.8571 382.361 96.1653C382.072 96.6857 381.812 97.205 381.583 97.7232C381.354 98.2413 381.299 98.7711 381.42 99.3125L385.785 96.8533L386.284 97.7388Z" fill="#0085FF"/>
<path d="M387.502 97.0528L387.412 95.9682C387.491 95.9448 387.579 95.9109 387.677 95.8664C387.782 95.8175 387.901 95.7559 388.033 95.6816C388.398 95.4761 388.753 95.218 389.099 94.9073C389.441 94.5886 389.721 94.2417 389.939 93.8666C390.153 93.4836 390.277 93.0775 390.311 92.6483C390.341 92.2111 390.232 91.7732 389.985 91.3344C389.791 90.9914 389.543 90.7584 389.238 90.6356C388.937 90.5004 388.577 90.5509 388.158 90.787C387.98 90.8875 387.835 91.0214 387.725 91.1886C387.618 91.3435 387.522 91.5448 387.437 91.7926L387.269 92.3124L386.297 92.0563L387.716 87.8517L383.956 89.9699L383.457 89.0844L388.369 86.3169L388.868 87.2025L387.975 90.0544C388.021 90.0078 388.072 89.9631 388.13 89.9201C388.195 89.8728 388.259 89.8317 388.321 89.7967C388.74 89.5606 389.188 89.5129 389.666 89.6535C390.148 89.7818 390.557 90.1451 390.894 90.7434C391.208 91.3018 391.367 91.8642 391.369 92.4305C391.371 92.9968 391.257 93.5391 391.028 94.0572C390.794 94.5674 390.464 95.0425 390.037 95.4826C389.618 95.9184 389.145 96.2849 388.617 96.5822C388.431 96.6871 388.24 96.7841 388.045 96.8731C387.849 96.962 387.669 97.0219 387.502 97.0528Z" fill="#0085FF"/>
<path d="M278.596 175.467C279.796 174.791 280.999 174.325 282.203 174.069C283.408 173.814 284.561 173.798 285.664 174.022C286.768 174.247 287.793 174.726 288.742 175.46C289.708 176.185 290.548 177.181 291.263 178.449C292.068 179.878 292.561 181.228 292.743 182.5C292.925 183.772 292.835 184.954 292.473 186.046C292.129 187.128 291.541 188.125 290.707 189.039C289.864 189.937 288.825 190.734 287.589 191.43C286.989 191.768 286.363 192.1 285.709 192.426C285.082 192.758 284.477 193.046 283.894 193.29L275.077 177.64C275.606 177.258 276.174 176.884 276.783 176.52C277.409 176.146 278.014 175.795 278.596 175.467ZM279.692 177.165C279.463 177.294 279.211 177.447 278.938 177.622C278.682 177.787 278.418 177.957 278.144 178.132L285.062 190.411C285.354 190.268 285.645 190.125 285.937 189.982C286.228 189.839 286.489 189.703 286.718 189.574C287.883 188.917 288.759 188.202 289.345 187.427C289.941 186.627 290.305 185.808 290.438 184.972C290.589 184.126 290.545 183.263 290.305 182.383C290.056 181.487 289.687 180.605 289.199 179.739C288.738 178.92 288.18 178.219 287.526 177.636C286.863 177.037 286.122 176.609 285.303 176.351C284.501 176.084 283.621 176.009 282.664 176.125C281.724 176.232 280.734 176.578 279.692 177.165Z" fill="#0085FF"/>
<path d="M309.672 176.42L310.676 178.201L299.954 184.242L291.137 168.592L301.753 162.611L302.757 164.393L294.258 169.181L296.931 173.924L303.523 170.21L304.526 171.991L297.934 175.705L301.068 181.267L309.672 176.42Z" fill="#0085FF"/>
<path d="M315.775 175.328L306.958 159.679L313.947 155.741C315.324 154.965 316.68 154.751 318.015 155.099C319.341 155.43 320.356 156.222 321.062 157.474C321.487 158.228 321.734 158.977 321.804 159.72C321.865 160.447 321.788 161.135 321.573 161.785C321.357 162.435 321.017 163.028 320.553 163.565C320.105 164.092 319.582 164.524 318.982 164.862L314.19 167.562L317.893 174.135L315.775 175.328ZM314.474 157.791L310.08 160.267L313.186 165.781L317.554 163.319C318.348 162.872 318.883 162.211 319.158 161.337C319.442 160.438 319.366 159.602 318.932 158.832C318.48 158.029 317.84 157.533 317.013 157.344C316.185 157.155 315.339 157.304 314.474 157.791Z" fill="#0085FF"/>
<path d="M331.887 166.251L329.796 167.429L326.353 148.751L328.842 147.349L343.033 159.971L340.889 161.179L336.964 157.618L330.875 161.048L331.887 166.251ZM330.48 158.924L335.351 156.179L328.778 150.208L330.48 158.924Z" fill="#0085FF"/>
<path d="M347.365 157.531L338.548 141.881L345.431 138.003C346.79 137.237 348.128 136.97 349.444 137.201C350.768 137.407 351.77 138.111 352.448 139.315C353.126 140.519 353.347 141.695 353.111 142.843C352.865 143.975 352.351 144.899 351.568 145.615L359.596 150.64L357.134 152.027L349.359 147.018L345.467 149.211L349.483 156.338L347.365 157.531ZM345.535 140.292L341.669 142.47L344.464 147.429L349.123 144.804C349.829 144.406 350.307 143.81 350.556 143.014C350.814 142.192 350.735 141.412 350.319 140.673C349.903 139.935 349.255 139.549 348.376 139.516C347.488 139.466 346.541 139.725 345.535 140.292Z" fill="#0085FF"/>
<path d="M367.104 146.41L359.291 132.542L353.599 135.748L352.595 133.967L366.097 126.36L367.101 128.142L361.409 131.348L369.222 145.217L367.104 146.41Z" fill="#0085FF"/>
<path d="M385.019 130.131L378.847 119.176L380.965 117.983L387.097 128.866C387.938 130.359 388.091 131.869 387.556 133.396C387.013 134.908 385.885 136.146 384.173 137.11C382.461 138.075 380.818 138.398 379.243 138.08C377.66 137.745 376.448 136.832 375.607 135.339L369.475 124.457L371.593 123.263L377.765 134.218C378.281 135.133 379.032 135.682 380.019 135.866C381.007 136.05 382.038 135.839 383.115 135.232C384.192 134.626 384.907 133.853 385.261 132.913C385.615 131.974 385.535 131.046 385.019 130.131Z" fill="#0085FF"/>
<path d="M394.987 130.7L386.17 115.051L393.054 111.173C394.413 110.407 395.75 110.14 397.066 110.371C398.391 110.576 399.393 111.281 400.071 112.485C400.749 113.688 400.97 114.864 400.733 116.013C400.488 117.145 399.974 118.069 399.191 118.785L407.219 123.81L404.757 125.197L396.982 120.188L393.09 122.381L397.105 129.507L394.987 130.7ZM393.157 113.461L389.292 115.639L392.087 120.599L396.746 117.974C397.452 117.576 397.93 116.979 398.179 116.183C398.436 115.361 398.357 114.581 397.941 113.843C397.525 113.105 396.878 112.719 395.999 112.685C395.111 112.636 394.163 112.895 393.157 113.461Z" fill="#0085FF"/>
<path d="M420.792 113.815L421.796 115.597L411.074 121.638L402.257 105.988L412.873 100.007L413.877 101.788L405.378 106.576L408.05 111.319L414.643 107.605L415.646 109.387L409.054 113.101L412.188 118.663L420.792 113.815Z" fill="#0085FF"/>
<path d="M388.307 266.093L386.302 267.223L381.526 262.457L386.928 272.046L385.693 272.741L379.821 262.318L382.082 261.045L386.848 265.754L385.273 259.247L387.518 257.982L393.39 268.405L392.156 269.101L386.789 259.576L388.307 266.093Z" fill="#0085FF"/>
<path d="M399.247 265.317C398.648 265.654 398.026 265.836 397.379 265.862C396.742 265.883 396.115 265.757 395.497 265.486C394.88 265.214 394.291 264.806 393.731 264.263C393.165 263.708 392.657 263.03 392.205 262.228C391.753 261.427 391.437 260.64 391.256 259.869C391.069 259.087 391.019 258.362 391.107 257.692C391.195 257.023 391.412 256.422 391.759 255.888C392.117 255.349 392.596 254.91 393.194 254.573C393.793 254.236 394.41 254.057 395.047 254.036C395.694 254.01 396.326 254.132 396.944 254.404C397.561 254.676 398.156 255.094 398.728 255.659C399.294 256.213 399.803 256.892 400.254 257.693C400.706 258.495 401.022 259.281 401.203 260.053C401.378 260.813 401.422 261.528 401.334 262.197C401.246 262.866 401.024 263.471 400.666 264.01C400.319 264.544 399.846 264.979 399.247 265.317ZM398.56 264.098C399.362 263.646 399.795 262.902 399.859 261.866C399.917 260.82 399.6 259.681 398.907 258.452C398.209 257.212 397.397 256.346 396.471 255.853C395.546 255.36 394.683 255.34 393.881 255.792C393.079 256.243 392.649 256.993 392.591 258.039C392.533 259.086 392.853 260.229 393.552 261.47C394.244 262.699 395.053 263.56 395.979 264.053C396.898 264.534 397.759 264.55 398.56 264.098Z" fill="#0085FF"/>
<path d="M404.244 261.002L404.527 259.405C405.099 259.52 405.716 259.503 406.379 259.355C407.047 259.19 407.706 258.924 408.359 258.557C409.096 258.141 409.602 257.652 409.876 257.089C410.151 256.526 410.137 255.977 409.836 255.443C409.529 254.897 409.058 254.649 408.423 254.697C407.793 254.728 406.87 254.889 405.653 255.18C404.437 255.471 403.437 255.57 402.652 255.476C401.867 255.383 401.24 254.92 400.77 254.086C400.505 253.616 400.366 253.145 400.354 252.673C400.352 252.195 400.456 251.742 400.666 251.314C400.869 250.876 401.163 250.471 401.545 250.1C401.933 249.713 402.383 249.375 402.896 249.086C403.42 248.791 404.01 248.55 404.665 248.364C405.315 248.167 406.063 248.133 406.91 248.261L406.675 249.682C406.072 249.585 405.495 249.6 404.947 249.726C404.392 249.841 403.869 250.038 403.377 250.315C402.693 250.7 402.21 251.155 401.928 251.68C401.657 252.199 401.675 252.731 401.983 253.276C402.29 253.821 402.729 254.088 403.3 254.076C403.881 254.059 404.639 253.942 405.573 253.725C406.094 253.6 406.627 253.483 407.171 253.374C407.715 253.265 408.232 253.22 408.722 253.24C409.212 253.259 409.665 253.363 410.081 253.551C410.496 253.74 410.834 254.064 411.093 254.523C411.412 255.09 411.574 255.64 411.578 256.172C411.587 256.688 411.479 257.172 411.254 257.622C411.029 258.073 410.704 258.495 410.279 258.89C409.858 259.268 409.38 259.608 408.846 259.909C408.14 260.306 407.389 260.623 406.594 260.861C405.792 261.087 405.008 261.134 404.244 261.002Z" fill="#0085FF"/>
<path d="M419.016 244.905L418.137 246.118C417.474 245.267 416.727 244.716 415.896 244.466C415.076 244.21 414.302 244.286 413.575 244.696C412.709 245.184 412.223 245.958 412.116 247.018C412.003 248.067 412.29 249.201 412.977 250.42C413.332 251.051 413.727 251.589 414.161 252.034C414.589 252.469 415.037 252.801 415.504 253.031C415.965 253.25 416.43 253.362 416.897 253.366C417.375 253.364 417.827 253.243 418.255 253.002C418.95 252.611 419.41 252.027 419.635 251.253C419.871 250.472 419.829 249.622 419.509 248.704L421.056 248.825C421.343 249.959 421.296 251.014 420.916 251.989C420.54 252.947 419.882 253.691 418.942 254.221C418.311 254.576 417.667 254.77 417.009 254.803C416.345 254.824 415.699 254.702 415.071 254.437C414.436 254.161 413.831 253.748 413.254 253.2C412.672 252.641 412.152 251.955 411.694 251.143C411.248 250.352 410.943 249.573 410.779 248.806C410.609 248.029 410.576 247.308 410.68 246.644C410.785 245.979 411.021 245.374 411.39 244.829C411.758 244.283 412.258 243.833 412.889 243.477C413.904 242.905 414.96 242.754 416.056 243.024C417.156 243.277 418.143 243.904 419.016 244.905Z" fill="#0085FF"/>
<path d="M428.091 249.066C427.493 249.403 426.87 249.585 426.223 249.611C425.587 249.632 424.96 249.506 424.342 249.235C423.724 248.963 423.135 248.556 422.575 248.012C422.01 247.457 421.501 246.779 421.049 245.978C420.597 245.176 420.281 244.389 420.1 243.618C419.913 242.836 419.863 242.111 419.951 241.442C420.039 240.773 420.257 240.171 420.604 239.638C420.962 239.098 421.44 238.66 422.039 238.322C422.637 237.985 423.255 237.806 423.891 237.786C424.538 237.759 425.17 237.882 425.788 238.153C426.406 238.425 427.001 238.843 427.572 239.408C428.138 239.963 428.647 240.641 429.099 241.443C429.55 242.244 429.867 243.031 430.048 243.802C430.223 244.562 430.266 245.277 430.179 245.946C430.091 246.615 429.868 247.22 429.51 247.759C429.163 248.293 428.69 248.729 428.091 249.066ZM427.405 247.847C428.206 247.395 428.639 246.652 428.704 245.616C428.762 244.569 428.444 243.431 427.752 242.201C427.053 240.961 426.241 240.095 425.316 239.602C424.39 239.11 423.527 239.089 422.725 239.541C421.923 239.993 421.493 240.742 421.435 241.789C421.377 242.835 421.697 243.979 422.396 245.219C423.089 246.448 423.898 247.309 424.823 247.802C425.742 248.284 426.603 248.299 427.405 247.847Z" fill="#0085FF"/>
<path d="M438.594 242.937L434.438 237.885L436.606 244.058L434.553 245.214L427.542 235.433L428.745 234.755L435.167 243.791L433.043 237.509L434.871 236.479L439.175 241.532L434.774 231.358L435.945 230.699L440.646 241.781L438.594 242.937Z" fill="#0085FF"/>
<path d="M293.386 255.134L273.258 219.408L287.22 211.542C289.977 209.989 292.742 209.541 295.518 210.198C298.308 210.798 300.478 212.472 302.026 215.22C303.574 217.968 304.164 220.605 303.794 223.13C303.404 225.619 302.431 227.616 300.873 229.121L318.195 241.157L313.201 243.971L296.41 231.997L288.516 236.445L297.682 252.714L293.386 255.134ZM287.686 216.638L279.846 221.055L286.225 232.377L295.676 227.053C297.108 226.246 298.041 224.972 298.475 223.231C298.924 221.433 298.674 219.692 297.724 218.006C296.774 216.321 295.379 215.393 293.539 215.223C291.677 215.017 289.726 215.488 287.686 216.638Z" fill="#0085FF"/>
<path d="M336.891 216.504L322.801 191.496L327.097 189.075L341.094 213.919C343.014 217.327 343.498 220.698 342.548 224.034C341.577 227.333 339.355 229.96 335.882 231.916C332.41 233.873 329.011 234.412 325.686 233.533C322.341 232.618 319.709 230.457 317.789 227.049L303.792 202.205L308.088 199.785L322.177 224.794C323.354 226.882 324.984 228.185 327.067 228.701C329.15 229.217 331.283 228.86 333.467 227.629C335.651 226.399 337.061 224.759 337.699 222.711C338.337 220.662 338.068 218.593 336.891 216.504Z" fill="#0085FF"/>
<path d="M352.564 217.377L353.466 211.945C355.395 212.355 357.473 212.318 359.7 211.836C361.943 211.296 364.157 210.411 366.34 209.181C368.81 207.789 370.498 206.139 371.403 204.229C372.308 202.319 372.244 200.448 371.212 198.616C370.159 196.747 368.564 195.884 366.427 196.026C364.306 196.111 361.202 196.628 357.116 197.579C353.029 198.53 349.663 198.833 347.017 198.489C344.371 198.146 342.243 196.545 340.633 193.687C339.724 192.075 339.241 190.464 339.184 188.855C339.162 187.226 339.497 185.686 340.188 184.234C340.859 182.746 341.833 181.377 343.109 180.127C344.401 178.82 345.906 177.682 347.624 176.714C349.378 175.726 351.356 174.925 353.558 174.312C355.739 173.663 358.257 173.572 361.114 174.038L360.372 178.873C358.336 178.524 356.396 178.555 354.552 178.966C352.688 179.34 350.933 179.991 349.286 180.919C346.995 182.21 345.384 183.745 344.453 185.525C343.557 187.284 343.636 189.098 344.689 190.967C345.742 192.836 347.229 193.76 349.151 193.739C351.109 193.698 353.657 193.324 356.796 192.618C358.548 192.21 360.338 191.83 362.166 191.475C363.994 191.121 365.734 190.986 367.385 191.069C369.035 191.153 370.564 191.523 371.971 192.178C373.378 192.834 374.525 193.95 375.413 195.525C376.507 197.467 377.07 199.346 377.103 201.162C377.151 202.921 376.804 204.565 376.061 206.094C375.319 207.622 374.238 209.052 372.818 210.383C371.414 211.657 369.817 212.798 368.027 213.806C365.664 215.138 363.146 216.194 360.474 216.975C357.781 217.72 355.144 217.854 352.564 217.377Z" fill="#0085FF"/>
<path d="M384.763 199.236L385.664 193.805C387.593 194.215 389.671 194.178 391.899 193.695C394.141 193.156 396.355 192.271 398.538 191.041C401.009 189.649 402.696 187.998 403.601 186.089C404.506 184.179 404.442 182.308 403.41 180.476C402.357 178.607 400.762 177.744 398.626 177.885C396.504 177.97 393.4 178.488 389.314 179.439C385.227 180.389 381.861 180.693 379.215 180.349C376.569 180.006 374.441 178.405 372.831 175.547C371.922 173.934 371.44 172.324 371.382 170.715C371.36 169.086 371.695 167.545 372.387 166.094C373.057 164.606 374.031 163.237 375.307 161.986C376.599 160.679 378.104 159.542 379.822 158.574C381.576 157.586 383.554 156.785 385.756 156.172C387.937 155.523 390.455 155.431 393.312 155.898L392.57 160.733C390.534 160.383 388.594 160.414 386.75 160.825C384.886 161.2 383.131 161.851 381.484 162.779C379.193 164.07 377.582 165.605 376.651 167.384C375.756 169.144 375.834 170.958 376.887 172.827C377.94 174.696 379.427 175.62 381.349 175.599C383.307 175.558 385.856 175.184 388.995 174.477C390.746 174.07 392.536 173.689 394.364 173.335C396.192 172.981 397.932 172.845 399.583 172.929C401.233 173.013 402.762 173.383 404.169 174.038C405.576 174.694 406.723 175.809 407.611 177.385C408.705 179.327 409.269 181.206 409.301 183.022C409.349 184.781 409.002 186.425 408.26 187.953C407.517 189.482 406.436 190.912 405.016 192.243C403.612 193.517 402.015 194.658 400.225 195.666C397.862 196.997 395.344 198.054 392.672 198.835C389.979 199.58 387.343 199.714 384.763 199.236Z" fill="#0085FF"/>
<path d="M441.152 166.526L443.444 170.593L420.89 183.299L418.599 179.232L427.728 174.089L412.182 146.497L403.054 151.64L400.762 147.573L423.316 134.866L425.607 138.934L416.478 144.077L432.023 171.669L441.152 166.526Z" fill="#0085FF"/>
<path d="M455.183 163.979L450.941 166.369L441.713 124.501L446.761 121.657L477.79 151.242L473.44 153.693L464.851 145.354L452.5 152.312L455.183 163.979ZM451.444 147.549L461.324 141.982L446.939 128.001L451.444 147.549Z" fill="#0085FF"/>
<path d="M338.487 266.09L339.385 267.684L330.682 272.587L329.784 270.993L333.307 269.009L327.215 258.196L323.692 260.18L322.794 258.586L331.497 253.683L332.395 255.277L328.873 257.262L334.965 268.075L338.487 266.09Z" fill="#0085FF"/>
<path d="M345.749 257.147L343.159 258.606L336.824 252.158L344.081 265.039L342.485 265.938L334.597 251.937L337.519 250.291L343.838 256.662L341.642 247.968L344.543 246.333L352.431 260.334L350.836 261.233L343.627 248.439L345.749 257.147Z" fill="#0085FF"/>
<path d="M358.173 250.147L355.583 251.606L349.248 245.158L356.505 258.039L354.909 258.938L347.022 244.937L349.943 243.291L356.263 249.663L354.067 240.968L356.967 239.334L364.855 253.334L363.26 254.233L356.052 241.439L358.173 250.147Z" fill="#0085FF"/>
<path d="M375.76 245.091L376.658 246.685L367.955 251.588L367.057 249.994L370.58 248.009L364.488 237.196L360.965 239.181L360.067 237.587L368.77 232.684L369.668 234.278L366.146 236.263L372.238 247.075L375.76 245.091Z" fill="#0085FF"/>
<path d="M381.799 234.85L386.13 232.41L389.431 238.268C388.885 239.238 388.276 239.998 387.603 240.547C386.93 241.097 386.241 241.57 385.536 241.967C384.597 242.496 383.664 242.794 382.738 242.862C381.803 242.916 380.91 242.767 380.056 242.415C379.195 242.049 378.382 241.495 377.618 240.752C376.846 239.996 376.153 239.071 375.538 237.98C374.939 236.918 374.524 235.874 374.293 234.85C374.054 233.812 374.009 232.844 374.159 231.947C374.308 231.049 374.645 230.226 375.169 229.476C375.707 228.719 376.432 228.084 377.343 227.57C378.366 226.994 379.344 226.68 380.278 226.626C381.213 226.573 382.123 226.703 383.01 227.017L382.621 228.797C381.975 228.555 381.26 228.466 380.477 228.529C379.693 228.592 378.998 228.795 378.39 229.137C377.022 229.908 376.26 231.009 376.102 232.441C375.95 233.851 376.335 235.374 377.258 237.011C378.245 238.763 379.44 239.915 380.843 240.468C382.252 240.998 383.73 240.828 385.277 239.956C385.622 239.762 385.973 239.545 386.33 239.306C386.693 239.045 387.012 238.723 387.288 238.341L385.37 234.938L382.697 236.443L381.799 234.85Z" fill="#0085FF"/>
<path d="M393.301 237.308L385.413 223.307L390.801 220.272C391.864 219.673 392.935 219.505 394.011 219.769C395.094 220.01 395.938 220.669 396.545 221.746C397.152 222.823 397.387 223.854 397.25 224.839C397.106 225.81 396.734 226.587 396.134 227.171L402.874 231.915L400.947 233L394.413 228.282L391.367 229.998L394.959 236.374L393.301 237.308ZM390.994 222.263L387.969 223.967L390.469 228.404L394.116 226.35C394.668 226.039 395.026 225.544 395.19 224.865C395.359 224.164 395.258 223.484 394.886 222.823C394.514 222.162 393.971 221.797 393.258 221.726C392.536 221.64 391.782 221.819 390.994 222.263Z" fill="#0085FF"/>
<path d="M406.037 230.133L404.4 231.055L400.718 214.685L402.666 213.587L414.76 225.218L413.082 226.164L409.733 222.886L404.968 225.571L406.037 230.133ZM404.546 223.708L408.359 221.56L402.751 216.065L404.546 223.708Z" fill="#0085FF"/>
<path d="M421.175 221.604L414.185 209.197L409.73 211.707L408.832 210.113L419.4 204.16L420.298 205.753L415.843 208.263L422.833 220.67L421.175 221.604Z" fill="#0085FF"/>
<path d="M437.882 210.092L438.78 211.686L430.077 216.589L429.179 214.995L432.702 213.01L426.61 202.197L423.087 204.182L422.189 202.588L430.892 197.685L431.79 199.279L428.267 201.264L434.359 212.076L437.882 210.092Z" fill="#0085FF"/>
<path d="M446.974 207.353C446.201 207.789 445.392 208.017 444.549 208.038C443.719 208.052 442.898 207.871 442.087 207.496C441.275 207.121 440.498 206.565 439.756 205.83C439.005 205.079 438.327 204.166 437.72 203.089C437.113 202.012 436.683 200.958 436.43 199.928C436.169 198.883 436.089 197.916 436.189 197.028C436.289 196.139 436.559 195.343 437.001 194.641C437.456 193.93 438.07 193.357 438.843 192.921C439.617 192.486 440.419 192.261 441.248 192.248C442.092 192.226 442.919 192.403 443.731 192.778C444.543 193.153 445.328 193.723 446.086 194.488C446.837 195.238 447.515 196.152 448.122 197.229C448.729 198.306 449.158 199.359 449.411 200.39C449.656 201.406 449.729 202.358 449.629 203.247C449.529 204.135 449.251 204.935 448.796 205.645C448.355 206.348 447.748 206.917 446.974 207.353ZM446.052 205.716C447.088 205.132 447.636 204.152 447.697 202.774C447.75 201.382 447.312 199.861 446.381 198.209C445.443 196.543 444.365 195.373 443.147 194.697C441.929 194.021 440.802 193.975 439.766 194.558C438.73 195.142 438.185 196.13 438.132 197.522C438.079 198.914 438.522 200.442 439.461 202.108C440.391 203.76 441.465 204.923 442.683 205.599C443.893 206.261 445.016 206.3 446.052 205.716Z" fill="#0085FF"/>
<path d="M461.059 199.134L449.168 188.978L456.376 201.772L454.781 202.671L446.893 188.67L449.877 186.989L461.098 196.586L454.29 184.503L455.886 183.604L463.774 197.604L461.059 199.134Z" fill="#0085FF"/>
</svg>
