<svg width="377" height="406" viewBox="0 0 377 406" fill="none" xmlns="http://www.w3.org/2000/svg">
<circle cx="120.871" cy="149.171" r="87.3686" transform="rotate(-0.142935 120.871 149.171)" fill="white" stroke="#0085FF" stroke-width="3"/>
<circle cx="120.871" cy="149.171" r="72.4782" transform="rotate(-0.142935 120.871 149.171)" stroke="#0085FF"/>
<rect x="1.15239" y="121.632" width="239.887" height="55.0878" transform="rotate(-0.142935 1.15239 121.632)" fill="white" stroke="#0085FF" stroke-width="2"/>
<path d="M13.1966 160.288L13.1425 138.624L22.0236 138.602C23.7729 138.597 25.1984 139.172 26.3002 140.324C27.402 141.455 27.955 142.887 27.9593 144.62C27.962 145.664 27.7961 146.598 27.4617 147.421C27.1273 148.221 26.6805 148.9 26.1212 149.457C25.5619 150.014 24.9126 150.438 24.1732 150.729C23.4563 151.019 22.7165 151.165 21.954 151.167L15.8651 151.183L15.8878 160.282L13.1966 160.288ZM21.4242 141.07L15.8399 141.084L15.8589 148.716L21.4096 148.702C22.4188 148.7 23.2925 148.32 24.0307 147.563C24.7913 146.783 25.1703 145.86 25.1676 144.793C25.1648 143.682 24.815 142.783 24.118 142.096C23.4211 141.409 22.5231 141.067 21.4242 141.07Z" fill="#0085FF"/>
<path d="M39.4238 160.556C38.1679 160.559 37.0122 160.295 35.9568 159.765C34.9238 159.234 34.0361 158.481 33.2936 157.505C32.551 156.529 31.9762 155.364 31.5692 154.01C31.1621 152.633 30.9564 151.112 30.9523 149.445C30.9481 147.779 31.1461 146.256 31.5464 144.877C31.9466 143.477 32.5155 142.286 33.2532 141.307C33.9908 140.327 34.8748 139.57 35.9051 139.034C36.9578 138.498 38.1122 138.228 39.3681 138.225C40.624 138.222 41.7684 138.486 42.8014 139.017C43.8568 139.547 44.7557 140.3 45.4983 141.276C46.2408 142.252 46.8157 143.439 47.2228 144.838C47.63 146.215 47.8356 147.736 47.8398 149.403C47.8439 151.069 47.6459 152.592 47.2456 153.971C46.8453 155.327 46.2763 156.495 45.5387 157.475C44.801 158.454 43.9058 159.212 42.8531 159.748C41.8228 160.283 40.6797 160.553 39.4238 160.556ZM39.4175 158.023C41.0995 158.019 42.4543 157.227 43.482 155.646C44.5097 154.044 45.0203 151.965 45.014 149.41C45.0075 146.832 44.4865 144.745 43.4509 143.148C42.4152 141.551 41.0564 140.754 39.3744 140.758C37.6924 140.762 36.3375 141.566 35.3099 143.168C34.2822 144.771 33.7716 146.861 33.7781 149.438C33.7844 151.993 34.3054 154.07 35.3411 155.667C36.3766 157.242 37.7354 158.027 39.4175 158.023Z" fill="#0085FF"/>
<path d="M51.2462 158.16L53.1244 155.889C53.9335 156.576 54.9328 157.096 56.1223 157.448C57.3342 157.778 58.6241 157.942 59.9922 157.938C61.5396 157.935 62.7835 157.609 63.7238 156.963C64.6642 156.316 65.1329 155.437 65.1302 154.326C65.1273 153.193 64.5983 152.383 63.543 151.897C62.5101 151.388 60.8939 150.826 58.6945 150.209C56.4952 149.592 54.8113 148.863 53.643 148.022C52.4747 147.18 51.8884 145.893 51.884 144.16C51.8816 143.182 52.0813 142.315 52.4831 141.559C52.9073 140.802 53.4776 140.179 54.1941 139.688C54.9105 139.175 55.7393 138.795 56.6807 138.549C57.6443 138.28 58.6644 138.144 59.7409 138.141C60.8399 138.138 61.9952 138.28 63.207 138.566C64.4187 138.829 65.6425 139.437 66.8784 140.39L65.2351 142.427C64.3587 141.74 63.4267 141.254 62.4392 140.967C61.4517 140.659 60.4421 140.506 59.4104 140.508C57.9751 140.512 56.7984 140.804 55.8804 141.384C54.9847 141.964 54.5383 142.82 54.5411 143.953C54.544 145.087 55.0057 145.897 55.9265 146.383C56.8696 146.87 58.1828 147.355 59.8661 147.84C60.8086 148.104 61.7625 148.391 62.7276 148.699C63.6928 149.008 64.5572 149.395 65.3209 149.859C66.0846 150.324 66.7139 150.889 67.209 151.554C67.704 152.22 67.9528 153.03 67.9551 153.986C67.9581 155.163 67.7251 156.175 67.2562 157.02C66.8098 157.844 66.2059 158.512 65.4447 159.025C64.6834 159.538 63.7873 159.918 62.7563 160.165C61.7476 160.389 60.6826 160.503 59.5612 160.506C58.0811 160.51 56.6005 160.347 55.1195 160.017C53.6384 159.665 52.3473 159.046 51.2462 158.16Z" fill="#0085FF"/>
<path d="M78.4195 160.126L78.3717 140.928L71.139 140.946L71.1328 138.479L88.2894 138.436L88.2956 140.903L81.0629 140.921L81.1108 160.119L78.4195 160.126Z" fill="#0085FF"/>
<path d="M120.108 160.355C118.852 160.358 117.697 160.094 116.641 159.564C115.608 159.033 114.721 158.28 113.978 157.304C113.235 156.328 112.661 155.163 112.254 153.808C111.846 152.432 111.641 150.91 111.637 149.244C111.633 147.577 111.831 146.055 112.231 144.676C112.631 143.275 113.2 142.085 113.938 141.106C114.675 140.126 115.559 139.368 116.59 138.832C117.642 138.297 118.797 138.027 120.053 138.024C121.308 138.021 122.453 138.285 123.486 138.815C124.541 139.346 125.44 140.099 126.183 141.075C126.925 142.051 127.5 143.238 127.907 144.637C128.314 146.014 128.52 147.535 128.524 149.202C128.528 150.868 128.33 152.391 127.93 153.769C127.53 155.126 126.961 156.294 126.223 157.273C125.485 158.253 124.59 159.01 123.538 159.546C122.507 160.082 121.364 160.352 120.108 160.355ZM120.102 157.822C121.784 157.818 123.139 157.025 124.166 155.445C125.194 153.843 125.705 151.764 125.698 149.209C125.692 146.631 125.171 144.544 124.135 142.947C123.1 141.349 121.741 140.553 120.059 140.557C118.377 140.561 117.022 141.364 115.994 142.967C114.967 144.569 114.456 146.659 114.462 149.237C114.469 151.792 114.99 153.868 116.025 155.466C117.061 157.041 118.42 157.826 120.102 157.822Z" fill="#0085FF"/>
<path d="M135.771 159.982L135.717 138.318L150.552 138.281L150.558 140.748L138.414 140.778L138.432 148.11L146.472 148.09L146.479 150.557L138.438 150.577L138.462 159.976L135.771 159.982Z" fill="#0085FF"/>
<path d="M155.942 159.932L155.888 138.268L170.723 138.231L170.729 140.697L158.585 140.728L158.603 148.06L166.643 148.04L166.65 150.506L158.61 150.526L158.633 159.925L155.942 159.932Z" fill="#0085FF"/>
<path d="M187.679 157.387L187.685 159.853L173.556 159.888L173.55 157.422L179.269 157.408L179.227 140.676L173.508 140.69L173.502 138.224L187.631 138.189L187.637 140.655L181.918 140.669L181.96 157.401L187.679 157.387Z" fill="#0085FF"/>
<path d="M210.209 145.498L207.723 146.638C207.426 144.705 206.727 143.174 205.625 142.043C204.546 140.913 203.244 140.349 201.719 140.353C199.902 140.358 198.435 141.15 197.318 142.731C196.2 144.289 195.645 146.334 195.651 148.868C195.654 150.179 195.803 151.378 196.097 152.466C196.392 153.532 196.809 154.453 197.349 155.229C197.889 155.983 198.53 156.571 199.271 156.991C200.035 157.411 200.865 157.62 201.762 157.618C203.22 157.614 204.474 157.1 205.526 156.075C206.6 155.051 207.292 153.671 207.601 151.937L209.96 153.498C209.404 155.544 208.388 157.168 206.911 158.372C205.456 159.553 203.742 160.146 201.768 160.151C200.445 160.154 199.245 159.891 198.167 159.36C197.089 158.807 196.167 158.043 195.402 157.067C194.637 156.069 194.04 154.882 193.611 153.505C193.181 152.107 192.964 150.563 192.96 148.874C192.956 147.23 193.165 145.73 193.588 144.373C194.01 142.994 194.602 141.826 195.362 140.869C196.122 139.912 197.04 139.165 198.115 138.629C199.19 138.093 200.389 137.824 201.713 137.82C203.843 137.815 205.661 138.51 207.167 139.906C208.696 141.28 209.71 143.144 210.209 145.498Z" fill="#0085FF"/>
<path d="M228.593 157.284L228.599 159.751L214.975 159.785L214.921 138.121L228.411 138.087L228.417 140.553L217.618 140.58L217.635 147.146L226.011 147.125L226.017 149.592L217.641 149.613L217.66 157.312L228.593 157.284Z" fill="#0085FF"/>
<circle cx="207.176" cy="236.177" r="92.5754" transform="rotate(32.1366 207.176 236.177)" fill="white" stroke="#0085FF" stroke-width="3"/>
<circle cx="206.941" cy="236.681" r="85.3481" transform="rotate(32.1366 206.941 236.681)" stroke="#0085FF"/>
<circle cx="206.884" cy="236.702" r="63.7608" transform="rotate(32.1366 206.884 236.702)" stroke="#0085FF"/>
<path d="M191.958 249.031L196.338 240.695C196.851 239.717 196.475 238.508 195.497 237.994L176.943 228.246C176.436 227.98 175.838 227.944 175.302 228.147L166.114 231.643C164.392 232.298 162.775 230.474 163.632 228.843L167.688 221.123C168.202 220.145 167.825 218.936 166.848 218.422L165.695 217.817C164.717 217.303 164.341 216.094 164.854 215.116L166.096 212.753C166.609 211.775 167.819 211.399 168.796 211.913L169.949 212.518C170.927 213.032 172.136 212.656 172.65 211.678L175.465 206.319C176.322 204.689 178.741 204.985 179.179 206.774L181.514 216.324C181.65 216.881 182.019 217.353 182.526 217.619L201.08 227.367C202.058 227.881 203.267 227.504 203.781 226.527L207.547 219.359C207.721 219.027 207.799 218.653 207.771 218.279L205.244 184.496C205.064 182.083 208.526 181.483 209.167 183.817L219.939 222.999C220.085 223.532 220.447 223.981 220.937 224.239L228.959 228.454C229.937 228.967 230.313 230.177 229.8 231.154L228.558 233.517C228.045 234.495 226.836 234.871 225.858 234.358L224.37 233.576C223.119 232.919 221.599 233.731 221.451 235.136L221.149 237.992C221.063 238.807 221.482 239.592 222.208 239.973L253.325 256.321C253.676 256.506 253.964 256.791 254.153 257.14L257.004 262.405C257.681 263.655 256.873 265.193 255.459 265.345L249.506 265.985C249.112 266.028 248.713 265.952 248.362 265.767L217.245 249.419C216.519 249.038 215.635 249.138 215.013 249.671L212.832 251.541C211.76 252.46 211.953 254.173 213.204 254.83L214.692 255.611C215.669 256.125 216.046 257.334 215.532 258.312L214.911 259.494C214.397 260.472 213.188 260.848 212.21 260.334L204.188 256.12C203.698 255.862 203.123 255.819 202.6 256.001L165.645 268.868C163.344 269.669 161.881 266.44 164.001 265.239L191.173 249.841C191.507 249.651 191.779 249.37 191.958 249.031Z" fill="#0085FF"/>
<path d="M266.157 274.281L266.91 273.266L273.329 282.07L272.434 283.278L262.145 279.692L262.917 278.651L265.78 279.679L267.972 276.723L266.157 274.281ZM268.704 277.724L266.95 280.088L271.747 281.813L268.704 277.724Z" fill="#0085FF"/>
<path d="M255.701 288.3L254.875 287.452L259.691 282.765L260.516 283.613L258.567 285.51L264.169 291.266L266.119 289.369L266.944 290.218L262.129 294.905L261.303 294.056L263.252 292.159L257.65 286.403L255.701 288.3Z" fill="#0085FF"/>
<path d="M251.156 290.775L257.112 299.3L253.701 301.683C253.028 302.153 252.328 302.343 251.601 302.252C250.871 302.176 250.278 301.811 249.819 301.155C249.361 300.499 249.152 299.845 249.191 299.193C249.236 298.55 249.442 298.016 249.809 297.591L245.096 295.008L246.316 294.156L250.891 296.737L252.819 295.39L250.107 291.508L251.156 290.775ZM253.469 300.401L255.384 299.063L253.497 296.361L251.188 297.974C250.839 298.218 250.627 298.567 250.554 299.022C250.479 299.491 250.581 299.926 250.862 300.329C251.143 300.731 251.522 300.928 251.998 300.921C252.481 300.922 252.971 300.749 253.469 300.401Z" fill="#0085FF"/>
<path d="M235.285 304.377L237.142 303.634L240.712 308.288L237.154 299.406L238.298 298.948L242.165 308.602L240.071 309.441L236.503 304.837L237.115 310.625L235.036 311.458L231.169 301.804L232.312 301.345L235.847 310.168L235.285 304.377Z" fill="#0085FF"/>
<path d="M226.669 303.324L227.903 303.047L227.012 313.906L225.545 314.236L220.097 304.8L221.362 304.516L222.858 307.164L226.449 306.358L226.669 303.324ZM226.349 307.594L223.477 308.239L225.982 312.678L226.349 307.594Z" fill="#0085FF"/>
<path d="M209.548 307.098L209.476 305.916L216.184 305.508L216.256 306.69L213.541 306.855L214.028 314.872L216.743 314.707L216.815 315.889L210.107 316.297L210.035 315.115L212.75 314.95L212.263 306.933L209.548 307.098Z" fill="#0085FF"/>
<path d="M197.514 306.475L197.633 305.297L204.016 305.945L202.966 316.292L201.692 316.162L202.623 306.994L197.514 306.475Z" fill="#0085FF"/>
<path d="M188.605 303.486L189.802 303.891L183.389 312.699L181.964 312.217L182.225 301.324L183.453 301.74L183.352 304.781L186.837 305.961L188.605 303.486ZM186.109 306.965L183.32 306.02L183.149 311.114L186.109 306.965Z" fill="#0085FF"/>
<path d="M172.022 297.761L172.577 296.715L178.514 299.863L177.959 300.909L175.556 299.635L171.793 306.731L174.196 308.005L173.641 309.051L167.704 305.903L168.259 304.857L170.662 306.131L174.425 299.035L172.022 297.761Z" fill="#0085FF"/>
<path d="M168.007 293.979L161.685 302.236L158.382 299.707C157.729 299.208 157.337 298.598 157.203 297.878C157.054 297.16 157.223 296.483 157.71 295.848C158.196 295.212 158.756 294.815 159.389 294.655C160.015 294.503 160.587 294.537 161.103 294.758L162.138 289.485L163.319 290.389L162.244 295.531L164.112 296.961L166.991 293.201L168.007 293.979ZM159.533 299.098L161.388 300.518L163.392 297.901L161.156 296.189C160.817 295.93 160.42 295.834 159.965 295.902C159.495 295.972 159.111 296.202 158.813 296.591C158.514 296.981 158.441 297.402 158.592 297.853C158.737 298.313 159.051 298.728 159.533 299.098Z" fill="#0085FF"/>
<path d="M150.419 283.155L151.695 284.694L148.359 289.519L155.724 283.411L156.51 284.36L148.505 290.998L147.065 289.262L150.354 284.455L145.032 286.811L143.602 285.086L151.608 278.448L152.394 279.396L145.079 285.463L150.419 283.155Z" fill="#0085FF"/>
<path d="M148.801 274.62L149.438 275.712L138.818 278.145L138.06 276.846L145.408 268.801L146.061 269.921L143.989 272.148L145.843 275.327L148.801 274.62ZM144.634 275.605L143.151 273.062L139.677 276.792L144.634 275.605Z" fill="#0085FF"/>
<path d="M140.026 259.429L141.13 259L143.56 265.265L142.456 265.694L141.473 263.158L133.984 266.063L134.968 268.599L133.864 269.027L131.434 262.762L132.538 262.333L133.522 264.869L141.01 261.964L140.026 259.429Z" fill="#0085FF"/>
<path d="M137.002 247.812L138.161 247.57L139.475 253.849L129.296 255.98L129.033 254.727L138.054 252.839L137.002 247.812Z" fill="#0085FF"/>
<path d="M137.142 238.375L137.121 239.639L126.775 236.222L126.8 234.718L137.251 231.64L137.23 232.936L134.304 233.768L134.244 237.448L137.142 238.375ZM133.067 237.06L133.114 234.117L128.211 235.509L133.067 237.06Z" fill="#0085FF"/>
<path d="M137.535 220.862L138.7 221.073L137.5 227.685L136.335 227.474L136.821 224.797L128.918 223.364L128.432 226.04L127.267 225.829L128.467 219.217L129.632 219.428L129.146 222.104L137.049 223.538L137.535 220.862Z" fill="#0085FF"/>
<path d="M139.821 216.224L130.023 212.737L131.418 208.818C131.693 208.044 132.153 207.483 132.798 207.135C133.436 206.774 134.132 206.727 134.886 206.995C135.64 207.264 136.19 207.674 136.536 208.228C136.873 208.778 137.015 209.332 136.963 209.891L142.3 209.26L141.801 210.662L136.577 211.215L135.789 213.43L140.251 215.018L139.821 216.224ZM132.351 209.728L131.568 211.928L134.673 213.033L135.617 210.38C135.76 209.978 135.73 209.571 135.526 209.159C135.315 208.733 134.978 208.438 134.516 208.273C134.054 208.109 133.631 208.168 133.247 208.45C132.854 208.729 132.555 209.155 132.351 209.728Z" fill="#0085FF"/>
<path d="M144.859 195.976L143.782 197.662L138.169 195.955L146.232 201.107L145.569 202.145L136.805 196.545L138.02 194.644L143.6 196.311L139.734 191.961L140.94 190.074L149.704 195.674L149.041 196.712L141.032 191.594L144.859 195.976Z" fill="#0085FF"/>
<path d="M152.504 191.809L151.661 192.751L146.079 183.394L147.082 182.273L156.997 186.791L156.133 187.756L153.376 186.469L150.922 189.211L152.504 191.809ZM150.285 188.147L152.249 185.954L147.631 183.795L150.285 188.147Z" fill="#0085FF"/>
<path d="M164.279 178.805L165.02 179.728L159.784 183.939L159.042 183.016L161.161 181.312L156.128 175.052L154.008 176.757L153.266 175.834L158.503 171.623L159.245 172.546L157.126 174.25L162.159 180.509L164.279 178.805Z" fill="#0085FF"/>
<path d="M174.319 172.435L174.905 173.465L169.327 176.635L164.187 167.594L165.3 166.962L169.854 174.974L174.319 172.435Z" fill="#0085FF"/>
<path d="M183.417 169.658L182.206 170.02L182.345 159.125L183.786 158.695L189.872 167.733L188.63 168.103L186.954 165.564L183.428 166.616L183.417 169.658ZM183.442 165.377L186.263 164.535L183.457 160.279L183.442 165.377Z" fill="#0085FF"/>
<path d="M200.189 164.714L200.343 165.888L193.679 166.759L193.526 165.585L196.223 165.232L195.182 157.268L192.485 157.621L192.331 156.447L198.994 155.576L199.148 156.75L196.451 157.102L197.492 165.067L200.189 164.714Z" fill="#0085FF"/>
<path d="M205.309 165.458L205.631 155.063L209.789 155.192C210.61 155.217 211.285 155.484 211.813 155.991C212.353 156.488 212.61 157.136 212.585 157.936C212.56 158.735 212.337 159.385 211.916 159.884C211.496 160.373 211.011 160.678 210.463 160.799L212.697 165.687L211.21 165.641L209.086 160.837L206.735 160.764L206.588 165.498L205.309 165.458ZM209.208 156.358L206.874 156.286L206.771 159.581L209.586 159.668C210.013 159.681 210.391 159.527 210.721 159.207C211.062 158.876 211.24 158.465 211.255 157.975C211.271 157.484 211.085 157.1 210.699 156.821C210.313 156.531 209.816 156.377 209.208 156.358Z" fill="#0085FF"/>
<path d="M225.936 163.988L224.003 163.477L223.914 157.612L221.47 166.862L220.278 166.548L222.936 156.493L225.117 157.069L225.233 162.892L228.195 157.883L230.361 158.455L227.703 168.51L226.512 168.195L228.941 159.007L225.936 163.988Z" fill="#0085FF"/>
<path d="M231.957 169.863L230.802 169.35L237.995 161.166L239.369 161.777L238.112 172.6L236.928 172.073L237.307 169.055L233.944 167.56L231.957 169.863ZM234.761 166.628L237.451 167.824L238.089 162.767L234.761 166.628Z" fill="#0085FF"/>
<path d="M248.411 177.328L247.758 178.316L242.152 174.61L242.804 173.623L245.074 175.122L249.502 168.422L247.233 166.922L247.886 165.934L253.492 169.64L252.839 170.627L250.57 169.128L246.141 175.828L248.411 177.328Z" fill="#0085FF"/>
<path d="M257.729 185.094L256.926 185.964L252.212 181.612L259.267 173.971L260.207 174.839L253.955 181.61L257.729 185.094Z" fill="#0085FF"/>
<path d="M263.026 192.765L262.314 191.72L272.736 188.544L273.583 189.786L266.822 198.33L266.091 197.259L268.001 194.891L265.928 191.851L263.026 192.765ZM267.113 191.488L268.772 193.92L271.974 189.954L267.113 191.488Z" fill="#0085FF"/>
<path d="M272.905 207.409L271.832 207.909L268.994 201.817L270.067 201.317L271.216 203.783L278.497 200.392L277.348 197.926L278.422 197.426L281.259 203.518L280.186 204.018L279.037 201.552L271.756 204.943L272.905 207.409Z" fill="#0085FF"/>
<path d="M273.73 212.51L283.738 209.682L284.87 213.685C285.093 214.476 285.042 215.199 284.718 215.856C284.407 216.521 283.867 216.961 283.097 217.179C282.327 217.396 281.641 217.38 281.038 217.129C280.445 216.875 280.008 216.505 279.727 216.02L275.74 219.623L275.336 218.191L279.275 214.717L278.636 212.454L274.078 213.742L273.73 212.51ZM283.582 213.484L282.947 211.236L279.775 212.132L280.541 214.842C280.657 215.252 280.918 215.567 281.323 215.785C281.741 216.01 282.186 216.056 282.659 215.923C283.131 215.789 283.442 215.496 283.591 215.044C283.75 214.589 283.748 214.069 283.582 213.484Z" fill="#0085FF"/>
<path d="M281.342 231.326L281.235 229.328L286.791 227.445L277.236 227.956L277.171 226.726L287.556 226.171L287.676 228.423L282.17 230.32L287.846 231.603L287.966 233.84L277.58 234.395L277.515 233.164L287.005 232.657L281.342 231.326Z" fill="#0085FF"/>
<path d="M277.597 239.243L277.734 237.987L287.721 242.343L287.558 243.838L276.867 245.939L277.007 244.651L279.998 244.092L280.397 240.434L277.597 239.243ZM281.534 240.928L281.215 243.854L286.225 242.92L281.534 240.928Z" fill="#0085FF"/>
<path d="M275.684 256.512L274.543 256.196L276.334 249.719L277.475 250.035L276.75 252.656L284.492 254.797L285.217 252.175L286.358 252.49L284.567 258.968L283.426 258.652L284.151 256.03L276.409 253.89L275.684 256.512Z" fill="#0085FF"/>
<path d="M271.124 267.901L270.05 267.403L272.746 261.581L282.183 265.952L281.645 267.114L273.283 263.24L271.124 267.901Z" fill="#0085FF"/>
<circle cx="241.591" cy="112.591" r="55.4936" transform="rotate(-77.3979 241.591 112.591)" fill="white" stroke="#0085FF" stroke-width="3"/>
<circle cx="241.927" cy="112.623" r="51.5092" transform="rotate(-77.3979 241.927 112.623)" stroke="#0085FF" stroke-dasharray="2 2"/>
<circle cx="241.95" cy="112.652" r="38.431" transform="rotate(-77.3979 241.95 112.652)" stroke="#0085FF"/>
<rect x="210.304" y="116.9" width="53.9678" height="33.6767" rx="1" transform="rotate(-39.5099 210.304 116.9)" fill="#0085FF" stroke="white" stroke-width="2"/>
<path d="M274.582 108.674L245.379 109.468" stroke="white" stroke-width="2" stroke-linejoin="round"/>
<path d="M231.611 144.109L238.035 116.001" stroke="white" stroke-width="2" stroke-linejoin="round"/>
<path d="M209.077 116.782L242.298 115.887C243.202 115.862 243.978 115.233 244.189 114.353L252.097 81.306" stroke="white" stroke-width="2" stroke-linejoin="round"/>
</svg>
