<svg width="1202" height="325" viewBox="0 0 1202 325" fill="none" xmlns="http://www.w3.org/2000/svg">
<path d="M184.684 156.636H136.648L98.6037 20.9829V250.786H69.0137V1H123.198L161.627 135.5L199.671 1H253.471V250.786H223.881V22.52L184.684 156.636Z" fill="white"/>
<path d="M507.718 202.366C507.718 217.993 503.363 230.675 494.652 240.41C486.198 249.889 474.926 254.629 460.835 254.629C450.331 254.629 441.493 251.81 434.319 246.174C427.146 240.538 422.663 234.005 420.869 226.576C413.184 235.286 403.961 242.203 393.201 247.327C382.697 252.195 371.425 254.629 359.384 254.629C341.706 254.629 327.488 250.273 316.728 241.563C306.224 232.596 300.972 220.94 300.972 206.593C300.972 191.221 306.352 178.796 317.112 169.317C327.872 159.838 342.091 153.305 359.768 149.719C369.247 147.669 378.982 146.004 388.974 144.723C398.965 143.442 409.341 142.289 420.101 141.264V127.43C420.101 114.108 415.489 104.629 406.266 98.9929C397.3 93.3567 387.565 90.5386 377.061 90.5386C365.276 90.5386 355.413 93.2286 347.471 98.6086C339.529 103.732 335.558 110.265 335.558 118.207C335.558 118.463 335.558 119.104 335.558 120.129C335.814 120.897 336.07 121.922 336.326 123.203L307.505 128.967C307.249 126.405 306.865 123.971 306.352 121.666C306.096 119.36 305.968 117.951 305.968 117.439C305.968 101.555 313.013 88.4891 327.104 78.2414C341.194 67.7376 358.615 62.4857 379.366 62.4857C401.655 62.4857 419.076 68.1219 431.629 79.3943C444.439 90.6667 450.844 105.398 450.844 123.587V214.279C450.844 218.121 451.996 221.324 454.302 223.886C456.608 226.448 459.81 227.729 463.909 227.729C469.545 227.729 473.901 224.91 476.975 219.274C480.049 213.382 481.586 205.696 481.586 196.217L507.718 202.366ZM332.868 203.134C332.868 210.564 335.558 216.584 340.938 221.196C346.574 225.807 353.875 228.113 362.842 228.113C374.115 228.113 384.875 225.423 395.122 220.043C405.37 214.663 413.696 207.49 420.101 198.523V164.706C408.572 165.987 397.3 167.524 386.284 169.317C375.267 171.11 366.173 173.032 358.999 175.081C350.801 177.387 344.396 181.23 339.785 186.61C335.174 191.734 332.868 197.242 332.868 203.134Z" fill="white"/>
<path d="M548.302 323.8C548.558 304.586 548.686 283.834 548.686 261.546C548.686 239.513 548.686 217.353 548.686 195.064C548.686 172.52 548.686 150.231 548.686 128.199C548.686 106.166 548.558 85.5429 548.302 66.3286H579.045C579.045 70.4276 578.917 74.5267 578.661 78.6257C578.661 82.7248 578.533 86.8238 578.276 90.9229C585.45 81.7 594.032 74.6548 604.023 69.7872C614.271 64.9195 625.159 62.4857 636.688 62.4857C647.448 62.4857 657.567 64.6633 667.046 69.0186C676.782 73.3738 685.108 79.6505 692.025 87.8486C699.198 96.0467 704.834 106.166 708.934 118.207C713.033 129.992 715.082 143.442 715.082 158.557C715.082 173.672 713.033 187.25 708.934 199.291C704.834 211.076 699.198 221.068 692.025 229.266C685.108 237.464 676.782 243.741 667.046 248.096C657.567 252.451 647.448 254.629 636.688 254.629C625.159 254.629 614.271 252.195 604.023 247.327C594.032 242.46 585.45 235.286 578.276 225.807C578.533 228.881 578.661 232.852 578.661 237.72C578.917 242.331 579.045 246.687 579.045 250.786V323.8H548.302ZM629.386 226.96C643.989 226.96 656.671 220.811 667.431 208.514C678.191 195.961 683.571 179.309 683.571 158.557C683.571 137.806 678.191 121.281 667.431 108.984C656.671 96.431 643.989 90.1543 629.386 90.1543C614.784 90.1543 602.102 96.431 591.342 108.984C580.582 121.281 575.202 137.806 575.202 158.557C575.202 179.309 580.582 195.961 591.342 208.514C602.102 220.811 614.784 226.96 629.386 226.96Z" fill="white"/>
<path d="M778.339 250.786V66.3286H809.082V143.954H842.899L912.455 66.3286H950.883L870.568 155.867L957.032 250.786H913.992L842.13 172.391H809.082V250.786H778.339Z" fill="white"/>
<path d="M1198.98 202.366C1198.98 217.993 1194.63 230.675 1185.92 240.41C1177.46 249.889 1166.19 254.629 1152.1 254.629C1141.6 254.629 1132.76 251.81 1125.58 246.174C1118.41 240.538 1113.93 234.005 1112.13 226.576C1104.45 235.286 1095.22 242.203 1084.46 247.327C1073.96 252.195 1062.69 254.629 1050.65 254.629C1032.97 254.629 1018.75 250.273 1007.99 241.563C997.488 232.596 992.236 220.94 992.236 206.593C992.236 191.221 997.616 178.796 1008.38 169.317C1019.14 159.838 1033.35 153.305 1051.03 149.719C1060.51 147.669 1070.25 146.004 1080.24 144.723C1090.23 143.442 1100.6 142.289 1111.36 141.264V127.43C1111.36 114.108 1106.75 104.629 1097.53 98.9929C1088.56 93.3567 1078.83 90.5386 1068.32 90.5386C1056.54 90.5386 1046.68 93.2286 1038.73 98.6086C1030.79 103.732 1026.82 110.265 1026.82 118.207C1026.82 118.463 1026.82 119.104 1026.82 120.129C1027.08 120.897 1027.33 121.922 1027.59 123.203L998.769 128.967C998.513 126.405 998.129 123.971 997.616 121.666C997.36 119.36 997.232 117.951 997.232 117.439C997.232 101.555 1004.28 88.4891 1018.37 78.2414C1032.46 67.7376 1049.88 62.4857 1070.63 62.4857C1092.92 62.4857 1110.34 68.1219 1122.89 79.3943C1135.7 90.6667 1142.11 105.398 1142.11 123.587V214.279C1142.11 218.121 1143.26 221.324 1145.57 223.886C1147.87 226.448 1151.07 227.729 1155.17 227.729C1160.81 227.729 1165.16 224.91 1168.24 219.274C1171.31 213.382 1172.85 205.696 1172.85 196.217L1198.98 202.366ZM1024.13 203.134C1024.13 210.564 1026.82 216.584 1032.2 221.196C1037.84 225.807 1045.14 228.113 1054.11 228.113C1065.38 228.113 1076.14 225.423 1086.39 220.043C1096.63 214.663 1104.96 207.49 1111.36 198.523V164.706C1099.84 165.987 1088.56 167.524 1077.55 169.317C1066.53 171.11 1057.44 173.032 1050.26 175.081C1042.07 177.387 1035.66 181.23 1031.05 186.61C1026.44 191.734 1024.13 197.242 1024.13 203.134Z" fill="white"/>
<path d="M512.471 65.63V251" stroke="white"/>
<path d="M275.785 250.786L275.785 66.0001" stroke="white"/>
<path d="M50 250.786L52.8868 245.786L47.1133 245.786L50 250.786ZM50 65.63L47.1132 70.63L52.8868 70.63L50 65.63ZM49.5 68.6489L49.5 70.6614L50.5 70.6614L50.5 68.6489L49.5 68.6489ZM49.5 72.674L49.5 74.6865L50.5 74.6865L50.5 72.674L49.5 72.674ZM49.5 76.6991L49.5 78.7117L50.5 78.7117L50.5 76.6991L49.5 76.6991ZM49.5 80.7242L49.5 82.7368L50.5 82.7368L50.5 80.7242L49.5 80.7242ZM49.5 84.7494L49.5 86.7619L50.5 86.7619L50.5 84.7494L49.5 84.7494ZM49.5 88.7745L49.5 90.7871L50.5 90.7871L50.5 88.7745L49.5 88.7745ZM49.5 92.7996L49.5 94.8122L50.5 94.8122L50.5 92.7996L49.5 92.7996ZM49.5 96.8247L49.5 98.8373L50.5 98.8373L50.5 96.8247L49.5 96.8247ZM49.5 100.85L49.5 102.862L50.5 102.862L50.5 100.85L49.5 100.85ZM49.5 104.875L49.5 106.888L50.5 106.888L50.5 104.875L49.5 104.875ZM49.5 108.9L49.5 110.913L50.5 110.913L50.5 108.9L49.5 108.9ZM49.5 112.925L49.5 114.938L50.5 114.938L50.5 112.925L49.5 112.925ZM49.5 116.95L49.5 118.963L50.5 118.963L50.5 116.95L49.5 116.95ZM49.5 120.975L49.5 122.988L50.5 122.988L50.5 120.975L49.5 120.975ZM49.5 125.001L49.5 127.013L50.5 127.013L50.5 125.001L49.5 125.001ZM49.5 129.026L49.5 131.038L50.5 131.038L50.5 129.026L49.5 129.026ZM49.5 133.051L49.5 135.063L50.5 135.063L50.5 133.051L49.5 133.051ZM49.5 137.076L49.5 139.089L50.5 139.089L50.5 137.076L49.5 137.076ZM49.5 141.101L49.5 143.114L50.5 143.114L50.5 141.101L49.5 141.101ZM49.5 145.126L49.5 147.139L50.5 147.139L50.5 145.126L49.5 145.126ZM49.5 149.151L49.5 151.164L50.5 151.164L50.5 149.151L49.5 149.151ZM49.5 153.177L49.5 155.189L50.5 155.189L50.5 153.177L49.5 153.177ZM49.5 157.202L49.5 159.214L50.5 159.214L50.5 157.202L49.5 157.202ZM49.5 161.227L49.5 163.239L50.5 163.239L50.5 161.227L49.5 161.227ZM49.5 165.252L49.5 167.264L50.5 167.264L50.5 165.252L49.5 165.252ZM49.5 169.277L49.5 171.29L50.5 171.29L50.5 169.277L49.5 169.277ZM49.5 173.302L49.5 175.315L50.5 175.315L50.5 173.302L49.5 173.302ZM49.5 177.327L49.5 179.34L50.5 179.34L50.5 177.327L49.5 177.327ZM49.5 181.352L49.5 183.365L50.5 183.365L50.5 181.352L49.5 181.352ZM49.5 185.378L49.5 187.39L50.5 187.39L50.5 185.378L49.5 185.378ZM49.5 189.403L49.5 191.415L50.5 191.415L50.5 189.403L49.5 189.403ZM49.5 193.428L49.5 195.44L50.5 195.44L50.5 193.428L49.5 193.428ZM49.5 197.453L49.5 199.466L50.5 199.466L50.5 197.453L49.5 197.453ZM49.5 201.478L49.5 203.491L50.5 203.491L50.5 201.478L49.5 201.478ZM49.5 205.503L49.5 207.516L50.5 207.516L50.5 205.503L49.5 205.503ZM49.5 209.528L49.5 211.541L50.5 211.541L50.5 209.528L49.5 209.528ZM49.5 213.553L49.5 215.566L50.5 215.566L50.5 213.553L49.5 213.553ZM49.5 217.579L49.5 219.591L50.5 219.591L50.5 217.579L49.5 217.579ZM49.5 221.604L49.5 223.616L50.5 223.616L50.5 221.604L49.5 221.604ZM49.5 225.629L49.5 227.641L50.5 227.641L50.5 225.629L49.5 225.629ZM49.5 229.654L49.5 231.666L50.5 231.666L50.5 229.654L49.5 229.654ZM49.5 233.679L49.5 235.692L50.5 235.692L50.5 233.679L49.5 233.679ZM49.5 237.704L49.5 239.717L50.5 239.717L50.5 237.704L49.5 237.704ZM49.5 241.729L49.5 243.742L50.5 243.742L50.5 241.729L49.5 241.729ZM49.5 245.754L49.5 247.767L50.5 247.767L50.5 245.754L49.5 245.754Z" fill="white"/>
<path d="M986.715 251V66.0001" stroke="white"/>
<path d="M749.156 66.0001V250.786" stroke="white"/>
<path d="M14 250.786L1201.56 250.786" stroke="white" stroke-linejoin="round"/>
<path d="M14 324L1201.56 324M14 1.00012L1201.56 1.00012" stroke="white" stroke-linejoin="round"/>
<path d="M1175.36 66.3329H11.5" stroke="white" stroke-linejoin="round"/>
<path d="M12.826 161.372V163H1.232V161.372H6.6V150.57L3.036 152.66L1.87 151.472L6.6 148.7H8.36V161.372H12.826ZM19.7914 163.22C18.1341 163.22 16.8067 162.839 15.8094 162.076C14.8121 161.313 14.3134 160.294 14.3134 159.018C14.3134 158.182 14.5334 157.449 14.9734 156.818C15.4134 156.187 16.0294 155.703 16.8214 155.366C16.1467 155.058 15.6187 154.64 15.2374 154.112C14.8561 153.569 14.6654 152.939 14.6654 152.22C14.6654 151.091 15.1347 150.189 16.0734 149.514C17.0121 148.825 18.2587 148.48 19.8134 148.48C21.3534 148.48 22.5927 148.825 23.5314 149.514C24.4701 150.189 24.9394 151.091 24.9394 152.22C24.9394 152.939 24.7487 153.569 24.3674 154.112C23.9861 154.64 23.4507 155.058 22.7614 155.366C23.5534 155.703 24.1694 156.187 24.6094 156.818C25.0641 157.449 25.2914 158.182 25.2914 159.018C25.2914 160.294 24.7854 161.313 23.7734 162.076C22.7761 162.839 21.4487 163.22 19.7914 163.22ZM19.7914 154.706C20.7741 154.706 21.5661 154.493 22.1674 154.068C22.7687 153.628 23.0694 153.049 23.0694 152.33C23.0694 151.611 22.7687 151.047 22.1674 150.636C21.5661 150.225 20.7741 150.02 19.7914 150.02C18.8087 150.02 18.0167 150.225 17.4154 150.636C16.8141 151.047 16.5134 151.611 16.5134 152.33C16.5134 153.049 16.8141 153.628 17.4154 154.068C18.0167 154.493 18.8087 154.706 19.7914 154.706ZM19.7914 161.68C20.8914 161.68 21.7714 161.431 22.4314 160.932C23.1061 160.419 23.4434 159.744 23.4434 158.908C23.4434 158.043 23.1061 157.346 22.4314 156.818C21.7714 156.29 20.8914 156.026 19.7914 156.026C18.6914 156.026 17.8041 156.29 17.1294 156.818C16.4694 157.346 16.1394 158.043 16.1394 158.908C16.1394 159.744 16.4694 160.419 17.1294 160.932C17.8041 161.431 18.6914 161.68 19.7914 161.68ZM28.8028 161.328C28.9495 161.372 29.1328 161.416 29.3528 161.46C29.5728 161.489 29.8001 161.504 30.0348 161.504C30.7241 161.504 31.4061 161.46 32.0808 161.372C32.7701 161.269 33.3788 161.079 33.9068 160.8C34.4348 160.521 34.8601 160.133 35.1828 159.634C35.5201 159.121 35.6888 158.461 35.6888 157.654C35.6888 156.847 35.4835 156.187 35.0728 155.674C34.6768 155.146 34.0828 154.882 33.2908 154.882C32.6895 154.882 32.1175 155.036 31.5748 155.344C31.0321 155.637 30.6508 155.945 30.4308 156.268H28.8028L29.4188 148.7H38.0868V150.328H30.9148L30.5628 154.64C30.9735 154.215 31.4281 153.899 31.9268 153.694C32.4401 153.474 33.0415 153.364 33.7308 153.364C34.2295 153.364 34.6988 153.445 35.1388 153.606C35.5935 153.767 35.9895 154.009 36.3268 154.332C36.6788 154.655 36.9575 155.065 37.1628 155.564C37.3681 156.048 37.4708 156.62 37.4708 157.28C37.4708 158.321 37.2728 159.223 36.8768 159.986C36.4955 160.734 35.9748 161.35 35.3148 161.834C34.6548 162.303 33.8775 162.655 32.9828 162.89C32.0881 163.11 31.1421 163.22 30.1448 163.22C29.7928 163.22 29.4335 163.198 29.0668 163.154C28.7148 163.125 28.4068 163.066 28.1428 162.978L28.8028 161.328Z" fill="white"/>
<path d="M859.99 295H849.782C849.782 294.164 849.899 293.431 850.134 292.8C850.369 292.169 850.677 291.619 851.058 291.15C851.439 290.666 851.872 290.241 852.356 289.874C852.855 289.493 853.361 289.148 853.874 288.84C854.373 288.532 854.857 288.239 855.326 287.96C855.81 287.681 856.235 287.388 856.602 287.08C856.983 286.772 857.284 286.435 857.504 286.068C857.739 285.701 857.856 285.276 857.856 284.792C857.856 284.337 857.761 283.949 857.57 283.626C857.379 283.303 857.137 283.039 856.844 282.834C856.565 282.629 856.25 282.482 855.898 282.394C855.561 282.306 855.238 282.262 854.93 282.262C853.977 282.262 853.177 282.57 852.532 283.186C851.901 283.787 851.586 284.513 851.586 285.364H849.892C849.892 284.733 850.017 284.125 850.266 283.538C850.515 282.937 850.86 282.416 851.3 281.976C851.755 281.521 852.297 281.162 852.928 280.898C853.559 280.619 854.263 280.48 855.04 280.48C855.641 280.48 856.221 280.583 856.778 280.788C857.335 280.993 857.819 281.279 858.23 281.646C858.655 282.013 858.993 282.46 859.242 282.988C859.491 283.501 859.616 284.073 859.616 284.704C859.616 285.364 859.499 285.943 859.264 286.442C859.044 286.941 858.743 287.388 858.362 287.784C857.995 288.165 857.57 288.51 857.086 288.818C856.617 289.126 856.133 289.427 855.634 289.72C854.798 290.219 854.006 290.739 853.258 291.282C852.51 291.825 852.004 292.521 851.74 293.372H859.99V295ZM862.291 295L863.039 293.416C863.171 293.445 863.325 293.467 863.501 293.482C863.692 293.497 863.912 293.504 864.161 293.504C864.851 293.504 865.569 293.423 866.317 293.262C867.065 293.086 867.747 292.822 868.363 292.47C868.979 292.103 869.485 291.634 869.881 291.062C870.277 290.475 870.475 289.779 870.475 288.972C870.475 288.341 870.307 287.821 869.969 287.41C869.647 286.985 869.089 286.772 868.297 286.772C867.96 286.772 867.645 286.845 867.351 286.992C867.073 287.124 866.772 287.329 866.449 287.608L865.789 288.202L864.601 287.08L870.035 282.328H862.929V280.7H872.213V282.328L868.627 285.606C868.73 285.577 868.84 285.555 868.957 285.54C869.089 285.525 869.214 285.518 869.331 285.518C870.123 285.518 870.805 285.804 871.377 286.376C871.964 286.933 872.257 287.762 872.257 288.862C872.257 289.889 872.03 290.798 871.575 291.59C871.121 292.382 870.519 293.049 869.771 293.592C869.023 294.12 868.165 294.523 867.197 294.802C866.244 295.081 865.269 295.22 864.271 295.22C863.919 295.22 863.567 295.205 863.215 295.176C862.863 295.147 862.555 295.088 862.291 295ZM880.939 295.22C880.191 295.22 879.494 295.088 878.849 294.824C878.203 294.545 877.646 294.157 877.177 293.658C876.707 293.145 876.333 292.514 876.055 291.766C875.791 291.018 875.659 290.167 875.659 289.214C875.659 287.747 875.849 286.464 876.231 285.364C876.612 284.264 877.125 283.355 877.771 282.636C878.416 281.917 879.164 281.382 880.015 281.03C880.88 280.663 881.789 280.48 882.743 280.48C883.183 280.48 883.623 280.524 884.063 280.612C884.517 280.685 884.972 280.803 885.427 280.964L884.899 282.46C884.547 282.343 884.202 282.255 883.865 282.196C883.527 282.137 883.197 282.108 882.875 282.108C882.127 282.108 881.43 282.255 880.785 282.548C880.139 282.827 879.582 283.223 879.113 283.736C878.643 284.235 878.255 284.836 877.947 285.54C877.653 286.244 877.47 287.007 877.397 287.828C877.763 287.285 878.277 286.831 878.937 286.464C879.611 286.097 880.411 285.914 881.335 285.914C882.083 285.914 882.743 286.031 883.315 286.266C883.887 286.486 884.356 286.794 884.723 287.19C885.104 287.571 885.39 288.026 885.581 288.554C885.771 289.082 885.867 289.647 885.867 290.248C885.867 291.744 885.412 292.947 884.503 293.856C883.608 294.765 882.42 295.22 880.939 295.22ZM880.939 293.68C881.819 293.68 882.581 293.409 883.227 292.866C883.872 292.309 884.195 291.502 884.195 290.446C884.195 289.463 883.887 288.715 883.271 288.202C882.655 287.674 881.877 287.41 880.939 287.41C880.044 287.41 879.274 287.711 878.629 288.312C877.983 288.899 877.661 289.61 877.661 290.446C877.661 291.326 877.983 292.089 878.629 292.734C879.274 293.365 880.044 293.68 880.939 293.68Z" fill="white"/>
<path d="M750 271L755 273.887V268.113L750 271ZM986.5 271L981.5 268.113V273.887L986.5 271ZM753.006 271.5H755.011V270.5H753.006V271.5ZM757.015 271.5H759.019V270.5H757.015V271.5ZM761.023 271.5H763.028V270.5H761.023V271.5ZM765.032 271.5H767.036V270.5H765.032V271.5ZM769.04 271.5H771.044V270.5H769.04V271.5ZM773.049 271.5H775.053V270.5H773.049V271.5ZM777.057 271.5H779.061V270.5H777.057V271.5ZM781.066 271.5H783.07V270.5H781.066V271.5ZM785.074 271.5H787.078V270.5H785.074V271.5ZM789.083 271.5H791.087V270.5H789.083V271.5ZM793.091 271.5H795.095V270.5H793.091V271.5ZM797.1 271.5H799.104V270.5H797.1V271.5ZM801.108 271.5H803.112V270.5H801.108V271.5ZM805.117 271.5H807.121V270.5H805.117V271.5ZM809.125 271.5H811.129V270.5H809.125V271.5ZM813.133 271.5H815.138V270.5H813.133V271.5ZM817.142 271.5H819.146V270.5H817.142V271.5ZM821.15 271.5H823.155V270.5H821.15V271.5ZM825.159 271.5H827.163V270.5H825.159V271.5ZM829.167 271.5H831.172V270.5H829.167V271.5ZM833.176 271.5H835.18V270.5H833.176V271.5ZM837.184 271.5H839.189V270.5H837.184V271.5ZM841.193 271.5H843.197V270.5H841.193V271.5ZM845.201 271.5H847.205V270.5H845.201V271.5ZM849.21 271.5H851.214V270.5H849.21V271.5ZM853.218 271.5H855.222V270.5H853.218V271.5ZM857.227 271.5H859.231V270.5H857.227V271.5ZM861.235 271.5H863.239V270.5H861.235V271.5ZM865.244 271.5H867.248V270.5H865.244V271.5ZM869.252 271.5H871.256V270.5H869.252V271.5ZM873.261 271.5H875.265V270.5H873.261V271.5ZM877.269 271.5H879.273V270.5H877.269V271.5ZM881.277 271.5H883.282V270.5H881.277V271.5ZM885.286 271.5H887.29V270.5H885.286V271.5ZM889.294 271.5H891.299V270.5H889.294V271.5ZM893.303 271.5H895.307V270.5H893.303V271.5ZM897.311 271.5H899.316V270.5H897.311V271.5ZM901.32 271.5H903.324V270.5H901.32V271.5ZM905.328 271.5H907.333V270.5H905.328V271.5ZM909.337 271.5H911.341V270.5H909.337V271.5ZM913.345 271.5H915.35V270.5H913.345V271.5ZM917.354 271.5H919.358V270.5H917.354V271.5ZM921.362 271.5H923.367V270.5H921.362V271.5ZM925.371 271.5H927.375V270.5H925.371V271.5ZM929.379 271.5H931.384V270.5H929.379V271.5ZM933.388 271.5H935.392V270.5H933.388V271.5ZM937.396 271.5H939.4V270.5H937.396V271.5ZM941.405 271.5H943.409V270.5H941.405V271.5ZM945.413 271.5H947.417V270.5H945.413V271.5ZM949.422 271.5H951.426V270.5H949.422V271.5ZM953.43 271.5H955.434V270.5H953.43V271.5ZM957.439 271.5H959.443V270.5H957.439V271.5ZM961.447 271.5H963.451V270.5H961.447V271.5ZM965.456 271.5H967.46V270.5H965.456V271.5ZM969.464 271.5H971.468V270.5H969.464V271.5ZM973.473 271.5H975.477V270.5H973.473V271.5ZM977.481 271.5H979.485V270.5H977.481V271.5ZM981.49 271.5H983.494V270.5H981.49V271.5Z" fill="white"/>
<path d="M539 252L536.113 257L541.887 257L539 252ZM539 323L541.887 318L536.113 318L539 323ZM538.5 254.958L538.5 256.931L539.5 256.931L539.5 254.958L538.5 254.958ZM538.5 258.903L538.5 260.875L539.5 260.875L539.5 258.903L538.5 258.903ZM538.5 262.847L538.5 264.82L539.5 264.82L539.5 262.847L538.5 262.847ZM538.5 266.792L538.5 268.764L539.5 268.764L539.5 266.792L538.5 266.792ZM538.5 270.736L538.5 272.708L539.5 272.708L539.5 270.736L538.5 270.736ZM538.5 274.681L538.5 276.653L539.5 276.653L539.5 274.681L538.5 274.681ZM538.5 278.625L538.5 280.597L539.5 280.597L539.5 278.625L538.5 278.625ZM538.5 282.57L538.5 284.542L539.5 284.542L539.5 282.57L538.5 282.57ZM538.5 286.514L538.5 288.486L539.5 288.486L539.5 286.514L538.5 286.514ZM538.5 290.458L538.5 292.431L539.5 292.431L539.5 290.458L538.5 290.458ZM538.5 294.403L538.5 296.375L539.5 296.375L539.5 294.403L538.5 294.403ZM538.5 298.347L538.5 300.32L539.5 300.32L539.5 298.347L538.5 298.347ZM538.5 302.292L538.5 304.264L539.5 304.264L539.5 302.292L538.5 302.292ZM538.5 306.236L538.5 308.208L539.5 308.208L539.5 306.236L538.5 306.236ZM538.5 310.181L538.5 312.153L539.5 312.153L539.5 310.181L538.5 310.181ZM538.5 314.125L538.5 316.097L539.5 316.097L539.5 314.125L538.5 314.125ZM538.5 318.07L538.5 320.042L539.5 320.042L539.5 318.07L538.5 318.07Z" fill="white"/>
<path d="M501.752 295C501.752 292.169 502.133 289.749 502.896 287.74C503.673 285.716 505.089 283.912 507.142 282.328H500.212V284.66H498.452V280.7H509.54V282.328C507.296 283.941 505.719 285.745 504.81 287.74C503.915 289.735 503.468 292.155 503.468 295H501.752ZM522.181 295H511.973C511.973 294.164 512.091 293.431 512.325 292.8C512.56 292.169 512.868 291.619 513.249 291.15C513.631 290.666 514.063 290.241 514.547 289.874C515.046 289.493 515.552 289.148 516.065 288.84C516.564 288.532 517.048 288.239 517.517 287.96C518.001 287.681 518.427 287.388 518.793 287.08C519.175 286.772 519.475 286.435 519.695 286.068C519.93 285.701 520.047 285.276 520.047 284.792C520.047 284.337 519.952 283.949 519.761 283.626C519.571 283.303 519.329 283.039 519.035 282.834C518.757 282.629 518.441 282.482 518.089 282.394C517.752 282.306 517.429 282.262 517.121 282.262C516.168 282.262 515.369 282.57 514.723 283.186C514.093 283.787 513.777 284.513 513.777 285.364H512.083C512.083 284.733 512.208 284.125 512.457 283.538C512.707 282.937 513.051 282.416 513.491 281.976C513.946 281.521 514.489 281.162 515.119 280.898C515.75 280.619 516.454 280.48 517.231 280.48C517.833 280.48 518.412 280.583 518.969 280.788C519.527 280.993 520.011 281.279 520.421 281.646C520.847 282.013 521.184 282.46 521.433 282.988C521.683 283.501 521.807 284.073 521.807 284.704C521.807 285.364 521.69 285.943 521.455 286.442C521.235 286.941 520.935 287.388 520.553 287.784C520.187 288.165 519.761 288.51 519.277 288.818C518.808 289.126 518.324 289.427 517.825 289.72C516.989 290.219 516.197 290.739 515.449 291.282C514.701 291.825 514.195 292.521 513.931 293.372H522.181V295Z" fill="white"/>
<path d="M260 65.0001L262.887 60.0001H257.113L260 65.0001ZM260 2.00012L257.113 7.00012H262.887L260 2.00012ZM259.5 4.95325V6.922H260.5V4.95325H259.5ZM259.5 8.89075V10.8595H260.5V8.89075H259.5ZM259.5 12.8282V14.797H260.5V12.8282H259.5ZM259.5 16.7657V18.7345H260.5V16.7657H259.5ZM259.5 20.7032V22.672H260.5V20.7032H259.5ZM259.5 24.6407V26.6095H260.5V24.6407H259.5ZM259.5 28.5782V30.547H260.5V28.5782H259.5ZM259.5 32.5157V34.4845H260.5V32.5157H259.5ZM259.5 36.4532V38.422H260.5V36.4532H259.5ZM259.5 40.3907V42.3595H260.5V40.3907H259.5ZM259.5 44.3282V46.297H260.5V44.3282H259.5ZM259.5 48.2657V50.2345H260.5V48.2657H259.5ZM259.5 52.2032V54.172H260.5V52.2032H259.5ZM259.5 56.1407V58.1095H260.5V56.1407H259.5ZM259.5 60.0782V62.047H260.5V60.0782H259.5Z" fill="white"/>
<path d="M279.556 41.2201C278.808 41.2201 278.111 41.0881 277.466 40.8241C276.821 40.5455 276.263 40.1568 275.794 39.6581C275.325 39.1448 274.951 38.5141 274.672 37.7661C274.408 37.0181 274.276 36.1675 274.276 35.2141C274.276 33.7475 274.467 32.4641 274.848 31.3641C275.229 30.2641 275.743 29.3548 276.388 28.6361C277.033 27.9175 277.781 27.3821 278.632 27.0301C279.497 26.6635 280.407 26.4801 281.36 26.4801C281.8 26.4801 282.24 26.5241 282.68 26.6121C283.135 26.6855 283.589 26.8028 284.044 26.9641L283.516 28.4601C283.164 28.3428 282.819 28.2548 282.482 28.1961C282.145 28.1375 281.815 28.1081 281.492 28.1081C280.744 28.1081 280.047 28.2548 279.402 28.5481C278.757 28.8268 278.199 29.2228 277.73 29.7361C277.261 30.2348 276.872 30.8361 276.564 31.5401C276.271 32.2441 276.087 33.0068 276.014 33.8281C276.381 33.2855 276.894 32.8308 277.554 32.4641C278.229 32.0975 279.028 31.9141 279.952 31.9141C280.7 31.9141 281.36 32.0315 281.932 32.2661C282.504 32.4861 282.973 32.7941 283.34 33.1901C283.721 33.5715 284.007 34.0261 284.198 34.5541C284.389 35.0821 284.484 35.6468 284.484 36.2481C284.484 37.7441 284.029 38.9468 283.12 39.8561C282.225 40.7655 281.037 41.2201 279.556 41.2201ZM279.556 39.6801C280.436 39.6801 281.199 39.4088 281.844 38.8661C282.489 38.3088 282.812 37.5021 282.812 36.4461C282.812 35.4635 282.504 34.7155 281.888 34.2021C281.272 33.6741 280.495 33.4101 279.556 33.4101C278.661 33.4101 277.891 33.7108 277.246 34.3121C276.601 34.8988 276.278 35.6101 276.278 36.4461C276.278 37.3261 276.601 38.0888 277.246 38.7341C277.891 39.3648 278.661 39.6801 279.556 39.6801ZM288.611 39.3281C288.758 39.3721 288.941 39.4161 289.161 39.4601C289.381 39.4895 289.609 39.5041 289.843 39.5041C290.533 39.5041 291.215 39.4601 291.889 39.3721C292.579 39.2695 293.187 39.0788 293.715 38.8001C294.243 38.5215 294.669 38.1328 294.991 37.6341C295.329 37.1208 295.497 36.4608 295.497 35.6541C295.497 34.8475 295.292 34.1875 294.881 33.6741C294.485 33.1461 293.891 32.8821 293.099 32.8821C292.498 32.8821 291.926 33.0361 291.383 33.3441C290.841 33.6375 290.459 33.9455 290.239 34.2681H288.611L289.227 26.7001H297.895V28.3281H290.723L290.371 32.6401C290.782 32.2148 291.237 31.8995 291.735 31.6941C292.249 31.4741 292.85 31.3641 293.539 31.3641C294.038 31.3641 294.507 31.4448 294.947 31.6061C295.402 31.7675 295.798 32.0095 296.135 32.3321C296.487 32.6548 296.766 33.0655 296.971 33.5641C297.177 34.0481 297.279 34.6201 297.279 35.2801C297.279 36.3215 297.081 37.2235 296.685 37.9861C296.304 38.7341 295.783 39.3501 295.123 39.8341C294.463 40.3035 293.686 40.6555 292.791 40.8901C291.897 41.1101 290.951 41.2201 289.953 41.2201C289.601 41.2201 289.242 41.1981 288.875 41.1541C288.523 41.1248 288.215 41.0661 287.951 40.9781L288.611 39.3281Z" fill="white"/>
</svg>
