<svg width="402" height="628" viewBox="0 0 402 628" fill="none" xmlns="http://www.w3.org/2000/svg">
<path d="M57.2174 1.59077L1.37047 93.9034C1.27601 94.0596 1.22607 94.2386 1.22607 94.4211L1.22607 625.856C1.22607 626.408 1.6738 626.856 2.22608 626.856H399.325C399.877 626.856 400.325 626.408 400.325 625.856V94.4156C400.325 94.2366 400.277 94.0608 400.186 93.9067L345.611 1.59947C345.431 1.29511 345.104 1.1084 344.75 1.1084L58.073 1.1084C57.723 1.1084 57.3985 1.29134 57.2174 1.59077Z" fill="#0085FF" stroke="#0085FF" stroke-width="2" stroke-linejoin="round"/>
<rect x="4.95605" y="98.5576" width="391.639" height="493.739" fill="white"/>
<path d="M191.451 431.912H396.595" stroke="#0085FF" stroke-linejoin="round"/>
<path d="M4.95605 172.684L396.595 172.684" stroke="#0085FF" stroke-linejoin="round"/>
<path d="M292.158 383.423H396.595" stroke="#0085FF" stroke-linejoin="round"/>
<path d="M4.95605 383.423H109.393" stroke="#0085FF" stroke-linejoin="round"/>
<path d="M191.451 515.834H396.595" stroke="#0085FF" stroke-linejoin="round"/>
<circle cx="107.159" cy="498.75" r="70.9436" fill="white" stroke="#0085FF"/>
<path d="M155.111 505.463H124.839C124.488 505.463 124.163 505.647 123.982 505.947L101.454 543.371C97.2351 549.63 88.948 549.514 91.5855 543.371L107.623 506.865C107.913 506.204 107.429 505.463 106.707 505.463H76.0752C75.7463 505.463 75.4384 505.625 75.2518 505.896L68.1488 516.204C65.0657 519.994 57.6637 515.572 61.3645 509.886L66.1557 501.91C66.2492 501.754 66.2985 501.576 66.2985 501.395V494.953C66.2985 494.801 66.2639 494.651 66.1972 494.515L61.3645 484.614C59.5149 480.191 64.449 477.664 68.1488 482.086L75.2501 490.573C75.4401 490.8 75.7209 490.932 76.017 490.932H106.113C106.829 490.932 107.313 490.201 107.034 489.542L91.5855 453.024C89.3578 447.82 97.8241 448.8 100.22 453.024L123.979 490.467C124.162 490.756 124.481 490.932 124.823 490.932H155.111C163.129 490.932 163.746 505.463 155.111 505.463Z" fill="#0085FF"/>
<path d="M227.777 562.803H225.411L231.49 543.094H234.305L240.384 562.803H237.958L236.311 557.284H229.424L227.777 562.803ZM230.113 555.041H235.623L232.868 545.793L230.113 555.041Z" fill="#0085FF"/>
<path d="M257.142 560.559V562.803H244.565V560.559H249.656V545.338H244.565V543.094H257.142V545.338H252.051V560.559H257.142Z" fill="#0085FF"/>
<path d="M263.239 562.803V543.094H271.025C272.562 543.094 273.84 543.559 274.858 544.489C275.896 545.399 276.415 546.611 276.415 548.128C276.415 549.644 276.036 550.887 275.277 551.857C274.519 552.807 273.63 553.413 272.612 553.676L277.074 562.803H274.289L270.037 553.828H265.635V562.803H263.239ZM270.007 545.338H265.635V551.584H270.905C271.704 551.584 272.403 551.271 273.001 550.644C273.62 549.997 273.93 549.209 273.93 548.279C273.93 547.349 273.56 546.632 272.822 546.126C272.083 545.601 271.145 545.338 270.007 545.338Z" fill="#0085FF"/>
<path d="M306.547 555.374H302.804L299.839 544.671V562.803H297.534V543.094H301.756L304.751 553.707L307.715 543.094H311.908V562.803H309.602V544.792L306.547 555.374Z" fill="#0085FF"/>
<path d="M317.556 562.803H315.19L321.269 543.094H324.084L330.163 562.803H327.737L326.09 557.284H319.203L317.556 562.803ZM319.891 555.041H325.401L322.646 545.793L319.891 555.041Z" fill="#0085FF"/>
<path d="M346.921 560.559V562.803H334.344V560.559H339.434V545.338H334.344V543.094H346.921V545.338H341.83V560.559H346.921Z" fill="#0085FF"/>
<path d="M365.835 560.559V562.803H353.827V543.094H356.222V560.559H365.835Z" fill="#0085FF"/>
<path d="M225.411 461.617V449.929H233.597V451.259H226.896V455.215H231.332V456.546H226.896V461.617H225.411Z" fill="#0085FF"/>
<path d="M243.52 460.286V461.617H236.077V449.929H237.562V460.286H243.52Z" fill="#0085FF"/>
<path d="M254.056 460.286V461.617H246.26V460.286H249.416V451.259H246.26V449.929H254.056V451.259H250.901V460.286H254.056Z" fill="#0085FF"/>
<path d="M262.086 455.953H265.966V460.844C265.223 461.263 264.518 461.527 263.85 461.635C263.181 461.743 262.532 461.797 261.901 461.797C261.059 461.797 260.311 461.653 259.655 461.365C258.999 461.066 258.448 460.652 258.003 460.125C257.557 459.585 257.217 458.944 256.982 458.2C256.747 457.445 256.629 456.612 256.629 455.701C256.629 454.814 256.747 454.005 256.982 453.273C257.217 452.53 257.557 451.901 258.003 451.385C258.448 450.87 258.993 450.468 259.636 450.18C260.292 449.893 261.028 449.749 261.845 449.749C262.761 449.749 263.546 449.899 264.202 450.198C264.858 450.498 265.427 450.906 265.91 451.421L264.963 452.41C264.617 452.026 264.165 451.715 263.608 451.475C263.052 451.235 262.501 451.115 261.956 451.115C260.731 451.115 259.791 451.541 259.135 452.392C258.491 453.231 258.17 454.334 258.17 455.701C258.17 457.163 258.541 458.32 259.283 459.171C260.038 460.011 261.109 460.43 262.495 460.43C262.804 460.43 263.126 460.418 263.46 460.394C263.806 460.358 264.147 460.268 264.481 460.125V457.283H262.086V455.953Z" fill="#0085FF"/>
<path d="M268.39 461.617V449.929H269.875V454.892H274.961V449.929H276.446V461.617H274.961V456.222H269.875V461.617H268.39Z" fill="#0085FF"/>
<path d="M282.805 461.617V451.259H278.815V449.929H288.281V451.259H284.29V461.617H282.805Z" fill="#0085FF"/>
<path d="M309.687 455.431C309.068 455.431 308.592 455.179 308.258 454.676C307.936 454.16 307.775 453.417 307.775 452.446C307.775 451.475 307.936 450.738 308.258 450.234C308.592 449.731 309.068 449.479 309.687 449.479C310.318 449.479 310.801 449.731 311.135 450.234C311.469 450.738 311.636 451.475 311.636 452.446C311.636 453.417 311.469 454.16 311.135 454.676C310.801 455.179 310.318 455.431 309.687 455.431ZM303.803 461.617L301.687 450.414V461.617H300.425V449.929H302.968L304.991 461.06V449.929H306.253V461.617H303.803ZM309.706 454.298C309.941 454.298 310.114 454.142 310.225 453.831C310.349 453.507 310.411 453.045 310.411 452.446C310.411 451.847 310.349 451.391 310.225 451.079C310.114 450.768 309.941 450.612 309.706 450.612C309.471 450.612 309.285 450.768 309.149 451.079C309.025 451.391 308.963 451.847 308.963 452.446C308.963 453.045 309.025 453.507 309.149 453.831C309.285 454.142 309.471 454.298 309.706 454.298ZM307.887 457.787V456.762H311.525V457.787H307.887Z" fill="#0085FF"/>
<path d="M66.2845 336.523V215.8H20.9346V200.291H128.509V215.8H83.1589V336.523H66.2845Z" fill="#0085FF"/>
<path d="M192.76 336.523V276.79L144.246 200.291H163.23L201.408 261.49L239.165 200.291H258.148L209.634 276.79V336.523H192.76Z" fill="#0085FF"/>
<path d="M327.673 338.618C319.798 338.618 312.556 336.942 305.947 333.588C299.478 330.235 293.924 325.484 289.283 319.336C284.643 313.188 281.057 305.853 278.526 297.33C275.995 288.667 274.729 279.096 274.729 268.616C274.729 258.137 275.995 248.566 278.526 239.903C281.057 231.1 284.643 223.625 289.283 217.477C293.924 211.329 299.478 206.578 305.947 203.225C312.556 199.872 319.798 198.195 327.673 198.195C335.547 198.195 342.719 199.872 349.188 203.225C355.797 206.578 361.421 211.329 366.062 217.477C370.702 223.625 374.288 231.1 376.819 239.903C379.35 248.566 380.616 258.137 380.616 268.616C380.616 279.096 379.35 288.667 376.819 297.33C374.288 305.853 370.702 313.188 366.062 319.336C361.421 325.484 355.797 330.235 349.188 333.588C342.719 336.942 335.547 338.618 327.673 338.618ZM327.673 322.69C338.219 322.69 346.727 317.73 353.195 307.809C359.664 297.749 362.898 284.685 362.898 268.616C362.898 252.408 359.664 239.274 353.195 229.214C346.727 219.154 338.219 214.123 327.673 214.123C317.126 214.123 308.619 219.154 302.15 229.214C295.682 239.274 292.447 252.408 292.447 268.616C292.447 284.685 295.682 297.749 302.15 307.809C308.619 317.73 317.126 322.69 327.673 322.69Z" fill="#0085FF"/>
<path d="M139.727 399.693V370.042H129.332V366.233H153.989V370.042H143.595V399.693H139.727Z" fill="#0085FF"/>
<path d="M170.651 400.208C168.846 400.208 167.186 399.796 165.671 398.972C164.188 398.149 162.915 396.982 161.851 395.472C160.788 393.962 159.966 392.16 159.386 390.067C158.805 387.939 158.515 385.588 158.515 383.014C158.515 380.44 158.805 378.09 159.386 375.962C159.966 373.8 160.788 371.964 161.851 370.454C162.915 368.944 164.188 367.777 165.671 366.953C167.186 366.13 168.846 365.718 170.651 365.718C172.456 365.718 174.099 366.13 175.582 366.953C177.097 367.777 178.386 368.944 179.45 370.454C180.514 371.964 181.336 373.8 181.916 375.962C182.496 378.09 182.786 380.44 182.786 383.014C182.786 385.588 182.496 387.939 181.916 390.067C181.336 392.16 180.514 393.962 179.45 395.472C178.386 396.982 177.097 398.149 175.582 398.972C174.099 399.796 172.456 400.208 170.651 400.208ZM170.651 396.295C173.068 396.295 175.018 395.077 176.501 392.641C177.983 390.17 178.725 386.961 178.725 383.014C178.725 379.033 177.983 375.807 176.501 373.336C175.018 370.866 173.068 369.63 170.651 369.63C168.233 369.63 166.283 370.866 164.801 373.336C163.318 375.807 162.577 379.033 162.577 383.014C162.577 386.961 163.318 390.17 164.801 392.641C166.283 395.077 168.233 396.295 170.651 396.295Z" fill="#0085FF"/>
<path d="M189.633 399.693V366.233H193.5V383.478L207.956 366.233H213.226L200.462 380.955L213.516 399.693H208.44L197.852 383.941L193.5 389.037V399.693H189.633Z" fill="#0085FF"/>
<path d="M226.696 399.693V385.022L215.576 366.233H219.928L228.679 381.264L237.333 366.233H241.684L230.564 385.022V399.693H226.696Z" fill="#0085FF"/>
<path d="M257.62 400.208C255.815 400.208 254.155 399.796 252.64 398.972C251.158 398.149 249.885 396.982 248.821 395.472C247.757 393.962 246.935 392.16 246.355 390.067C245.775 387.939 245.485 385.588 245.485 383.014C245.485 380.44 245.775 378.09 246.355 375.962C246.935 373.8 247.757 371.964 248.821 370.454C249.885 368.944 251.158 367.777 252.64 366.953C254.155 366.13 255.815 365.718 257.62 365.718C259.425 365.718 261.069 366.13 262.552 366.953C264.067 367.777 265.356 368.944 266.42 370.454C267.483 371.964 268.305 373.8 268.885 375.962C269.466 378.09 269.756 380.44 269.756 383.014C269.756 385.588 269.466 387.939 268.885 390.067C268.305 392.16 267.483 393.962 266.42 395.472C265.356 396.982 264.067 398.149 262.552 398.972C261.069 399.796 259.425 400.208 257.62 400.208ZM257.62 396.295C260.038 396.295 261.988 395.077 263.47 392.641C264.953 390.17 265.694 386.961 265.694 383.014C265.694 379.033 264.953 375.807 263.47 373.336C261.988 370.866 260.038 369.63 257.62 369.63C255.203 369.63 253.253 370.866 251.77 373.336C250.288 375.807 249.546 379.033 249.546 383.014C249.546 386.961 250.288 390.17 251.77 392.641C253.253 395.077 255.203 396.295 257.62 396.295Z" fill="#0085FF"/>
<path d="M234.649 503.971C233.067 503.971 231.72 503.541 230.607 502.68C229.494 501.812 228.644 500.556 228.056 498.911C227.468 497.259 227.174 495.264 227.174 492.927C227.174 490.603 227.468 488.619 228.056 486.974C228.651 485.323 229.505 484.063 230.618 483.195C231.738 482.32 233.081 481.883 234.649 481.883C236.217 481.883 237.557 482.32 238.67 483.195C239.79 484.063 240.643 485.323 241.231 486.974C241.826 488.619 242.124 490.603 242.124 492.927C242.124 495.264 241.83 497.259 241.242 498.911C240.654 500.556 239.804 501.812 238.691 502.68C237.578 503.541 236.231 503.971 234.649 503.971ZM234.649 501.661C236.217 501.661 237.435 500.906 238.302 499.394C239.17 497.882 239.604 495.726 239.604 492.927C239.604 491.065 239.405 489.48 239.006 488.171C238.614 486.862 238.047 485.865 237.305 485.179C236.57 484.493 235.685 484.15 234.649 484.15C233.095 484.15 231.881 484.917 231.006 486.45C230.131 487.975 229.694 490.134 229.694 492.927C229.694 494.789 229.89 496.37 230.282 497.672C230.674 498.974 231.237 499.964 231.972 500.643C232.714 501.322 233.606 501.661 234.649 501.661Z" fill="#0085FF"/>
<path d="M253.672 482.177V503.677H251.068V484.906H250.942L245.693 488.392V485.746L251.068 482.177H253.672Z" fill="#0085FF"/>
<path d="M266.868 503.971C265.286 503.971 263.939 503.541 262.826 502.68C261.713 501.812 260.863 500.556 260.275 498.911C259.687 497.259 259.393 495.264 259.393 492.927C259.393 490.603 259.687 488.619 260.275 486.974C260.87 485.323 261.724 484.063 262.837 483.195C263.956 482.32 265.3 481.883 266.868 481.883C268.436 481.883 269.776 482.32 270.889 483.195C272.009 484.063 272.862 485.323 273.45 486.974C274.045 488.619 274.343 490.603 274.343 492.927C274.343 495.264 274.049 497.259 273.461 498.911C272.873 500.556 272.023 501.812 270.91 502.68C269.797 503.541 268.45 503.971 266.868 503.971ZM266.868 501.661C268.436 501.661 269.653 500.906 270.521 499.394C271.389 497.882 271.823 495.726 271.823 492.927C271.823 491.065 271.624 489.48 271.225 488.171C270.833 486.862 270.266 485.865 269.524 485.179C268.789 484.493 267.904 484.15 266.868 484.15C265.314 484.15 264.1 484.917 263.225 486.45C262.35 487.975 261.913 490.134 261.913 492.927C261.913 494.789 262.109 496.37 262.501 497.672C262.893 498.974 263.456 499.964 264.191 500.643C264.933 501.322 265.825 501.661 266.868 501.661Z" fill="#0085FF"/>
<path d="M287.612 491.772V494.082H278.206V491.772H287.612Z" fill="#0085FF"/>
<path d="M290.919 503.677V501.787L298.016 494.019C298.849 493.109 299.535 492.318 300.074 491.646C300.613 490.967 301.011 490.33 301.27 489.735C301.536 489.134 301.669 488.504 301.669 487.846C301.669 487.09 301.487 486.436 301.123 485.883C300.767 485.33 300.277 484.903 299.654 484.602C299.031 484.301 298.331 484.15 297.554 484.15C296.728 484.15 296.007 484.322 295.391 484.665C294.783 485.001 294.31 485.473 293.974 486.082C293.645 486.691 293.481 487.405 293.481 488.224H291.003C291.003 486.964 291.294 485.858 291.875 484.906C292.455 483.954 293.246 483.213 294.247 482.681C295.255 482.149 296.385 481.883 297.638 481.883C298.898 481.883 300.014 482.149 300.987 482.681C301.96 483.213 302.723 483.93 303.276 484.833C303.828 485.736 304.105 486.74 304.105 487.846C304.105 488.637 303.961 489.41 303.675 490.166C303.395 490.915 302.905 491.751 302.205 492.675C301.512 493.592 300.55 494.712 299.318 496.034L294.489 501.199V501.367H304.483V503.677H290.919Z" fill="#0085FF"/>
<path d="M316.083 503.971C314.698 503.971 313.462 503.733 312.378 503.257C311.3 502.781 310.442 502.12 309.805 501.273C309.176 500.419 308.833 499.429 308.777 498.302H311.422C311.478 498.995 311.716 499.593 312.136 500.097C312.556 500.594 313.105 500.979 313.784 501.252C314.463 501.525 315.216 501.661 316.041 501.661C316.965 501.661 317.784 501.5 318.498 501.178C319.212 500.857 319.772 500.409 320.178 499.835C320.584 499.261 320.787 498.596 320.787 497.84C320.787 497.049 320.591 496.353 320.199 495.751C319.807 495.142 319.233 494.666 318.477 494.323C317.721 493.98 316.797 493.809 315.705 493.809H313.984V491.499H315.705C316.559 491.499 317.308 491.345 317.952 491.037C318.603 490.729 319.11 490.295 319.474 489.735C319.845 489.176 320.031 488.518 320.031 487.762C320.031 487.034 319.87 486.401 319.548 485.862C319.226 485.323 318.771 484.903 318.183 484.602C317.602 484.301 316.916 484.15 316.125 484.15C315.383 484.15 314.684 484.287 314.026 484.56C313.375 484.826 312.843 485.214 312.43 485.725C312.017 486.229 311.793 486.838 311.758 487.552H309.239C309.281 486.425 309.62 485.438 310.257 484.591C310.894 483.737 311.727 483.073 312.755 482.597C313.791 482.121 314.929 481.883 316.167 481.883C317.497 481.883 318.638 482.152 319.59 482.691C320.542 483.223 321.273 483.926 321.784 484.801C322.295 485.676 322.55 486.621 322.55 487.636C322.55 488.847 322.232 489.879 321.595 490.733C320.965 491.587 320.108 492.178 319.023 492.507V492.675C320.381 492.899 321.441 493.476 322.204 494.407C322.967 495.331 323.348 496.475 323.348 497.84C323.348 499.009 323.03 500.059 322.393 500.989C321.763 501.913 320.902 502.641 319.81 503.173C318.718 503.705 317.476 503.971 316.083 503.971Z" fill="#0085FF"/>
<circle cx="195.848" cy="47.9163" r="32.0264" fill="white"/>
<circle cx="195.848" cy="47.9164" r="14.7814" fill="#0085FF"/>
<path d="M21.7407 155.505V135.779H31.1617C32.6659 135.779 33.9722 136.226 35.0805 137.121C36.1889 138.015 36.7431 139.225 36.7431 140.75C36.7431 141.802 36.4924 142.709 35.991 143.472C35.516 144.235 34.909 144.827 34.1701 145.247C35.1465 145.563 36.0042 146.089 36.7431 146.825C37.482 147.536 37.8514 148.509 37.8514 149.745C37.8514 151.612 37.2313 153.046 35.991 154.045C34.7507 155.018 33.1805 155.505 31.2805 155.505H21.7407ZM30.5284 138.501H24.9074V144.064H30.4888C31.4124 144.064 32.1381 143.788 32.6659 143.235C33.1937 142.683 33.4576 142.013 33.4576 141.223C33.4576 140.329 33.1805 139.659 32.6263 139.211C32.0722 138.738 31.3728 138.501 30.5284 138.501ZM31.0034 146.747H24.9074V152.783H30.568C31.5444 152.783 32.4548 152.559 33.2993 152.112C34.1437 151.665 34.566 150.863 34.566 149.705C34.566 148.653 34.2097 147.904 33.4972 147.457C32.7847 146.983 31.9534 146.747 31.0034 146.747Z" fill="#0085FF"/>
<path d="M46.7028 155.505H43.5757L50.8195 135.779H54.6988L61.9427 155.505H58.7363L56.8759 150.494H48.4445L46.7028 155.505ZM49.4737 147.575H55.7675L52.5217 138.856L49.4737 147.575Z" fill="#0085FF"/>
<path d="M77.7212 145.445H85.9943V154.084C84.9651 154.61 83.7908 155.044 82.4713 155.386C81.1782 155.728 79.8192 155.899 78.3942 155.899C74.726 155.899 71.9288 154.939 70.0023 153.019C68.0759 151.099 67.1127 148.588 67.1127 145.484C67.1127 142.46 68.0099 140.027 69.8044 138.186C71.6253 136.318 74.185 135.385 77.4837 135.385C78.9879 135.385 80.4525 135.7 81.8776 136.332C83.329 136.963 84.5825 137.883 85.638 139.093L83.0255 141.184C82.2866 140.316 81.4025 139.672 80.3734 139.251C79.3706 138.804 78.4073 138.58 77.4837 138.58C75.1878 138.58 73.4461 139.225 72.2586 140.513C71.0711 141.776 70.4773 143.433 70.4773 145.484C70.4773 147.615 71.1239 149.35 72.417 150.692C73.7364 152.033 75.7288 152.704 78.3942 152.704C78.9219 152.704 79.5949 152.664 80.4129 152.585C81.2574 152.506 82.0623 152.335 82.8276 152.072V148.364H77.7212V145.445Z" fill="#0085FF"/>
<path d="M101.456 145.445H109.729V154.084C108.7 154.61 107.526 155.044 106.206 155.386C104.913 155.728 103.554 155.899 102.129 155.899C98.461 155.899 95.6637 154.939 93.7373 153.019C91.8109 151.099 90.8477 148.588 90.8477 145.484C90.8477 142.46 91.7449 140.027 93.5394 138.186C95.3603 136.318 97.92 135.385 101.219 135.385C102.723 135.385 104.187 135.7 105.613 136.332C107.064 136.963 108.317 137.883 109.373 139.093L106.76 141.184C106.022 140.316 105.138 139.672 104.108 139.251C103.106 138.804 102.142 138.58 101.219 138.58C98.9228 138.58 97.1811 139.225 95.9936 140.513C94.8061 141.776 94.2123 143.433 94.2123 145.484C94.2123 147.615 94.8589 149.35 96.1519 150.692C97.4714 152.033 99.4638 152.704 102.129 152.704C102.657 152.704 103.33 152.664 104.148 152.585C104.992 152.506 105.797 152.335 106.563 152.072V148.364H101.456V145.445Z" fill="#0085FF"/>
<path d="M117.908 155.505H114.781L122.024 135.779H125.904L133.148 155.505H129.941L128.081 150.494H119.649L117.908 155.505ZM120.679 147.575H126.972L123.727 138.856L120.679 147.575Z" fill="#0085FF"/>
<path d="M148.926 145.445H157.199V154.084C156.17 154.61 154.996 155.044 153.676 155.386C152.383 155.728 151.024 155.899 149.599 155.899C145.931 155.899 143.134 154.939 141.207 153.019C139.281 151.099 138.318 148.588 138.318 145.484C138.318 142.46 139.215 140.027 141.009 138.186C142.83 136.318 145.39 135.385 148.689 135.385C150.193 135.385 151.657 135.7 153.082 136.332C154.534 136.963 155.787 137.883 156.843 139.093L154.23 141.184C153.491 140.316 152.607 139.672 151.578 139.251C150.575 138.804 149.612 138.58 148.689 138.58C146.393 138.58 144.651 139.225 143.464 140.513C142.276 141.776 141.682 143.433 141.682 145.484C141.682 147.615 142.329 149.35 143.622 150.692C144.941 152.033 146.934 152.704 149.599 152.704C150.127 152.704 150.8 152.664 151.618 152.585C152.462 152.506 153.267 152.335 154.032 152.072V148.364H148.926V145.445Z" fill="#0085FF"/>
<path d="M180.261 152.585V155.505H165.219V135.779H180.103V138.699L168.386 138.699V144.024H177.253V146.944H168.386V152.585H180.261Z" fill="#0085FF"/>
</svg>
