<svg width="522" height="349" viewBox="0 0 522 349" fill="none" xmlns="http://www.w3.org/2000/svg">
<path d="M120.686 23.8165L491.818 23.8165C492.094 23.8165 492.318 24.0404 492.318 24.3165L492.318 282.441C492.318 282.719 492.092 282.943 491.815 282.941L120.687 280.611C120.598 280.61 120.511 280.586 120.434 280.54L3.48686 210.721C3.33572 210.631 3.24316 210.468 3.24316 210.291L3.24316 92.3877C3.24316 92.2097 3.33779 92.0451 3.49163 91.9556L120.434 23.8844C120.511 23.8399 120.598 23.8165 120.686 23.8165Z" fill="#0085FF" stroke="#0085FF" stroke-width="6" stroke-linejoin="round"/>
<circle cx="56.4884" cy="153.65" r="28.0138" transform="rotate(-90 56.4884 153.65)" fill="white"/>
<circle cx="56.4888" cy="153.651" r="11.6724" transform="rotate(-90 56.4888 153.651)" fill="#0085FF"/>
<path d="M126.102 142.292H349.045" stroke="white" stroke-linejoin="round"/>
<path d="M126.102 184.312H349.045" stroke="white" stroke-linejoin="round"/>
<path d="M88.5867 101.411L88.9546 101.362L89.0139 100.995L91.4355 86.0264L109.326 83.6312L115.6 97.4361L115.753 97.7741L116.121 97.7248L122.681 96.8466L123.355 96.7564L123.068 96.14L99.5809 45.701L99.4257 45.3677L99.0613 45.4165L91.4487 46.4356L91.0843 46.4844L91.0222 46.8468L81.6297 101.688L81.5149 102.358L82.1889 102.268L88.5867 101.411ZM167.628 84.2245L167.561 83.7289L167.066 83.7953L153.794 85.5721L148.484 45.9091L161.756 44.1323L162.251 44.0659L162.185 43.5703L161.383 37.5775L161.316 37.0819L160.821 37.1482L126.807 41.7019L126.312 41.7683L126.378 42.2638L127.18 48.2567L127.247 48.7523L127.742 48.6859L141.014 46.9091L146.324 86.5721L133.052 88.3489L132.557 88.4153L132.623 88.9109L133.425 94.9037L133.492 95.3993L133.987 95.3329L168.001 90.7793L168.496 90.7129L168.43 90.2174L167.628 84.2245ZM183.928 88.1425L183.994 88.6381L184.49 88.5717L190.969 87.7044L191.464 87.638L191.398 87.1425L188.255 63.6666L199.352 62.181L213.889 84.3496L214.061 84.6128L214.373 84.571L221.905 83.5627L222.703 83.4558L222.253 82.7878L207.26 60.5271C209.778 59.3716 211.854 57.4336 213.492 54.7423L213.495 54.7379C215.269 51.7546 215.858 48.1779 215.305 44.0429C214.746 39.8663 212.839 36.6805 209.575 34.5395C206.376 32.3483 202.628 31.5512 198.366 32.1218L177.31 34.9407L176.814 35.0071L176.881 35.5026L183.928 88.1425ZM206.075 51.7697L206.075 51.7699C204.752 53.561 203.092 54.5712 201.078 54.8408L187.32 56.6826L185.219 40.991L196.547 39.4744C199.55 39.0725 202.072 39.4311 204.145 40.5089L204.145 40.509L204.153 40.5131C206.177 41.5188 207.335 43.1555 207.646 45.4804C207.962 47.8398 207.437 49.9261 206.075 51.7697ZM298.955 53.0506L299.326 53.0009L299.383 52.6304L303.333 26.7142L309.31 71.3567L309.376 71.8522L309.872 71.7859L316.107 70.9511L316.603 70.8847L316.537 70.3891L309.489 17.7493L309.423 17.2537L308.927 17.32L297.59 18.8379L297.215 18.8881L297.161 19.2624L293.188 46.9394L281.998 21.2911L281.847 20.9454L281.474 20.9955L270.055 22.5242L269.559 22.5905L269.626 23.0861L276.673 75.726L276.739 76.2216L277.235 76.1552L283.471 75.3204L283.966 75.2541L283.9 74.7585L277.899 29.9321L288.306 54.108L288.456 54.4562L288.832 54.4059L298.955 53.0506ZM331.382 68.9062L331.75 68.8569L331.809 68.4904L334.231 53.5214L352.121 51.1263L358.395 64.9311L358.549 65.2691L358.917 65.2199L365.476 64.3417L366.15 64.2514L365.863 63.635L342.376 13.1961L342.221 12.8628L341.856 12.9115L334.244 13.9307L333.879 13.9795L333.817 14.3419L324.425 69.1827L324.31 69.8529L324.984 69.7627L331.382 68.9062ZM410.423 51.7196L410.356 51.224L409.861 51.2903L396.589 53.0671L391.279 13.4041L404.551 11.6273L405.046 11.561L404.98 11.0654L404.178 5.07253L404.111 4.57695L403.616 4.6433L369.602 9.19696L369.107 9.26331L369.173 9.75888L369.975 15.7517L370.042 16.2473L370.537 16.181L383.809 14.4042L389.119 54.0672L375.847 55.844L375.352 55.9103L375.418 56.4059L376.22 62.3988L376.287 62.8943L376.782 62.828L410.796 58.2743L411.291 58.208L411.225 57.7124L410.423 51.7196ZM461.573 44.8716L461.507 44.3761L461.011 44.4424L435.511 47.8563L429.332 1.70489L429.266 1.20931L428.77 1.27566L422.292 2.14303L421.796 2.20937L421.862 2.70495L428.91 55.3448L428.976 55.8404L429.472 55.7741L461.946 51.4264L462.442 51.3601L462.376 50.8645L461.573 44.8716ZM92.6623 78.7529L96.435 55.3562L106.229 76.9366L92.6623 78.7529ZM335.457 46.248L339.23 22.8512L349.024 44.4317L335.457 46.248Z" stroke="white"/>
<circle cx="428.12" cy="255.2" r="91.8794" stroke="white" stroke-width="3"/>
<circle cx="428.12" cy="255.2" r="78.3725" stroke="white" stroke-width="2"/>
<circle cx="428.12" cy="254.033" r="47.3569" stroke="white"/>
<circle cx="428.12" cy="255.2" r="85.8759" stroke="white" stroke-dasharray="2 4 6 8"/>
<path d="M489.342 255.794L490.039 256.537C489.799 256.778 489.608 257.082 489.468 257.45C489.335 257.818 489.251 258.221 489.216 258.66C489.181 259.092 489.219 259.442 489.332 259.712C489.451 259.99 489.621 260.138 489.84 260.155C489.989 260.168 490.115 260.123 490.218 260.02C490.328 259.927 490.422 259.792 490.499 259.617C490.584 259.45 490.659 259.255 490.725 259.032C490.798 258.809 490.872 258.578 490.947 258.339C491.03 258.093 491.124 257.849 491.231 257.605C491.337 257.369 491.465 257.158 491.614 256.973C491.762 256.795 491.94 256.656 492.145 256.554C492.351 256.452 492.591 256.413 492.865 256.435C493.147 256.458 493.389 256.541 493.591 256.683C493.799 256.834 493.966 257.022 494.09 257.245C494.221 257.476 494.31 257.736 494.358 258.024C494.413 258.321 494.428 258.626 494.402 258.939C494.371 259.324 494.277 259.707 494.119 260.088C493.97 260.471 493.735 260.839 493.414 261.191L492.75 260.475C492.984 260.225 493.155 259.955 493.266 259.664C493.376 259.381 493.444 259.071 493.472 258.734C493.501 258.373 493.462 258.074 493.355 257.836C493.256 257.599 493.093 257.472 492.865 257.453C492.693 257.439 492.547 257.487 492.428 257.595C492.315 257.712 492.216 257.862 492.131 258.045C492.044 258.235 491.964 258.449 491.889 258.688C491.822 258.935 491.746 259.182 491.663 259.427C491.589 259.666 491.499 259.892 491.395 260.104C491.298 260.325 491.18 260.517 491.041 260.679C490.901 260.841 490.733 260.966 490.537 261.053C490.34 261.139 490.113 261.172 489.854 261.151C489.54 261.126 489.276 261.033 489.06 260.873C488.852 260.714 488.683 260.507 488.554 260.252C488.432 260.006 488.352 259.723 488.315 259.404C488.27 259.085 488.261 258.753 488.289 258.408C488.328 257.929 488.429 257.456 488.594 256.988C488.765 256.528 489.015 256.13 489.342 255.794Z" fill="white"/>
<path d="M487.574 266.27L493.297 267.705L492.553 270.669C492.421 271.196 492.143 271.58 491.717 271.822C491.297 272.074 490.831 272.135 490.32 272.007C490.007 271.929 489.742 271.805 489.525 271.637C489.306 271.477 489.133 271.292 489.007 271.082C488.889 270.874 488.812 270.648 488.776 270.403C488.745 270.169 488.76 269.933 488.819 269.696L489.324 267.682L487.344 267.186L487.574 266.27ZM491.758 270.251L492.22 268.408L490.171 267.894L489.712 269.726C489.63 270.054 489.654 270.331 489.783 270.559C489.911 270.793 490.15 270.955 490.501 271.043C490.799 271.117 491.064 271.078 491.297 270.926C491.528 270.781 491.682 270.556 491.758 270.251Z" fill="white"/>
<path d="M483.81 280.677L483.011 280.325L484.819 276.221L490.218 278.6L488.429 282.661L487.63 282.308L489.038 279.112L487.58 278.47L486.515 280.889L485.716 280.536L486.781 278.118L485.237 277.437L483.81 280.677Z" fill="white"/>
<path d="M480.156 289.736L479.328 290.265C478.974 289.787 478.79 289.257 478.778 288.675C478.767 288.103 478.939 287.548 479.293 287.009C479.773 286.279 480.402 285.845 481.18 285.707C481.953 285.575 482.728 285.764 483.504 286.274C484.26 286.771 484.721 287.394 484.888 288.143C485.056 288.903 484.901 289.649 484.421 290.378C484.028 290.977 483.535 291.377 482.94 291.579C482.348 291.793 481.737 291.792 481.108 291.575L481.353 290.621C481.78 290.789 482.2 290.801 482.613 290.659C483.023 290.523 483.359 290.254 483.623 289.853C483.934 289.38 484.025 288.89 483.898 288.382C483.772 287.885 483.453 287.469 482.94 287.132C482.408 286.782 481.879 286.641 481.353 286.71C480.824 286.786 480.403 287.06 480.092 287.534C479.855 287.895 479.739 288.271 479.746 288.662C479.76 289.057 479.896 289.415 480.156 289.736Z" fill="white"/>
<path d="M472.577 297.291L471.938 296.696L475.087 293.309L475.727 293.904L474.473 295.252L477.515 298.08L478.769 296.732L479.408 297.327L476.258 300.714L475.619 300.119L476.872 298.771L473.831 295.943L472.577 297.291Z" fill="white"/>
<path d="M467.714 300.87L468.451 300.3L470.351 306.289L469.437 306.996L464.12 303.649L464.876 303.064L466.231 303.911L468.22 302.374L467.714 300.87ZM468.511 303.252L467.027 304.4L469.387 305.871L468.511 303.252Z" fill="white"/>
<path d="M455.88 309.79L455.47 309.02L459.376 306.94L462.149 312.147L461.316 312.591L458.953 308.154L455.88 309.79Z" fill="white"/>
<path d="M447.367 318.767C446.895 318.893 446.442 318.949 446.007 318.935C445.566 318.93 445.17 318.849 444.818 318.69C444.468 318.539 444.162 318.308 443.9 317.995C443.639 317.69 443.447 317.306 443.323 316.842C443.181 316.31 443.137 315.825 443.191 315.387C443.248 314.957 443.387 314.578 443.608 314.25C443.83 313.922 444.13 313.643 444.508 313.412C444.879 313.182 445.307 313.003 445.793 312.873C446.052 312.804 446.32 312.741 446.598 312.683C446.866 312.619 447.121 312.571 447.365 312.539L448.899 318.285C448.664 318.38 448.414 318.467 448.15 318.546C447.879 318.627 447.618 318.7 447.367 318.767ZM447.07 317.93C447.169 317.904 447.282 317.87 447.409 317.828C447.531 317.795 447.651 317.759 447.771 317.719L446.669 313.592C446.546 313.617 446.422 313.642 446.298 313.666C446.169 313.701 446.051 313.732 445.945 313.761C445.071 313.994 444.53 314.362 444.322 314.866C444.115 315.369 444.093 315.928 444.257 316.544C444.41 317.114 444.726 317.538 445.208 317.817C445.682 318.098 446.302 318.135 447.07 317.93Z" fill="white"/>
<path d="M432.897 316.244L432.817 315.375L437.281 314.961L437.827 320.835L433.409 321.245L433.328 320.376L436.806 320.053L436.659 318.467L434.027 318.711L433.946 317.842L436.578 317.597L436.422 315.917L432.897 316.244Z" fill="white"/>
<path d="M422.249 316.154L422.317 315.283L426.729 315.624L426.274 321.506L425.333 321.434L425.72 316.422L422.249 316.154Z" fill="white"/>
<path d="M412.732 314.476L412.941 313.628L417.432 314.736L417.223 315.584L415.435 315.143L414.441 319.176L416.228 319.617L416.019 320.465L411.528 319.357L411.737 318.509L413.524 318.95L414.519 314.917L412.732 314.476Z" fill="white"/>
<path d="M404.899 310.929L406.326 311.552L405.828 317.771L404.887 317.361L405.311 311.843L401.555 315.908L400.658 315.516L404.899 310.929Z" fill="white"/>
<path d="M393.943 306.012L394.42 305.281L398.177 307.729L394.955 312.672L391.238 310.249L391.715 309.518L394.641 311.425L395.511 310.091L393.296 308.647L393.773 307.916L395.987 309.359L396.909 307.945L393.943 306.012Z" fill="white"/>
<path d="M390.103 302.239L386.101 306.575L383.899 304.542C383.529 304.2 383.321 303.805 383.275 303.356C383.229 302.907 383.374 302.5 383.711 302.136C384.015 301.806 384.355 301.606 384.73 301.536C385.101 301.471 385.465 301.529 385.823 301.709L386.392 298.814L387.242 299.598L386.633 302.345L387.761 303.385L389.409 301.599L390.103 302.239ZM384.612 304.012L386 305.293L387.168 304.027L385.694 302.666C385.532 302.517 385.337 302.444 385.109 302.447C384.87 302.451 384.657 302.555 384.47 302.757C384.294 302.948 384.225 303.156 384.262 303.383C384.293 303.616 384.41 303.825 384.612 304.012Z" fill="white"/>
<path d="M381.815 293.968L379.86 295.49L378.727 299.604L377.987 298.654L378.85 295.634L375.71 295.731L375.014 294.838L379.28 294.746L381.235 293.223L381.815 293.968Z" fill="white"/>
<path d="M372.956 285.631L372.099 286.028L369.769 280.996L370.625 280.599L372.956 285.631Z" fill="white"/>
<path d="M369.685 270.776L369.87 271.689L363.658 270.745L363.429 269.611L368.782 266.323L368.972 267.26L367.614 268.101L368.113 270.564L369.685 270.776ZM367.196 270.437L366.823 268.598L364.46 270.065L367.196 270.437Z" fill="white"/>
<path d="M366.913 256.844L367.786 256.814L367.947 261.436L367.074 261.467L367.01 259.627L362.859 259.771L362.923 261.611L362.05 261.641L361.89 257.018L362.762 256.988L362.826 258.828L366.977 258.684L366.913 256.844Z" fill="white"/>
<path d="M367.785 250.94L361.938 250.147L362.341 247.177C362.409 246.678 362.614 246.281 362.955 245.986C363.297 245.691 363.713 245.577 364.204 245.643C364.649 245.704 365.008 245.868 365.281 246.135C365.547 246.401 365.708 246.733 365.765 247.129L368.464 245.935L368.308 247.081L365.709 248.158L365.503 249.678L367.912 250.005L367.785 250.94ZM363.184 247.458L362.93 249.329L364.638 249.56L364.907 247.573C364.937 247.354 364.885 247.153 364.751 246.968C364.611 246.774 364.404 246.659 364.131 246.622C363.874 246.587 363.663 246.65 363.498 246.81C363.326 246.969 363.221 247.185 363.184 247.458Z" fill="white"/>
<path d="M369.662 234.268L369.143 235.636L365.26 235.425L370.324 237.347L370.023 238.141L364.507 236.048L365.101 234.481L368.901 234.711L365.892 232.396L366.483 230.84L371.999 232.934L371.697 233.728L366.645 231.81L369.662 234.268Z" fill="white"/>
<path d="M374.128 227.945L373.657 228.749L369.657 223.904L370.242 222.906L376.424 224.025L375.941 224.85L374.368 224.571L373.097 226.739L374.128 227.945ZM372.499 226.033L373.447 224.414L370.708 223.931L372.499 226.033Z" fill="white"/>
<path d="M381.491 215.517L382.16 216.079L379.187 219.622L378.518 219.061L379.701 217.651L376.519 214.981L375.336 216.391L374.667 215.829L377.64 212.286L378.309 212.847L377.126 214.257L380.308 216.927L381.491 215.517Z" fill="white"/>
<path d="M388.939 208.141L389.508 208.804L386.15 211.685L382.308 207.207L383.024 206.593L386.297 210.408L388.939 208.141Z" fill="white"/>
<path d="M395.115 201.524L394.681 200.686L399.604 198.133L400.039 198.972L395.115 201.524Z" fill="white"/>
<path d="M409.261 197.709L407.804 191.992L410.766 191.237C411.292 191.103 411.763 191.166 412.178 191.426C412.599 191.676 412.874 192.056 413.004 192.567C413.084 192.879 413.101 193.171 413.057 193.442C413.02 193.711 412.939 193.951 412.814 194.162C412.687 194.364 412.525 194.54 412.327 194.687C412.135 194.826 411.921 194.925 411.684 194.985L409.672 195.498L410.176 197.476L409.261 197.709ZM410.776 192.136L408.935 192.605L409.456 194.652L411.286 194.186C411.613 194.102 411.847 193.949 411.985 193.727C412.131 193.504 412.159 193.216 412.07 192.866C411.994 192.568 411.834 192.353 411.589 192.221C411.352 192.087 411.081 192.058 410.776 192.136Z" fill="white"/>
<path d="M421.26 195.323C420.389 195.393 419.66 195.164 419.073 194.636C418.493 194.107 418.166 193.38 418.091 192.455C418.018 191.553 418.225 190.806 418.714 190.214C419.21 189.613 419.893 189.278 420.763 189.207C421.626 189.137 422.35 189.358 422.936 189.871C423.522 190.376 423.851 191.079 423.924 191.981C424 192.906 423.79 193.677 423.295 194.293C422.801 194.91 422.122 195.253 421.26 195.323ZM421.188 194.441C421.76 194.394 422.21 194.152 422.538 193.715C422.865 193.271 423.002 192.719 422.948 192.06C422.897 191.425 422.675 190.926 422.282 190.563C421.89 190.201 421.407 190.043 420.835 190.089C420.255 190.136 419.8 190.37 419.471 190.792C419.15 191.212 419.015 191.74 419.067 192.375C419.12 193.034 419.341 193.557 419.727 193.944C420.121 194.322 420.608 194.488 421.188 194.441Z" fill="white"/>
<path d="M429.141 193.976L429.89 193.284C430.129 193.527 430.432 193.719 430.798 193.863C431.165 193.998 431.568 194.085 432.007 194.124C432.438 194.162 432.789 194.127 433.059 194.016C433.338 193.899 433.487 193.731 433.507 193.511C433.52 193.362 433.476 193.236 433.375 193.132C433.282 193.021 433.148 192.926 432.973 192.848C432.807 192.762 432.613 192.685 432.39 192.618C432.167 192.543 431.937 192.467 431.699 192.391C431.454 192.306 431.21 192.209 430.967 192.101C430.731 191.993 430.522 191.864 430.338 191.713C430.162 191.563 430.023 191.385 429.923 191.179C429.823 190.972 429.785 190.732 429.81 190.458C429.835 190.176 429.919 189.934 430.064 189.734C430.216 189.526 430.405 189.361 430.629 189.239C430.861 189.11 431.122 189.022 431.41 188.977C431.707 188.924 432.012 188.912 432.326 188.94C432.71 188.974 433.092 189.071 433.473 189.232C433.854 189.384 434.22 189.622 434.57 189.945L433.848 190.604C433.601 190.368 433.332 190.194 433.042 190.082C432.759 189.97 432.45 189.899 432.113 189.869C431.752 189.837 431.453 189.873 431.215 189.978C430.977 190.076 430.848 190.238 430.828 190.465C430.812 190.638 430.859 190.784 430.966 190.904C431.083 191.017 431.232 191.117 431.414 191.205C431.603 191.292 431.817 191.375 432.055 191.451C432.302 191.52 432.548 191.598 432.793 191.683C433.031 191.759 433.256 191.85 433.467 191.956C433.688 192.054 433.878 192.174 434.04 192.315C434.201 192.455 434.324 192.624 434.409 192.821C434.494 193.019 434.525 193.246 434.502 193.505C434.475 193.818 434.38 194.082 434.219 194.297C434.058 194.504 433.85 194.671 433.594 194.798C433.346 194.918 433.063 194.996 432.744 195.031C432.424 195.073 432.092 195.079 431.747 195.049C431.269 195.006 430.797 194.901 430.33 194.733C429.871 194.558 429.475 194.306 429.141 193.976Z" fill="white"/>
<path d="M440.901 196.153L442.161 191.287L439.522 190.604L439.741 189.759L445.932 191.361L445.714 192.206L443.075 191.523L441.815 196.39L440.901 196.153Z" fill="white"/>
<path d="M454.529 201.019C453.757 200.612 453.265 200.027 453.053 199.266C452.848 198.509 452.962 197.719 453.395 196.898C453.818 196.098 454.394 195.58 455.124 195.342C455.865 195.102 456.621 195.185 457.393 195.593C458.159 195.997 458.651 196.572 458.87 197.32C459.093 198.06 458.994 198.83 458.571 199.63C458.138 200.451 457.547 200.989 456.799 201.243C456.051 201.498 455.295 201.423 454.529 201.019ZM454.942 200.237C455.45 200.505 455.96 200.542 456.471 200.349C456.985 200.15 457.397 199.757 457.705 199.173C458.003 198.61 458.083 198.069 457.947 197.553C457.81 197.036 457.488 196.643 456.98 196.375C456.465 196.104 455.956 196.057 455.453 196.236C454.956 196.419 454.559 196.792 454.261 197.356C453.953 197.94 453.858 198.499 453.976 199.033C454.106 199.564 454.428 199.965 454.942 200.237Z" fill="white"/>
<path d="M461.655 204.879L465.23 200.185L469.107 203.138L468.578 203.832L465.452 201.452L464.415 202.813L466.396 204.321L465.867 205.016L463.886 203.508L462.406 205.451L461.655 204.879Z" fill="white"/>
<path d="M469.666 211.279L473.972 207.245L477.304 210.802L476.667 211.399L473.98 208.531L472.732 209.701L474.434 211.518L473.796 212.115L472.094 210.298L470.312 211.968L469.666 211.279Z" fill="white"/>
<path d="M479.299 221.589L478.573 222.074L476.004 218.227L476.73 217.742L477.753 219.273L481.207 216.967L480.185 215.436L480.911 214.951L483.48 218.798L482.753 219.283L481.731 217.752L478.277 220.058L479.299 221.589Z" fill="white"/>
<path d="M485.295 230.049L485.294 231.031C484.7 231.071 484.155 230.939 483.658 230.635C483.171 230.335 482.797 229.891 482.535 229.301C482.18 228.504 482.154 227.74 482.458 227.011C482.765 226.288 483.343 225.739 484.191 225.361C485.017 224.993 485.791 224.942 486.511 225.206C487.242 225.475 487.785 226.008 488.14 226.806C488.431 227.46 488.502 228.092 488.351 228.701C488.211 229.315 487.88 229.828 487.358 230.242L486.687 229.519C487.059 229.251 487.296 228.904 487.4 228.479C487.506 228.061 487.462 227.633 487.267 227.195C487.037 226.677 486.674 226.335 486.177 226.169C485.692 226.006 485.169 226.049 484.608 226.299C484.026 226.558 483.622 226.927 483.396 227.407C483.174 227.893 483.177 228.395 483.408 228.913C483.584 229.308 483.838 229.608 484.17 229.813C484.51 230.015 484.885 230.094 485.295 230.049Z" fill="white"/>
<path d="M487.589 240.583L486.744 240.802L485.621 236.461L491.332 234.982L492.444 239.278L491.599 239.496L490.724 236.115L489.181 236.514L489.844 239.073L488.998 239.292L488.336 236.733L486.703 237.156L487.589 240.583Z" fill="white"/>
<path d="M490.836 249.796L491.78 249.774L491.878 254.021L490.934 254.043L490.836 249.796Z" fill="white"/>
<path d="M461.948 244.31L442.446 254.247C442.134 254.406 441.928 254.716 441.902 255.064L439.576 286.45C438.893 291.874 433.479 294.539 433.175 289.712L431.626 261.337C431.587 260.615 430.818 260.172 430.174 260.5L410.804 270.37C410.512 270.519 410.311 270.801 410.267 271.126L409.06 279.968C408.304 283.428 402.051 283.027 402.587 278.143L403.073 271.503C403.086 271.321 403.049 271.139 402.966 270.976L400.919 266.958C400.849 266.821 400.75 266.703 400.627 266.611L394.297 261.873C391.646 259.637 394.018 256.38 397.868 258.004L405.143 261.072C405.414 261.186 405.723 261.175 405.985 261.041L425.027 251.339C425.666 251.013 425.765 250.141 425.215 249.681L403.538 231.547C400.386 228.934 406.199 226.766 409.139 228.693L436.705 244.871C436.999 245.043 437.361 245.054 437.665 244.899L457.181 234.955C462.382 232.305 467.549 241.456 461.948 244.31Z" fill="white"/>
<path d="M128.758 139.616V129.216H135.814V130.4H130.038V133.92H133.862V135.104H130.038V139.616H128.758ZM137.52 139.616V129.216H141.68C142.501 129.216 143.184 129.461 143.728 129.952C144.282 130.432 144.56 131.072 144.56 131.872C144.56 132.672 144.357 133.328 143.952 133.84C143.546 134.341 143.072 134.661 142.528 134.8L144.912 139.616H143.424L141.152 134.88H138.8V139.616H137.52ZM141.136 130.4H138.8V133.696H141.616C142.042 133.696 142.416 133.53 142.736 133.2C143.066 132.858 143.232 132.442 143.232 131.952C143.232 131.461 143.034 131.082 142.64 130.816C142.245 130.538 141.744 130.4 141.136 130.4ZM150.09 139.776C149.492 139.776 148.943 139.648 148.442 139.392C147.951 139.136 147.53 138.773 147.178 138.304C146.826 137.834 146.554 137.274 146.362 136.624C146.17 135.962 146.074 135.232 146.074 134.432C146.074 133.632 146.17 132.901 146.362 132.24C146.554 131.568 146.826 130.997 147.178 130.528C147.53 130.058 147.951 129.696 148.442 129.44C148.943 129.184 149.492 129.056 150.09 129.056C150.687 129.056 151.231 129.184 151.722 129.44C152.223 129.696 152.65 130.058 153.002 130.528C153.354 130.997 153.626 131.568 153.818 132.24C154.01 132.901 154.106 133.632 154.106 134.432C154.106 135.232 154.01 135.962 153.818 136.624C153.626 137.274 153.354 137.834 153.002 138.304C152.65 138.773 152.223 139.136 151.722 139.392C151.231 139.648 150.687 139.776 150.09 139.776ZM150.09 138.56C150.89 138.56 151.535 138.181 152.026 137.424C152.516 136.656 152.762 135.658 152.762 134.432C152.762 133.194 152.516 132.192 152.026 131.424C151.535 130.656 150.89 130.272 150.09 130.272C149.29 130.272 148.644 130.656 148.154 131.424C147.663 132.192 147.418 133.194 147.418 134.432C147.418 135.658 147.663 136.656 148.154 137.424C148.644 138.181 149.29 138.56 150.09 138.56ZM160.659 135.696H158.659L157.075 130.048V139.616H155.843V129.216H158.099L159.699 134.816L161.283 129.216H163.523V139.616H162.291V130.112L160.659 135.696ZM169.277 134.816C168.893 134.816 168.562 134.682 168.285 134.416C168.018 134.138 167.885 133.808 167.885 133.424C167.885 133.04 168.018 132.714 168.285 132.448C168.562 132.17 168.893 132.032 169.277 132.032C169.661 132.032 169.986 132.17 170.253 132.448C170.53 132.714 170.669 133.04 170.669 133.424C170.669 133.808 170.53 134.138 170.253 134.416C169.986 134.682 169.661 134.816 169.277 134.816ZM169.277 139.136C168.893 139.136 168.562 139.002 168.285 138.736C168.018 138.458 167.885 138.128 167.885 137.744C167.885 137.36 168.018 137.034 168.285 136.768C168.562 136.49 168.893 136.352 169.277 136.352C169.661 136.352 169.986 136.49 170.253 136.768C170.53 137.034 170.669 137.36 170.669 137.744C170.669 138.128 170.53 138.458 170.253 138.736C169.986 139.002 169.661 139.136 169.277 139.136ZM189.153 134.576H192.497V138.928C191.857 139.301 191.249 139.536 190.673 139.632C190.097 139.728 189.537 139.776 188.993 139.776C188.267 139.776 187.622 139.648 187.057 139.392C186.491 139.125 186.017 138.757 185.633 138.288C185.249 137.808 184.955 137.237 184.753 136.576C184.55 135.904 184.449 135.162 184.449 134.352C184.449 133.562 184.55 132.842 184.753 132.192C184.955 131.53 185.249 130.97 185.633 130.512C186.017 130.053 186.486 129.696 187.041 129.44C187.606 129.184 188.241 129.056 188.945 129.056C189.734 129.056 190.411 129.189 190.977 129.456C191.542 129.722 192.033 130.085 192.449 130.544L191.633 131.424C191.334 131.082 190.945 130.805 190.465 130.592C189.985 130.378 189.51 130.272 189.041 130.272C187.985 130.272 187.174 130.65 186.609 131.408C186.054 132.154 185.777 133.136 185.777 134.352C185.777 135.653 186.097 136.682 186.737 137.44C187.387 138.186 188.31 138.56 189.505 138.56C189.771 138.56 190.049 138.549 190.337 138.528C190.635 138.496 190.929 138.416 191.217 138.288V135.76H189.153V134.576ZM195.114 139.616V131.616H199.178C199.861 131.616 200.432 131.818 200.89 132.224C201.349 132.629 201.578 133.168 201.578 133.84C201.578 134.448 201.424 134.96 201.114 135.376C200.805 135.781 200.389 136.058 199.866 136.208L201.962 139.616H200.394L198.474 136.32H196.394V139.616H195.114ZM198.954 132.8H196.394V135.136H199.114C199.413 135.136 199.674 135.029 199.898 134.816C200.133 134.592 200.25 134.293 200.25 133.92C200.25 133.568 200.128 133.296 199.882 133.104C199.637 132.901 199.328 132.8 198.954 132.8ZM205.204 139.616H203.94L206.868 131.616H208.436L211.364 139.616H210.068L209.316 137.584H205.908L205.204 139.616ZM206.324 136.4H208.868L207.556 132.864L206.324 136.4ZM220.702 138.432V139.616H213.662V138.432L218.958 132.8H214.142V131.616H220.606V132.8L215.358 138.432H220.702Z" fill="white"/>
<path d="M130.262 179.302V170.086H126.822V168.902H134.982V170.086H131.542V179.302H130.262ZM140.496 179.462C139.898 179.462 139.349 179.334 138.848 179.078C138.357 178.822 137.936 178.46 137.584 177.99C137.232 177.521 136.96 176.961 136.768 176.31C136.576 175.649 136.48 174.918 136.48 174.118C136.48 173.318 136.576 172.588 136.768 171.926C136.96 171.254 137.232 170.684 137.584 170.214C137.936 169.745 138.357 169.382 138.848 169.126C139.349 168.87 139.898 168.742 140.496 168.742C141.093 168.742 141.637 168.87 142.128 169.126C142.629 169.382 143.056 169.745 143.408 170.214C143.76 170.684 144.032 171.254 144.224 171.926C144.416 172.588 144.512 173.318 144.512 174.118C144.512 174.918 144.416 175.649 144.224 176.31C144.032 176.961 143.76 177.521 143.408 177.99C143.056 178.46 142.629 178.822 142.128 179.078C141.637 179.334 141.093 179.462 140.496 179.462ZM140.496 178.246C141.296 178.246 141.941 177.868 142.432 177.11C142.922 176.342 143.168 175.345 143.168 174.118C143.168 172.881 142.922 171.878 142.432 171.11C141.941 170.342 141.296 169.958 140.496 169.958C139.696 169.958 139.05 170.342 138.56 171.11C138.069 171.878 137.824 172.881 137.824 174.118C137.824 175.345 138.069 176.342 138.56 177.11C139.05 177.868 139.696 178.246 140.496 178.246ZM150.09 174.502C149.706 174.502 149.375 174.369 149.098 174.102C148.831 173.825 148.698 173.494 148.698 173.11C148.698 172.726 148.831 172.401 149.098 172.134C149.375 171.857 149.706 171.718 150.09 171.718C150.474 171.718 150.799 171.857 151.066 172.134C151.343 172.401 151.482 172.726 151.482 173.11C151.482 173.494 151.343 173.825 151.066 174.102C150.799 174.369 150.474 174.502 150.09 174.502ZM150.09 178.822C149.706 178.822 149.375 178.689 149.098 178.422C148.831 178.145 148.698 177.814 148.698 177.43C148.698 177.046 148.831 176.721 149.098 176.454C149.375 176.177 149.706 176.038 150.09 176.038C150.474 176.038 150.799 176.177 151.066 176.454C151.343 176.721 151.482 177.046 151.482 177.43C151.482 177.814 151.343 178.145 151.066 178.422C150.799 178.689 150.474 178.822 150.09 178.822ZM173.149 178.118V179.302H166.733V168.902H168.013V178.118H173.149ZM178.871 179.462C177.687 179.462 176.727 179.073 175.991 178.294C175.265 177.516 174.903 176.497 174.903 175.238C174.903 174.012 175.265 173.025 175.991 172.278C176.727 171.521 177.687 171.142 178.871 171.142C180.044 171.142 180.999 171.521 181.735 172.278C182.471 173.025 182.839 174.012 182.839 175.238C182.839 176.497 182.471 177.516 181.735 178.294C180.999 179.073 180.044 179.462 178.871 179.462ZM178.871 178.262C179.649 178.262 180.284 177.985 180.775 177.43C181.265 176.865 181.511 176.134 181.511 175.238C181.511 174.374 181.265 173.676 180.775 173.142C180.284 172.609 179.649 172.342 178.871 172.342C178.081 172.342 177.441 172.609 176.951 173.142C176.471 173.676 176.231 174.374 176.231 175.238C176.231 176.134 176.471 176.865 176.951 177.43C177.441 177.985 178.081 178.262 178.871 178.262ZM189.633 179.302L186.433 171.958V179.302H185.217V171.302H187.505L190.497 178.118V171.302H191.713V179.302H189.633ZM197.306 171.142C197.968 171.142 198.581 171.228 199.146 171.398C199.722 171.558 200.213 171.804 200.618 172.134C201.024 172.454 201.344 172.865 201.578 173.366C201.813 173.857 201.93 174.428 201.93 175.078C201.93 175.825 201.818 176.476 201.594 177.03C201.37 177.574 201.056 178.022 200.65 178.374C200.245 178.726 199.754 178.988 199.178 179.158C198.613 179.329 197.989 179.414 197.306 179.414C196.944 179.414 196.57 179.404 196.186 179.382C195.813 179.372 195.461 179.345 195.13 179.302V171.238C195.472 171.196 195.829 171.169 196.202 171.158C196.586 171.148 196.954 171.142 197.306 171.142ZM197.402 172.342C197.264 172.342 197.104 172.348 196.922 172.358C196.752 172.358 196.581 172.364 196.41 172.374V178.166C196.581 178.177 196.752 178.188 196.922 178.198C197.104 178.198 197.269 178.198 197.418 178.198C198.645 178.198 199.482 177.905 199.93 177.318C200.378 176.732 200.602 176.006 200.602 175.142C200.602 174.342 200.336 173.676 199.802 173.142C199.28 172.609 198.48 172.342 197.402 172.342ZM207.652 179.462C206.468 179.462 205.508 179.073 204.772 178.294C204.047 177.516 203.684 176.497 203.684 175.238C203.684 174.012 204.047 173.025 204.772 172.278C205.508 171.521 206.468 171.142 207.652 171.142C208.825 171.142 209.78 171.521 210.516 172.278C211.252 173.025 211.62 174.012 211.62 175.238C211.62 176.497 211.252 177.516 210.516 178.294C209.78 179.073 208.825 179.462 207.652 179.462ZM207.652 178.262C208.431 178.262 209.065 177.985 209.556 177.43C210.047 176.865 210.292 176.134 210.292 175.238C210.292 174.374 210.047 173.676 209.556 173.142C209.065 172.609 208.431 172.342 207.652 172.342C206.863 172.342 206.223 172.609 205.732 173.142C205.252 173.676 205.012 174.374 205.012 175.238C205.012 176.134 205.252 176.865 205.732 177.43C206.223 177.985 206.863 178.262 207.652 178.262ZM218.414 179.302L215.214 171.958V179.302H213.998V171.302H216.286L219.278 178.118V171.302H220.494V179.302H218.414Z" fill="white"/>
</svg>
