<svg width="141" height="142" viewBox="0 0 141 142" fill="none" xmlns="http://www.w3.org/2000/svg">
<path d="M120.505 2.41224L29.2753 93.5574C28.0151 94.8164 25.8618 93.9239 25.8618 92.1425V42.5161C25.8618 41.4116 24.9664 40.5161 23.8618 40.5161H3C1.89543 40.5161 1 41.4116 1 42.5161V139C1 140.105 1.89543 141 3 141H96.187C97.2916 141 98.187 140.105 98.187 139V117.032C98.187 115.928 97.2916 115.032 96.187 115.032H48.7747C46.9924 115.032 46.1003 112.877 47.3611 111.617L138.584 20.4794C139.366 19.6982 139.366 18.4308 138.584 17.6496L123.332 2.41224C122.551 1.63207 121.286 1.63207 120.505 2.41224Z" stroke="white" stroke-width="2"/>
</svg>
