<svg width="141" height="142" viewBox="0 0 141 142" fill="none" xmlns="http://www.w3.org/2000/svg">
<path d="M20.4949 2.41224L111.725 93.5574C112.985 94.8164 115.138 93.9239 115.138 92.1425V42.5161C115.138 41.4116 116.034 40.5161 117.138 40.5161H138C139.105 40.5161 140 41.4116 140 42.5161V139C140 140.105 139.105 141 138 141H44.813C43.7084 141 42.813 140.105 42.813 139V117.032C42.813 115.928 43.7084 115.032 44.813 115.032H92.2253C94.0076 115.032 94.8997 112.877 93.6389 111.617L2.41618 20.4794C1.63426 19.6982 1.63426 18.4308 2.41618 17.6496L17.6677 2.41224C18.4486 1.63207 19.714 1.63207 20.4949 2.41224Z" stroke="white" stroke-width="2"/>
</svg>
